ISO-10303-21;
HEADER;
FILE_DESCRIPTION(('ViewDefinition [SchedulingView]'),'2;1');
FILE_NAME('House extension.ifc','2026-10-03T16:19:12',('Open Planner Studio'),('OpenAEC Foundation'),'Open Planner Studio 0.1','Open Planner Studio','');
FILE_SCHEMA(('IFC4X3'));
ENDSEC;
DATA;
#1=IFCPERSON($,$,$,$,$,$,$,$);
#2=IFCORGANIZATION($,$,$,$,$);
#3=IFCPERSONANDORGANIZATION(#1,#2,$);
#4=IFCORGANIZATION($,'OpenAEC Foundation',$,$,$);
#5=IFCAPPLICATION(#4,'0.2','Open Planner Studio','OPS');
#6=IFCOWNERHISTORY(#3,#5,$,.NOCHANGE.,$,$,$,1791044352);
#7=IFCSIUNIT(*,.LENGTHUNIT.,$,.METRE.);
#8=IFCSIUNIT(*,.TIMEUNIT.,$,.SECOND.);
#9=IFCUNITASSIGNMENT((#7,#8));
#10=IFCCARTESIANPOINT((0.,0.,0.));
#11=IFCAXIS2PLACEMENT3D(#10,$,$);
#12=IFCGEOMETRICREPRESENTATIONCONTEXT($,'Plan',3,1.0E-05,#11,$);
#13=IFCPROJECT('1enMhY8iAaf2Gby0b7WZ6z',#6,'House extension','A 4 by 5 metre extension at the rear of a family home \X2\2014\X0\ the practice project for the tutorials.',$,$,$,(#12),#9);
#14=IFCTIMEPERIOD('07:00:00','12:00:00');
#15=IFCTIMEPERIOD('13:00:00','16:00:00');
#16=IFCRECURRENCEPATTERN(.WEEKLY.,$,(1,2,3,4,5),$,$,$,$,(#14,#15));
#17=IFCWORKTIME('Standard work week',.PREDICTED.,$,#16,$,$);
#18=IFCWORKTIME('Nieuwjaar',.PREDICTED.,$,$,'2026-01-01','2026-01-01');
#19=IFCWORKTIME('Goede Vrijdag',.PREDICTED.,$,$,'2026-04-03','2026-04-03');
#20=IFCWORKTIME('Pasen',.PREDICTED.,$,$,'2026-04-05','2026-04-06');
#21=IFCWORKTIME('Koningsdag',.PREDICTED.,$,$,'2026-04-27','2026-04-27');
#22=IFCWORKTIME('Hemelvaart',.PREDICTED.,$,$,'2026-05-14','2026-05-14');
#23=IFCWORKTIME('Pinksteren',.PREDICTED.,$,$,'2026-05-24','2026-05-25');
#24=IFCWORKTIME('Bouwvak (Midden)',.PREDICTED.,$,$,'2026-08-03','2026-08-21');
#25=IFCWORKTIME('Kerst',.PREDICTED.,$,$,'2026-12-25','2026-12-26');
#26=IFCWORKTIME('Nieuwjaar',.PREDICTED.,$,$,'2027-01-01','2027-01-01');
#27=IFCWORKTIME('Goede Vrijdag',.PREDICTED.,$,$,'2027-03-26','2027-03-26');
#28=IFCWORKTIME('Pasen',.PREDICTED.,$,$,'2027-03-28','2027-03-29');
#29=IFCWORKTIME('Koningsdag',.PREDICTED.,$,$,'2027-04-27','2027-04-27');
#30=IFCWORKTIME('Hemelvaart',.PREDICTED.,$,$,'2027-05-06','2027-05-06');
#31=IFCWORKTIME('Pinksteren',.PREDICTED.,$,$,'2027-05-16','2027-05-17');
#32=IFCWORKTIME('Bouwvak (Midden)',.PREDICTED.,$,$,'2027-08-02','2027-08-20');
#33=IFCWORKTIME('Kerst',.PREDICTED.,$,$,'2027-12-25','2027-12-26');
#34=IFCWORKTIME('Nieuwjaar',.PREDICTED.,$,$,'2028-01-01','2028-01-01');
#35=IFCWORKTIME('Goede Vrijdag',.PREDICTED.,$,$,'2028-04-14','2028-04-14');
#36=IFCWORKTIME('Pasen',.PREDICTED.,$,$,'2028-04-16','2028-04-17');
#37=IFCWORKTIME('Koningsdag',.PREDICTED.,$,$,'2028-04-27','2028-04-27');
#38=IFCWORKTIME('Hemelvaart',.PREDICTED.,$,$,'2028-05-25','2028-05-25');
#39=IFCWORKTIME('Pinksteren',.PREDICTED.,$,$,'2028-06-04','2028-06-05');
#40=IFCWORKTIME('Bouwvak (Midden)',.PREDICTED.,$,$,'2028-07-24','2028-08-11');
#41=IFCWORKTIME('Kerst',.PREDICTED.,$,$,'2028-12-25','2028-12-26');
#42=IFCWORKTIME('Nieuwjaar',.PREDICTED.,$,$,'2029-01-01','2029-01-01');
#43=IFCWORKTIME('Goede Vrijdag',.PREDICTED.,$,$,'2029-03-30','2029-03-30');
#44=IFCWORKTIME('Pasen',.PREDICTED.,$,$,'2029-04-01','2029-04-02');
#45=IFCWORKTIME('Koningsdag',.PREDICTED.,$,$,'2029-04-27','2029-04-27');
#46=IFCWORKTIME('Hemelvaart',.PREDICTED.,$,$,'2029-05-10','2029-05-10');
#47=IFCWORKTIME('Pinksteren',.PREDICTED.,$,$,'2029-05-20','2029-05-21');
#48=IFCWORKTIME('Bouwvak (Midden)',.PREDICTED.,$,$,'2029-07-30','2029-08-17');
#49=IFCWORKTIME('Kerst',.PREDICTED.,$,$,'2029-12-25','2029-12-26');
#50=IFCWORKTIME('Nieuwjaar',.PREDICTED.,$,$,'2030-01-01','2030-01-01');
#51=IFCWORKTIME('Goede Vrijdag',.PREDICTED.,$,$,'2030-04-19','2030-04-19');
#52=IFCWORKTIME('Pasen',.PREDICTED.,$,$,'2030-04-21','2030-04-22');
#53=IFCWORKTIME('Koningsdag',.PREDICTED.,$,$,'2030-04-27','2030-04-27');
#54=IFCWORKTIME('Bevrijdingsdag',.PREDICTED.,$,$,'2030-05-05','2030-05-05');
#55=IFCWORKTIME('Hemelvaart',.PREDICTED.,$,$,'2030-05-30','2030-05-30');
#56=IFCWORKTIME('Pinksteren',.PREDICTED.,$,$,'2030-06-09','2030-06-10');
#57=IFCWORKTIME('Bouwvak (Midden)',.PREDICTED.,$,$,'2030-07-29','2030-08-16');
#58=IFCWORKTIME('Kerst',.PREDICTED.,$,$,'2030-12-25','2030-12-26');
#59=IFCWORKCALENDAR('2l7QLTxRXkNTHkjQluWYcQ',#6,'Construction calendar NL','Standaard bouwkalender: ma-vr 07:00-16:00',$,(#17),(#18,#19,#20,#21,#22,#23,#24,#25,#26,#27,#28,#29,#30,#31,#32,#33,#34,#35,#36,#37,#38,#39,#40,#41,#42,#43,#44,#45,#46,#47,#48,#49,#50,#51,#52,#53,#54,#55,#56,#57,#58),.FIRSTSHIFT.);
#60=IFCPROPERTYSINGLEVALUE('RuleSetId',$,IFCLABEL('NL'),$);
#61=IFCPROPERTYSINGLEVALUE('BreakChoice',$,IFCLABEL('midden'),$);
#62=IFCPROPERTYSINGLEVALUE('GeneratedFromYear',$,IFCINTEGER(2026),$);
#63=IFCPROPERTYSINGLEVALUE('GeneratedToYear',$,IFCINTEGER(2030),$);
#64=IFCPROPERTYSINGLEVALUE('HoursPerDay',$,IFCREAL(8),$);
#65=IFCPROPERTYSINGLEVALUE('WorkEndHour',$,IFCREAL(16),$);
#66=IFCPROPERTYSINGLEVALUE('IsHourCalendar',$,IFCBOOLEAN(.F.),$);
#67=IFCPROPERTYSET('0$oPplkMChyQk7kj4kwUkO',#6,'OPS_Calendar',$,(#60,#61,#62,#63,#64,#65,#66));
#68=IFCRELDEFINESBYPROPERTIES('0FBVW9IL9VctjEHhT2S3U7',#6,$,$,(#59),#67);
#69=IFCWORKPLAN('2lwFDSIAPVhSEZUm1CHGH9',#6,'House extension','A 4 by 5 metre extension at the rear of a family home \X2\2014\X0\ the practice project for the tutorials.',$,$,'2026-10-03T16:19:12',$,$,$,$,$,'2027-06-07T07:00:00','2027-06-14T07:00:00',.PLANNED.);
#70=IFCWORKSCHEDULE('3EEREuWUmsCg6gh4dg84QR',#6,'Construction schedule v1.0',$,$,$,'2026-10-03T16:19:12',$,$,$,$,$,'2027-06-07T07:00:00','2027-06-14T07:00:00',.PLANNED.);
#71=IFCWORKSCHEDULE('18W157CxkO1$gM_FC883C$',#6,'Baseline',$,$,$,'2026-10-03T16:19:12.401Z',$,$,$,$,$,$,'2027-08-30T07:00:00',.BASELINE.);
#72=IFCRELAGGREGATES('17HQfRv7BYhK5a_hYH8Awh',#6,$,$,#69,(#70,#71));
#73=IFCTASKTIME('Preparation Time',.PREDICTED.,$,.WORKTIME.,'P0Y0M4D','2027-06-07T07:00:00','2027-06-11T07:00:00','2027-06-07T07:00:00','2027-06-10T07:00:00','2027-06-08T07:00:00','2027-06-11T07:00:00','P0Y0M0D','P0Y0M1D',.F.,'2027-06-28T07:00:00',$,'2027-06-07T07:00:00','2027-06-10T07:00:00',$,1.00);
#74=IFCTASK('087CRUbbh3zrTirWGkLL8Y',#6,'Preparation',$,$,'1',$,$,$,.F.,$,#73,.CONSTRUCTION.);
#75=IFCTASKTIME('Foundations Time',.PREDICTED.,$,.WORKTIME.,'P0Y0M13D','2027-06-07T07:00:00','2027-06-11T07:00:00','2027-06-11T07:00:00','2027-06-29T12:00','2027-06-14T07:00:00','2027-06-29T16:00','P0Y0M0D','P0Y0M0D',.T.,'2027-06-28T07:00:00',$,'2027-06-11T07:00:00',$,$,0.81);
#76=IFCTASK('3HcxwneAAAF5$JHpUebRPv',#6,'Foundations',$,$,'2',$,$,$,.F.,$,#75,.CONSTRUCTION.);
#77=IFCTASKTIME('Shell Time',.PREDICTED.,$,.WORKTIME.,'P0Y0M15D','2027-06-07T07:00:00','2027-06-11T07:00:00','2027-06-30T07:00:00','2027-07-20T07:00:00','2027-07-05T07:00:00','2027-07-20T07:00:00','P0Y0M0D','P0Y0M0D',.T.,$,$,$,$,$,0.00);
#78=IFCTASK('1FjHtdp8MQPaKE26kUcJn7',#6,'Shell',$,$,'3',$,$,$,.F.,$,#77,.CONSTRUCTION.);
#79=IFCTASKTIME('Finishing Time',.PREDICTED.,$,.WORKTIME.,'P0Y0M15D','2027-06-07T07:00:00','2027-06-11T07:00:00','2027-07-21T07:00:00','2027-08-31T07:00:00','2027-07-21T07:00:00','2027-08-31T07:00:00','P0Y0M0D','P0Y0M0D',.T.,$,$,$,$,$,0.00);
#80=IFCTASK('12LaYpgzHtHMu8CmjOoCGD',#6,'Finishing',$,$,'4',$,$,$,.F.,$,#79,.CONSTRUCTION.);
#81=IFCTASKTIME('Start of construction Time',.PREDICTED.,$,.WORKTIME.,'P0Y0M0D','2027-06-07T07:00:00','2027-06-07T07:00:00','2027-06-07T07:00:00','2027-06-07T07:00:00','2027-06-08T07:00:00','2027-06-08T07:00:00','P0Y0M0D','P0Y0M1D',.F.,'2027-06-28T07:00:00',$,'2027-06-07T07:00:00','2027-06-07T07:00:00','P0Y0M0D',1.00);
#82=IFCTASK('1eO8VNaGQWNr6sMqibpHhf',#6,'Start of construction',$,$,'1.1',$,$,$,.T.,$,#81,.USERDEFINED.);
#83=IFCTASKTIME('Set up site Time',.PREDICTED.,$,.WORKTIME.,'P0Y0M2D','2027-06-07T07:00:00','2027-06-08T07:00:00','2027-06-07T07:00:00','2027-06-08T07:00:00','2027-06-08T07:00:00','2027-06-09T07:00:00','P0Y0M0D','P0Y0M1D',.F.,'2027-06-28T07:00:00',$,'2027-06-07T07:00:00','2027-06-08T07:00:00','P0Y0M0D',1.00);
#84=IFCTASK('280o0nvjWj2fPtVw6vVj54',#6,'Set up site',$,$,'1.2',$,$,$,.F.,$,#83,.CONSTRUCTION.);
#85=IFCTASKTIME('Clear garden and paving Time',.PREDICTED.,$,.WORKTIME.,'P0Y0M1D','2027-06-07T07:00:00','2027-06-07T07:00:00','2027-06-09T07:00:00','2027-06-09T07:00:00','2027-06-10T07:00:00','2027-06-10T07:00:00','P0Y0M0D','P0Y0M1D',.F.,'2027-06-28T07:00:00',$,'2027-06-09T07:00:00','2027-06-09T07:00:00','P0Y0M0D',1.00);
#86=IFCTASK('2FrJmH4ojIipYbPqZGEic5',#6,'Clear garden and paving',$,$,'1.3',$,$,$,.F.,$,#85,.CONSTRUCTION.);
#87=IFCTASKTIME('Set out the extension Time',.PREDICTED.,$,.WORKTIME.,'P0Y0M1D','2027-06-07T07:00:00','2027-06-07T07:00:00','2027-06-10T07:00:00','2027-06-10T07:00:00','2027-06-11T07:00:00','2027-06-11T07:00:00','P0Y0M0D','P0Y0M1D',.F.,'2027-06-28T07:00:00',$,'2027-06-10T07:00:00','2027-06-10T07:00:00','P0Y0M0D',1.00);
#88=IFCTASK('12leRre6w5$tEXVcYsakI2',#6,'Set out the extension',$,$,'1.4',$,$,$,.F.,$,#87,.CONSTRUCTION.);
#89=IFCTASKTIME('Excavate foundation trench Time',.PREDICTED.,$,.WORKTIME.,'P0Y0M2D','2027-06-07T07:00:00','2027-06-08T07:00:00','2027-06-11T07:00:00','2027-06-15T07:00:00','2027-06-14T07:00:00','2027-06-15T07:00:00','P0Y0M0D','P0Y0M0D',.F.,'2027-06-28T07:00:00',$,'2027-06-11T07:00:00','2027-06-15T07:00:00','P0Y0M0D',1.00);
#90=IFCTASK('3zvaFGIK$fKZQm7Ds_ZoC0',#6,'Excavate foundation trench',$,$,'2.1',$,$,$,.F.,$,#89,.CONSTRUCTION.);
#91=IFCTASKTIME('Foundation formwork and reinforcement Time',.PREDICTED.,$,.WORKTIME.,'P0Y0M3D','2027-06-07T07:00:00','2027-06-09T07:00:00','2027-06-16T07:00:00','2027-06-18T07:00:00','2027-06-16T07:00:00','2027-06-18T07:00:00','P0Y0M0D','P0Y0M0D',.F.,'2027-06-28T07:00:00',$,'2027-06-16T07:00:00','2027-06-18T07:00:00','P0Y0M0D',1.00);
#92=IFCTASK('3TSEmV4xute7BkqcrtXvpX',#6,'Foundation formwork and reinforcement',$,$,'2.2',$,$,$,.F.,$,#91,.CONSTRUCTION.);
#93=IFCTASKTIME('Reinforcement inspection Time',.PREDICTED.,$,.WORKTIME.,'P0Y0M0D','2027-06-07T07:00:00','2027-06-07T07:00:00','2027-06-18T07:00:00','2027-06-18T07:00:00','2027-06-18T07:00:00','2027-06-18T07:00:00','P0Y0M0D','P0Y0M0D',.F.,'2027-06-28T07:00:00',$,'2027-06-18T07:00:00','2027-06-18T07:00:00','P0Y0M0D',1.00);
#94=IFCTASK('27snRhB9hMjuhjQq8qikzE',#6,'Reinforcement inspection',$,$,'2.3',$,$,$,.T.,$,#93,.ATTENDANCE.);
#95=IFCTASKTIME('Pour foundation Time',.PREDICTED.,$,.WORKTIME.,'PT6H0M0S','2027-06-07T00:00:00','2027-06-07T14:00:00','2027-06-21T07:00:00','2027-06-21T14:00:00','2027-06-21T09:00:00','2027-06-21T16:00:00','P0Y0M0D','P0Y0M0.25D',.F.,'2027-06-28T00:00:00',$,'2027-06-21T07:00:00','2027-06-21T14:00:00','PT0H0M0S',1.00);
#96=IFCTASK('1pqQUSYxyHXtK$snAFXpmG',#6,'Pour foundation',$,$,'2.4',$,$,$,.F.,$,#95,.CONSTRUCTION.);
#97=IFCTASKTIME('Foundation brickwork Time',.PREDICTED.,$,.WORKTIME.,'P0Y0M2D','2027-06-07T07:00:00','2027-06-08T07:00:00','2027-06-25T07:00:00','2027-06-28T07:00:00','2027-06-25T07:00:00','2027-06-28T07:00:00','P0Y0M0D','P0Y0M0D',.T.,'2027-06-28T07:00:00',$,'2027-06-25T07:00:00',$,'P0Y0M1D',0.50);
#98=IFCTASK('0tDDHuHD0CYSUXEMNgM8wt',#6,'Foundation brickwork',$,$,'2.5',$,$,$,.F.,$,#97,.CONSTRUCTION.);
#99=IFCTASKTIME('Lay hollow-core floor Time',.PREDICTED.,$,.WORKTIME.,'PT5H0M0S','2027-06-07T00:00:00','2027-06-07T12:00:00','2027-06-29T07:00:00','2027-06-29T12:00:00','2027-06-29T10:00:00','2027-06-29T16:00:00','P0Y0M0D','P0Y0M0.375D',.F.,$,$,$,$,$,0.00);
#100=IFCTASK('26PEwESwJMEioIj4qZ3jIZ',#6,'Lay hollow-core floor',$,$,'2.6',$,$,$,.F.,$,#99,.CONSTRUCTION.);
#101=IFCTASKTIME('Build inner cavity leaf Time',.PREDICTED.,$,.WORKTIME.,'P0Y0M5D','2027-06-07T07:00:00','2027-06-11T07:00:00','2027-06-30T07:00:00','2027-07-06T07:00:00','2027-07-05T07:00:00','2027-07-09T07:00:00','P0Y0M0D','P0Y0M3D',.F.,$,$,$,$,$,0.00);
#102=IFCTASK('0lT10$EPsLEF$Hjj3P1pmT',#6,'Build inner cavity leaf',$,$,'3.1',$,$,$,.F.,$,#101,.CONSTRUCTION.);
#103=IFCTASKTIME('Build outer cavity leaf Time',.PREDICTED.,$,.WORKTIME.,'P0Y0M6D','2027-06-07T07:00:00','2027-06-14T07:00:00','2027-07-07T07:00:00','2027-07-14T07:00:00','2027-07-07T07:00:00','2027-07-14T07:00:00','P0Y0M0D','P0Y0M0D',.T.,$,$,$,$,$,0.00);
#104=IFCTASK('1SLN59lxX1W7fT$wiRQoOh',#6,'Build outer cavity leaf',$,$,'3.2',$,$,$,.F.,$,#103,.CONSTRUCTION.);
#105=IFCTASKTIME('Place roof elements Time',.PREDICTED.,$,.WORKTIME.,'PT6H0M0S','2027-06-07T00:00:00','2027-06-07T14:00:00','2027-07-07T07:00:00','2027-07-07T14:00:00','2027-07-12T09:00:00','2027-07-12T16:00:00','P0Y0M0D','P0Y0M3.25D',.F.,$,$,$,$,$,0.00);
#106=IFCTASK('3fgd92KS$X0QepYbvuMI18',#6,'Place roof elements',$,$,'3.3',$,$,$,.F.,$,#105,.CONSTRUCTION.);
#107=IFCTASKTIME('Apply roofing Time',.PREDICTED.,$,.WORKTIME.,'P0Y0M2D','2027-06-07T07:00:00','2027-06-08T07:00:00','2027-07-08T07:00:00','2027-07-09T07:00:00','2027-07-13T07:00:00','2027-07-14T07:00:00','P0Y0M3D','P0Y0M3D',.F.,$,$,$,$,$,0.00);
#108=IFCTASK('2gf2OowJ_E13B8$DED$x7I',#6,'Apply roofing',$,$,'3.4',$,$,$,.F.,$,#107,.CONSTRUCTION.);
#109=IFCTASKTIME('Install window frames Time',.PREDICTED.,$,.WORKTIME.,'P0Y0M2D','2027-06-07T07:00:00','2027-06-08T07:00:00','2027-07-15T07:00:00','2027-07-16T07:00:00','2027-07-15T07:00:00','2027-07-16T07:00:00','P0Y0M0D','P0Y0M0D',.T.,$,$,$,$,$,0.00);
#110=IFCTASK('3Na3K$JKOFlX_EyP$a2QyM',#6,'Install window frames',$,$,'3.5',$,$,$,.F.,$,#109,.CONSTRUCTION.);
#111=IFCTASKTIME('Break through rear wall Time',.PREDICTED.,$,.WORKTIME.,'P0Y0M2D','2027-06-07T07:00:00','2027-06-08T07:00:00','2027-07-19T07:00:00','2027-07-20T07:00:00','2027-07-19T07:00:00','2027-07-20T07:00:00','P0Y0M0D','P0Y0M0D',.T.,$,$,$,$,$,0.00);
#112=IFCTASK('3$svVV1X_1jhRR$EgpWSw5',#6,'Break through rear wall',$,$,'3.6',$,$,$,.F.,$,#111,.CONSTRUCTION.);
#113=IFCTASKTIME('Install building services Time',.PREDICTED.,$,.WORKTIME.,'P0Y0M3D','2027-06-07T07:00:00','2027-06-09T07:00:00','2027-07-21T07:00:00','2027-07-23T07:00:00','2027-07-21T07:00:00','2027-07-23T07:00:00','P0Y0M0D','P0Y0M0D',.T.,$,$,$,$,$,0.00);
#114=IFCTASK('0YHFEhWZndMcl0am7zmcut',#6,'Install building services',$,$,'4.1',$,$,$,.F.,$,#113,.CONSTRUCTION.);
#115=IFCTASKTIME('Plastering Time',.PREDICTED.,$,.WORKTIME.,'P0Y0M2D','2027-06-07T07:00:00','2027-06-10T07:00:00','2027-07-26T07:00:00','2027-07-27T07:00:00','2027-07-26T07:00:00','2027-07-27T07:00:00','P0Y0M0D','P0Y0M0D',.T.,$,$,$,$,$,0.00);
#116=IFCTASK('0WgokT9znWCrU6tZixFs0l',#6,'Plastering',$,$,'4.2',$,$,$,.F.,$,#115,.CONSTRUCTION.);
#117=IFCTASKTIME('Lay floor screed Time',.PREDICTED.,$,.WORKTIME.,'P0Y0M1D','2027-06-07T07:00:00','2027-06-07T07:00:00','2027-07-28T07:00:00','2027-07-28T07:00:00','2027-07-28T07:00:00','2027-07-28T07:00:00','P0Y0M0D','P0Y0M0D',.T.,$,$,$,$,$,0.00);
#118=IFCTASK('2CGnyfKdYJJoSjFsmqyuEK',#6,'Lay floor screed',$,$,'4.3',$,$,$,.F.,$,#117,.CONSTRUCTION.);
#119=IFCTASKTIME('Tiling Time',.PREDICTED.,$,.WORKTIME.,'P0Y0M3D','2027-06-07T07:00:00','2027-06-09T07:00:00','2027-08-26T07:00:00','2027-08-30T07:00:00','2027-08-26T07:00:00','2027-08-30T07:00:00','P0Y0M0D','P0Y0M0D',.T.,$,$,$,$,$,0.00);
#120=IFCTASK('3h4qhIu6mAowMK_0GtdlWR',#6,'Tiling',$,$,'4.4',$,$,$,.F.,$,#119,.CONSTRUCTION.);
#121=IFCTASKTIME('Painting Time',.PREDICTED.,$,.WORKTIME.,'P0Y0M3D','2027-06-07T07:00:00','2027-06-09T07:00:00','2027-07-28T07:00:00','2027-07-30T07:00:00','2027-08-26T07:00:00','2027-08-30T07:00:00','P0Y0M6D','P0Y0M6D',.F.,$,$,$,$,$,0.00);
#122=IFCTASK('03UXhpldGC1PvyhlDm53CJ',#6,'Painting',$,$,'4.5',$,$,$,.F.,$,#121,.CONSTRUCTION.);
#123=IFCTASKTIME('Snagging and cleaning Time',.PREDICTED.,$,.WORKTIME.,'P0Y0M1D','2027-06-07T07:00:00','2027-06-07T07:00:00','2027-08-31T07:00:00','2027-08-31T07:00:00','2027-08-31T07:00:00','2027-08-31T07:00:00','P0Y0M0D','P0Y0M0D',.T.,$,$,$,$,$,0.00);
#124=IFCTASK('11mmwyFeO3L$rzWj_RTcda',#6,'Snagging and cleaning',$,$,'4.6',$,$,$,.F.,$,#123,.CONSTRUCTION.);
#125=IFCTASKTIME('Handover Time',.PREDICTED.,$,.WORKTIME.,'P0Y0M0D','2027-06-07T07:00:00','2027-06-07T07:00:00','2027-08-31T07:00:00','2027-08-31T07:00:00','2027-08-31T07:00:00','2027-08-31T07:00:00','P0Y0M0D','P0Y0M0D',.T.,$,$,$,$,$,0.00);
#126=IFCTASK('30LV6Q6EnIVEvDDeAgnhtQ',#6,'Handover',$,$,'4.7',$,$,$,.T.,$,#125,.USERDEFINED.);
#127=IFCRELNESTS('2biWjNEXXEa25QoJMmb$j_',#6,'WBS Preparation',$,#74,( #82,#84,#86,#88));
#128=IFCRELNESTS('3dEPlr95Yt2oAON9ghvls8',#6,'WBS Foundations',$,#76,( #90,#92,#94,#96,#98,#100));
#129=IFCRELNESTS('32Y71ZXhZeFBPNy0iYFfuU',#6,'WBS Shell',$,#78,( #102,#104,#106,#108,#110,#112));
#130=IFCRELNESTS('2UNMcfuIFiZl_JGza2BCXr',#6,'WBS Finishing',$,#80,( #114,#116,#118,#120,#122,#124,#126));
#131=IFCRELNESTS('3vDHqyaea$tK7SJdR7mHlr',#6,'WBS Hoofd',$,#70,(#74,#76,#78,#80));
#132=IFCRELSEQUENCE('2V09pg8QsSbH2OtmlEN$pQ',#6,$,$,#82,#84,$,.FINISH_START.,$);
#133=IFCRELSEQUENCE('2UoekKU9XylOGNqW9j2B7l',#6,$,$,#84,#86,$,.FINISH_START.,$);
#134=IFCRELSEQUENCE('131ZWB0L1GfKWcaLY1W3Hl',#6,$,$,#86,#88,$,.FINISH_START.,$);
#135=IFCRELSEQUENCE('2agSQcH$$l12TUnR7v1Uus',#6,$,$,#88,#90,$,.FINISH_START.,$);
#136=IFCRELSEQUENCE('2fQ$TWVgFu2Mb5UCeABBbT',#6,$,$,#90,#92,$,.FINISH_START.,$);
#137=IFCRELSEQUENCE('1b5Uc09o2yhkwzL9Ff7Ubd',#6,$,$,#92,#94,$,.FINISH_START.,$);
#138=IFCRELSEQUENCE('3D7xVgqx6imokjKIZQ_KBi',#6,$,$,#94,#96,$,.FINISH_START.,$);
#139=IFCLAGTIME('Lag',.PREDICTED.,$,IFCDURATION('P3D'),.WORKTIME.);
#140=IFCRELSEQUENCE('0JWB1Z3LpdEVxJnee8ZLqd',#6,$,$,#96,#98,#139,.FINISH_START.,$);
#141=IFCRELSEQUENCE('0nHzkx5vQeLxzyGd6qLaZb',#6,$,$,#98,#100,$,.FINISH_START.,$);
#142=IFCRELSEQUENCE('3UcZvydOZtsLRTjsNlE3$6',#6,$,$,#100,#102,$,.FINISH_START.,$);
#143=IFCRELSEQUENCE('3FiTLIVluqnKKhMcz$LiqV',#6,$,$,#100,#104,$,.FINISH_START.,$);
#144=IFCRELSEQUENCE('2RKcXBbMJJu5q3essJAjJg',#6,$,$,#102,#106,$,.FINISH_START.,$);
#145=IFCRELSEQUENCE('03p7uLxGMyfMmQSKTGPcTL',#6,$,$,#106,#108,$,.FINISH_START.,$);
#146=IFCRELSEQUENCE('2a0xQHmYbs7bEoOxSKaO_x',#6,$,$,#108,#110,$,.FINISH_START.,$);
#147=IFCRELSEQUENCE('04xiXSpVkVf7cB7AmNEk2O',#6,$,$,#104,#110,$,.FINISH_START.,$);
#148=IFCRELSEQUENCE('0WvB2Q50ocubgdnSlx$ykZ',#6,$,$,#110,#112,$,.FINISH_START.,$);
#149=IFCRELSEQUENCE('3fJtjC6PmtJnGKxLmvDFlV',#6,$,$,#112,#114,$,.FINISH_START.,$);
#150=IFCRELSEQUENCE('3k9SnQyUEJnmDY2HXnPGVK',#6,$,$,#114,#116,$,.FINISH_START.,$);
#151=IFCRELSEQUENCE('31ASUVGMKwbSDswYHFLNMR',#6,$,$,#116,#118,$,.FINISH_START.,$);
#152=IFCRELSEQUENCE('0HGAvqarUOBWt1MP8FdXt1',#6,$,$,#116,#122,$,.FINISH_START.,$);
#153=IFCLAGTIME('Lag',.PREDICTED.,$,IFCDURATION('P5D'),.WORKTIME.);
#154=IFCRELSEQUENCE('2IDugioTEfZPqUY4eRBgV_',#6,$,$,#118,#120,#153,.FINISH_START.,$);
#155=IFCRELSEQUENCE('0asAdHb1B0Ic_MEdPL25SF',#6,$,$,#120,#124,$,.FINISH_START.,$);
#156=IFCRELSEQUENCE('36bj5OuG1FN4SD72c4rnk$',#6,$,$,#122,#124,$,.FINISH_START.,$);
#157=IFCRELSEQUENCE('2B970rI96oXyziQyn5qkrf',#6,$,$,#124,#126,$,.FINISH_START.,$);
#158=IFCCREWRESOURCE('3RmDlJKNmozzA8uO2oxGcT',#6,'Carpentry crew',$,$,$,$,$,.USERDEFINED.);
#159=IFCLABORRESOURCE('3opnwPdi$Kgxhpe_CTo22H',#6,'Bricklayer',$,$,$,$,$,.USERDEFINED.);
#160=IFCCONSTRUCTIONEQUIPMENTRESOURCE('2vOO33p1NAFoEWHVG$7pDn',#6,'Mobile crane',$,$,$,$,$,.USERDEFINED.);
#161=IFCSUBCONTRACTRESOURCE('0sybSb009OU_368niOsr4G',#6,'Plasterer',$,$,$,$,$,.USERDEFINED.);
#162=IFCCONSTRUCTIONMATERIALRESOURCE('0z2xzy2uXwaqKjY9NefNbU',#6,'Concrete',$,$,$,$,$,.USERDEFINED.);
#163=IFCPROPERTYSINGLEVALUE('Color',$,IFCTEXT('#1E293B'),$);
#164=IFCPROPERTYSET('2eE96fTknFTsQLxQlPVJkg',#6,'OPS_Resource',$,(#163));
#165=IFCRELDEFINESBYPROPERTIES('3dvTs8H_j6cmOOMeetfvDl',#6,$,$,(#158),#164);
#166=IFCPROPERTYSINGLEVALUE('Color',$,IFCTEXT('#B91C1C'),$);
#167=IFCPROPERTYSET('2K6nrWIogWqf1iqUFZt4z6',#6,'OPS_Resource',$,(#166));
#168=IFCRELDEFINESBYPROPERTIES('1jS$NabEDyNP$zhgJPfcMP',#6,$,$,(#159),#167);
#169=IFCPROPERTYSINGLEVALUE('Color',$,IFCTEXT('#DB2777'),$);
#170=IFCPROPERTYSET('1V0C1v5es15EJSjKzB5cIt',#6,'OPS_Resource',$,(#169));
#171=IFCRELDEFINESBYPROPERTIES('1Ub4n7n0IPgbD5b6wGVTTk',#6,$,$,(#160),#170);
#172=IFCPROPERTYSINGLEVALUE('MaxUnits',$,IFCREAL(2),$);
#173=IFCPROPERTYSINGLEVALUE('Color',$,IFCTEXT('#C2410C'),$);
#174=IFCPROPERTYSET('38fE0OtMhe_$kNenJ5GeHq',#6,'OPS_Resource',$,(#172,#173));
#175=IFCRELDEFINESBYPROPERTIES('2PrDl8KC2sst1zv$cb4aMT',#6,$,$,(#161),#174);
#176=IFCPROPERTYSINGLEVALUE('MaxUnits',$,IFCREAL(50),$);
#177=IFCPROPERTYSINGLEVALUE('UnitOfMeasure',$,IFCLABEL('m\X2\00B3\X0\'),$);
#178=IFCPROPERTYSINGLEVALUE('Color',$,IFCTEXT('#6366F1'),$);
#179=IFCPROPERTYSET('2pOtvPnrtG3GhFOGZdts1R',#6,'OPS_Resource',$,(#176,#177,#178));
#180=IFCRELDEFINESBYPROPERTIES('3rNYqQSn3$riVHX6JiCpao',#6,$,$,(#162),#179);
#181=IFCRELASSIGNSTOPROCESS('3Pft_jIDx8zG_qFVsZtVDr',#6,$,$,(#158),$,#92,$);
#182=IFCRELASSIGNSTOPROCESS('2lSzVEL08OTa4zjBhQEvH_',#6,$,$,(#162),$,#96,$);
#183=IFCRELASSIGNSTOPROCESS('14T4EO0kOK71G46zZ1A0ao',#6,$,$,(#159),$,#98,$);
#184=IFCRELASSIGNSTOPROCESS('2_l$aar77fUzDN9PO7fhw8',#6,$,$,(#158,#160),$,#100,$);
#185=IFCRELASSIGNSTOPROCESS('19BlpG$4GNfWq64yMg0JfE',#6,$,$,(#159),$,#102,$);
#186=IFCRELASSIGNSTOPROCESS('21k$_zcI8aDWm5LToT4w3S',#6,$,$,(#159),$,#104,$);
#187=IFCRELASSIGNSTOPROCESS('1K5QZpYnPXjqhAd4fGLdzK',#6,$,$,(#158,#160),$,#106,$);
#188=IFCRELASSIGNSTOPROCESS('1bez2IgxQNOdbcMHFxAs5E',#6,$,$,(#158),$,#110,$);
#189=IFCRELASSIGNSTOPROCESS('2uc0fdTMnK4cO2J0q_6RV6',#6,$,$,(#159),$,#112,$);
#190=IFCRELASSIGNSTOPROCESS('03NVGH6BxxaX8bZi4NbdGJ',#6,$,$,(#161),$,#116,$);
#191=IFCPROPERTYSINGLEVALUE('3RmDlJKNmozzA8uO2oxGcT#0',$,IFCTEXT('1|UNIFORM'),$);
#192=IFCPROPERTYSET('1vB06ODWvR51XNA8yztf0J',#6,'OPS_Assignments',$,(#191));
#193=IFCRELDEFINESBYPROPERTIES('3HVr5Djbir5sazEP2IKR4H',#6,$,$,(#92),#192);
#194=IFCPROPERTYSINGLEVALUE('0z2xzy2uXwaqKjY9NefNbU#0',$,IFCTEXT('8|UNIFORM'),$);
#195=IFCPROPERTYSET('0c4ZzQaD026FYcRX2_o_fv',#6,'OPS_Assignments',$,(#194));
#196=IFCRELDEFINESBYPROPERTIES('3Y0nPpUzsiasfjGQMXfw38',#6,$,$,(#96),#195);
#197=IFCPROPERTYSINGLEVALUE('3opnwPdi$Kgxhpe_CTo22H#0',$,IFCTEXT('1|UNIFORM'),$);
#198=IFCPROPERTYSET('2i9T0ztvF1WtoxpBI_hA7Z',#6,'OPS_Assignments',$,(#197));
#199=IFCRELDEFINESBYPROPERTIES('2es$rJ58ClJPm7sU0DHkZL',#6,$,$,(#98),#198);
#200=IFCPROPERTYSINGLEVALUE('3RmDlJKNmozzA8uO2oxGcT#0',$,IFCTEXT('1|UNIFORM'),$);
#201=IFCPROPERTYSINGLEVALUE('2vOO33p1NAFoEWHVG$7pDn#1',$,IFCTEXT('1|UNIFORM'),$);
#202=IFCPROPERTYSET('272KGmPrZk4cHi7$yaDzmO',#6,'OPS_Assignments',$,(#200,#201));
#203=IFCRELDEFINESBYPROPERTIES('1s4pm719bbKJUdYlUnwz$4',#6,$,$,(#100),#202);
#204=IFCPROPERTYSINGLEVALUE('3opnwPdi$Kgxhpe_CTo22H#0',$,IFCTEXT('1|UNIFORM'),$);
#205=IFCPROPERTYSET('1dDgL1Mqx3eVilOsC9nEvP',#6,'OPS_Assignments',$,(#204));
#206=IFCRELDEFINESBYPROPERTIES('1sjqoaxF2OZvC6mmgm18v3',#6,$,$,(#102),#205);
#207=IFCPROPERTYSINGLEVALUE('3opnwPdi$Kgxhpe_CTo22H#0',$,IFCTEXT('1|UNIFORM'),$);
#208=IFCPROPERTYSET('0eWUpLqAul35Sui4tysXkS',#6,'OPS_Assignments',$,(#207));
#209=IFCRELDEFINESBYPROPERTIES('0IUsYjRYBwytA$AgCP5p4L',#6,$,$,(#104),#208);
#210=IFCPROPERTYSINGLEVALUE('3RmDlJKNmozzA8uO2oxGcT#0',$,IFCTEXT('1|UNIFORM'),$);
#211=IFCPROPERTYSINGLEVALUE('2vOO33p1NAFoEWHVG$7pDn#1',$,IFCTEXT('1|UNIFORM'),$);
#212=IFCPROPERTYSET('32rwRGl_AfUSgWXS9$QXOA',#6,'OPS_Assignments',$,(#210,#211));
#213=IFCRELDEFINESBYPROPERTIES('0IfqeSfZBPPrqAZoJWfmMA',#6,$,$,(#106),#212);
#214=IFCPROPERTYSINGLEVALUE('3RmDlJKNmozzA8uO2oxGcT#0',$,IFCTEXT('1|UNIFORM'),$);
#215=IFCPROPERTYSET('2DHeNPB9UJxA11k3omQ$Tl',#6,'OPS_Assignments',$,(#214));
#216=IFCRELDEFINESBYPROPERTIES('1c0$cqmVRTOpG2uAmCAqEz',#6,$,$,(#110),#215);
#217=IFCPROPERTYSINGLEVALUE('3opnwPdi$Kgxhpe_CTo22H#0',$,IFCTEXT('1|UNIFORM'),$);
#218=IFCPROPERTYSET('2$8hmF$eniK$nGIQlgYaMO',#6,'OPS_Assignments',$,(#217));
#219=IFCRELDEFINESBYPROPERTIES('2S9lUSN3_D2cd3CvTE5WMV',#6,$,$,(#112),#218);
#220=IFCPROPERTYSINGLEVALUE('0sybSb009OU_368niOsr4G#0',$,IFCTEXT('2|UNIFORM'),$);
#221=IFCPROPERTYSET('1mNwYuWztNZHyOPpzgyIxn',#6,'OPS_Assignments',$,(#220));
#222=IFCRELDEFINESBYPROPERTIES('115yX5G$yp05jLsZ_Jnsu3',#6,$,$,(#116),#221);
#223=IFCPROPERTYSINGLEVALUE('Windows',$,IFCTEXT('{"0sybSb009OU_368niOsr4G#0":{"remainingWorkMinutes":1920}}'),$);
#224=IFCPROPERTYSET('3X5P$7SjcZhCgDd4xn6Tta',#6,'OPS_Timephased',$,(#223));
#225=IFCRELDEFINESBYPROPERTIES('3_WZggOXfdNaB1Z6wIN9v7',#6,$,$,(#116),#224);
#226=IFCRELASSIGNSTOCONTROL('2ldlBzAuyKrPzMF6xDEgYO',#6,$,$,(#74,#76,#78,#80,#82,#84,#86,#88,#90,#92,#94,#96,#98,#100,#102,#104,#106,#108,#110,#112,#114,#116,#118,#120,#122,#124,#126),$,#70);
#227=IFCPROPERTYSINGLEVALUE('InternalProjectId',$,IFCTEXT('proj-muslkathe9q976'),$);
#228=IFCPROPERTYSINGLEVALUE('wbsAutoNumber',$,IFCBOOLEAN(.T.),$);
#229=IFCPROPERTYSINGLEVALUE('DefaultTaskDurationUnit',$,IFCLABEL('days'),$);
#230=IFCPROPERTYSINGLEVALUE('StatusDate',$,IFCDATE('2027-06-28'),$);
#231=IFCPROPERTYSINGLEVALUE('ProjectStartDate',$,IFCDATE('2027-06-07'),$);
#232=IFCPROPERTYSINGLEVALUE('ProjectEndDate',$,$,$);
#233=IFCPROPERTYSINGLEVALUE('CreatedAt',$,IFCTEXT('2026-10-03T16:19:12.197Z'),$);
#234=IFCPROPERTYSINGLEVALUE('ModifiedAt',$,IFCTEXT('2026-10-03T16:19:12.504Z'),$);
#235=IFCPROPERTYSET('3o0WnvoL3mvPEuT5dmTTrC',#6,'OPS_ProjectSettings',$,(#227,#228,#229,#230,#231,#232,#233,#234));
#236=IFCRELDEFINESBYPROPERTIES('1pLXAYQw_7v1raOWDbZ38X',#6,$,$,(#13),#235);
#237=IFCPROPERTYSINGLEVALUE('InternalTaskId',$,IFCTEXT('task-muslkati26i078'),$);
#238=IFCPROPERTYSET('1zCojmCGzOnSUrYciEJUan',#6,'OPS_TaskIdentity',$,(#237));
#239=IFCRELDEFINESBYPROPERTIES('2a04lFQh7dqcgt$kq3NuOs',#6,$,$,(#74),#238);
#240=IFCPROPERTYSINGLEVALUE('InternalTaskId',$,IFCTEXT('task-muslkatja05c79'),$);
#241=IFCPROPERTYSET('1S88vH0I3viETZGvOLa0lO',#6,'OPS_TaskIdentity',$,(#240));
#242=IFCRELDEFINESBYPROPERTIES('3iGk3Iqj8IwqAgzkZezc9e',#6,$,$,(#76),#241);
#243=IFCPROPERTYSINGLEVALUE('InternalTaskId',$,IFCTEXT('task-muslkatkjack80'),$);
#244=IFCPROPERTYSET('2BEIYYbi1lsBzVhqnx6nPv',#6,'OPS_TaskIdentity',$,(#243));
#245=IFCRELDEFINESBYPROPERTIES('16i74xbRK27LC_E3ujZka_',#6,$,$,(#78),#244);
#246=IFCPROPERTYSINGLEVALUE('InternalTaskId',$,IFCTEXT('task-muslkatl7xlv81'),$);
#247=IFCPROPERTYSET('2SNOjchuw9$Rl6IfRdkBch',#6,'OPS_TaskIdentity',$,(#246));
#248=IFCRELDEFINESBYPROPERTIES('1aK4qQ55a$KJBDFaG7QRSt',#6,$,$,(#80),#247);
#249=IFCPROPERTYSINGLEVALUE('InternalTaskId',$,IFCTEXT('task-muslkatmu25h82'),$);
#250=IFCPROPERTYSET('15R$Bvos9kjjN20_ewcLT1',#6,'OPS_TaskIdentity',$,(#249));
#251=IFCRELDEFINESBYPROPERTIES('26VwEotniFqx$XGtlyeGS5',#6,$,$,(#82),#250);
#252=IFCPROPERTYSINGLEVALUE('InternalTaskId',$,IFCTEXT('task-muslkato1u1583'),$);
#253=IFCPROPERTYSET('0n4IRBrihjHPPC6qpceKzn',#6,'OPS_TaskIdentity',$,(#252));
#254=IFCRELDEFINESBYPROPERTIES('2QhqT4UNZlAm8Ifo3jvNus',#6,$,$,(#84),#253);
#255=IFCPROPERTYSINGLEVALUE('InternalTaskId',$,IFCTEXT('task-muslkatp01pt84'),$);
#256=IFCPROPERTYSET('28Ap83Kc$4qYkM10Amji1T',#6,'OPS_TaskIdentity',$,(#255));
#257=IFCRELDEFINESBYPROPERTIES('1rJRHH4OwNJdNcFg$jV5nv',#6,$,$,(#86),#256);
#258=IFCPROPERTYSINGLEVALUE('InternalTaskId',$,IFCTEXT('task-muslkatq9qs985'),$);
#259=IFCPROPERTYSET('1EWPh_zhbuAlOOKHPxaUUt',#6,'OPS_TaskIdentity',$,(#258));
#260=IFCRELDEFINESBYPROPERTIES('2ZArjeO_XAzjPKF9_1E$Uv',#6,$,$,(#88),#259);
#261=IFCPROPERTYSINGLEVALUE('InternalTaskId',$,IFCTEXT('task-muslkatrqc7a86'),$);
#262=IFCPROPERTYSET('1kOYbc_r4iBXdOBRrjCtdk',#6,'OPS_TaskIdentity',$,(#261));
#263=IFCRELDEFINESBYPROPERTIES('3Nt5HemzYWwKS0P1L1s63B',#6,$,$,(#90),#262);
#264=IFCPROPERTYSINGLEVALUE('InternalTaskId',$,IFCTEXT('task-muslkatte7l787'),$);
#265=IFCPROPERTYSET('3zrEPilQW0wEJ4QiJ1Xetl',#6,'OPS_TaskIdentity',$,(#264));
#266=IFCRELDEFINESBYPROPERTIES('2JE8B65QNNsocGqkU3muTn',#6,$,$,(#92),#265);
#267=IFCPROPERTYSINGLEVALUE('InternalTaskId',$,IFCTEXT('task-muslkatvdiqu88'),$);
#268=IFCPROPERTYSET('1mdSUNY1zX_i4KUAKMB53D',#6,'OPS_TaskIdentity',$,(#267));
#269=IFCRELDEFINESBYPROPERTIES('3b$zhXkcUT4yN8K609Hmj5',#6,$,$,(#94),#268);
#270=IFCPROPERTYSINGLEVALUE('InternalTaskId',$,IFCTEXT('task-muslkatwbr5e89'),$);
#271=IFCPROPERTYSET('2U_VVcEKD1SM02QjLqHn1Q',#6,'OPS_TaskIdentity',$,(#270));
#272=IFCRELDEFINESBYPROPERTIES('2k0odnp$2bLVbpjYdhDvGS',#6,$,$,(#96),#271);
#273=IFCPROPERTYSINGLEVALUE('InternalTaskId',$,IFCTEXT('task-muslkatxnr7c90'),$);
#274=IFCPROPERTYSET('2v1yj1$_d5clR6KYAyTHY9',#6,'OPS_TaskIdentity',$,(#273));
#275=IFCRELDEFINESBYPROPERTIES('1mkU86LNRN3$1W_2eyj3H6',#6,$,$,(#98),#274);
#276=IFCPROPERTYSINGLEVALUE('InternalTaskId',$,IFCTEXT('task-muslkatzyhjj91'),$);
#277=IFCPROPERTYSET('3odOIodfhnLwCTtzdHV99V',#6,'OPS_TaskIdentity',$,(#276));
#278=IFCRELDEFINESBYPROPERTIES('0Zn4748vPUzitO72GZVDaw',#6,$,$,(#100),#277);
#279=IFCPROPERTYSINGLEVALUE('InternalTaskId',$,IFCTEXT('task-muslkau0k1pe92'),$);
#280=IFCPROPERTYSET('21IK4SNJw3s5hGQsf9iuPL',#6,'OPS_TaskIdentity',$,(#279));
#281=IFCRELDEFINESBYPROPERTIES('2UwKAYA26jICsoxPB6ueuM',#6,$,$,(#102),#280);
#282=IFCPROPERTYSINGLEVALUE('InternalTaskId',$,IFCTEXT('task-muslkau2eayr93'),$);
#283=IFCPROPERTYSET('3_pa_yurn8j7TKKX2leMPq',#6,'OPS_TaskIdentity',$,(#282));
#284=IFCRELDEFINESBYPROPERTIES('2qA9W97GDCaLuKohgIVgWN',#6,$,$,(#104),#283);
#285=IFCPROPERTYSINGLEVALUE('InternalTaskId',$,IFCTEXT('task-muslkau3frb694'),$);
#286=IFCPROPERTYSET('271X7pabkREViir0HYNk$E',#6,'OPS_TaskIdentity',$,(#285));
#287=IFCRELDEFINESBYPROPERTIES('1OWDw2Ca5kPkJQ8BoiEZa0',#6,$,$,(#106),#286);
#288=IFCPROPERTYSINGLEVALUE('InternalTaskId',$,IFCTEXT('task-muslkau5pl9y95'),$);
#289=IFCPROPERTYSET('3uB4wnD7sDR9vQgmSlTG7m',#6,'OPS_TaskIdentity',$,(#288));
#290=IFCRELDEFINESBYPROPERTIES('2mxvvxzfbNdF$ebH2xVKRU',#6,$,$,(#108),#289);
#291=IFCPROPERTYSINGLEVALUE('InternalTaskId',$,IFCTEXT('task-muslkau6xpmj96'),$);
#292=IFCPROPERTYSET('3REZ5w78H$BrLeHHW1FoAO',#6,'OPS_TaskIdentity',$,(#291));
#293=IFCRELDEFINESBYPROPERTIES('3$VTBTXYk4OPmBhMONORv7',#6,$,$,(#110),#292);
#294=IFCPROPERTYSINGLEVALUE('InternalTaskId',$,IFCTEXT('task-muslkau8n0wc97'),$);
#295=IFCPROPERTYSET('0A72pRKTjfEN$DhjGdqSBu',#6,'OPS_TaskIdentity',$,(#294));
#296=IFCRELDEFINESBYPROPERTIES('2iyf07yJKwc3Ka3g7kBGFn',#6,$,$,(#112),#295);
#297=IFCPROPERTYSINGLEVALUE('InternalTaskId',$,IFCTEXT('task-muslkauakc2j98'),$);
#298=IFCPROPERTYSET('37Y82ctgq1SIgbf_uHdWRG',#6,'OPS_TaskIdentity',$,(#297));
#299=IFCRELDEFINESBYPROPERTIES('32vf0_jv9MEVtALvpMY8xk',#6,$,$,(#114),#298);
#300=IFCPROPERTYSINGLEVALUE('InternalTaskId',$,IFCTEXT('task-muslkaubdo4399'),$);
#301=IFCPROPERTYSET('0FES5v0Is62qoSYo7I2l2F',#6,'OPS_TaskIdentity',$,(#300));
#302=IFCRELDEFINESBYPROPERTIES('2O4fUQolzo3j5cXx0Hofiq',#6,$,$,(#116),#301);
#303=IFCPROPERTYSINGLEVALUE('InternalTaskId',$,IFCTEXT('task-muslkaudb65q100'),$);
#304=IFCPROPERTYSET('3UwO679oj_QoYpXfSO57xq',#6,'OPS_TaskIdentity',$,(#303));
#305=IFCRELDEFINESBYPROPERTIES('3RUC0h671NOUvFtPO4FmO4',#6,$,$,(#118),#304);
#306=IFCPROPERTYSINGLEVALUE('InternalTaskId',$,IFCTEXT('task-muslkaueen6y101'),$);
#307=IFCPROPERTYSET('0OyW0Ov4HvOrexOTswI_25',#6,'OPS_TaskIdentity',$,(#306));
#308=IFCRELDEFINESBYPROPERTIES('2F3wHZFRvtrdXg7Ox0fT6y',#6,$,$,(#120),#307);
#309=IFCPROPERTYSINGLEVALUE('InternalTaskId',$,IFCTEXT('task-muslkaugkaku102'),$);
#310=IFCPROPERTYSET('3Ge0AJb7Dxb6orBVhmFK0e',#6,'OPS_TaskIdentity',$,(#309));
#311=IFCRELDEFINESBYPROPERTIES('0AmZCKJ1o6b_jv2mIABA8N',#6,$,$,(#122),#310);
#312=IFCPROPERTYSINGLEVALUE('InternalTaskId',$,IFCTEXT('task-muslkaui54tg103'),$);
#313=IFCPROPERTYSET('3L6Jb8yYYGPzxtySnkRLd9',#6,'OPS_TaskIdentity',$,(#312));
#314=IFCRELDEFINESBYPROPERTIES('0FT4lcXcbkEqCMNjvGKZF2',#6,$,$,(#124),#313);
#315=IFCPROPERTYSINGLEVALUE('InternalTaskId',$,IFCTEXT('task-muslkaujm261104'),$);
#316=IFCPROPERTYSET('15qtZ4hxSNat04JyYdGufD',#6,'OPS_TaskIdentity',$,(#315));
#317=IFCRELDEFINESBYPROPERTIES('0M1zVwMiHLPfjHvTLhdwnk',#6,$,$,(#126),#316);
#318=IFCPROPERTYSINGLEVALUE('ConstraintType',$,IFCLABEL('SNET'),$);
#319=IFCPROPERTYSINGLEVALUE('ConstraintDate',$,IFCDATE('2027-07-14'),$);
#320=IFCPROPERTYSET('0TAC5to6uIw7onVrl_7g8T',#6,'OPS_Constraints',$,(#318,#319));
#321=IFCRELDEFINESBYPROPERTIES('0ceMnkXm4jdZKwJWwK$9sR',#6,$,$,(#110),#320);
#322=IFCPROPERTYSINGLEVALUE('Deadline',$,IFCDATE('2027-09-10'),$);
#323=IFCPROPERTYSET('2bGhb0suoipeXPdGS0de$E',#6,'OPS_Constraints',$,(#322));
#324=IFCRELDEFINESBYPROPERTIES('3tU997PAjs8HOwqlGbay2U',#6,$,$,(#126),#323);
#325=IFCPROPERTYSINGLEVALUE('MilestoneKind',$,IFCLABEL('START'),$);
#326=IFCPROPERTYSET('3N2YX6X6wmGvLtl5p4FIoD',#6,'OPS_Milestone',$,(#325));
#327=IFCRELDEFINESBYPROPERTIES('2XUho7BUZ2xu1wym476FlY',#6,$,$,(#82),#326);
#328=IFCPROPERTYSINGLEVALUE('MilestoneKind',$,IFCLABEL('FINISH'),$);
#329=IFCPROPERTYSINGLEVALUE('Mandatory',$,IFCBOOLEAN(.T.),$);
#330=IFCPROPERTYSET('1CO8CvbN$GWCeONhghVg1y',#6,'OPS_Milestone',$,(#328,#329));
#331=IFCRELDEFINESBYPROPERTIES('2bUXY7Fhk6t9H0mhDPcA2a',#6,$,$,(#94),#330);
#332=IFCPROPERTYSINGLEVALUE('MilestoneKind',$,IFCLABEL('FINISH'),$);
#333=IFCPROPERTYSET('1voiSmJ9rZyQNA6sTSkWoC',#6,'OPS_Milestone',$,(#332));
#334=IFCRELDEFINESBYPROPERTIES('2VQYyNdtPOJZsyKM2o3emg',#6,$,$,(#126),#333);
#335=IFCPROPERTYSINGLEVALUE('LevelingDelay',$,IFCINTEGER(5),$);
#336=IFCPROPERTYSET('2MSF7rufdS_xxmTyBKJC1V',#6,'OPS_Leveling',$,(#335));
#337=IFCRELDEFINESBYPROPERTIES('3vLQZg$BSTpoiLPLTU_gsK',#6,$,$,(#104),#336);
#338=IFCPROPERTYSINGLEVALUE('WorkRule',$,IFCLABEL('FIXED_WORK'),$);
#339=IFCPROPERTYSET('3K$I4a6bcrZVEz73MeDR1g',#6,'OPS_WorkRule',$,(#338));
#340=IFCRELDEFINESBYPROPERTIES('2CVkrJ9g_c7bNugQ8$$H5k',#6,$,$,(#116),#339);
#341=IFCPROPERTYSINGLEVALUE('Baselines',$,IFCTEXT('[{"id":"baseline-muslkaz5erxt146","name":"Baseline","createdAt":"2026-10-03T16:19:12.401Z","tasks":[{"taskId":"task-muslkatmu25h82","start":"2027-06-07","finish":"2027-06-07","duration":0,"isMilestone":true,"milestoneKind":"START"},{"taskId":"task-muslkato1u1583","start":"2027-06-07","finish":"2027-06-08","duration":2,"isMilestone":false},{"taskId":"task-muslkatp01pt84","start":"2027-06-09","finish":"2027-06-09","duration":1,"isMilestone":false},{"taskId":"task-muslkatq9qs985","start":"2027-06-10","finish":"2027-06-10","duration":1,"isMilestone":false},{"taskId":"task-muslkatrqc7a86","start":"2027-06-11","finish":"2027-06-14","duration":2,"isMilestone":false},{"taskId":"task-muslkatte7l787","start":"2027-06-15","finish":"2027-06-17","duration":3,"isMilestone":false},{"taskId":"task-muslkatvdiqu88","start":"2027-06-17","finish":"2027-06-17","duration":0,"isMilestone":true,"milestoneKind":"FINISH"},{"taskId":"task-muslkatwbr5e89","start":"2027-06-18T07:00","finish":"2027-06-18T14:00","duration":0.75,"isMilestone":false},{"taskId":"task-muslkatxnr7c90","start":"2027-06-24","finish":"2027-06-25","duration":2,"isMilestone":false},{"taskId":"task-muslkatzyhjj91","start":"2027-06-28T07:00","finish":"2027-06-28T12:00","duration":0.625,"isMilestone":false},{"taskId":"task-muslkau0k1pe92","start":"2027-06-29","finish":"2027-07-05","duration":5,"isMilestone":false},{"taskId":"task-muslkau2eayr93","start":"2027-07-06","finish":"2027-07-13","duration":6,"isMilestone":false},{"taskId":"task-muslkau3frb694","start":"2027-07-06T07:00","finish":"2027-07-06T14:00","duration":0.75,"isMilestone":false},{"taskId":"task-muslkau5pl9y95","start":"2027-07-07","finish":"2027-07-08","duration":2,"isMilestone":false},{"taskId":"task-muslkau6xpmj96","start":"2027-07-14","finish":"2027-07-15","duration":2,"isMilestone":false},{"taskId":"task-muslkau8n0wc97","start":"2027-07-16","finish":"2027-07-19","duration":2,"isMilestone":false},{"taskId":"task-muslkauakc2j98","start":"2027-07-20","finish":"2027-07-22","duration":3,"isMilestone":false},{"taskId":"task-muslkaubdo4399","start":"2027-07-23","finish":"2027-07-26","duration":2,"isMilestone":false},{"taskId":"task-muslkaudb65q100","start":"2027-07-27","finish":"2027-07-27","duration":1,"isMilestone":false},{"taskId":"task-muslkaueen6y101","start":"2027-08-25","finish":"2027-08-27","duration":3,"isMilestone":false},{"taskId":"task-muslkaugkaku102","start":"2027-07-27","finish":"2027-07-29","duration":3,"isMilestone":false},{"taskId":"task-muslkaui54tg103","start":"2027-08-30","finish":"2027-08-30","duration":1,"isMilestone":false},{"taskId":"task-muslkaujm261104","start":"2027-08-30","finish":"2027-08-30","duration":0,"isMilestone":true,"milestoneKind":"FINISH"}],"projectEnd":"2027-08-30","projectDuration":46}]'),$);
#342=IFCPROPERTYSINGLEVALUE('TaskGuids',$,IFCTEXT('{"task-muslkatmu25h82":"1eO8VNaGQWNr6sMqibpHhf","task-muslkato1u1583":"280o0nvjWj2fPtVw6vVj54","task-muslkatp01pt84":"2FrJmH4ojIipYbPqZGEic5","task-muslkatq9qs985":"12leRre6w5$tEXVcYsakI2","task-muslkatrqc7a86":"3zvaFGIK$fKZQm7Ds_ZoC0","task-muslkatte7l787":"3TSEmV4xute7BkqcrtXvpX","task-muslkatvdiqu88":"27snRhB9hMjuhjQq8qikzE","task-muslkatwbr5e89":"1pqQUSYxyHXtK$snAFXpmG","task-muslkatxnr7c90":"0tDDHuHD0CYSUXEMNgM8wt","task-muslkatzyhjj91":"26PEwESwJMEioIj4qZ3jIZ","task-muslkau0k1pe92":"0lT10$EPsLEF$Hjj3P1pmT","task-muslkau2eayr93":"1SLN59lxX1W7fT$wiRQoOh","task-muslkau3frb694":"3fgd92KS$X0QepYbvuMI18","task-muslkau5pl9y95":"2gf2OowJ_E13B8$DED$x7I","task-muslkau6xpmj96":"3Na3K$JKOFlX_EyP$a2QyM","task-muslkau8n0wc97":"3$svVV1X_1jhRR$EgpWSw5","task-muslkauakc2j98":"0YHFEhWZndMcl0am7zmcut","task-muslkaubdo4399":"0WgokT9znWCrU6tZixFs0l","task-muslkaudb65q100":"2CGnyfKdYJJoSjFsmqyuEK","task-muslkaueen6y101":"3h4qhIu6mAowMK_0GtdlWR","task-muslkaugkaku102":"03UXhpldGC1PvyhlDm53CJ","task-muslkaui54tg103":"11mmwyFeO3L$rzWj_RTcda","task-muslkaujm261104":"30LV6Q6EnIVEvDDeAgnhtQ"}'),$);
#343=IFCPROPERTYSINGLEVALUE('ActiveBaselineId',$,IFCTEXT('baseline-muslkaz5erxt146'),$);
#344=IFCPROPERTYSET('3Em4wNE4c0FtuxE9Bq89ok',#6,'OPS_Baselines',$,(#341,#342,#343));
#345=IFCRELDEFINESBYPROPERTIES('3KMuyiz9a_0JIKNVm0bBA2',#6,$,$,(#70),#344);
ENDSEC;
END-ISO-10303-21;
