ISO-10303-21;
HEADER;
FILE_DESCRIPTION(('ViewDefinition [SchedulingView]'),'2;1');
FILE_NAME('House extension.ifc','2026-09-28T15:51:46',('Open Planner Studio'),('OpenAEC Foundation'),'Open Planner Studio 0.1','Open Planner Studio','');
FILE_SCHEMA(('IFC4X3'));
ENDSEC;
DATA;
#1=IFCPERSON($,$,$,$,$,$,$,$);
#2=IFCORGANIZATION($,$,$,$,$);
#3=IFCPERSONANDORGANIZATION(#1,#2,$);
#4=IFCORGANIZATION($,'OpenAEC Foundation',$,$,$);
#5=IFCAPPLICATION(#4,'0.1','Open Planner Studio','OPS');
#6=IFCOWNERHISTORY(#3,#5,$,.NOCHANGE.,$,$,$,1790610706);
#7=IFCSIUNIT(*,.LENGTHUNIT.,$,.METRE.);
#8=IFCSIUNIT(*,.TIMEUNIT.,$,.SECOND.);
#9=IFCUNITASSIGNMENT((#7,#8));
#10=IFCCARTESIANPOINT((0.,0.,0.));
#11=IFCAXIS2PLACEMENT3D(#10,$,$);
#12=IFCGEOMETRICREPRESENTATIONCONTEXT($,'Plan',3,1.0E-05,#11,$);
#13=IFCPROJECT('8r2VithlxxPBqlDHHBBFlr',#6,'House extension','A 4 by 5 metre extension at the rear of a family home — the practice project for the tutorials.',$,$,$,(#12),#9);
#14=IFCTIMEPERIOD('07:00:00','16:00:00');
#15=IFCRECURRENCEPATTERN(.WEEKLY.,$,(1,2,3,4,5),$,$,$,$,(#14));
#16=IFCWORKTIME('Standard work week',.PREDICTED.,$,#15,$,$);
#17=IFCWORKTIME('Nieuwjaar',.PREDICTED.,$,$,'2026-01-01','2026-01-01');
#18=IFCWORKTIME('Goede Vrijdag',.PREDICTED.,$,$,'2026-04-03','2026-04-03');
#19=IFCWORKTIME('Pasen',.PREDICTED.,$,$,'2026-04-05','2026-04-06');
#20=IFCWORKTIME('Koningsdag',.PREDICTED.,$,$,'2026-04-27','2026-04-27');
#21=IFCWORKTIME('Hemelvaart',.PREDICTED.,$,$,'2026-05-14','2026-05-14');
#22=IFCWORKTIME('Pinksteren',.PREDICTED.,$,$,'2026-05-24','2026-05-25');
#23=IFCWORKTIME('Kerst',.PREDICTED.,$,$,'2026-12-25','2026-12-26');
#24=IFCWORKTIME('Nieuwjaar',.PREDICTED.,$,$,'2027-01-01','2027-01-01');
#25=IFCWORKTIME('Goede Vrijdag',.PREDICTED.,$,$,'2027-03-26','2027-03-26');
#26=IFCWORKTIME('Pasen',.PREDICTED.,$,$,'2027-03-28','2027-03-29');
#27=IFCWORKTIME('Koningsdag',.PREDICTED.,$,$,'2027-04-27','2027-04-27');
#28=IFCWORKTIME('Hemelvaart',.PREDICTED.,$,$,'2027-05-06','2027-05-06');
#29=IFCWORKTIME('Pinksteren',.PREDICTED.,$,$,'2027-05-16','2027-05-17');
#30=IFCWORKTIME('Kerst',.PREDICTED.,$,$,'2027-12-25','2027-12-26');
#31=IFCWORKTIME('Nieuwjaar',.PREDICTED.,$,$,'2028-01-01','2028-01-01');
#32=IFCWORKTIME('Goede Vrijdag',.PREDICTED.,$,$,'2028-04-14','2028-04-14');
#33=IFCWORKTIME('Pasen',.PREDICTED.,$,$,'2028-04-16','2028-04-17');
#34=IFCWORKTIME('Koningsdag',.PREDICTED.,$,$,'2028-04-27','2028-04-27');
#35=IFCWORKTIME('Hemelvaart',.PREDICTED.,$,$,'2028-05-25','2028-05-25');
#36=IFCWORKTIME('Pinksteren',.PREDICTED.,$,$,'2028-06-04','2028-06-05');
#37=IFCWORKTIME('Kerst',.PREDICTED.,$,$,'2028-12-25','2028-12-26');
#38=IFCWORKTIME('Nieuwjaar',.PREDICTED.,$,$,'2029-01-01','2029-01-01');
#39=IFCWORKTIME('Goede Vrijdag',.PREDICTED.,$,$,'2029-03-30','2029-03-30');
#40=IFCWORKTIME('Pasen',.PREDICTED.,$,$,'2029-04-01','2029-04-02');
#41=IFCWORKTIME('Koningsdag',.PREDICTED.,$,$,'2029-04-27','2029-04-27');
#42=IFCWORKTIME('Hemelvaart',.PREDICTED.,$,$,'2029-05-10','2029-05-10');
#43=IFCWORKTIME('Pinksteren',.PREDICTED.,$,$,'2029-05-20','2029-05-21');
#44=IFCWORKTIME('Kerst',.PREDICTED.,$,$,'2029-12-25','2029-12-26');
#45=IFCWORKTIME('Nieuwjaar',.PREDICTED.,$,$,'2030-01-01','2030-01-01');
#46=IFCWORKTIME('Goede Vrijdag',.PREDICTED.,$,$,'2030-04-19','2030-04-19');
#47=IFCWORKTIME('Pasen',.PREDICTED.,$,$,'2030-04-21','2030-04-22');
#48=IFCWORKTIME('Koningsdag',.PREDICTED.,$,$,'2030-04-27','2030-04-27');
#49=IFCWORKTIME('Bevrijdingsdag',.PREDICTED.,$,$,'2030-05-05','2030-05-05');
#50=IFCWORKTIME('Hemelvaart',.PREDICTED.,$,$,'2030-05-30','2030-05-30');
#51=IFCWORKTIME('Pinksteren',.PREDICTED.,$,$,'2030-06-09','2030-06-10');
#52=IFCWORKTIME('Kerst',.PREDICTED.,$,$,'2030-12-25','2030-12-26');
#53=IFCWORKCALENDAR('_HlbW$VPl1Yxnv_nBDbFBd',#6,'Construction calendar NL','Standaard bouwkalender: ma-vr 07:00-16:00',$,(#16),(#17,#18,#19,#20,#21,#22,#23,#24,#25,#26,#27,#28,#29,#30,#31,#32,#33,#34,#35,#36,#37,#38,#39,#40,#41,#42,#43,#44,#45,#46,#47,#48,#49,#50,#51,#52),.FIRSTSHIFT.);
#54=IFCPROPERTYSINGLEVALUE('RuleSetId',$,IFCLABEL('NL'),$);
#55=IFCPROPERTYSINGLEVALUE('GeneratedFromYear',$,IFCINTEGER(2026),$);
#56=IFCPROPERTYSINGLEVALUE('GeneratedToYear',$,IFCINTEGER(2030),$);
#57=IFCPROPERTYSINGLEVALUE('HoursPerDay',$,IFCREAL(8),$);
#58=IFCPROPERTYSET('qL5XmPUFgdlJ6X9$WtAtOZ',#6,'OPS_Calendar',$,(#54,#55,#56,#57));
#59=IFCRELDEFINESBYPROPERTIES('bXh12hy$qvOdOP_VbbYntl',#6,$,$,(#53),#58);
#60=IFCWORKPLAN('0nBnNH09lpmVcTf1jxr1cH',#6,'House extension','A 4 by 5 metre extension at the rear of a family home — the practice project for the tutorials.',$,$,'2026-09-28T15:51:46',$,$,$,$,$,'2027-06-07T07:00:00','2027-06-14T07:00:00',.PLANNED.);
#61=IFCWORKSCHEDULE('T1HjtXwXVRx1unRH6pr1w$',#6,'Construction schedule v1.0',$,$,$,'2026-09-28T15:51:46',$,$,$,$,$,'2027-06-07T07:00:00','2027-06-14T07:00:00',.PLANNED.);
#62=IFCRELAGGREGATES('X$Ph9TPtbVDd8te$ftI1sz',#6,$,$,#60,(#61));
#63=IFCTASKTIME('Preparation Time',.PREDICTED.,$,.WORKTIME.,'P0Y0M2D','2027-06-07T07:00:00','2027-06-11T07:00:00','2027-06-07T07:00:00','2027-06-08T07:00:00','2027-06-11T07:00:00','2027-06-14T07:00:00','P0Y0M4D','P0Y0M4D',.F.,$,$,$,$,$,0.00);
#64=IFCTASK('g7Cp7rudv9ILkRiF2fwJgt',#6,'Preparation',$,$,'1',$,$,$,.F.,$,#63,.CONSTRUCTION.);
#65=IFCTASKTIME('Foundations Time',.PREDICTED.,$,.WORKTIME.,'P0Y0M3D','2027-06-07T07:00:00','2027-06-11T07:00:00','2027-06-07T07:00:00','2027-06-09T07:00:00','2027-06-10T07:00:00','2027-06-14T07:00:00','P0Y0M3D','P0Y0M3D',.F.,$,$,$,$,$,0.00);
#66=IFCTASK('U$txctCX3Z6js5ylJ5LXi1',#6,'Foundations',$,$,'2',$,$,$,.F.,$,#65,.CONSTRUCTION.);
#67=IFCTASKTIME('Shell Time',.PREDICTED.,$,.WORKTIME.,'P0Y0M6D','2027-06-07T07:00:00','2027-06-11T07:00:00','2027-06-07T07:00:00','2027-06-14T07:00:00','2027-06-07T07:00:00','2027-06-14T07:00:00','P0Y0M0D','P0Y0M0D',.T.,$,$,$,$,$,0.00);
#68=IFCTASK('SXjvJT9fYvm$qrM1$VXRDl',#6,'Shell',$,$,'3',$,$,$,.F.,$,#67,.CONSTRUCTION.);
#69=IFCTASKTIME('Finishing Time',.PREDICTED.,$,.WORKTIME.,'P0Y0M4D','2027-06-07T07:00:00','2027-06-11T07:00:00','2027-06-07T07:00:00','2027-06-10T07:00:00','2027-06-09T07:00:00','2027-06-14T07:00:00','P0Y0M2D','P0Y0M2D',.F.,$,$,$,$,$,0.00);
#70=IFCTASK('5H3tU9bFs9vpadA$t7Kx7t',#6,'Finishing',$,$,'4',$,$,$,.F.,$,#69,.CONSTRUCTION.);
#71=IFCTASKTIME('Start of construction Time',.PREDICTED.,$,.WORKTIME.,'P0Y0M0D','2027-06-07T07:00:00','2027-06-07T07:00:00','2027-06-07T07:00:00','2027-06-07T07:00:00','2027-06-14T07:00:00','2027-06-14T07:00:00','P0Y0M5D','P0Y0M5D',.F.,$,$,$,$,$,0.00);
#72=IFCTASK('AD7Z41ktBt2bLtWVL3$xT5',#6,'Start of construction',$,$,'1.1',$,$,$,.T.,$,#71,.USERDEFINED.);
#73=IFCTASKTIME('Set up site Time',.PREDICTED.,$,.WORKTIME.,'P0Y0M2D','2027-06-07T07:00:00','2027-06-08T07:00:00','2027-06-07T07:00:00','2027-06-08T07:00:00','2027-06-11T07:00:00','2027-06-14T07:00:00','P0Y0M4D','P0Y0M4D',.F.,$,$,$,$,$,0.00);
#74=IFCTASK('YZ0963CFKNQXAR0VDrBnV3',#6,'Set up site',$,$,'1.2',$,$,$,.F.,$,#73,.CONSTRUCTION.);
#75=IFCTASKTIME('Clear garden and paving Time',.PREDICTED.,$,.WORKTIME.,'P0Y0M1D','2027-06-07T07:00:00','2027-06-07T07:00:00','2027-06-07T07:00:00','2027-06-07T07:00:00','2027-06-14T07:00:00','2027-06-14T07:00:00','P0Y0M5D','P0Y0M5D',.F.,$,$,$,$,$,0.00);
#76=IFCTASK('rD$B3rGN4xFDibaFPFdJox',#6,'Clear garden and paving',$,$,'1.3',$,$,$,.F.,$,#75,.CONSTRUCTION.);
#77=IFCTASKTIME('Set out the extension Time',.PREDICTED.,$,.WORKTIME.,'P0Y0M1D','2027-06-07T07:00:00','2027-06-07T07:00:00','2027-06-07T07:00:00','2027-06-07T07:00:00','2027-06-14T07:00:00','2027-06-14T07:00:00','P0Y0M5D','P0Y0M5D',.F.,$,$,$,$,$,0.00);
#78=IFCTASK('l5VzUR_FOPFpSdc1wDxHj1',#6,'Set out the extension',$,$,'1.4',$,$,$,.F.,$,#77,.CONSTRUCTION.);
#79=IFCTASKTIME('Excavate foundation trench Time',.PREDICTED.,$,.WORKTIME.,'P0Y0M2D','2027-06-07T07:00:00','2027-06-08T07:00:00','2027-06-07T07:00:00','2027-06-08T07:00:00','2027-06-11T07:00:00','2027-06-14T07:00:00','P0Y0M4D','P0Y0M4D',.F.,$,$,$,$,$,0.00);
#80=IFCTASK('jfmPjVEHFZEBWJd$nRnTL9',#6,'Excavate foundation trench',$,$,'2.1',$,$,$,.F.,$,#79,.CONSTRUCTION.);
#81=IFCTASKTIME('Foundation formwork and reinforcement Time',.PREDICTED.,$,.WORKTIME.,'P0Y0M3D','2027-06-07T07:00:00','2027-06-09T07:00:00','2027-06-07T07:00:00','2027-06-09T07:00:00','2027-06-10T07:00:00','2027-06-14T07:00:00','P0Y0M3D','P0Y0M3D',.F.,$,$,$,$,$,0.00);
#82=IFCTASK('wlrF3B8v2ZCTxb4nb1trKX',#6,'Foundation formwork and reinforcement',$,$,'2.2',$,$,$,.F.,$,#81,.CONSTRUCTION.);
#83=IFCTASKTIME('Reinforcement inspection Time',.PREDICTED.,$,.WORKTIME.,'P0Y0M0D','2027-06-07T07:00:00','2027-06-07T07:00:00','2027-06-07T07:00:00','2027-06-07T07:00:00','2027-06-14T07:00:00','2027-06-14T07:00:00','P0Y0M5D','P0Y0M5D',.F.,$,$,$,$,$,0.00);
#84=IFCTASK('Q$npzvNNc1QDiXt$CTqpOh',#6,'Reinforcement inspection',$,$,'2.3',$,$,$,.T.,$,#83,.ATTENDANCE.);
#85=IFCTASKTIME('Pour foundation Time',.PREDICTED.,$,.WORKTIME.,'P0Y0M1D','2027-06-07T07:00:00','2027-06-07T07:00:00','2027-06-07T07:00:00','2027-06-07T07:00:00','2027-06-14T07:00:00','2027-06-14T07:00:00','P0Y0M5D','P0Y0M5D',.F.,$,$,$,$,$,0.00);
#86=IFCTASK('mtiJ7PDFYJATz7sHO5szZ9',#6,'Pour foundation',$,$,'2.4',$,$,$,.F.,$,#85,.CONSTRUCTION.);
#87=IFCTASKTIME('Foundation brickwork Time',.PREDICTED.,$,.WORKTIME.,'P0Y0M2D','2027-06-07T07:00:00','2027-06-08T07:00:00','2027-06-07T07:00:00','2027-06-08T07:00:00','2027-06-11T07:00:00','2027-06-14T07:00:00','P0Y0M4D','P0Y0M4D',.F.,$,$,$,$,$,0.00);
#88=IFCTASK('xHhlBZ8PBz8NtrYV3DMZfV',#6,'Foundation brickwork',$,$,'2.5',$,$,$,.F.,$,#87,.CONSTRUCTION.);
#89=IFCTASKTIME('Lay hollow-core floor Time',.PREDICTED.,$,.WORKTIME.,'P0Y0M1D','2027-06-07T07:00:00','2027-06-07T07:00:00','2027-06-07T07:00:00','2027-06-07T07:00:00','2027-06-14T07:00:00','2027-06-14T07:00:00','P0Y0M5D','P0Y0M5D',.F.,$,$,$,$,$,0.00);
#90=IFCTASK('A9s77vn7Udi3$hoFMFdjkL',#6,'Lay hollow-core floor',$,$,'2.6',$,$,$,.F.,$,#89,.CONSTRUCTION.);
#91=IFCTASKTIME('Build inner cavity leaf Time',.PREDICTED.,$,.WORKTIME.,'P0Y0M5D','2027-06-07T07:00:00','2027-06-11T07:00:00','2027-06-07T07:00:00','2027-06-11T07:00:00','2027-06-08T07:00:00','2027-06-14T07:00:00','P0Y0M1D','P0Y0M1D',.F.,$,$,$,$,$,0.00);
#92=IFCTASK('EP2BHRDFIhDP8HFV5F9zV7',#6,'Build inner cavity leaf',$,$,'3.1',$,$,$,.F.,$,#91,.CONSTRUCTION.);
#93=IFCTASKTIME('Build outer cavity leaf Time',.PREDICTED.,$,.WORKTIME.,'P0Y0M6D','2027-06-07T07:00:00','2027-06-14T07:00:00','2027-06-07T07:00:00','2027-06-14T07:00:00','2027-06-07T07:00:00','2027-06-14T07:00:00','P0Y0M0D','P0Y0M0D',.T.,$,$,$,$,$,0.00);
#94=IFCTASK('fzfbeTvt$r5XcTv$MBSrqF',#6,'Build outer cavity leaf',$,$,'3.2',$,$,$,.F.,$,#93,.CONSTRUCTION.);
#95=IFCTASKTIME('Place roof elements Time',.PREDICTED.,$,.WORKTIME.,'P0Y0M1D','2027-06-07T07:00:00','2027-06-07T07:00:00','2027-06-07T07:00:00','2027-06-07T07:00:00','2027-06-14T07:00:00','2027-06-14T07:00:00','P0Y0M5D','P0Y0M5D',.F.,$,$,$,$,$,0.00);
#96=IFCTASK('bXrViB$vIXZtrv_nPn7pyr',#6,'Place roof elements',$,$,'3.3',$,$,$,.F.,$,#95,.CONSTRUCTION.);
#97=IFCTASKTIME('Apply roofing Time',.PREDICTED.,$,.WORKTIME.,'P0Y0M2D','2027-06-07T07:00:00','2027-06-08T07:00:00','2027-06-07T07:00:00','2027-06-08T07:00:00','2027-06-11T07:00:00','2027-06-14T07:00:00','P0Y0M4D','P0Y0M4D',.F.,$,$,$,$,$,0.00);
#98=IFCTASK('kxtxQp_fE5Pr8te$4BrnXZ',#6,'Apply roofing',$,$,'3.4',$,$,$,.F.,$,#97,.CONSTRUCTION.);
#99=IFCTASKTIME('Install window frames Time',.PREDICTED.,$,.WORKTIME.,'P0Y0M2D','2027-06-07T07:00:00','2027-06-08T07:00:00','2027-06-07T07:00:00','2027-06-08T07:00:00','2027-06-11T07:00:00','2027-06-14T07:00:00','P0Y0M4D','P0Y0M4D',.F.,$,$,$,$,$,0.00);
#100=IFCTASK('TzSLlVL1krtzrdEX4h7DKX',#6,'Install window frames',$,$,'3.5',$,$,$,.F.,$,#99,.CONSTRUCTION.);
#101=IFCTASKTIME('Break through rear wall Time',.PREDICTED.,$,.WORKTIME.,'P0Y0M2D','2027-06-07T07:00:00','2027-06-08T07:00:00','2027-06-07T07:00:00','2027-06-08T07:00:00','2027-06-11T07:00:00','2027-06-14T07:00:00','P0Y0M4D','P0Y0M4D',.F.,$,$,$,$,$,0.00);
#102=IFCTASK('HNunDJB1ShFhAbu1Tz812T',#6,'Break through rear wall',$,$,'3.6',$,$,$,.F.,$,#101,.CONSTRUCTION.);
#103=IFCTASKTIME('Install building services Time',.PREDICTED.,$,.WORKTIME.,'P0Y0M3D','2027-06-07T07:00:00','2027-06-09T07:00:00','2027-06-07T07:00:00','2027-06-09T07:00:00','2027-06-10T07:00:00','2027-06-14T07:00:00','P0Y0M3D','P0Y0M3D',.F.,$,$,$,$,$,0.00);
#104=IFCTASK('5L2rLt4$u$M3pzjHfpDPP7',#6,'Install building services',$,$,'4.1',$,$,$,.F.,$,#103,.CONSTRUCTION.);
#105=IFCTASKTIME('Plastering Time',.PREDICTED.,$,.WORKTIME.,'P0Y0M4D','2027-06-07T07:00:00','2027-06-10T07:00:00','2027-06-07T07:00:00','2027-06-10T07:00:00','2027-06-09T07:00:00','2027-06-14T07:00:00','P0Y0M2D','P0Y0M2D',.F.,$,$,$,$,$,0.00);
#106=IFCTASK('$pcN0H$7kLT9hNKlGnJ7xB',#6,'Plastering',$,$,'4.2',$,$,$,.F.,$,#105,.CONSTRUCTION.);
#107=IFCTASKTIME('Lay floor screed Time',.PREDICTED.,$,.WORKTIME.,'P0Y0M1D','2027-06-07T07:00:00','2027-06-07T07:00:00','2027-06-07T07:00:00','2027-06-07T07:00:00','2027-06-14T07:00:00','2027-06-14T07:00:00','P0Y0M5D','P0Y0M5D',.F.,$,$,$,$,$,0.00);
#108=IFCTASK('Ita3snDXzH87wXFVNphXOB',#6,'Lay floor screed',$,$,'4.3',$,$,$,.F.,$,#107,.CONSTRUCTION.);
#109=IFCTASKTIME('Tiling Time',.PREDICTED.,$,.WORKTIME.,'P0Y0M3D','2027-06-07T07:00:00','2027-06-09T07:00:00','2027-06-07T07:00:00','2027-06-09T07:00:00','2027-06-10T07:00:00','2027-06-14T07:00:00','P0Y0M3D','P0Y0M3D',.F.,$,$,$,$,$,0.00);
#110=IFCTASK('9pNJfninMPnpqLgHI30vfT',#6,'Tiling',$,$,'4.4',$,$,$,.F.,$,#109,.CONSTRUCTION.);
#111=IFCTASKTIME('Painting Time',.PREDICTED.,$,.WORKTIME.,'P0Y0M3D','2027-06-07T07:00:00','2027-06-09T07:00:00','2027-06-07T07:00:00','2027-06-09T07:00:00','2027-06-10T07:00:00','2027-06-14T07:00:00','P0Y0M3D','P0Y0M3D',.F.,$,$,$,$,$,0.00);
#112=IFCTASK('uptDPRg$cVMnz5CnOpJvhJ',#6,'Painting',$,$,'4.5',$,$,$,.F.,$,#111,.CONSTRUCTION.);
#113=IFCTASKTIME('Snagging and cleaning Time',.PREDICTED.,$,.WORKTIME.,'P0Y0M1D','2027-06-07T07:00:00','2027-06-07T07:00:00','2027-06-07T07:00:00','2027-06-07T07:00:00','2027-06-14T07:00:00','2027-06-14T07:00:00','P0Y0M5D','P0Y0M5D',.F.,$,$,$,$,$,0.00);
#114=IFCTASK('HxPLj12fI$1xxx0V$X93Tt',#6,'Snagging and cleaning',$,$,'4.6',$,$,$,.F.,$,#113,.CONSTRUCTION.);
#115=IFCTASKTIME('Handover Time',.PREDICTED.,$,.WORKTIME.,'P0Y0M0D','2027-06-07T07:00:00','2027-06-07T07:00:00','2027-06-07T07:00:00','2027-06-07T07:00:00','2027-06-14T07:00:00','2027-06-14T07:00:00','P0Y0M5D','P0Y0M5D',.F.,$,$,$,$,$,0.00);
#116=IFCTASK('8hQjHxVP$NJ72JpHBJnZpp',#6,'Handover',$,$,'4.7',$,$,$,.T.,$,#115,.USERDEFINED.);
#117=IFCRELNESTS('nBHb4XwX$hXb3be10dSr4d',#6,'WBS Preparation',$,#64,( #72,#74,#76,#78));
#118=IFCRELNESTS('R54ZGNO7W5V3$hknm$pP5n',#6,'WBS Foundations',$,#66,( #80,#82,#84,#86,#88,#90));
#119=IFCRELNESTS('ZZOlxBffaXLHTtSlhztzNZ',#6,'WBS Shell',$,#68,( #92,#94,#96,#98,#100,#102));
#120=IFCRELNESTS('2D2XSF4HFFKzZrUX1XnhIh',#6,'WBS Finishing',$,#70,( #104,#106,#108,#110,#112,#114,#116));
#121=IFCRELNESTS('tjjP5r1vgdnD4TBHzDgTrv',#6,'WBS Hoofd',$,#61,(#64,#66,#68,#70));
#122=IFCRELASSIGNSTOCONTROL('rDVhNjbXHjyDCF$VkTSruD',#6,$,$,(#64,#66,#68,#70,#72,#74,#76,#78,#80,#82,#84,#86,#88,#90,#92,#94,#96,#98,#100,#102,#104,#106,#108,#110,#112,#114,#116),$,#61);
#123=IFCPROPERTYSINGLEVALUE('InternalProjectId',$,IFCTEXT('proj-mulfdrpuosqa76'),$);
#124=IFCPROPERTYSINGLEVALUE('wbsAutoNumber',$,IFCBOOLEAN(.T.),$);
#125=IFCPROPERTYSINGLEVALUE('DefaultTaskDurationUnit',$,IFCLABEL('days'),$);
#126=IFCPROPERTYSINGLEVALUE('ProjectStartDate',$,IFCDATE('2027-06-07'),$);
#127=IFCPROPERTYSINGLEVALUE('ProjectEndDate',$,$,$);
#128=IFCPROPERTYSINGLEVALUE('CreatedAt',$,IFCTEXT('2026-09-28T15:51:46.578Z'),$);
#129=IFCPROPERTYSINGLEVALUE('ModifiedAt',$,IFCTEXT('2026-09-28T15:51:46.578Z'),$);
#130=IFCPROPERTYSET('e5a3ArlP$tNZvpDF1ZK5n5',#6,'OPS_ProjectSettings',$,(#123,#124,#125,#126,#127,#128,#129));
#131=IFCRELDEFINESBYPROPERTIES('0Hdzo1sPJhdjQlBF$1BF9l',#6,$,$,(#13),#130);
#132=IFCPROPERTYSINGLEVALUE('InternalTaskId',$,IFCTEXT('task-mulfdrpv51yt78'),$);
#133=IFCPROPERTYSET('7Lk5wZW99h5XMLsHCHLlDF',#6,'OPS_TaskIdentity',$,(#132));
#134=IFCRELDEFINESBYPROPERTIES('0HvT0l1vMbJfz7AlOj$jMp',#6,$,$,(#64),#133);
#135=IFCPROPERTYSINGLEVALUE('InternalTaskId',$,IFCTEXT('task-mulfdrpxquws79'),$);
#136=IFCPROPERTYSET('xlJP17Qv0BfTVlXXojc7Bz',#6,'OPS_TaskIdentity',$,(#135));
#137=IFCRELDEFINESBYPROPERTIES('qB$BR1dtjBj7w1jnl7WdPd',#6,$,$,(#66),#136);
#138=IFCPROPERTYSINGLEVALUE('InternalTaskId',$,IFCTEXT('task-mulfdrpyjo3980'),$);
#139=IFCPROPERTYSET('vFnxAhxn81_RV5WVb5gZ3r',#6,'OPS_TaskIdentity',$,(#138));
#140=IFCRELDEFINESBYPROPERTIES('EhTNqdh1cJqx9rIXwj$JgD',#6,$,$,(#68),#139);
#141=IFCPROPERTYSINGLEVALUE('InternalTaskId',$,IFCTEXT('task-mulfdrpzfdvb81'),$);
#142=IFCPROPERTYSET('OZpPxBHdvzGXcHxn2xTNUn',#6,'OPS_TaskIdentity',$,(#141));
#143=IFCRELDEFINESBYPROPERTIES('lbj7FrXvCP4DOdUX1VdJMJ',#6,$,$,(#70),#142);
#144=IFCPROPERTYSINGLEVALUE('InternalTaskId',$,IFCTEXT('task-mulfdrq0pa9a82'),$);
#145=IFCPROPERTYSET('jbxF$ZWtPJYxnvUnTzG9CH',#6,'OPS_TaskIdentity',$,(#144));
#146=IFCRELDEFINESBYPROPERTIES('qfMzsBXvKj4hI5O1uhm9G$',#6,$,$,(#72),#145);
#147=IFCPROPERTYSINGLEVALUE('InternalTaskId',$,IFCTEXT('task-mulfdrq2wr6e83'),$);
#148=IFCPROPERTYSET('$l$rXJwXVbBFnjxFk$LlPh',#6,'OPS_TaskIdentity',$,(#147));
#149=IFCRELDEFINESBYPROPERTIES('ujLH$7k9TpWHfRe1nxztKj',#6,$,$,(#74),#148);
#150=IFCPROPERTYSINGLEVALUE('InternalTaskId',$,IFCTEXT('task-mulfdrq3j80w84'),$);
#151=IFCPROPERTYSET('I595_7v9FTEBiXVVglJv9j',#6,'OPS_TaskIdentity',$,(#150));
#152=IFCRELDEFINESBYPROPERTIES('r9wtQNuPzFibZroXKVjvfZ',#6,$,$,(#76),#151);
#153=IFCPROPERTYSINGLEVALUE('InternalTaskId',$,IFCTEXT('task-mulfdrq5w43l85'),$);
#154=IFCPROPERTYSET('I9iJDJTlnZ2RJpZngnnhER',#6,'OPS_TaskIdentity',$,(#153));
#155=IFCRELDEFINESBYPROPERTIES('db09w7k9V7LHj$DF3l$jYl',#6,$,$,(#78),#154);
#156=IFCPROPERTYSINGLEVALUE('InternalTaskId',$,IFCTEXT('task-mulfdrq6yqll86'),$);
#157=IFCPROPERTYSET('sNg3IJjneFqT5RynjRvb$N',#6,'OPS_TaskIdentity',$,(#156));
#158=IFCRELDEFINESBYPROPERTIES('3j_rNHu7gbp9NvMlA1H35r',#6,$,$,(#80),#157);
#159=IFCPROPERTYSINGLEVALUE('InternalTaskId',$,IFCTEXT('task-mulfdrq8dsw087'),$);
#160=IFCPROPERTYSET('N3VzE1sdrNYNzvEFk1b1of',#6,'OPS_TaskIdentity',$,(#159));
#161=IFCRELDEFINESBYPROPERTIES('m7sv5l9NobjfxbaljtoXa9',#6,$,$,(#82),#160);
#162=IFCPROPERTYSINGLEVALUE('InternalTaskId',$,IFCTEXT('task-mulfdrq9090m88'),$);
#163=IFCPROPERTYSET('tJ5VSJ_FGD61SDFXfDTN61',#6,'OPS_TaskIdentity',$,(#162));
#164=IFCRELDEFINESBYPROPERTIES('mtyTyZ8voF7LYTjn9TzfUJ',#6,$,$,(#84),#163);
#165=IFCPROPERTYSINGLEVALUE('InternalTaskId',$,IFCTEXT('task-mulfdrqcg0u189'),$);
#166=IFCPROPERTYSET('Ddk5ETfNS1nhkH9$O5s3Hn',#6,'OPS_TaskIdentity',$,(#165));
#167=IFCRELDEFINESBYPROPERTIES('6LATird9B9MzVR4nR$NLkh',#6,$,$,(#86),#166);
#168=IFCPROPERTYSINGLEVALUE('InternalTaskId',$,IFCTEXT('task-mulfdrqe9um390'),$);
#169=IFCPROPERTYSET('OZBXKBV7Cdi3Nvsl8hmfkd',#6,'OPS_TaskIdentity',$,(#168));
#170=IFCRELDEFINESBYPROPERTIES('lbh1sHv9Z1sT1$VXabfh_T',#6,$,$,(#88),#169);
#171=IFCPROPERTYSINGLEVALUE('InternalTaskId',$,IFCTEXT('task-mulfdrqf70rj91'),$);
#172=IFCPROPERTYSET('db0tQ9CVnn4piVFVDhdjQF',#6,'OPS_TaskIdentity',$,(#171));
#173=IFCRELDEFINESBYPROPERTIES('W1tx_PzHZp8fLZLHPFlBer',#6,$,$,(#90),#172);
#174=IFCPROPERTYSINGLEVALUE('InternalTaskId',$,IFCTEXT('task-mulfdrqhrowd92'),$);
#175=IFCPROPERTYSET('hvazABd9BtsZl90V9ZxXWv',#6,'OPS_TaskIdentity',$,(#174));
#176=IFCRELDEFINESBYPROPERTIES('STmdzPr1m3e9TBIXIzOVOZ',#6,$,$,(#92),#175);
#177=IFCPROPERTYSINGLEVALUE('InternalTaskId',$,IFCTEXT('task-mulfdrqjarmz93'),$);
#178=IFCPROPERTYSET('Cr1r5HFP$Bj7sbu15H5V4L',#6,'OPS_TaskIdentity',$,(#177));
#179=IFCRELDEFINESBYPROPERTIES('Jf8nPNVv4bDtdlLnRb2lz7',#6,$,$,(#94),#178);
#180=IFCPROPERTYSINGLEVALUE('InternalTaskId',$,IFCTEXT('task-mulfdrqkqljg94'),$);
#181=IFCPROPERTYSET('8jrFfl8vgdf5JXFXjR9B8R',#6,'OPS_TaskIdentity',$,(#180));
#182=IFCRELDEFINESBYPROPERTIES('nBnxQp2fQVMnlTrHfpDP3L',#6,$,$,(#96),#181);
#183=IFCPROPERTYSINGLEVALUE('InternalTaskId',$,IFCTEXT('task-mulfdrqm6cuf95'),$);
#184=IFCPROPERTYSET('HfGvPftfUpEvcZFVxFPjsP',#6,'OPS_TaskIdentity',$,(#183));
#185=IFCRELDEFINESBYPROPERTIES('e5aLbRJFWbRVEBYXvxMZzB',#6,$,$,(#98),#184);
#186=IFCPROPERTYSINGLEVALUE('InternalTaskId',$,IFCTEXT('task-mulfdrqoybfg96'),$);
#187=IFCPROPERTYSET('0n3tUxUNWRBnr7MH_5zt4v',#6,'OPS_TaskIdentity',$,(#186));
#188=IFCRELDEFINESBYPROPERTIES('vFvTeR_FGpQX6VHXFbvbbR',#6,$,$,(#100),#187);
#189=IFCPROPERTYSINGLEVALUE('InternalTaskId',$,IFCTEXT('task-mulfdrqpnnvr97'),$);
#190=IFCPROPERTYSET('qN_BnL31u$QpWp3n0P4TlL',#6,'OPS_TaskIdentity',$,(#189));
#191=IFCRELDEFINESBYPROPERTIES('5LI5wZOdTp8NDHDHRRc7DF',#6,$,$,(#102),#190);
#192=IFCPROPERTYSINGLEVALUE('InternalTaskId',$,IFCTEXT('task-mulfdrqrvw7998'),$);
#193=IFCPROPERTYSET('YTuVuhCFGpkdGB2VVD6J_V',#6,'OPS_TaskIdentity',$,(#192));
#194=IFCRELDEFINESBYPROPERTIES('bVDPxhJXDxPBWjP$Z1xVWP',#6,$,$,(#104),#193);
#195=IFCPROPERTYSINGLEVALUE('InternalTaskId',$,IFCTEXT('task-mulfdrqu6ncn99'),$);
#196=IFCPROPERTYSET('Y$dh9ZFdFZIhUNyFNJVpOr',#6,'OPS_TaskIdentity',$,(#195));
#197=IFCRELDEFINESBYPROPERTIES('f37rLfu7oHTd0z5F2N_ry7',#6,$,$,(#106),#196);
#198=IFCPROPERTYSINGLEVALUE('InternalTaskId',$,IFCTEXT('task-mulfdrqvoxz3100'),$);
#199=IFCPROPERTYSET('nLjPX9y1enaJQFf1b$nZjz',#6,'OPS_TaskIdentity',$,(#198));
#200=IFCRELDEFINESBYPROPERTIES('OT39Uf$7wTAT11P1WNMTvf',#6,$,$,(#108),#199);
#201=IFCPROPERTYSINGLEVALUE('InternalTaskId',$,IFCTEXT('task-mulfdrqxc3sm101'),$);
#202=IFCPROPERTYSET('wHTfeTd9RVJ7o$t1Z1DPX3',#6,'OPS_TaskIdentity',$,(#201));
#203=IFCRELDEFINESBYPROPERTIES('XZGvR1VPp5PBG54l9ZJvTN',#6,$,$,(#110),#202);
#204=IFCPROPERTYSINGLEVALUE('InternalTaskId',$,IFCTEXT('task-mulfdrqzewrj102'),$);
#205=IFCPROPERTYSET('5Hb$shRF_9wJQZ9$dnvp4v',#6,'OPS_TaskIdentity',$,(#204));
#206=IFCRELDEFINESBYPROPERTIES('UZmd7rmNsrxXQzTlGlnZ3L',#6,$,$,(#112),#205);
#207=IFCPROPERTYSINGLEVALUE('InternalTaskId',$,IFCTEXT('task-mulfdrr1dsnm103'),$);
#208=IFCPROPERTYSET('i5FpTtDV9$t3tfWVdnt3nV',#6,'OPS_TaskIdentity',$,(#207));
#209=IFCRELDEFINESBYPROPERTIES('5lR1wdEH7NIdm5yFJRvbNZ',#6,$,$,(#114),#208);
#210=IFCPROPERTYSINGLEVALUE('InternalTaskId',$,IFCTEXT('task-mulfdrr3pgiv104'),$);
#211=IFCPROPERTYSET('rNYLfjzHl1_RxFhlvXZf_Z',#6,'OPS_TaskIdentity',$,(#210));
#212=IFCRELDEFINESBYPROPERTIES('ELDvZxotp7Td0zbFO5gTnb',#6,$,$,(#116),#211);
#213=IFCPROPERTYSINGLEVALUE('MilestoneKind',$,IFCLABEL('START'),$);
#214=IFCPROPERTYSET('YZOl3vVP5ljfrJBnPLeXCl',#6,'OPS_Milestone',$,(#213));
#215=IFCRELDEFINESBYPROPERTIES('9fg3Y93$m3ePul1VSNQDm$',#6,$,$,(#72),#214);
#216=IFCPROPERTYSINGLEVALUE('MilestoneKind',$,IFCLABEL('FINISH'),$);
#217=IFCPROPERTYSINGLEVALUE('Mandatory',$,IFCBOOLEAN(.T.),$);
#218=IFCPROPERTYSET('wLob0lP9DRRVgrg$BfcD8R',#6,'OPS_Milestone',$,(#216,#217));
#219=IFCRELDEFINESBYPROPERTIES('JfmPH$9N0LLHxRiFElvbfZ',#6,$,$,(#84),#218);
#220=IFCPROPERTYSINGLEVALUE('MilestoneKind',$,IFCLABEL('FINISH'),$);
#221=IFCPROPERTYSET('S1NR4$6vsfBnzxaFT1R1Eb',#6,'OPS_Milestone',$,(#220));
#222=IFCRELDEFINESBYPROPERTIES('L3VzY5QvO7Zd0zRn4POlV7',#6,$,$,(#116),#221);
ENDSEC;
END-ISO-10303-21;
