ISO-10303-21;
HEADER;
FILE_DESCRIPTION(('ViewDefinition [SchedulingView]'),'2;1');
FILE_NAME('House extension.ifc','2026-10-02T16:16:36',('Open Planner Studio'),('OpenAEC Foundation'),'Open Planner Studio 0.1','Open Planner Studio','');
FILE_SCHEMA(('IFC4X3'));
ENDSEC;
DATA;
#1=IFCPERSON($,$,$,$,$,$,$,$);
#2=IFCORGANIZATION($,$,$,$,$);
#3=IFCPERSONANDORGANIZATION(#1,#2,$);
#4=IFCORGANIZATION($,'OpenAEC Foundation',$,$,$);
#5=IFCAPPLICATION(#4,'0.2','Open Planner Studio','OPS');
#6=IFCOWNERHISTORY(#3,#5,$,.NOCHANGE.,$,$,$,1790957796);
#7=IFCSIUNIT(*,.LENGTHUNIT.,$,.METRE.);
#8=IFCSIUNIT(*,.TIMEUNIT.,$,.SECOND.);
#9=IFCUNITASSIGNMENT((#7,#8));
#10=IFCCARTESIANPOINT((0.,0.,0.));
#11=IFCAXIS2PLACEMENT3D(#10,$,$);
#12=IFCGEOMETRICREPRESENTATIONCONTEXT($,'Plan',3,1.0E-05,#11,$);
#13=IFCPROJECT('1wQEXuK5Xr0VEqBClNUjZI',#6,'House extension','A 4 by 5 metre extension at the rear of a family home \X2\2014\X0\ the practice project for the tutorials.',$,$,$,(#12),#9);
#14=IFCTIMEPERIOD('07:00:00','12:00:00');
#15=IFCTIMEPERIOD('13:00:00','16:00:00');
#16=IFCRECURRENCEPATTERN(.WEEKLY.,$,(1,2,3,4,5),$,$,$,$,(#14,#15));
#17=IFCWORKTIME('Standard work week',.PREDICTED.,$,#16,$,$);
#18=IFCWORKTIME('Nieuwjaar',.PREDICTED.,$,$,'2026-01-01','2026-01-01');
#19=IFCWORKTIME('Goede Vrijdag',.PREDICTED.,$,$,'2026-04-03','2026-04-03');
#20=IFCWORKTIME('Pasen',.PREDICTED.,$,$,'2026-04-05','2026-04-06');
#21=IFCWORKTIME('Koningsdag',.PREDICTED.,$,$,'2026-04-27','2026-04-27');
#22=IFCWORKTIME('Hemelvaart',.PREDICTED.,$,$,'2026-05-14','2026-05-14');
#23=IFCWORKTIME('Pinksteren',.PREDICTED.,$,$,'2026-05-24','2026-05-25');
#24=IFCWORKTIME('Bouwvak (Midden)',.PREDICTED.,$,$,'2026-08-03','2026-08-21');
#25=IFCWORKTIME('Kerst',.PREDICTED.,$,$,'2026-12-25','2026-12-26');
#26=IFCWORKTIME('Nieuwjaar',.PREDICTED.,$,$,'2027-01-01','2027-01-01');
#27=IFCWORKTIME('Goede Vrijdag',.PREDICTED.,$,$,'2027-03-26','2027-03-26');
#28=IFCWORKTIME('Pasen',.PREDICTED.,$,$,'2027-03-28','2027-03-29');
#29=IFCWORKTIME('Koningsdag',.PREDICTED.,$,$,'2027-04-27','2027-04-27');
#30=IFCWORKTIME('Hemelvaart',.PREDICTED.,$,$,'2027-05-06','2027-05-06');
#31=IFCWORKTIME('Pinksteren',.PREDICTED.,$,$,'2027-05-16','2027-05-17');
#32=IFCWORKTIME('Bouwvak (Midden)',.PREDICTED.,$,$,'2027-08-02','2027-08-20');
#33=IFCWORKTIME('Kerst',.PREDICTED.,$,$,'2027-12-25','2027-12-26');
#34=IFCWORKTIME('Nieuwjaar',.PREDICTED.,$,$,'2028-01-01','2028-01-01');
#35=IFCWORKTIME('Goede Vrijdag',.PREDICTED.,$,$,'2028-04-14','2028-04-14');
#36=IFCWORKTIME('Pasen',.PREDICTED.,$,$,'2028-04-16','2028-04-17');
#37=IFCWORKTIME('Koningsdag',.PREDICTED.,$,$,'2028-04-27','2028-04-27');
#38=IFCWORKTIME('Hemelvaart',.PREDICTED.,$,$,'2028-05-25','2028-05-25');
#39=IFCWORKTIME('Pinksteren',.PREDICTED.,$,$,'2028-06-04','2028-06-05');
#40=IFCWORKTIME('Bouwvak (Midden)',.PREDICTED.,$,$,'2028-07-24','2028-08-11');
#41=IFCWORKTIME('Kerst',.PREDICTED.,$,$,'2028-12-25','2028-12-26');
#42=IFCWORKTIME('Nieuwjaar',.PREDICTED.,$,$,'2029-01-01','2029-01-01');
#43=IFCWORKTIME('Goede Vrijdag',.PREDICTED.,$,$,'2029-03-30','2029-03-30');
#44=IFCWORKTIME('Pasen',.PREDICTED.,$,$,'2029-04-01','2029-04-02');
#45=IFCWORKTIME('Koningsdag',.PREDICTED.,$,$,'2029-04-27','2029-04-27');
#46=IFCWORKTIME('Hemelvaart',.PREDICTED.,$,$,'2029-05-10','2029-05-10');
#47=IFCWORKTIME('Pinksteren',.PREDICTED.,$,$,'2029-05-20','2029-05-21');
#48=IFCWORKTIME('Bouwvak (Midden)',.PREDICTED.,$,$,'2029-07-30','2029-08-17');
#49=IFCWORKTIME('Kerst',.PREDICTED.,$,$,'2029-12-25','2029-12-26');
#50=IFCWORKTIME('Nieuwjaar',.PREDICTED.,$,$,'2030-01-01','2030-01-01');
#51=IFCWORKTIME('Goede Vrijdag',.PREDICTED.,$,$,'2030-04-19','2030-04-19');
#52=IFCWORKTIME('Pasen',.PREDICTED.,$,$,'2030-04-21','2030-04-22');
#53=IFCWORKTIME('Koningsdag',.PREDICTED.,$,$,'2030-04-27','2030-04-27');
#54=IFCWORKTIME('Bevrijdingsdag',.PREDICTED.,$,$,'2030-05-05','2030-05-05');
#55=IFCWORKTIME('Hemelvaart',.PREDICTED.,$,$,'2030-05-30','2030-05-30');
#56=IFCWORKTIME('Pinksteren',.PREDICTED.,$,$,'2030-06-09','2030-06-10');
#57=IFCWORKTIME('Bouwvak (Midden)',.PREDICTED.,$,$,'2030-07-29','2030-08-16');
#58=IFCWORKTIME('Kerst',.PREDICTED.,$,$,'2030-12-25','2030-12-26');
#59=IFCWORKCALENDAR('2LCuXAsrc6YfpdN2IvL2v8',#6,'Construction calendar NL','Standaard bouwkalender: ma-vr 07:00-16:00',$,(#17),(#18,#19,#20,#21,#22,#23,#24,#25,#26,#27,#28,#29,#30,#31,#32,#33,#34,#35,#36,#37,#38,#39,#40,#41,#42,#43,#44,#45,#46,#47,#48,#49,#50,#51,#52,#53,#54,#55,#56,#57,#58),.FIRSTSHIFT.);
#60=IFCPROPERTYSINGLEVALUE('RuleSetId',$,IFCLABEL('NL'),$);
#61=IFCPROPERTYSINGLEVALUE('BreakChoice',$,IFCLABEL('midden'),$);
#62=IFCPROPERTYSINGLEVALUE('GeneratedFromYear',$,IFCINTEGER(2026),$);
#63=IFCPROPERTYSINGLEVALUE('GeneratedToYear',$,IFCINTEGER(2030),$);
#64=IFCPROPERTYSINGLEVALUE('HoursPerDay',$,IFCREAL(8),$);
#65=IFCPROPERTYSINGLEVALUE('WorkEndHour',$,IFCREAL(16),$);
#66=IFCPROPERTYSINGLEVALUE('IsHourCalendar',$,IFCBOOLEAN(.F.),$);
#67=IFCPROPERTYSET('2Srd$qMmCCk1T6y8a_7s_A',#6,'OPS_Calendar',$,(#60,#61,#62,#63,#64,#65,#66));
#68=IFCRELDEFINESBYPROPERTIES('0otuD$l269CHsc79gReK_s',#6,$,$,(#59),#67);
#69=IFCWORKPLAN('0YISBhyjFhyz$W0sC4pUma',#6,'House extension','A 4 by 5 metre extension at the rear of a family home \X2\2014\X0\ the practice project for the tutorials.',$,$,'2026-10-02T16:16:36',$,$,$,$,$,'2027-06-07T07:00:00','2027-06-14T07:00:00',.PLANNED.);
#70=IFCWORKSCHEDULE('186sDbm2S4gaFMqHqtyUq_',#6,'Construction schedule v1.0',$,$,$,'2026-10-02T16:16:36',$,$,$,$,$,'2027-06-07T07:00:00','2027-06-14T07:00:00',.PLANNED.);
#71=IFCRELAGGREGATES('3AuaP22G$CFuvwnaZfbpyL',#6,$,$,#69,(#70));
#72=IFCTASKTIME('Preparation Time',.PREDICTED.,$,.WORKTIME.,'P0Y0M4D','2027-06-07T07:00:00','2027-06-11T07:00:00','2027-06-07T07:00:00','2027-06-10T07:00:00','2027-06-10T07:00:00','2027-06-15T07:00:00','P0Y0M0D','P0Y0M3D',.F.,$,$,$,$,$,0.00);
#73=IFCTASK('1jyF72lrPIthRplsFS1D$1',#6,'Preparation',$,$,'1',$,$,$,.F.,$,#72,.CONSTRUCTION.);
#74=IFCTASKTIME('Foundations Time',.PREDICTED.,$,.WORKTIME.,'P0Y0M12D','2027-06-07T07:00:00','2027-06-11T07:00:00','2027-06-11T07:00:00','2027-06-28T12:00','2027-06-16T07:00:00','2027-07-01T16:00','P0Y0M0D','P0Y0M3D',.F.,$,$,$,$,$,0.00);
#75=IFCTASK('3eZ8iUtS$oy7vrmXpm4JWf',#6,'Foundations',$,$,'2',$,$,$,.F.,$,#74,.CONSTRUCTION.);
#76=IFCTASKTIME('Shell Time',.PREDICTED.,$,.WORKTIME.,'P0Y0M15D','2027-06-07T07:00:00','2027-06-11T07:00:00','2027-06-29T07:00:00','2027-07-19T07:00:00','2027-07-02T07:00:00','2027-07-19T07:00:00','P0Y0M0D','P0Y0M0D',.T.,$,$,$,$,$,0.00);
#77=IFCTASK('2z2Tv6_$3RSOWNYAkUaXh1',#6,'Shell',$,$,'3',$,$,$,.F.,$,#76,.CONSTRUCTION.);
#78=IFCTASKTIME('Finishing Time',.PREDICTED.,$,.WORKTIME.,'P0Y0M17D','2027-06-07T07:00:00','2027-06-11T07:00:00','2027-07-20T07:00:00','2027-09-01T07:00:00','2027-07-20T07:00:00','2027-09-01T07:00:00','P0Y0M0D','P0Y0M0D',.T.,$,$,$,$,$,0.00);
#79=IFCTASK('3as2xpUT1N$RoEUlp2VvOc',#6,'Finishing',$,$,'4',$,$,$,.F.,$,#78,.CONSTRUCTION.);
#80=IFCTASKTIME('Start of construction Time',.PREDICTED.,$,.WORKTIME.,'P0Y0M0D','2027-06-07T07:00:00','2027-06-07T07:00:00','2027-06-07T07:00:00','2027-06-07T07:00:00','2027-06-10T07:00:00','2027-06-10T07:00:00','P0Y0M0D','P0Y0M3D',.F.,$,$,$,$,$,0.00);
#81=IFCTASK('2N3_e8RPfXWwiAUjtSuCnP',#6,'Start of construction',$,$,'1.1',$,$,$,.T.,$,#80,.USERDEFINED.);
#82=IFCTASKTIME('Set up site Time',.PREDICTED.,$,.WORKTIME.,'P0Y0M2D','2027-06-07T07:00:00','2027-06-08T07:00:00','2027-06-07T07:00:00','2027-06-08T07:00:00','2027-06-10T07:00:00','2027-06-11T07:00:00','P0Y0M0D','P0Y0M3D',.F.,$,$,$,$,$,0.00);
#83=IFCTASK('3ztP$Y_2bufnjOB6ito9ZK',#6,'Set up site',$,$,'1.2',$,$,$,.F.,$,#82,.CONSTRUCTION.);
#84=IFCTASKTIME('Clear garden and paving Time',.PREDICTED.,$,.WORKTIME.,'P0Y0M1D','2027-06-07T07:00:00','2027-06-07T07:00:00','2027-06-09T07:00:00','2027-06-09T07:00:00','2027-06-14T07:00:00','2027-06-14T07:00:00','P0Y0M0D','P0Y0M3D',.F.,$,$,$,$,$,0.00);
#85=IFCTASK('3Dl39sE2PRheAlmUINhzhP',#6,'Clear garden and paving',$,$,'1.3',$,$,$,.F.,$,#84,.CONSTRUCTION.);
#86=IFCTASKTIME('Set out the extension Time',.PREDICTED.,$,.WORKTIME.,'P0Y0M1D','2027-06-07T07:00:00','2027-06-07T07:00:00','2027-06-10T07:00:00','2027-06-10T07:00:00','2027-06-15T07:00:00','2027-06-15T07:00:00','P0Y0M0D','P0Y0M3D',.F.,$,$,$,$,$,0.00);
#87=IFCTASK('3xgWnpl0QjoTuTHSJijBkH',#6,'Set out the extension',$,$,'1.4',$,$,$,.F.,$,#86,.CONSTRUCTION.);
#88=IFCTASKTIME('Excavate foundation trench Time',.PREDICTED.,$,.WORKTIME.,'P0Y0M2D','2027-06-07T07:00:00','2027-06-08T07:00:00','2027-06-11T07:00:00','2027-06-14T07:00:00','2027-06-16T07:00:00','2027-06-17T07:00:00','P0Y0M0D','P0Y0M3D',.F.,$,$,$,$,$,0.00);
#89=IFCTASK('0quBiZZQY2Dklp7dzRniE9',#6,'Excavate foundation trench',$,$,'2.1',$,$,$,.F.,$,#88,.CONSTRUCTION.);
#90=IFCTASKTIME('Foundation formwork and reinforcement Time',.PREDICTED.,$,.WORKTIME.,'P0Y0M3D','2027-06-07T07:00:00','2027-06-09T07:00:00','2027-06-15T07:00:00','2027-06-17T07:00:00','2027-06-18T07:00:00','2027-06-22T07:00:00','P0Y0M0D','P0Y0M3D',.F.,$,$,$,$,$,0.00);
#91=IFCTASK('3fQ3J9LFQH6gqFUa_VUtR4',#6,'Foundation formwork and reinforcement',$,$,'2.2',$,$,$,.F.,$,#90,.CONSTRUCTION.);
#92=IFCTASKTIME('Reinforcement inspection Time',.PREDICTED.,$,.WORKTIME.,'P0Y0M0D','2027-06-07T07:00:00','2027-06-07T07:00:00','2027-06-17T07:00:00','2027-06-17T07:00:00','2027-06-22T07:00:00','2027-06-22T07:00:00','P0Y0M0D','P0Y0M3D',.F.,$,$,$,$,$,0.00);
#93=IFCTASK('2VF8EYV55OA0e21luxNOuu',#6,'Reinforcement inspection',$,$,'2.3',$,$,$,.T.,$,#92,.ATTENDANCE.);
#94=IFCTASKTIME('Pour foundation Time',.PREDICTED.,$,.WORKTIME.,'PT6H0M0S','2027-06-07T00:00:00','2027-06-07T14:00:00','2027-06-18T07:00:00','2027-06-18T14:00:00','2027-06-23T09:00:00','2027-06-23T16:00:00','P0Y0M0D','P0Y0M3.25D',.F.,$,$,$,$,$,0.00);
#95=IFCTASK('3yevc9Ipn6_zSt$kkPxCwL',#6,'Pour foundation',$,$,'2.4',$,$,$,.F.,$,#94,.CONSTRUCTION.);
#96=IFCTASKTIME('Foundation brickwork Time',.PREDICTED.,$,.WORKTIME.,'P0Y0M2D','2027-06-07T07:00:00','2027-06-08T07:00:00','2027-06-24T07:00:00','2027-06-25T07:00:00','2027-06-29T07:00:00','2027-06-30T07:00:00','P0Y0M0D','P0Y0M3D',.F.,$,$,$,$,$,0.00);
#97=IFCTASK('1zS53BXeQi23lWk4MQs_eb',#6,'Foundation brickwork',$,$,'2.5',$,$,$,.F.,$,#96,.CONSTRUCTION.);
#98=IFCTASKTIME('Lay hollow-core floor Time',.PREDICTED.,$,.WORKTIME.,'PT5H0M0S','2027-06-07T00:00:00','2027-06-07T12:00:00','2027-06-28T07:00:00','2027-06-28T12:00:00','2027-07-01T10:00:00','2027-07-01T16:00:00','P0Y0M0D','P0Y0M3.375D',.F.,$,$,$,$,$,0.00);
#99=IFCTASK('2zDl0vokIgpSfU4biu2RDi',#6,'Lay hollow-core floor',$,$,'2.6',$,$,$,.F.,$,#98,.CONSTRUCTION.);
#100=IFCTASKTIME('Build inner cavity leaf Time',.PREDICTED.,$,.WORKTIME.,'P0Y0M5D','2027-06-07T07:00:00','2027-06-11T07:00:00','2027-06-29T07:00:00','2027-07-05T07:00:00','2027-07-02T07:00:00','2027-07-08T07:00:00','P0Y0M0D','P0Y0M3D',.F.,$,$,$,$,$,0.00);
#101=IFCTASK('2fPtLWzQ$NENZKQG5uNOsY',#6,'Build inner cavity leaf',$,$,'3.1',$,$,$,.F.,$,#100,.CONSTRUCTION.);
#102=IFCTASKTIME('Build outer cavity leaf Time',.PREDICTED.,$,.WORKTIME.,'P0Y0M6D','2027-06-07T07:00:00','2027-06-14T07:00:00','2027-06-29T07:00:00','2027-07-06T07:00:00','2027-07-06T07:00:00','2027-07-13T07:00:00','P0Y0M5D','P0Y0M5D',.F.,$,$,$,$,$,0.00);
#103=IFCTASK('3GwJ9b$d_Bqu0iixBL1iJf',#6,'Build outer cavity leaf',$,$,'3.2',$,$,$,.F.,$,#102,.CONSTRUCTION.);
#104=IFCTASKTIME('Place roof elements Time',.PREDICTED.,$,.WORKTIME.,'PT6H0M0S','2027-06-07T00:00:00','2027-06-07T14:00:00','2027-07-06T07:00:00','2027-07-06T14:00:00','2027-07-09T09:00:00','2027-07-09T16:00:00','P0Y0M0D','P0Y0M3.25D',.F.,$,$,$,$,$,0.00);
#105=IFCTASK('3fWgU7R$q$qUPDeE$rZmuM',#6,'Place roof elements',$,$,'3.3',$,$,$,.F.,$,#104,.CONSTRUCTION.);
#106=IFCTASKTIME('Apply roofing Time',.PREDICTED.,$,.WORKTIME.,'P0Y0M2D','2027-06-07T07:00:00','2027-06-08T07:00:00','2027-07-07T07:00:00','2027-07-08T07:00:00','2027-07-12T07:00:00','2027-07-13T07:00:00','P0Y0M3D','P0Y0M3D',.F.,$,$,$,$,$,0.00);
#107=IFCTASK('2JqIceP9wJbGfa0gVCnclz',#6,'Apply roofing',$,$,'3.4',$,$,$,.F.,$,#106,.CONSTRUCTION.);
#108=IFCTASKTIME('Install window frames Time',.PREDICTED.,$,.WORKTIME.,'P0Y0M2D','2027-06-07T07:00:00','2027-06-08T07:00:00','2027-07-14T07:00:00','2027-07-15T07:00:00','2027-07-14T07:00:00','2027-07-15T07:00:00','P0Y0M0D','P0Y0M0D',.T.,$,$,$,$,$,0.00);
#109=IFCTASK('2IHkQfagJEIWfDNUjtaWr0',#6,'Install window frames',$,$,'3.5',$,$,$,.F.,$,#108,.CONSTRUCTION.);
#110=IFCTASKTIME('Break through rear wall Time',.PREDICTED.,$,.WORKTIME.,'P0Y0M2D','2027-06-07T07:00:00','2027-06-08T07:00:00','2027-07-16T07:00:00','2027-07-19T07:00:00','2027-07-16T07:00:00','2027-07-19T07:00:00','P0Y0M0D','P0Y0M0D',.T.,$,$,$,$,$,0.00);
#111=IFCTASK('37uO94UtkeNXCj5fw8nuFk',#6,'Break through rear wall',$,$,'3.6',$,$,$,.F.,$,#110,.CONSTRUCTION.);
#112=IFCTASKTIME('Install building services Time',.PREDICTED.,$,.WORKTIME.,'P0Y0M3D','2027-06-07T07:00:00','2027-06-09T07:00:00','2027-07-20T07:00:00','2027-07-22T07:00:00','2027-07-20T07:00:00','2027-07-22T07:00:00','P0Y0M0D','P0Y0M0D',.T.,$,$,$,$,$,0.00);
#113=IFCTASK('3cf2jcttv6dwMsTshE4$Zm',#6,'Install building services',$,$,'4.1',$,$,$,.F.,$,#112,.CONSTRUCTION.);
#114=IFCTASKTIME('Plastering Time',.PREDICTED.,$,.WORKTIME.,'P0Y0M4D','2027-06-07T07:00:00','2027-06-10T07:00:00','2027-07-23T07:00:00','2027-07-28T07:00:00','2027-07-23T07:00:00','2027-07-28T07:00:00','P0Y0M0D','P0Y0M0D',.T.,$,$,$,$,$,0.00);
#115=IFCTASK('273kmvnZOng9yOY4CPJm3p',#6,'Plastering',$,$,'4.2',$,$,$,.F.,$,#114,.CONSTRUCTION.);
#116=IFCTASKTIME('Lay floor screed Time',.PREDICTED.,$,.WORKTIME.,'P0Y0M1D','2027-06-07T07:00:00','2027-06-07T07:00:00','2027-07-29T07:00:00','2027-07-29T07:00:00','2027-07-29T07:00:00','2027-07-29T07:00:00','P0Y0M0D','P0Y0M0D',.T.,$,$,$,$,$,0.00);
#117=IFCTASK('0whvg4qiv6XQesIrjLlg8b',#6,'Lay floor screed',$,$,'4.3',$,$,$,.F.,$,#116,.CONSTRUCTION.);
#118=IFCTASKTIME('Tiling Time',.PREDICTED.,$,.WORKTIME.,'P0Y0M3D','2027-06-07T07:00:00','2027-06-09T07:00:00','2027-08-27T07:00:00','2027-08-31T07:00:00','2027-08-27T07:00:00','2027-08-31T07:00:00','P0Y0M0D','P0Y0M0D',.T.,$,$,$,$,$,0.00);
#119=IFCTASK('0doq$YSA_uEG5tc_XZT6Fx',#6,'Tiling',$,$,'4.4',$,$,$,.F.,$,#118,.CONSTRUCTION.);
#120=IFCTASKTIME('Painting Time',.PREDICTED.,$,.WORKTIME.,'P0Y0M3D','2027-06-07T07:00:00','2027-06-09T07:00:00','2027-07-29T07:00:00','2027-08-23T07:00:00','2027-08-27T07:00:00','2027-08-31T07:00:00','P0Y0M6D','P0Y0M6D',.F.,$,$,$,$,$,0.00);
#121=IFCTASK('0wxpTdpKJ0Ge0aeqhxAKoR',#6,'Painting',$,$,'4.5',$,$,$,.F.,$,#120,.CONSTRUCTION.);
#122=IFCTASKTIME('Snagging and cleaning Time',.PREDICTED.,$,.WORKTIME.,'P0Y0M1D','2027-06-07T07:00:00','2027-06-07T07:00:00','2027-09-01T07:00:00','2027-09-01T07:00:00','2027-09-01T07:00:00','2027-09-01T07:00:00','P0Y0M0D','P0Y0M0D',.T.,$,$,$,$,$,0.00);
#123=IFCTASK('2TZd6KpwLI0xrzxrVvO6Pp',#6,'Snagging and cleaning',$,$,'4.6',$,$,$,.F.,$,#122,.CONSTRUCTION.);
#124=IFCTASKTIME('Handover Time',.PREDICTED.,$,.WORKTIME.,'P0Y0M0D','2027-06-07T07:00:00','2027-06-07T07:00:00','2027-09-01T07:00:00','2027-09-01T07:00:00','2027-09-01T07:00:00','2027-09-01T07:00:00','P0Y0M0D','P0Y0M0D',.T.,$,$,$,$,$,0.00);
#125=IFCTASK('2TAvoqB7ampgMHU3tDKa9J',#6,'Handover',$,$,'4.7',$,$,$,.T.,$,#124,.USERDEFINED.);
#126=IFCRELNESTS('3pFyZ99D3ZlSk0acH1fNs3',#6,'WBS Preparation',$,#73,( #81,#83,#85,#87));
#127=IFCRELNESTS('3uDWYd8UGVkeWzJYMfXtL9',#6,'WBS Foundations',$,#75,( #89,#91,#93,#95,#97,#99));
#128=IFCRELNESTS('2XyhMfdUbuJkh6FNbghN9H',#6,'WBS Shell',$,#77,( #101,#103,#105,#107,#109,#111));
#129=IFCRELNESTS('1WAx_uOYInpEdjmhM1SOTC',#6,'WBS Finishing',$,#79,( #113,#115,#117,#119,#121,#123,#125));
#130=IFCRELNESTS('00lgx9mxoZfxOjVNOUuuLF',#6,'WBS Hoofd',$,#70,(#73,#75,#77,#79));
#131=IFCRELSEQUENCE('1vEdr5kyofmHXyFZg0syz2',#6,$,$,#81,#83,$,.FINISH_START.,$);
#132=IFCRELSEQUENCE('3ZJHfJ98o6fPGU$8Tg_yeP',#6,$,$,#83,#85,$,.FINISH_START.,$);
#133=IFCRELSEQUENCE('30BMw0shd_s_r2HH69QnCX',#6,$,$,#85,#87,$,.FINISH_START.,$);
#134=IFCRELSEQUENCE('0PsTnVObalUi2lubd3yrfP',#6,$,$,#87,#89,$,.FINISH_START.,$);
#135=IFCRELSEQUENCE('3toAkLknzTpsuJp1pSzUG1',#6,$,$,#89,#91,$,.FINISH_START.,$);
#136=IFCRELSEQUENCE('1RvNSLuKb5kkREa1Wbg1a_',#6,$,$,#91,#93,$,.FINISH_START.,$);
#137=IFCRELSEQUENCE('01xjVOM$fjipbwBv08DHcW',#6,$,$,#93,#95,$,.FINISH_START.,$);
#138=IFCLAGTIME('Lag',.PREDICTED.,$,IFCDURATION('P3D'),.WORKTIME.);
#139=IFCRELSEQUENCE('1awspUj2tUJoQvaR1T$Cze',#6,$,$,#95,#97,#138,.FINISH_START.,$);
#140=IFCRELSEQUENCE('02arE2s_dSIy0D$ZwGR9Na',#6,$,$,#97,#99,$,.FINISH_START.,$);
#141=IFCRELSEQUENCE('2t26RCT2izQ2tfrB3wfq25',#6,$,$,#99,#101,$,.FINISH_START.,$);
#142=IFCRELSEQUENCE('2huEEV7T63hBA7O1zcVLrJ',#6,$,$,#99,#103,$,.FINISH_START.,$);
#143=IFCRELSEQUENCE('37p6weRbfcO3GBPFzyKCUb',#6,$,$,#101,#105,$,.FINISH_START.,$);
#144=IFCRELSEQUENCE('1EL9$0uN54sinBuzQBp9Ns',#6,$,$,#105,#107,$,.FINISH_START.,$);
#145=IFCRELSEQUENCE('2yXGKfYaomnYZCkItMdEFw',#6,$,$,#107,#109,$,.FINISH_START.,$);
#146=IFCRELSEQUENCE('1Mnp8GVdRVtJz0VS9GTUmi',#6,$,$,#103,#109,$,.FINISH_START.,$);
#147=IFCRELSEQUENCE('3kRmiWKECG3xGR1VAXTdsO',#6,$,$,#109,#111,$,.FINISH_START.,$);
#148=IFCRELSEQUENCE('2AuJR1qmLzPN0qccFqvn1s',#6,$,$,#111,#113,$,.FINISH_START.,$);
#149=IFCRELSEQUENCE('3RgHWueKnfEO4Hq1ArFEnu',#6,$,$,#113,#115,$,.FINISH_START.,$);
#150=IFCRELSEQUENCE('2ESc9Fn$5zLzrTt9WnfGh2',#6,$,$,#115,#117,$,.FINISH_START.,$);
#151=IFCRELSEQUENCE('2cxgUj2CJLKq5ujLa2BDGX',#6,$,$,#115,#121,$,.FINISH_START.,$);
#152=IFCLAGTIME('Lag',.PREDICTED.,$,IFCDURATION('P5D'),.WORKTIME.);
#153=IFCRELSEQUENCE('1rSdd3aLAm7sKYSG4q4jja',#6,$,$,#117,#119,#152,.FINISH_START.,$);
#154=IFCRELSEQUENCE('3dbzcc7o134qXgZDT_Vu_Z',#6,$,$,#119,#123,$,.FINISH_START.,$);
#155=IFCRELSEQUENCE('1ia8AzBvHGcrRv2OwlYXuG',#6,$,$,#121,#123,$,.FINISH_START.,$);
#156=IFCRELSEQUENCE('25bGaHOSOUA4QlLE8TZlP9',#6,$,$,#123,#125,$,.FINISH_START.,$);
#157=IFCRELASSIGNSTOCONTROL('0ime$UKtwTayLrSYu104y5',#6,$,$,(#73,#75,#77,#79,#81,#83,#85,#87,#89,#91,#93,#95,#97,#99,#101,#103,#105,#107,#109,#111,#113,#115,#117,#119,#121,#123,#125),$,#70);
#158=IFCPROPERTYSINGLEVALUE('InternalProjectId',$,IFCTEXT('proj-mur6139nuo1v76'),$);
#159=IFCPROPERTYSINGLEVALUE('wbsAutoNumber',$,IFCBOOLEAN(.T.),$);
#160=IFCPROPERTYSINGLEVALUE('DefaultTaskDurationUnit',$,IFCLABEL('days'),$);
#161=IFCPROPERTYSINGLEVALUE('ProjectStartDate',$,IFCDATE('2027-06-07'),$);
#162=IFCPROPERTYSINGLEVALUE('ProjectEndDate',$,$,$);
#163=IFCPROPERTYSINGLEVALUE('CreatedAt',$,IFCTEXT('2026-10-02T16:16:35.531Z'),$);
#164=IFCPROPERTYSINGLEVALUE('ModifiedAt',$,IFCTEXT('2026-10-02T16:16:35.531Z'),$);
#165=IFCPROPERTYSET('3Sx9CSSZ$OxMQ8aZgCOiNE',#6,'OPS_ProjectSettings',$,(#158,#159,#160,#161,#162,#163,#164));
#166=IFCRELDEFINESBYPROPERTIES('3sXEXTzK4Q6K9y5CMLIKON',#6,$,$,(#13),#165);
#167=IFCPROPERTYSINGLEVALUE('InternalTaskId',$,IFCTEXT('task-mur613aptt0a78'),$);
#168=IFCPROPERTYSET('18pLpIGw0digZRZO_Jffz$',#6,'OPS_TaskIdentity',$,(#167));
#169=IFCRELDEFINESBYPROPERTIES('28qX3Y$zmnAgEj$w8vTpLU',#6,$,$,(#73),#168);
#170=IFCPROPERTYSINGLEVALUE('InternalTaskId',$,IFCTEXT('task-mur613aqujqf79'),$);
#171=IFCPROPERTYSET('0PNNPt5SgsGZvuN8tEle1L',#6,'OPS_TaskIdentity',$,(#170));
#172=IFCRELDEFINESBYPROPERTIES('0Y82DCmIJjygsXTlI7INKg',#6,$,$,(#75),#171);
#173=IFCPROPERTYSINGLEVALUE('InternalTaskId',$,IFCTEXT('task-mur613arxezt80'),$);
#174=IFCPROPERTYSET('2b3f1VmR895ZxG3P2rwpxE',#6,'OPS_TaskIdentity',$,(#173));
#175=IFCRELDEFINESBYPROPERTIES('3F2L1ncyfX$ZbTSp5bz2x8',#6,$,$,(#77),#174);
#176=IFCPROPERTYSINGLEVALUE('InternalTaskId',$,IFCTEXT('task-mur613atpvu481'),$);
#177=IFCPROPERTYSET('1GVDom5T5S6p3CyNWlVIke',#6,'OPS_TaskIdentity',$,(#176));
#178=IFCRELDEFINESBYPROPERTIES('17bO3rLzt2pACvKfrfhabq',#6,$,$,(#79),#177);
#179=IFCPROPERTYSINGLEVALUE('InternalTaskId',$,IFCTEXT('task-mur613auie1282'),$);
#180=IFCPROPERTYSET('0NTQvJSdjQd_303$EClkBX',#6,'OPS_TaskIdentity',$,(#179));
#181=IFCRELDEFINESBYPROPERTIES('0Y7XX_LUgowqPhHGlInuGt',#6,$,$,(#81),#180);
#182=IFCPROPERTYSINGLEVALUE('InternalTaskId',$,IFCTEXT('task-mur613aw1atf83'),$);
#183=IFCPROPERTYSET('37G8FABtRtQgjP9$2ZvCoZ',#6,'OPS_TaskIdentity',$,(#182));
#184=IFCRELDEFINESBYPROPERTIES('2qk28_OJgQxMMo5X$LLXj2',#6,$,$,(#83),#183);
#185=IFCPROPERTYSINGLEVALUE('InternalTaskId',$,IFCTEXT('task-mur613b2u6ua84'),$);
#186=IFCPROPERTYSET('0nkFk6kU7MzzmzoE$gwiY7',#6,'OPS_TaskIdentity',$,(#185));
#187=IFCRELDEFINESBYPROPERTIES('1NUfU7LqrkTkgZ0WgsAKza',#6,$,$,(#85),#186);
#188=IFCPROPERTYSINGLEVALUE('InternalTaskId',$,IFCTEXT('task-mur613b3bay285'),$);
#189=IFCPROPERTYSET('3W9o9LXSk3SXLIb5F8xhHM',#6,'OPS_TaskIdentity',$,(#188));
#190=IFCRELDEFINESBYPROPERTIES('0JERCUMpPEZm95oEp0KkTY',#6,$,$,(#87),#189);
#191=IFCPROPERTYSINGLEVALUE('InternalTaskId',$,IFCTEXT('task-mur613cgumeh86'),$);
#192=IFCPROPERTYSET('10Sxy0mhpVom$Lzy4_AaN4',#6,'OPS_TaskIdentity',$,(#191));
#193=IFCRELDEFINESBYPROPERTIES('2nvqEebaL41QO7Gn2WfL7Q',#6,$,$,(#89),#192);
#194=IFCPROPERTYSINGLEVALUE('InternalTaskId',$,IFCTEXT('task-mur613cq3vh987'),$);
#195=IFCPROPERTYSET('3iyaqGCnHoVVFloUtLBrkP',#6,'OPS_TaskIdentity',$,(#194));
#196=IFCRELDEFINESBYPROPERTIES('0__Mq1SnQ9vTobhDZiVv7c',#6,$,$,(#91),#195);
#197=IFCPROPERTYSINGLEVALUE('InternalTaskId',$,IFCTEXT('task-mur613cs5y7488'),$);
#198=IFCPROPERTYSET('0GVEgDU22FYbcId83KlXug',#6,'OPS_TaskIdentity',$,(#197));
#199=IFCRELDEFINESBYPROPERTIES('2RPTHGXkkdl_AatAy4uTGj',#6,$,$,(#93),#198);
#200=IFCPROPERTYSINGLEVALUE('InternalTaskId',$,IFCTEXT('task-mur613czyiyo89'),$);
#201=IFCPROPERTYSET('23Z8tanMf1wR3nmtRg7a_q',#6,'OPS_TaskIdentity',$,(#200));
#202=IFCRELDEFINESBYPROPERTIES('3eyv0P4MNyZlM6PqQBaxqT',#6,$,$,(#95),#201);
#203=IFCPROPERTYSINGLEVALUE('InternalTaskId',$,IFCTEXT('task-mur613d9q7bl90'),$);
#204=IFCPROPERTYSET('30mfEsU80Uz6bdRp2XmGIg',#6,'OPS_TaskIdentity',$,(#203));
#205=IFCRELDEFINESBYPROPERTIES('2auGyhnPjELOxKbXE1oRgU',#6,$,$,(#97),#204);
#206=IFCPROPERTYSINGLEVALUE('InternalTaskId',$,IFCTEXT('task-mur613dgtwu591'),$);
#207=IFCPROPERTYSET('0ktcLv1kmy7M4s7cIrAKql',#6,'OPS_TaskIdentity',$,(#206));
#208=IFCRELDEFINESBYPROPERTIES('3NTmNJZpyi0I4QRQmYzs1b',#6,$,$,(#99),#207);
#209=IFCPROPERTYSINGLEVALUE('InternalTaskId',$,IFCTEXT('task-mur613dssz7v92'),$);
#210=IFCPROPERTYSET('1d1HbAWM$PnWkvrQHI6et0',#6,'OPS_TaskIdentity',$,(#209));
#211=IFCRELDEFINESBYPROPERTIES('33pRSrEhZUc4tuPhrkYOWi',#6,$,$,(#101),#210);
#212=IFCPROPERTYSINGLEVALUE('InternalTaskId',$,IFCTEXT('task-mur613du7gxd93'),$);
#213=IFCPROPERTYSET('1s_5EonxVv8AEgMvPWyifj',#6,'OPS_TaskIdentity',$,(#212));
#214=IFCRELDEFINESBYPROPERTIES('2LXKQCBWuCsHAUSTwfNvgG',#6,$,$,(#103),#213);
#215=IFCPROPERTYSINGLEVALUE('InternalTaskId',$,IFCTEXT('task-mur613dvc49v94'),$);
#216=IFCPROPERTYSET('3BmsurI4MV_iEzo_0JQpwn',#6,'OPS_TaskIdentity',$,(#215));
#217=IFCRELDEFINESBYPROPERTIES('1JebF1wGpFvGkzdYLta_aP',#6,$,$,(#105),#216);
#218=IFCPROPERTYSINGLEVALUE('InternalTaskId',$,IFCTEXT('task-mur613ee50zy95'),$);
#219=IFCPROPERTYSET('19X6$FtEzOoriLtGg0Kt9e',#6,'OPS_TaskIdentity',$,(#218));
#220=IFCRELDEFINESBYPROPERTIES('2i$C2SDe8sOJFO$ERHk768',#6,$,$,(#107),#219);
#221=IFCPROPERTYSINGLEVALUE('InternalTaskId',$,IFCTEXT('task-mur613exul7t96'),$);
#222=IFCPROPERTYSET('1xAnAPaV4zPc6xQZqoX4PH',#6,'OPS_TaskIdentity',$,(#221));
#223=IFCRELDEFINESBYPROPERTIES('0MjfspM$0Ng7ZLpIlzBayD',#6,$,$,(#109),#222);
#224=IFCPROPERTYSINGLEVALUE('InternalTaskId',$,IFCTEXT('task-mur613ezl49t97'),$);
#225=IFCPROPERTYSET('3cl0OFNFzrN4s2JNrtW0NW',#6,'OPS_TaskIdentity',$,(#224));
#226=IFCRELDEFINESBYPROPERTIES('1e5Kf5gpE4f3fOvPF2uD3b',#6,$,$,(#111),#225);
#227=IFCPROPERTYSINGLEVALUE('InternalTaskId',$,IFCTEXT('task-mur613fc5n9498'),$);
#228=IFCPROPERTYSET('332KlhpbWzsrXEINlrBYWF',#6,'OPS_TaskIdentity',$,(#227));
#229=IFCRELDEFINESBYPROPERTIES('1gvMtqcOUyixt5xxWwsypj',#6,$,$,(#113),#228);
#230=IFCPROPERTYSINGLEVALUE('InternalTaskId',$,IFCTEXT('task-mur613femrl599'),$);
#231=IFCPROPERTYSET('0_SyHccCoIh9_zIHLFDnxO',#6,'OPS_TaskIdentity',$,(#230));
#232=IFCRELDEFINESBYPROPERTIES('10GNGY6QuElPAjYgIEfI9r',#6,$,$,(#115),#231);
#233=IFCPROPERTYSINGLEVALUE('InternalTaskId',$,IFCTEXT('task-mur613fsea5t100'),$);
#234=IFCPROPERTYSET('3KTEfuTVZPtqKqPwFPTSWQ',#6,'OPS_TaskIdentity',$,(#233));
#235=IFCRELDEFINESBYPROPERTIES('2rph3U7CYURbo15DXM7E18',#6,$,$,(#117),#234);
#236=IFCPROPERTYSINGLEVALUE('InternalTaskId',$,IFCTEXT('task-mur613fv6uki101'),$);
#237=IFCPROPERTYSET('0FMUI7JYd55_pQQz672G7q',#6,'OPS_TaskIdentity',$,(#236));
#238=IFCRELDEFINESBYPROPERTIES('0W26xOiYIKTeYari9W40Tc',#6,$,$,(#119),#237);
#239=IFCPROPERTYSINGLEVALUE('InternalTaskId',$,IFCTEXT('task-mur613g9zus7102'),$);
#240=IFCPROPERTYSET('0C9Tow7mbpGR1FNACy7494',#6,'OPS_TaskIdentity',$,(#239));
#241=IFCRELDEFINESBYPROPERTIES('1diSxROFsoCVfmrpXicCga',#6,$,$,(#121),#240);
#242=IFCPROPERTYSINGLEVALUE('InternalTaskId',$,IFCTEXT('task-mur613gbotk5103'),$);
#243=IFCPROPERTYSET('0Svbolvl4alkO8ydcQp2mN',#6,'OPS_TaskIdentity',$,(#242));
#244=IFCRELDEFINESBYPROPERTIES('0zzu2b7c7M1faUCFAntY21',#6,$,$,(#123),#243);
#245=IFCPROPERTYSINGLEVALUE('InternalTaskId',$,IFCTEXT('task-mur613gpza0z104'),$);
#246=IFCPROPERTYSET('15QhvzaEOlpNw6pwpb3_ma',#6,'OPS_TaskIdentity',$,(#245));
#247=IFCRELDEFINESBYPROPERTIES('0jXFo18GfFrUn7ZMKh96U2',#6,$,$,(#125),#246);
#248=IFCPROPERTYSINGLEVALUE('ConstraintType',$,IFCLABEL('SNET'),$);
#249=IFCPROPERTYSINGLEVALUE('ConstraintDate',$,IFCDATE('2027-07-14'),$);
#250=IFCPROPERTYSET('0rD7dDooR7PrWtaXu0mL8b',#6,'OPS_Constraints',$,(#248,#249));
#251=IFCRELDEFINESBYPROPERTIES('3Mzd0dLf38Ze1ifvFsiCIn',#6,$,$,(#109),#250);
#252=IFCPROPERTYSINGLEVALUE('Deadline',$,IFCDATE('2027-09-10'),$);
#253=IFCPROPERTYSET('0r9AUB9J5Jd_rwDd_rX_ej',#6,'OPS_Constraints',$,(#252));
#254=IFCRELDEFINESBYPROPERTIES('0VV0WduS_$OHY4FXtXzxCh',#6,$,$,(#125),#253);
#255=IFCPROPERTYSINGLEVALUE('MilestoneKind',$,IFCLABEL('START'),$);
#256=IFCPROPERTYSET('1GA1USFaHoQ9S5Ect48CFW',#6,'OPS_Milestone',$,(#255));
#257=IFCRELDEFINESBYPROPERTIES('0U4_PMRU4mZP8Dh4LQeGDA',#6,$,$,(#81),#256);
#258=IFCPROPERTYSINGLEVALUE('MilestoneKind',$,IFCLABEL('FINISH'),$);
#259=IFCPROPERTYSINGLEVALUE('Mandatory',$,IFCBOOLEAN(.T.),$);
#260=IFCPROPERTYSET('0A0ph1ULmb2tiFzwfNzlC_',#6,'OPS_Milestone',$,(#258,#259));
#261=IFCRELDEFINESBYPROPERTIES('1kmBuFa$uN8ny5yPvGux80',#6,$,$,(#93),#260);
#262=IFCPROPERTYSINGLEVALUE('MilestoneKind',$,IFCLABEL('FINISH'),$);
#263=IFCPROPERTYSET('3bd4vqjg88jgMFg_$VrKxA',#6,'OPS_Milestone',$,(#262));
#264=IFCRELDEFINESBYPROPERTIES('2Ty2gdnOUKgCeZ$nAOO4eD',#6,$,$,(#125),#263);
ENDSEC;
END-ISO-10303-21;
