ISO-10303-21;
HEADER;
FILE_DESCRIPTION(('ViewDefinition [SchedulingView]'),'2;1');
FILE_NAME('House extension.ifc','2026-09-29T12:36:13',('Open Planner Studio'),('OpenAEC Foundation'),'Open Planner Studio 0.1','Open Planner Studio','');
FILE_SCHEMA(('IFC4X3'));
ENDSEC;
DATA;
#1=IFCPERSON($,$,$,$,$,$,$,$);
#2=IFCORGANIZATION($,$,$,$,$);
#3=IFCPERSONANDORGANIZATION(#1,#2,$);
#4=IFCORGANIZATION($,'OpenAEC Foundation',$,$,$);
#5=IFCAPPLICATION(#4,'0.2','Open Planner Studio','OPS');
#6=IFCOWNERHISTORY(#3,#5,$,.NOCHANGE.,$,$,$,1790685373);
#7=IFCSIUNIT(*,.LENGTHUNIT.,$,.METRE.);
#8=IFCSIUNIT(*,.TIMEUNIT.,$,.SECOND.);
#9=IFCUNITASSIGNMENT((#7,#8));
#10=IFCCARTESIANPOINT((0.,0.,0.));
#11=IFCAXIS2PLACEMENT3D(#10,$,$);
#12=IFCGEOMETRICREPRESENTATIONCONTEXT($,'Plan',3,1.0E-05,#11,$);
#13=IFCPROJECT('0fVwJ7HAsjklAQeNkfRorw',#6,'House extension','A 4 by 5 metre extension at the rear of a family home \X2\2014\X0\ the practice project for the tutorials.',$,$,$,(#12),#9);
#14=IFCTIMEPERIOD('07:00:00','16:00:00');
#15=IFCRECURRENCEPATTERN(.WEEKLY.,$,(1,2,3,4,5),$,$,$,$,(#14));
#16=IFCWORKTIME('Standard work week',.PREDICTED.,$,#15,$,$);
#17=IFCWORKTIME('Nieuwjaar',.PREDICTED.,$,$,'2026-01-01','2026-01-01');
#18=IFCWORKTIME('Goede Vrijdag',.PREDICTED.,$,$,'2026-04-03','2026-04-03');
#19=IFCWORKTIME('Pasen',.PREDICTED.,$,$,'2026-04-05','2026-04-06');
#20=IFCWORKTIME('Koningsdag',.PREDICTED.,$,$,'2026-04-27','2026-04-27');
#21=IFCWORKTIME('Hemelvaart',.PREDICTED.,$,$,'2026-05-14','2026-05-14');
#22=IFCWORKTIME('Pinksteren',.PREDICTED.,$,$,'2026-05-24','2026-05-25');
#23=IFCWORKTIME('Kerst',.PREDICTED.,$,$,'2026-12-25','2026-12-26');
#24=IFCWORKTIME('Nieuwjaar',.PREDICTED.,$,$,'2027-01-01','2027-01-01');
#25=IFCWORKTIME('Goede Vrijdag',.PREDICTED.,$,$,'2027-03-26','2027-03-26');
#26=IFCWORKTIME('Pasen',.PREDICTED.,$,$,'2027-03-28','2027-03-29');
#27=IFCWORKTIME('Koningsdag',.PREDICTED.,$,$,'2027-04-27','2027-04-27');
#28=IFCWORKTIME('Hemelvaart',.PREDICTED.,$,$,'2027-05-06','2027-05-06');
#29=IFCWORKTIME('Pinksteren',.PREDICTED.,$,$,'2027-05-16','2027-05-17');
#30=IFCWORKTIME('Kerst',.PREDICTED.,$,$,'2027-12-25','2027-12-26');
#31=IFCWORKTIME('Nieuwjaar',.PREDICTED.,$,$,'2028-01-01','2028-01-01');
#32=IFCWORKTIME('Goede Vrijdag',.PREDICTED.,$,$,'2028-04-14','2028-04-14');
#33=IFCWORKTIME('Pasen',.PREDICTED.,$,$,'2028-04-16','2028-04-17');
#34=IFCWORKTIME('Koningsdag',.PREDICTED.,$,$,'2028-04-27','2028-04-27');
#35=IFCWORKTIME('Hemelvaart',.PREDICTED.,$,$,'2028-05-25','2028-05-25');
#36=IFCWORKTIME('Pinksteren',.PREDICTED.,$,$,'2028-06-04','2028-06-05');
#37=IFCWORKTIME('Kerst',.PREDICTED.,$,$,'2028-12-25','2028-12-26');
#38=IFCWORKTIME('Nieuwjaar',.PREDICTED.,$,$,'2029-01-01','2029-01-01');
#39=IFCWORKTIME('Goede Vrijdag',.PREDICTED.,$,$,'2029-03-30','2029-03-30');
#40=IFCWORKTIME('Pasen',.PREDICTED.,$,$,'2029-04-01','2029-04-02');
#41=IFCWORKTIME('Koningsdag',.PREDICTED.,$,$,'2029-04-27','2029-04-27');
#42=IFCWORKTIME('Hemelvaart',.PREDICTED.,$,$,'2029-05-10','2029-05-10');
#43=IFCWORKTIME('Pinksteren',.PREDICTED.,$,$,'2029-05-20','2029-05-21');
#44=IFCWORKTIME('Kerst',.PREDICTED.,$,$,'2029-12-25','2029-12-26');
#45=IFCWORKTIME('Nieuwjaar',.PREDICTED.,$,$,'2030-01-01','2030-01-01');
#46=IFCWORKTIME('Goede Vrijdag',.PREDICTED.,$,$,'2030-04-19','2030-04-19');
#47=IFCWORKTIME('Pasen',.PREDICTED.,$,$,'2030-04-21','2030-04-22');
#48=IFCWORKTIME('Koningsdag',.PREDICTED.,$,$,'2030-04-27','2030-04-27');
#49=IFCWORKTIME('Bevrijdingsdag',.PREDICTED.,$,$,'2030-05-05','2030-05-05');
#50=IFCWORKTIME('Hemelvaart',.PREDICTED.,$,$,'2030-05-30','2030-05-30');
#51=IFCWORKTIME('Pinksteren',.PREDICTED.,$,$,'2030-06-09','2030-06-10');
#52=IFCWORKTIME('Kerst',.PREDICTED.,$,$,'2030-12-25','2030-12-26');
#53=IFCWORKCALENDAR('1YKu4EEblV0GgSw5jYw4mS',#6,'Construction calendar NL','Standaard bouwkalender: ma-vr 07:00-16:00',$,(#16),(#17,#18,#19,#20,#21,#22,#23,#24,#25,#26,#27,#28,#29,#30,#31,#32,#33,#34,#35,#36,#37,#38,#39,#40,#41,#42,#43,#44,#45,#46,#47,#48,#49,#50,#51,#52),.FIRSTSHIFT.);
#54=IFCPROPERTYSINGLEVALUE('RuleSetId',$,IFCLABEL('NL'),$);
#55=IFCPROPERTYSINGLEVALUE('GeneratedFromYear',$,IFCINTEGER(2026),$);
#56=IFCPROPERTYSINGLEVALUE('GeneratedToYear',$,IFCINTEGER(2030),$);
#57=IFCPROPERTYSINGLEVALUE('HoursPerDay',$,IFCREAL(8),$);
#58=IFCPROPERTYSET('1MAXhTdSds1C$2QpZDACNk',#6,'OPS_Calendar',$,(#54,#55,#56,#57));
#59=IFCRELDEFINESBYPROPERTIES('3X2flhSTh_xKoojP3ddd6t',#6,$,$,(#53),#58);
#60=IFCWORKPLAN('0hnXnDJLpDG_9qkyyaNCso',#6,'House extension','A 4 by 5 metre extension at the rear of a family home \X2\2014\X0\ the practice project for the tutorials.',$,$,'2026-09-29T12:36:13',$,$,$,$,$,'2027-06-07T07:00:00','2027-06-14T07:00:00',.PLANNED.);
#61=IFCWORKSCHEDULE('3GQWQlwqYZGGoV8jJRHXcD',#6,'Construction schedule v1.0',$,$,$,'2026-09-29T12:36:13',$,$,$,$,$,'2027-06-07T07:00:00','2027-06-14T07:00:00',.PLANNED.);
#62=IFCRELAGGREGATES('35ty6s7tcQyLPDHKsE0S4k',#6,$,$,#60,(#61));
#63=IFCTASKTIME('Preparation Time',.PREDICTED.,$,.WORKTIME.,'P0Y0M4D','2027-06-07T07:00:00','2027-06-11T07:00:00','2027-06-07T07:00:00','2027-06-10T07:00:00','2027-06-07T07:00:00','2027-06-10T07:00:00','P0Y0M0D','P0Y0M0D',.T.,$,$,$,$,$,0.00);
#64=IFCTASK('1fqeG1zZnB8Ei3aM8L5so$',#6,'Preparation',$,$,'1',$,$,$,.F.,$,#63,.CONSTRUCTION.);
#65=IFCTASKTIME('Foundations Time',.PREDICTED.,$,.WORKTIME.,'P0Y0M12D','2027-06-07T07:00:00','2027-06-11T07:00:00','2027-06-11T07:00:00','2027-06-28T07:00:00','2027-06-11T07:00:00','2027-06-28T07:00:00','P0Y0M0D','P0Y0M0D',.T.,$,$,$,$,$,0.00);
#66=IFCTASK('0v_$voTmYkl0B6n6v0mzQV',#6,'Foundations',$,$,'2',$,$,$,.F.,$,#65,.CONSTRUCTION.);
#67=IFCTASKTIME('Shell Time',.PREDICTED.,$,.WORKTIME.,'P0Y0M12D','2027-06-07T07:00:00','2027-06-11T07:00:00','2027-06-29T07:00:00','2027-07-14T07:00:00','2027-06-29T07:00:00','2027-07-14T07:00:00','P0Y0M0D','P0Y0M0D',.T.,$,$,$,$,$,0.00);
#68=IFCTASK('0hJE8Spzs5POYguFCoRsp1',#6,'Shell',$,$,'3',$,$,$,.F.,$,#67,.CONSTRUCTION.);
#69=IFCTASKTIME('Finishing Time',.PREDICTED.,$,.WORKTIME.,'P0Y0M17D','2027-06-07T07:00:00','2027-06-11T07:00:00','2027-07-15T07:00:00','2027-08-06T07:00:00','2027-07-15T07:00:00','2027-08-06T07:00:00','P0Y0M0D','P0Y0M0D',.T.,$,$,$,$,$,0.00);
#70=IFCTASK('1BiGBSIRVLJlt8smRE6tVS',#6,'Finishing',$,$,'4',$,$,$,.F.,$,#69,.CONSTRUCTION.);
#71=IFCTASKTIME('Start of construction Time',.PREDICTED.,$,.WORKTIME.,'P0Y0M0D','2027-06-07T07:00:00','2027-06-07T07:00:00','2027-06-07T07:00:00','2027-06-07T07:00:00','2027-06-07T07:00:00','2027-06-07T07:00:00','P0Y0M0D','P0Y0M0D',.T.,$,$,$,$,$,0.00);
#72=IFCTASK('2rNsZHYYvcPA3g5AYLffK0',#6,'Start of construction',$,$,'1.1',$,$,$,.T.,$,#71,.USERDEFINED.);
#73=IFCTASKTIME('Set up site Time',.PREDICTED.,$,.WORKTIME.,'P0Y0M2D','2027-06-07T07:00:00','2027-06-08T07:00:00','2027-06-07T07:00:00','2027-06-08T07:00:00','2027-06-07T07:00:00','2027-06-08T07:00:00','P0Y0M0D','P0Y0M0D',.T.,$,$,$,$,$,0.00);
#74=IFCTASK('1H9lSJfdjY4hXnOG_4fiWz',#6,'Set up site',$,$,'1.2',$,$,$,.F.,$,#73,.CONSTRUCTION.);
#75=IFCTASKTIME('Clear garden and paving Time',.PREDICTED.,$,.WORKTIME.,'P0Y0M1D','2027-06-07T07:00:00','2027-06-07T07:00:00','2027-06-09T07:00:00','2027-06-09T07:00:00','2027-06-09T07:00:00','2027-06-09T07:00:00','P0Y0M0D','P0Y0M0D',.T.,$,$,$,$,$,0.00);
#76=IFCTASK('2jYWpAYx6cWdswQq2ZAK3Q',#6,'Clear garden and paving',$,$,'1.3',$,$,$,.F.,$,#75,.CONSTRUCTION.);
#77=IFCTASKTIME('Set out the extension Time',.PREDICTED.,$,.WORKTIME.,'P0Y0M1D','2027-06-07T07:00:00','2027-06-07T07:00:00','2027-06-10T07:00:00','2027-06-10T07:00:00','2027-06-10T07:00:00','2027-06-10T07:00:00','P0Y0M0D','P0Y0M0D',.T.,$,$,$,$,$,0.00);
#78=IFCTASK('0k4Gc0SyfkW6VLh5H9ztXV',#6,'Set out the extension',$,$,'1.4',$,$,$,.F.,$,#77,.CONSTRUCTION.);
#79=IFCTASKTIME('Excavate foundation trench Time',.PREDICTED.,$,.WORKTIME.,'P0Y0M2D','2027-06-07T07:00:00','2027-06-08T07:00:00','2027-06-11T07:00:00','2027-06-14T07:00:00','2027-06-11T07:00:00','2027-06-14T07:00:00','P0Y0M0D','P0Y0M0D',.T.,$,$,$,$,$,0.00);
#80=IFCTASK('2RIMsFzn4xufNurx$8fWSK',#6,'Excavate foundation trench',$,$,'2.1',$,$,$,.F.,$,#79,.CONSTRUCTION.);
#81=IFCTASKTIME('Foundation formwork and reinforcement Time',.PREDICTED.,$,.WORKTIME.,'P0Y0M3D','2027-06-07T07:00:00','2027-06-09T07:00:00','2027-06-15T07:00:00','2027-06-17T07:00:00','2027-06-15T07:00:00','2027-06-17T07:00:00','P0Y0M0D','P0Y0M0D',.T.,$,$,$,$,$,0.00);
#82=IFCTASK('1Le6DPqBG9vaR4cW17rdDy',#6,'Foundation formwork and reinforcement',$,$,'2.2',$,$,$,.F.,$,#81,.CONSTRUCTION.);
#83=IFCTASKTIME('Reinforcement inspection Time',.PREDICTED.,$,.WORKTIME.,'P0Y0M0D','2027-06-07T07:00:00','2027-06-07T07:00:00','2027-06-17T07:00:00','2027-06-17T07:00:00','2027-06-17T07:00:00','2027-06-17T07:00:00','P0Y0M0D','P0Y0M0D',.T.,$,$,$,$,$,0.00);
#84=IFCTASK('3XwXPV7LE1ZUv0Fs7YSZ9f',#6,'Reinforcement inspection',$,$,'2.3',$,$,$,.T.,$,#83,.ATTENDANCE.);
#85=IFCTASKTIME('Pour foundation Time',.PREDICTED.,$,.WORKTIME.,'P0Y0M1D','2027-06-07T07:00:00','2027-06-07T07:00:00','2027-06-18T07:00:00','2027-06-18T07:00:00','2027-06-18T07:00:00','2027-06-18T07:00:00','P0Y0M0D','P0Y0M0D',.T.,$,$,$,$,$,0.00);
#86=IFCTASK('1FQyxhnJTV1GVX041b4Akc',#6,'Pour foundation',$,$,'2.4',$,$,$,.F.,$,#85,.CONSTRUCTION.);
#87=IFCTASKTIME('Foundation brickwork Time',.PREDICTED.,$,.WORKTIME.,'P0Y0M2D','2027-06-07T07:00:00','2027-06-08T07:00:00','2027-06-24T07:00:00','2027-06-25T07:00:00','2027-06-24T07:00:00','2027-06-25T07:00:00','P0Y0M0D','P0Y0M0D',.T.,$,$,$,$,$,0.00);
#88=IFCTASK('1vSYTP8jc2ZDl45TojHX4X',#6,'Foundation brickwork',$,$,'2.5',$,$,$,.F.,$,#87,.CONSTRUCTION.);
#89=IFCTASKTIME('Lay hollow-core floor Time',.PREDICTED.,$,.WORKTIME.,'P0Y0M1D','2027-06-07T07:00:00','2027-06-07T07:00:00','2027-06-28T07:00:00','2027-06-28T07:00:00','2027-06-28T07:00:00','2027-06-28T07:00:00','P0Y0M0D','P0Y0M0D',.T.,$,$,$,$,$,0.00);
#90=IFCTASK('1aLr8C4t8up0z00OmglKN0',#6,'Lay hollow-core floor',$,$,'2.6',$,$,$,.F.,$,#89,.CONSTRUCTION.);
#91=IFCTASKTIME('Build inner cavity leaf Time',.PREDICTED.,$,.WORKTIME.,'P0Y0M5D','2027-06-07T07:00:00','2027-06-11T07:00:00','2027-06-29T07:00:00','2027-07-05T07:00:00','2027-06-29T07:00:00','2027-07-05T07:00:00','P0Y0M0D','P0Y0M0D',.T.,$,$,$,$,$,0.00);
#92=IFCTASK('2iFbiB7W8oymKHJhbXHbLI',#6,'Build inner cavity leaf',$,$,'3.1',$,$,$,.F.,$,#91,.CONSTRUCTION.);
#93=IFCTASKTIME('Build outer cavity leaf Time',.PREDICTED.,$,.WORKTIME.,'P0Y0M6D','2027-06-07T07:00:00','2027-06-14T07:00:00','2027-06-29T07:00:00','2027-07-06T07:00:00','2027-07-01T07:00:00','2027-07-08T07:00:00','P0Y0M2D','P0Y0M2D',.F.,$,$,$,$,$,0.00);
#94=IFCTASK('3VDQQ7myr1_TqTaTwqyyb1',#6,'Build outer cavity leaf',$,$,'3.2',$,$,$,.F.,$,#93,.CONSTRUCTION.);
#95=IFCTASKTIME('Place roof elements Time',.PREDICTED.,$,.WORKTIME.,'P0Y0M1D','2027-06-07T07:00:00','2027-06-07T07:00:00','2027-07-06T07:00:00','2027-07-06T07:00:00','2027-07-06T07:00:00','2027-07-06T07:00:00','P0Y0M0D','P0Y0M0D',.T.,$,$,$,$,$,0.00);
#96=IFCTASK('3gKNaf93Xh6dD8_QwyPnGs',#6,'Place roof elements',$,$,'3.3',$,$,$,.F.,$,#95,.CONSTRUCTION.);
#97=IFCTASKTIME('Apply roofing Time',.PREDICTED.,$,.WORKTIME.,'P0Y0M2D','2027-06-07T07:00:00','2027-06-08T07:00:00','2027-07-07T07:00:00','2027-07-08T07:00:00','2027-07-07T07:00:00','2027-07-08T07:00:00','P0Y0M0D','P0Y0M0D',.T.,$,$,$,$,$,0.00);
#98=IFCTASK('2xxqAq4E4_cHKavskHIWRk',#6,'Apply roofing',$,$,'3.4',$,$,$,.F.,$,#97,.CONSTRUCTION.);
#99=IFCTASKTIME('Install window frames Time',.PREDICTED.,$,.WORKTIME.,'P0Y0M2D','2027-06-07T07:00:00','2027-06-08T07:00:00','2027-07-09T07:00:00','2027-07-12T07:00:00','2027-07-09T07:00:00','2027-07-12T07:00:00','P0Y0M0D','P0Y0M0D',.T.,$,$,$,$,$,0.00);
#100=IFCTASK('1C5rzzR01YXoLWxd89$ZzA',#6,'Install window frames',$,$,'3.5',$,$,$,.F.,$,#99,.CONSTRUCTION.);
#101=IFCTASKTIME('Break through rear wall Time',.PREDICTED.,$,.WORKTIME.,'P0Y0M2D','2027-06-07T07:00:00','2027-06-08T07:00:00','2027-07-13T07:00:00','2027-07-14T07:00:00','2027-07-13T07:00:00','2027-07-14T07:00:00','P0Y0M0D','P0Y0M0D',.T.,$,$,$,$,$,0.00);
#102=IFCTASK('0UkeFnO$6ncQ7X4tTf_DPd',#6,'Break through rear wall',$,$,'3.6',$,$,$,.F.,$,#101,.CONSTRUCTION.);
#103=IFCTASKTIME('Install building services Time',.PREDICTED.,$,.WORKTIME.,'P0Y0M3D','2027-06-07T07:00:00','2027-06-09T07:00:00','2027-07-15T07:00:00','2027-07-19T07:00:00','2027-07-15T07:00:00','2027-07-19T07:00:00','P0Y0M0D','P0Y0M0D',.T.,$,$,$,$,$,0.00);
#104=IFCTASK('34Ed9bLNMnCE2hmnuxf2xM',#6,'Install building services',$,$,'4.1',$,$,$,.F.,$,#103,.CONSTRUCTION.);
#105=IFCTASKTIME('Plastering Time',.PREDICTED.,$,.WORKTIME.,'P0Y0M4D','2027-06-07T07:00:00','2027-06-10T07:00:00','2027-07-20T07:00:00','2027-07-23T07:00:00','2027-07-20T07:00:00','2027-07-23T07:00:00','P0Y0M0D','P0Y0M0D',.T.,$,$,$,$,$,0.00);
#106=IFCTASK('0SlsgWI1jcKjySxS0wCCcl',#6,'Plastering',$,$,'4.2',$,$,$,.F.,$,#105,.CONSTRUCTION.);
#107=IFCTASKTIME('Lay floor screed Time',.PREDICTED.,$,.WORKTIME.,'P0Y0M1D','2027-06-07T07:00:00','2027-06-07T07:00:00','2027-07-26T07:00:00','2027-07-26T07:00:00','2027-07-26T07:00:00','2027-07-26T07:00:00','P0Y0M0D','P0Y0M0D',.T.,$,$,$,$,$,0.00);
#108=IFCTASK('1l77gYEC0VhdH9J9hwRULP',#6,'Lay floor screed',$,$,'4.3',$,$,$,.F.,$,#107,.CONSTRUCTION.);
#109=IFCTASKTIME('Tiling Time',.PREDICTED.,$,.WORKTIME.,'P0Y0M3D','2027-06-07T07:00:00','2027-06-09T07:00:00','2027-08-03T07:00:00','2027-08-05T07:00:00','2027-08-03T07:00:00','2027-08-05T07:00:00','P0Y0M0D','P0Y0M0D',.T.,$,$,$,$,$,0.00);
#110=IFCTASK('3LwJ2bCXvon0wZOv$_PWHc',#6,'Tiling',$,$,'4.4',$,$,$,.F.,$,#109,.CONSTRUCTION.);
#111=IFCTASKTIME('Painting Time',.PREDICTED.,$,.WORKTIME.,'P0Y0M3D','2027-06-07T07:00:00','2027-06-09T07:00:00','2027-07-26T07:00:00','2027-07-28T07:00:00','2027-08-03T07:00:00','2027-08-05T07:00:00','P0Y0M6D','P0Y0M6D',.F.,$,$,$,$,$,0.00);
#112=IFCTASK('3xbopVjStwqY9wM_kFRiKw',#6,'Painting',$,$,'4.5',$,$,$,.F.,$,#111,.CONSTRUCTION.);
#113=IFCTASKTIME('Snagging and cleaning Time',.PREDICTED.,$,.WORKTIME.,'P0Y0M1D','2027-06-07T07:00:00','2027-06-07T07:00:00','2027-08-06T07:00:00','2027-08-06T07:00:00','2027-08-06T07:00:00','2027-08-06T07:00:00','P0Y0M0D','P0Y0M0D',.T.,$,$,$,$,$,0.00);
#114=IFCTASK('0KHUxU6JTPy5aW23fqZKXo',#6,'Snagging and cleaning',$,$,'4.6',$,$,$,.F.,$,#113,.CONSTRUCTION.);
#115=IFCTASKTIME('Handover Time',.PREDICTED.,$,.WORKTIME.,'P0Y0M0D','2027-06-07T07:00:00','2027-06-07T07:00:00','2027-08-06T07:00:00','2027-08-06T07:00:00','2027-08-06T07:00:00','2027-08-06T07:00:00','P0Y0M0D','P0Y0M0D',.T.,$,$,$,$,$,0.00);
#116=IFCTASK('0dl759wCjts_ru53vdmWNr',#6,'Handover',$,$,'4.7',$,$,$,.T.,$,#115,.USERDEFINED.);
#117=IFCRELNESTS('1qLmRMWL4BDZo9dui9kGXU',#6,'WBS Preparation',$,#64,( #72,#74,#76,#78));
#118=IFCRELNESTS('25K63HqWEMBLd11xd$C0vH',#6,'WBS Foundations',$,#66,( #80,#82,#84,#86,#88,#90));
#119=IFCRELNESTS('0UYTUkeIZjFnE6AALoDz2K',#6,'WBS Shell',$,#68,( #92,#94,#96,#98,#100,#102));
#120=IFCRELNESTS('0cuGxm5jt$zisWKl82rtpP',#6,'WBS Finishing',$,#70,( #104,#106,#108,#110,#112,#114,#116));
#121=IFCRELNESTS('3VDzbIEuQjRTy3_OFUJri7',#6,'WBS Hoofd',$,#61,(#64,#66,#68,#70));
#122=IFCRELSEQUENCE('24yQuIvDH0B5GrL6ZlZyuV',#6,$,$,#72,#74,$,.FINISH_START.,$);
#123=IFCRELSEQUENCE('2BaAV3ywrC8L0lg$35yprU',#6,$,$,#74,#76,$,.FINISH_START.,$);
#124=IFCRELSEQUENCE('0YAYsYBD9vaJBBjuXNbZWQ',#6,$,$,#76,#78,$,.FINISH_START.,$);
#125=IFCRELSEQUENCE('2G5398xRQxu8paaw2Cqlqw',#6,$,$,#78,#80,$,.FINISH_START.,$);
#126=IFCRELSEQUENCE('0SghkunUR5YtZ4pj5TJilF',#6,$,$,#80,#82,$,.FINISH_START.,$);
#127=IFCRELSEQUENCE('3x73kW$xL1vqTpr0VtO1i_',#6,$,$,#82,#84,$,.FINISH_START.,$);
#128=IFCRELSEQUENCE('2sIX68EAoNQ6YQPBuj7U__',#6,$,$,#84,#86,$,.FINISH_START.,$);
#129=IFCLAGTIME('Lag',.PREDICTED.,$,IFCDURATION('P3D'),.WORKTIME.);
#130=IFCRELSEQUENCE('3Psp_CkrwvIAD4nCD5JU1d',#6,$,$,#86,#88,#129,.FINISH_START.,$);
#131=IFCRELSEQUENCE('04dqhyszaoE6ug_8CbuMak',#6,$,$,#88,#90,$,.FINISH_START.,$);
#132=IFCRELSEQUENCE('1N0iZvtribNNnH$OvHGl_v',#6,$,$,#90,#92,$,.FINISH_START.,$);
#133=IFCRELSEQUENCE('39e3jMQ_uTJ3Zp_K0_EeUP',#6,$,$,#90,#94,$,.FINISH_START.,$);
#134=IFCRELSEQUENCE('0i4dq4n_pnxRg1bjm95miH',#6,$,$,#92,#96,$,.FINISH_START.,$);
#135=IFCRELSEQUENCE('0uK87_Ooxsq5lYeiHmMj$o',#6,$,$,#96,#98,$,.FINISH_START.,$);
#136=IFCRELSEQUENCE('3d4hU8uFsS7UW2d_aA7VvF',#6,$,$,#98,#100,$,.FINISH_START.,$);
#137=IFCRELSEQUENCE('0T$C_jGo2mTvjLVkFD$Ccp',#6,$,$,#94,#100,$,.FINISH_START.,$);
#138=IFCRELSEQUENCE('3OBgwEYnUD5_G$C8fJX39G',#6,$,$,#100,#102,$,.FINISH_START.,$);
#139=IFCRELSEQUENCE('0Hqv_Ed6n$Hdgkh1QPAYWD',#6,$,$,#102,#104,$,.FINISH_START.,$);
#140=IFCRELSEQUENCE('28eJtbjZ7gzkknKjF7cI3k',#6,$,$,#104,#106,$,.FINISH_START.,$);
#141=IFCRELSEQUENCE('2M$mXZk2lyA3FX5M5l8Hr0',#6,$,$,#106,#108,$,.FINISH_START.,$);
#142=IFCRELSEQUENCE('1D5l2DWzlrv90jA9ECn1nd',#6,$,$,#106,#112,$,.FINISH_START.,$);
#143=IFCLAGTIME('Lag',.PREDICTED.,$,IFCDURATION('P5D'),.WORKTIME.);
#144=IFCRELSEQUENCE('0kRqDRD8FdZYJEbyc7xCO6',#6,$,$,#108,#110,#143,.FINISH_START.,$);
#145=IFCRELSEQUENCE('3gWGwK4VWXolox2IJ8QHUQ',#6,$,$,#110,#114,$,.FINISH_START.,$);
#146=IFCRELSEQUENCE('0GeJ38jcbYoJ1rcka7PkEP',#6,$,$,#112,#114,$,.FINISH_START.,$);
#147=IFCRELSEQUENCE('1gOMzujN5Vwbq7LLbtAX94',#6,$,$,#114,#116,$,.FINISH_START.,$);
#148=IFCRELASSIGNSTOCONTROL('0Ibx16fSGiNSDmlA1l4YIP',#6,$,$,(#64,#66,#68,#70,#72,#74,#76,#78,#80,#82,#84,#86,#88,#90,#92,#94,#96,#98,#100,#102,#104,#106,#108,#110,#112,#114,#116),$,#61);
#149=IFCPROPERTYSINGLEVALUE('InternalProjectId',$,IFCTEXT('proj-mumnu56cd05176'),$);
#150=IFCPROPERTYSINGLEVALUE('wbsAutoNumber',$,IFCBOOLEAN(.T.),$);
#151=IFCPROPERTYSINGLEVALUE('DefaultTaskDurationUnit',$,IFCLABEL('days'),$);
#152=IFCPROPERTYSINGLEVALUE('ProjectStartDate',$,IFCDATE('2027-06-07'),$);
#153=IFCPROPERTYSINGLEVALUE('ProjectEndDate',$,$,$);
#154=IFCPROPERTYSINGLEVALUE('CreatedAt',$,IFCTEXT('2026-09-29T12:36:13.620Z'),$);
#155=IFCPROPERTYSINGLEVALUE('ModifiedAt',$,IFCTEXT('2026-09-29T12:36:13.620Z'),$);
#156=IFCPROPERTYSET('2tSNqHIB7E0guHwlQ_UsZM',#6,'OPS_ProjectSettings',$,(#149,#150,#151,#152,#153,#154,#155));
#157=IFCRELDEFINESBYPROPERTIES('0gHCVoJYMe1nuo$0nRQwmq',#6,$,$,(#13),#156);
#158=IFCPROPERTYSINGLEVALUE('InternalTaskId',$,IFCTEXT('task-mumnu56dtu4c78'),$);
#159=IFCPROPERTYSET('2RICV$CXVn4AdiGCjLYFN5',#6,'OPS_TaskIdentity',$,(#158));
#160=IFCRELDEFINESBYPROPERTIES('12Yp9UCkBijgMpZtBpm80H',#6,$,$,(#64),#159);
#161=IFCPROPERTYSINGLEVALUE('InternalTaskId',$,IFCTEXT('task-mumnu56fe9ns79'),$);
#162=IFCPROPERTYSET('3KEAjkPTkgGYASt10WLznk',#6,'OPS_TaskIdentity',$,(#161));
#163=IFCRELDEFINESBYPROPERTIES('2y_jMCU4pW18bBHvF8sulM',#6,$,$,(#66),#162);
#164=IFCPROPERTYSINGLEVALUE('InternalTaskId',$,IFCTEXT('task-mumnu56iqb4i80'),$);
#165=IFCPROPERTYSET('1X2fOvDhox_brzOJTbylOi',#6,'OPS_TaskIdentity',$,(#164));
#166=IFCRELDEFINESBYPROPERTIES('3u9HUr7z$8xslLpVSKVKiX',#6,$,$,(#68),#165);
#167=IFCPROPERTYSINGLEVALUE('InternalTaskId',$,IFCTEXT('task-mumnu56key3o81'),$);
#168=IFCPROPERTYSET('2VsK6ItrcPTEhPGttBggYt',#6,'OPS_TaskIdentity',$,(#167));
#169=IFCRELDEFINESBYPROPERTIES('2u7_jMNwI3IQ2EvgzPSJ$W',#6,$,$,(#70),#168);
#170=IFCPROPERTYSINGLEVALUE('InternalTaskId',$,IFCTEXT('task-mumnu56m7hv782'),$);
#171=IFCPROPERTYSET('2SxUQxPy5XEIjDf2vUFdP4',#6,'OPS_TaskIdentity',$,(#170));
#172=IFCRELDEFINESBYPROPERTIES('3A350VGvpBgb0fj0YUcVJU',#6,$,$,(#72),#171);
#173=IFCPROPERTYSINGLEVALUE('InternalTaskId',$,IFCTEXT('task-mumnu56p62bj83'),$);
#174=IFCPROPERTYSET('0DxxoxNv$m5iVuG_BLoDjZ',#6,'OPS_TaskIdentity',$,(#173));
#175=IFCRELDEFINESBYPROPERTIES('1xdDDhFnt0T3uYGVVlakiF',#6,$,$,(#74),#174);
#176=IFCPROPERTYSINGLEVALUE('InternalTaskId',$,IFCTEXT('task-mumnu56t04sm84'),$);
#177=IFCPROPERTYSET('3VdQsuHy7ALOna3Yp7ll1y',#6,'OPS_TaskIdentity',$,(#176));
#178=IFCRELDEFINESBYPROPERTIES('2JoVfaUzkkMJ_ze1MFACEd',#6,$,$,(#76),#177);
#179=IFCPROPERTYSINGLEVALUE('InternalTaskId',$,IFCTEXT('task-mumnu56v60a785'),$);
#180=IFCPROPERTYSET('3GqeScHiBBHsH9clvGp6FP',#6,'OPS_TaskIdentity',$,(#179));
#181=IFCRELDEFINESBYPROPERTIES('05IG5XiKgIUZ4PwtpAJFZy',#6,$,$,(#78),#180);
#182=IFCPROPERTYSINGLEVALUE('InternalTaskId',$,IFCTEXT('task-mumnu56y79ut86'),$);
#183=IFCPROPERTYSET('1R3XX2PJB_YgI91dnF0I4d',#6,'OPS_TaskIdentity',$,(#182));
#184=IFCRELDEFINESBYPROPERTIES('28JdHzH5stD2dPXC6cTQbY',#6,$,$,(#80),#183);
#185=IFCPROPERTYSINGLEVALUE('InternalTaskId',$,IFCTEXT('task-mumnu571ukoh87'),$);
#186=IFCPROPERTYSET('1n8bKs_JUy02_jigI0rHYf',#6,'OPS_TaskIdentity',$,(#185));
#187=IFCRELDEFINESBYPROPERTIES('2ch6KycwzRrU$emLznfU1j',#6,$,$,(#82),#186);
#188=IFCPROPERTYSINGLEVALUE('InternalTaskId',$,IFCTEXT('task-mumnu573eree88'),$);
#189=IFCPROPERTYSET('2zAhPVgEdoydYjJxmwj$gU',#6,'OPS_TaskIdentity',$,(#188));
#190=IFCRELDEFINESBYPROPERTIES('29sY9Bd8m9JMGCl2oy79fd',#6,$,$,(#84),#189);
#191=IFCPROPERTYSINGLEVALUE('InternalTaskId',$,IFCTEXT('task-mumnu576hwjh89'),$);
#192=IFCPROPERTYSET('181kApe4AMRQv4RsiDBENF',#6,'OPS_TaskIdentity',$,(#191));
#193=IFCRELDEFINESBYPROPERTIES('3aO5G2GsUIpuyb$Z_d0xEZ',#6,$,$,(#86),#192);
#194=IFCPROPERTYSINGLEVALUE('InternalTaskId',$,IFCTEXT('task-mumnu578qcvb90'),$);
#195=IFCPROPERTYSET('2t46TBZe8bG5O0ULi6RwsJ',#6,'OPS_TaskIdentity',$,(#194));
#196=IFCRELDEFINESBYPROPERTIES('0WApnBetlxuOCKyNP7LNs_',#6,$,$,(#88),#195);
#197=IFCPROPERTYSINGLEVALUE('InternalTaskId',$,IFCTEXT('task-mumnu57b9jje91'),$);
#198=IFCPROPERTYSET('3CcH4ylNG4jWrTivIu9p6g',#6,'OPS_TaskIdentity',$,(#197));
#199=IFCRELDEFINESBYPROPERTIES('2ziFwDVbf8hxnGjyqifCIU',#6,$,$,(#90),#198);
#200=IFCPROPERTYSINGLEVALUE('InternalTaskId',$,IFCTEXT('task-mumnu57fagjk92'),$);
#201=IFCPROPERTYSET('1ou5ZbKH8w9ldaQHNUTdEZ',#6,'OPS_TaskIdentity',$,(#200));
#202=IFCRELDEFINESBYPROPERTIES('1o_04bl$S7dGHBnbAPByNf',#6,$,$,(#92),#201);
#203=IFCPROPERTYSINGLEVALUE('InternalTaskId',$,IFCTEXT('task-mumnu57irhf193'),$);
#204=IFCPROPERTYSET('1hEZi_$JM$gQfHFqwB8JDO',#6,'OPS_TaskIdentity',$,(#203));
#205=IFCRELDEFINESBYPROPERTIES('3nKhxq5B93dYtMNE6w3H6K',#6,$,$,(#94),#204);
#206=IFCPROPERTYSINGLEVALUE('InternalTaskId',$,IFCTEXT('task-mumnu57lpg6q94'),$);
#207=IFCPROPERTYSET('0xBAzXvRVNmZpnw3tv2cPd',#6,'OPS_TaskIdentity',$,(#206));
#208=IFCRELDEFINESBYPROPERTIES('0r__q08Mr5ekcgQ72noZfp',#6,$,$,(#96),#207);
#209=IFCPROPERTYSINGLEVALUE('InternalTaskId',$,IFCTEXT('task-mumnu57os57t95'),$);
#210=IFCPROPERTYSET('0LrhmMZ1LQNSGrh2iq9VaY',#6,'OPS_TaskIdentity',$,(#209));
#211=IFCRELDEFINESBYPROPERTIES('38nnnJqYg2OinH5NIwrFQG',#6,$,$,(#98),#210);
#212=IFCPROPERTYSINGLEVALUE('InternalTaskId',$,IFCTEXT('task-mumnu57s272w96'),$);
#213=IFCPROPERTYSET('2dPS_EPqWgtbbede2Vo_g2',#6,'OPS_TaskIdentity',$,(#212));
#214=IFCRELDEFINESBYPROPERTIES('0tW6ZKcKpMd5as5pyERjHE',#6,$,$,(#100),#213);
#215=IFCPROPERTYSINGLEVALUE('InternalTaskId',$,IFCTEXT('task-mumnu57v9gsj97'),$);
#216=IFCPROPERTYSET('2MCInbNua1ObCgWN2q6lHQ',#6,'OPS_TaskIdentity',$,(#215));
#217=IFCRELDEFINESBYPROPERTIES('0m8dWzIq1cbKMBSvIXvLLs',#6,$,$,(#102),#216);
#218=IFCPROPERTYSINGLEVALUE('InternalTaskId',$,IFCTEXT('task-mumnu57y5jx798'),$);
#219=IFCPROPERTYSET('3vB1LBPQOfZIuimzjwuseg',#6,'OPS_TaskIdentity',$,(#218));
#220=IFCRELDEFINESBYPROPERTIES('06k86q8okuJb0cQ2E2Nz1F',#6,$,$,(#104),#219);
#221=IFCPROPERTYSINGLEVALUE('InternalTaskId',$,IFCTEXT('task-mumnu581t4eq99'),$);
#222=IFCPROPERTYSET('2ihF4lX3ZVEPSAdbkjBVJC',#6,'OPS_TaskIdentity',$,(#221));
#223=IFCRELDEFINESBYPROPERTIES('3pJojAoxLt_l_zFoUh3hl9',#6,$,$,(#106),#222);
#224=IFCPROPERTYSINGLEVALUE('InternalTaskId',$,IFCTEXT('task-mumnu584np1s100'),$);
#225=IFCPROPERTYSET('2YPjZdOKlKGhpb1u5sn4PP',#6,'OPS_TaskIdentity',$,(#224));
#226=IFCRELDEFINESBYPROPERTIES('0dEfZoVwOTUSzEVPFTbqKc',#6,$,$,(#108),#225);
#227=IFCPROPERTYSINGLEVALUE('InternalTaskId',$,IFCTEXT('task-mumnu587ly1w101'),$);
#228=IFCPROPERTYSET('1P3XjWpHepdNMbt65X4ZyT',#6,'OPS_TaskIdentity',$,(#227));
#229=IFCRELDEFINESBYPROPERTIES('2KkuD0VNfAik3pwy5I2u1f',#6,$,$,(#110),#228);
#230=IFCPROPERTYSINGLEVALUE('InternalTaskId',$,IFCTEXT('task-mumnu58a0u9k102'),$);
#231=IFCPROPERTYSET('3sT0XRrzKNi8GlZqOnzvap',#6,'OPS_TaskIdentity',$,(#230));
#232=IFCRELDEFINESBYPROPERTIES('0dOZRs4ZlJtBA1lz5qr8vD',#6,$,$,(#112),#231);
#233=IFCPROPERTYSINGLEVALUE('InternalTaskId',$,IFCTEXT('task-mumnu58e2dfs103'),$);
#234=IFCPROPERTYSET('0FI$SkMFQHKFwMujrNd3n2',#6,'OPS_TaskIdentity',$,(#233));
#235=IFCRELDEFINESBYPROPERTIES('0Izj4g3oHlY2JdNFdsi6Bb',#6,$,$,(#114),#234);
#236=IFCPROPERTYSINGLEVALUE('InternalTaskId',$,IFCTEXT('task-mumnu58hrfqn104'),$);
#237=IFCPROPERTYSET('08tSdbSsk1TINXyQuR$e0H',#6,'OPS_TaskIdentity',$,(#236));
#238=IFCRELDEFINESBYPROPERTIES('3fPkMFJ5HxAZnJUlM2vd10',#6,$,$,(#116),#237);
#239=IFCPROPERTYSINGLEVALUE('MilestoneKind',$,IFCLABEL('START'),$);
#240=IFCPROPERTYSET('0pI33LPzp7yBLeXHSUUElT',#6,'OPS_Milestone',$,(#239));
#241=IFCRELDEFINESBYPROPERTIES('0nOG3Nlkq1Q23Z2DASnK8q',#6,$,$,(#72),#240);
#242=IFCPROPERTYSINGLEVALUE('MilestoneKind',$,IFCLABEL('FINISH'),$);
#243=IFCPROPERTYSINGLEVALUE('Mandatory',$,IFCBOOLEAN(.T.),$);
#244=IFCPROPERTYSET('2rK3nP2TbzEVEZZ1jwUTGj',#6,'OPS_Milestone',$,(#242,#243));
#245=IFCRELDEFINESBYPROPERTIES('1otuwMupLoZ2Lpz6WsbR0e',#6,$,$,(#84),#244);
#246=IFCPROPERTYSINGLEVALUE('MilestoneKind',$,IFCLABEL('FINISH'),$);
#247=IFCPROPERTYSET('2VxmjW0FKnGiLB2zFdlpU2',#6,'OPS_Milestone',$,(#246));
#248=IFCRELDEFINESBYPROPERTIES('2R_UBZQ0Bcyk$_Cl6UhYPK',#6,$,$,(#116),#247);
ENDSEC;
END-ISO-10303-21;
