ISO-10303-21;
HEADER;
FILE_DESCRIPTION(('ViewDefinition [SchedulingView]'),'2;1');
FILE_NAME('House extension.ifc','2026-10-03T18:22:06',('Open Planner Studio'),('OpenAEC Foundation'),'Open Planner Studio 0.1','Open Planner Studio','');
FILE_SCHEMA(('IFC4X3'));
ENDSEC;
DATA;
#1=IFCPERSON($,$,$,$,$,$,$,$);
#2=IFCORGANIZATION($,$,$,$,$);
#3=IFCPERSONANDORGANIZATION(#1,#2,$);
#4=IFCORGANIZATION($,'OpenAEC Foundation',$,$,$);
#5=IFCAPPLICATION(#4,'0.2','Open Planner Studio','OPS');
#6=IFCOWNERHISTORY(#3,#5,$,.NOCHANGE.,$,$,$,1791051726);
#7=IFCSIUNIT(*,.LENGTHUNIT.,$,.METRE.);
#8=IFCSIUNIT(*,.TIMEUNIT.,$,.SECOND.);
#9=IFCUNITASSIGNMENT((#7,#8));
#10=IFCCARTESIANPOINT((0.,0.,0.));
#11=IFCAXIS2PLACEMENT3D(#10,$,$);
#12=IFCGEOMETRICREPRESENTATIONCONTEXT($,'Plan',3,1.0E-05,#11,$);
#13=IFCPROJECT('34Q4OJLdPqhZYoKsjicVmu',#6,'House extension','A 4 by 5 metre extension at the rear of a family home \X2\2014\X0\ the practice project for the tutorials.',$,$,$,(#12),#9);
#14=IFCTIMEPERIOD('07:00:00','12:00:00');
#15=IFCTIMEPERIOD('13:00:00','16:00:00');
#16=IFCRECURRENCEPATTERN(.WEEKLY.,$,(1,2,3,4,5),$,$,$,$,(#14,#15));
#17=IFCWORKTIME('Standard work week',.PREDICTED.,$,#16,$,$);
#18=IFCWORKTIME('Nieuwjaar',.PREDICTED.,$,$,'2026-01-01','2026-01-01');
#19=IFCWORKTIME('Goede Vrijdag',.PREDICTED.,$,$,'2026-04-03','2026-04-03');
#20=IFCWORKTIME('Pasen',.PREDICTED.,$,$,'2026-04-05','2026-04-06');
#21=IFCWORKTIME('Koningsdag',.PREDICTED.,$,$,'2026-04-27','2026-04-27');
#22=IFCWORKTIME('Hemelvaart',.PREDICTED.,$,$,'2026-05-14','2026-05-14');
#23=IFCWORKTIME('Pinksteren',.PREDICTED.,$,$,'2026-05-24','2026-05-25');
#24=IFCWORKTIME('Bouwvak (Midden)',.PREDICTED.,$,$,'2026-08-03','2026-08-21');
#25=IFCWORKTIME('Kerst',.PREDICTED.,$,$,'2026-12-25','2026-12-26');
#26=IFCWORKTIME('Nieuwjaar',.PREDICTED.,$,$,'2027-01-01','2027-01-01');
#27=IFCWORKTIME('Goede Vrijdag',.PREDICTED.,$,$,'2027-03-26','2027-03-26');
#28=IFCWORKTIME('Pasen',.PREDICTED.,$,$,'2027-03-28','2027-03-29');
#29=IFCWORKTIME('Koningsdag',.PREDICTED.,$,$,'2027-04-27','2027-04-27');
#30=IFCWORKTIME('Hemelvaart',.PREDICTED.,$,$,'2027-05-06','2027-05-06');
#31=IFCWORKTIME('Pinksteren',.PREDICTED.,$,$,'2027-05-16','2027-05-17');
#32=IFCWORKTIME('Bouwvak (Midden)',.PREDICTED.,$,$,'2027-08-02','2027-08-20');
#33=IFCWORKTIME('Kerst',.PREDICTED.,$,$,'2027-12-25','2027-12-26');
#34=IFCWORKTIME('Nieuwjaar',.PREDICTED.,$,$,'2028-01-01','2028-01-01');
#35=IFCWORKTIME('Goede Vrijdag',.PREDICTED.,$,$,'2028-04-14','2028-04-14');
#36=IFCWORKTIME('Pasen',.PREDICTED.,$,$,'2028-04-16','2028-04-17');
#37=IFCWORKTIME('Koningsdag',.PREDICTED.,$,$,'2028-04-27','2028-04-27');
#38=IFCWORKTIME('Hemelvaart',.PREDICTED.,$,$,'2028-05-25','2028-05-25');
#39=IFCWORKTIME('Pinksteren',.PREDICTED.,$,$,'2028-06-04','2028-06-05');
#40=IFCWORKTIME('Bouwvak (Midden)',.PREDICTED.,$,$,'2028-07-24','2028-08-11');
#41=IFCWORKTIME('Kerst',.PREDICTED.,$,$,'2028-12-25','2028-12-26');
#42=IFCWORKTIME('Nieuwjaar',.PREDICTED.,$,$,'2029-01-01','2029-01-01');
#43=IFCWORKTIME('Goede Vrijdag',.PREDICTED.,$,$,'2029-03-30','2029-03-30');
#44=IFCWORKTIME('Pasen',.PREDICTED.,$,$,'2029-04-01','2029-04-02');
#45=IFCWORKTIME('Koningsdag',.PREDICTED.,$,$,'2029-04-27','2029-04-27');
#46=IFCWORKTIME('Hemelvaart',.PREDICTED.,$,$,'2029-05-10','2029-05-10');
#47=IFCWORKTIME('Pinksteren',.PREDICTED.,$,$,'2029-05-20','2029-05-21');
#48=IFCWORKTIME('Bouwvak (Midden)',.PREDICTED.,$,$,'2029-07-30','2029-08-17');
#49=IFCWORKTIME('Kerst',.PREDICTED.,$,$,'2029-12-25','2029-12-26');
#50=IFCWORKTIME('Nieuwjaar',.PREDICTED.,$,$,'2030-01-01','2030-01-01');
#51=IFCWORKTIME('Goede Vrijdag',.PREDICTED.,$,$,'2030-04-19','2030-04-19');
#52=IFCWORKTIME('Pasen',.PREDICTED.,$,$,'2030-04-21','2030-04-22');
#53=IFCWORKTIME('Koningsdag',.PREDICTED.,$,$,'2030-04-27','2030-04-27');
#54=IFCWORKTIME('Bevrijdingsdag',.PREDICTED.,$,$,'2030-05-05','2030-05-05');
#55=IFCWORKTIME('Hemelvaart',.PREDICTED.,$,$,'2030-05-30','2030-05-30');
#56=IFCWORKTIME('Pinksteren',.PREDICTED.,$,$,'2030-06-09','2030-06-10');
#57=IFCWORKTIME('Bouwvak (Midden)',.PREDICTED.,$,$,'2030-07-29','2030-08-16');
#58=IFCWORKTIME('Kerst',.PREDICTED.,$,$,'2030-12-25','2030-12-26');
#59=IFCWORKCALENDAR('2rctMb1rNKDwYrUgF7rBmo',#6,'Construction calendar NL','Standaard bouwkalender: ma-vr 07:00-16:00',$,(#17),(#18,#19,#20,#21,#22,#23,#24,#25,#26,#27,#28,#29,#30,#31,#32,#33,#34,#35,#36,#37,#38,#39,#40,#41,#42,#43,#44,#45,#46,#47,#48,#49,#50,#51,#52,#53,#54,#55,#56,#57,#58),.FIRSTSHIFT.);
#60=IFCPROPERTYSINGLEVALUE('RuleSetId',$,IFCLABEL('NL'),$);
#61=IFCPROPERTYSINGLEVALUE('BreakChoice',$,IFCLABEL('midden'),$);
#62=IFCPROPERTYSINGLEVALUE('GeneratedFromYear',$,IFCINTEGER(2026),$);
#63=IFCPROPERTYSINGLEVALUE('GeneratedToYear',$,IFCINTEGER(2030),$);
#64=IFCPROPERTYSINGLEVALUE('HoursPerDay',$,IFCREAL(8),$);
#65=IFCPROPERTYSINGLEVALUE('WorkEndHour',$,IFCREAL(16),$);
#66=IFCPROPERTYSINGLEVALUE('IsHourCalendar',$,IFCBOOLEAN(.F.),$);
#67=IFCPROPERTYSET('1qIFEYaeKzmLraVwpbYaPQ',#6,'OPS_Calendar',$,(#60,#61,#62,#63,#64,#65,#66));
#68=IFCRELDEFINESBYPROPERTIES('3TXxbNRhvVkGt2obLKFgSf',#6,$,$,(#59),#67);
#69=IFCWORKPLAN('2O4Ks7TbhGEPnSgvzZTMEe',#6,'House extension','A 4 by 5 metre extension at the rear of a family home \X2\2014\X0\ the practice project for the tutorials.',$,$,'2026-10-03T18:22:06',$,$,$,$,$,'2027-06-07T07:00:00','2027-06-14T07:00:00',.PLANNED.);
#70=IFCWORKSCHEDULE('22CaZkNoJIW8bGeUgdqKuU',#6,'Construction schedule v1.0',$,$,$,'2026-10-03T18:22:06',$,$,$,$,$,'2027-06-07T07:00:00','2027-06-14T07:00:00',.PLANNED.);
#71=IFCWORKSCHEDULE('01z3_X01LhYJKmLKRcBXZ_',#6,'Baseline',$,$,$,'2026-10-03T18:22:06.771Z',$,$,$,$,$,$,'2027-08-30T07:00:00',.BASELINE.);
#72=IFCRELAGGREGATES('1eHym0aEDsu_31kAmDuM70',#6,$,$,#69,(#70,#71));
#73=IFCTASKTIME('Preparation Time',.PREDICTED.,$,.WORKTIME.,'P0Y0M4D','2027-06-07T07:00:00','2027-06-11T07:00:00','2027-06-07T07:00:00','2027-06-10T07:00:00','2027-06-07T07:00:00','2027-06-10T07:00:00','P0Y0M0D','P0Y0M0D',.T.,$,$,$,$,$,0.00);
#74=IFCTASK('373Tn$ObRfgR16uUSlR2Si',#6,'Preparation',$,$,'1',$,$,$,.F.,$,#73,.CONSTRUCTION.);
#75=IFCTASKTIME('Foundations Time',.PREDICTED.,$,.WORKTIME.,'P0Y0M12D','2027-06-07T07:00:00','2027-06-11T07:00:00','2027-06-11T07:00:00','2027-06-28T12:00','2027-06-11T07:00:00','2027-06-28T16:00','P0Y0M0D','P0Y0M0D',.T.,$,$,$,$,$,0.00);
#76=IFCTASK('10krcQKX9Fk8G6QfD6$OBN',#6,'Foundations',$,$,'2',$,$,$,.F.,$,#75,.CONSTRUCTION.);
#77=IFCTASKTIME('Shell Time',.PREDICTED.,$,.WORKTIME.,'P0Y0M15D','2027-06-07T07:00:00','2027-06-11T07:00:00','2027-06-29T07:00:00','2027-07-19T07:00:00','2027-07-02T07:00:00','2027-07-19T07:00:00','P0Y0M0D','P0Y0M0D',.T.,$,$,$,$,$,0.00);
#78=IFCTASK('3DOIvU98co73fOPKeE_Ult',#6,'Shell',$,$,'3',$,$,$,.F.,$,#77,.CONSTRUCTION.);
#79=IFCTASKTIME('Finishing Time',.PREDICTED.,$,.WORKTIME.,'P0Y0M15D','2027-06-07T07:00:00','2027-06-11T07:00:00','2027-07-20T07:00:00','2027-08-30T07:00:00','2027-07-20T07:00:00','2027-08-30T07:00:00','P0Y0M0D','P0Y0M0D',.T.,$,$,$,$,$,0.00);
#80=IFCTASK('0P7x0PzWKgmLhk8ifZAhH4',#6,'Finishing',$,$,'4',$,$,$,.F.,$,#79,.CONSTRUCTION.);
#81=IFCTASKTIME('Start of construction Time',.PREDICTED.,$,.WORKTIME.,'P0Y0M0D','2027-06-07T07:00:00','2027-06-07T07:00:00','2027-06-07T07:00:00','2027-06-07T07:00:00','2027-06-07T07:00:00','2027-06-07T07:00:00','P0Y0M0D','P0Y0M0D',.T.,'2027-06-28T07:00:00',$,'2027-06-07T07:00:00','2027-06-07T07:00:00','P0Y0M0D',1.00);
#82=IFCTASK('2zrrZrvPC5aTfUV6pgV0sE',#6,'Start of construction',$,$,'1.1',$,$,$,.T.,$,#81,.USERDEFINED.);
#83=IFCTASKTIME('Set up site Time',.PREDICTED.,$,.WORKTIME.,'P0Y0M2D','2027-06-07T07:00:00','2027-06-08T07:00:00','2027-06-07T07:00:00','2027-06-08T07:00:00','2027-06-07T07:00:00','2027-06-08T07:00:00','P0Y0M0D','P0Y0M0D',.T.,'2027-06-28T07:00:00',$,'2027-06-07T07:00:00','2027-06-08T07:00:00','P0Y0M0D',1.00);
#84=IFCTASK('2GWB1r6oJYlrUmy0MOGlsp',#6,'Set up site',$,$,'1.2',$,$,$,.F.,$,#83,.CONSTRUCTION.);
#85=IFCTASKTIME('Clear garden and paving Time',.PREDICTED.,$,.WORKTIME.,'P0Y0M1D','2027-06-07T07:00:00','2027-06-07T07:00:00','2027-06-09T07:00:00','2027-06-09T07:00:00','2027-06-09T07:00:00','2027-06-09T07:00:00','P0Y0M0D','P0Y0M0D',.T.,'2027-06-28T07:00:00',$,'2027-06-09T07:00:00','2027-06-09T07:00:00','P0Y0M0D',1.00);
#86=IFCTASK('1LsqbPuKbKrxOL5GUUAs52',#6,'Clear garden and paving',$,$,'1.3',$,$,$,.F.,$,#85,.CONSTRUCTION.);
#87=IFCTASKTIME('Set out the extension Time',.PREDICTED.,$,.WORKTIME.,'P0Y0M1D','2027-06-07T07:00:00','2027-06-07T07:00:00','2027-06-10T07:00:00','2027-06-10T07:00:00','2027-06-10T07:00:00','2027-06-10T07:00:00','P0Y0M0D','P0Y0M0D',.T.,'2027-06-28T07:00:00',$,'2027-06-10T07:00:00','2027-06-10T07:00:00','P0Y0M0D',1.00);
#88=IFCTASK('1p5TmnTZsVtCfqNGZbFSCY',#6,'Set out the extension',$,$,'1.4',$,$,$,.F.,$,#87,.CONSTRUCTION.);
#89=IFCTASKTIME('Excavate foundation trench Time',.PREDICTED.,$,.WORKTIME.,'P0Y0M2D','2027-06-07T07:00:00','2027-06-08T07:00:00','2027-06-11T07:00:00','2027-06-14T07:00:00','2027-06-11T07:00:00','2027-06-14T07:00:00','P0Y0M0D','P0Y0M0D',.T.,'2027-06-28T07:00:00',$,'2027-06-11T07:00:00','2027-06-15T07:00:00','P0Y0M0D',1.00);
#90=IFCTASK('2qMLNkgco9x8p40rjh6XST',#6,'Excavate foundation trench',$,$,'2.1',$,$,$,.F.,$,#89,.CONSTRUCTION.);
#91=IFCTASKTIME('Foundation formwork and reinforcement Time',.PREDICTED.,$,.WORKTIME.,'P0Y0M3D','2027-06-07T07:00:00','2027-06-09T07:00:00','2027-06-15T07:00:00','2027-06-17T07:00:00','2027-06-15T07:00:00','2027-06-17T07:00:00','P0Y0M0D','P0Y0M0D',.T.,$,$,$,$,$,0.00);
#92=IFCTASK('00aNs_XOS9vyiDmPDNiR9J',#6,'Foundation formwork and reinforcement',$,$,'2.2',$,$,$,.F.,$,#91,.CONSTRUCTION.);
#93=IFCTASKTIME('Reinforcement inspection Time',.PREDICTED.,$,.WORKTIME.,'P0Y0M0D','2027-06-07T07:00:00','2027-06-07T07:00:00','2027-06-17T07:00:00','2027-06-17T07:00:00','2027-06-17T07:00:00','2027-06-17T07:00:00','P0Y0M0D','P0Y0M0D',.T.,$,$,$,$,$,0.00);
#94=IFCTASK('1mbmA4j4FSPtlzV74IjuUC',#6,'Reinforcement inspection',$,$,'2.3',$,$,$,.T.,$,#93,.ATTENDANCE.);
#95=IFCTASKTIME('Pour foundation Time',.PREDICTED.,$,.WORKTIME.,'PT6H0M0S','2027-06-07T00:00:00','2027-06-07T14:00:00','2027-06-18T07:00:00','2027-06-18T14:00:00','2027-06-18T09:00:00','2027-06-18T16:00:00','P0Y0M0D','P0Y0M0.25D',.F.,$,$,$,$,$,0.00);
#96=IFCTASK('0nYYEno4JEXow3XdKNX6JZ',#6,'Pour foundation',$,$,'2.4',$,$,$,.F.,$,#95,.CONSTRUCTION.);
#97=IFCTASKTIME('Foundation brickwork Time',.PREDICTED.,$,.WORKTIME.,'P0Y0M2D','2027-06-07T07:00:00','2027-06-08T07:00:00','2027-06-24T07:00:00','2027-06-25T07:00:00','2027-06-24T07:00:00','2027-06-25T07:00:00','P0Y0M0D','P0Y0M0D',.T.,$,$,$,$,$,0.00);
#98=IFCTASK('3LD$Ruf6MOZk7W4bRVVEDV',#6,'Foundation brickwork',$,$,'2.5',$,$,$,.F.,$,#97,.CONSTRUCTION.);
#99=IFCTASKTIME('Lay hollow-core floor Time',.PREDICTED.,$,.WORKTIME.,'PT5H0M0S','2027-06-07T00:00:00','2027-06-07T12:00:00','2027-06-28T07:00:00','2027-06-28T12:00:00','2027-06-28T10:00:00','2027-06-28T16:00:00','P0Y0M0D','P0Y0M0.375D',.F.,$,$,$,$,$,0.00);
#100=IFCTASK('3nr9Aa2CcYboNIt$B6s$jT',#6,'Lay hollow-core floor',$,$,'2.6',$,$,$,.F.,$,#99,.CONSTRUCTION.);
#101=IFCTASKTIME('Build inner cavity leaf Time',.PREDICTED.,$,.WORKTIME.,'P0Y0M5D','2027-06-07T07:00:00','2027-06-11T07:00:00','2027-06-29T07:00:00','2027-07-05T07:00:00','2027-07-02T07:00:00','2027-07-08T07:00:00','P0Y0M0D','P0Y0M3D',.F.,$,$,$,$,$,0.00);
#102=IFCTASK('3OmHznVrspSo$db8xhTJr$',#6,'Build inner cavity leaf',$,$,'3.1',$,$,$,.F.,$,#101,.CONSTRUCTION.);
#103=IFCTASKTIME('Build outer cavity leaf Time',.PREDICTED.,$,.WORKTIME.,'P0Y0M6D','2027-06-07T07:00:00','2027-06-14T07:00:00','2027-07-06T07:00:00','2027-07-13T07:00:00','2027-07-06T07:00:00','2027-07-13T07:00:00','P0Y0M0D','P0Y0M0D',.T.,$,$,$,$,$,0.00);
#104=IFCTASK('1x3va4ug3sZ0zH3oyynDxn',#6,'Build outer cavity leaf',$,$,'3.2',$,$,$,.F.,$,#103,.CONSTRUCTION.);
#105=IFCTASKTIME('Place roof elements Time',.PREDICTED.,$,.WORKTIME.,'PT6H0M0S','2027-06-07T00:00:00','2027-06-07T14:00:00','2027-07-06T07:00:00','2027-07-06T14:00:00','2027-07-09T09:00:00','2027-07-09T16:00:00','P0Y0M0D','P0Y0M3.25D',.F.,$,$,$,$,$,0.00);
#106=IFCTASK('26MHR6D8m5UpKRmjiQFjmB',#6,'Place roof elements',$,$,'3.3',$,$,$,.F.,$,#105,.CONSTRUCTION.);
#107=IFCTASKTIME('Apply roofing Time',.PREDICTED.,$,.WORKTIME.,'P0Y0M2D','2027-06-07T07:00:00','2027-06-08T07:00:00','2027-07-07T07:00:00','2027-07-08T07:00:00','2027-07-12T07:00:00','2027-07-13T07:00:00','P0Y0M3D','P0Y0M3D',.F.,$,$,$,$,$,0.00);
#108=IFCTASK('0zrjxcoHBz2QkyGeIaBhnr',#6,'Apply roofing',$,$,'3.4',$,$,$,.F.,$,#107,.CONSTRUCTION.);
#109=IFCTASKTIME('Install window frames Time',.PREDICTED.,$,.WORKTIME.,'P0Y0M2D','2027-06-07T07:00:00','2027-06-08T07:00:00','2027-07-14T07:00:00','2027-07-15T07:00:00','2027-07-14T07:00:00','2027-07-15T07:00:00','P0Y0M0D','P0Y0M0D',.T.,$,$,$,$,$,0.00);
#110=IFCTASK('0E5To0Cz980TZMi4I5Qduq',#6,'Install window frames',$,$,'3.5',$,$,$,.F.,$,#109,.CONSTRUCTION.);
#111=IFCTASKTIME('Break through rear wall Time',.PREDICTED.,$,.WORKTIME.,'P0Y0M2D','2027-06-07T07:00:00','2027-06-08T07:00:00','2027-07-16T07:00:00','2027-07-19T07:00:00','2027-07-16T07:00:00','2027-07-19T07:00:00','P0Y0M0D','P0Y0M0D',.T.,$,$,$,$,$,0.00);
#112=IFCTASK('1wKIOyURnZZ5kQH39HHMLo',#6,'Break through rear wall',$,$,'3.6',$,$,$,.F.,$,#111,.CONSTRUCTION.);
#113=IFCTASKTIME('Install building services Time',.PREDICTED.,$,.WORKTIME.,'P0Y0M3D','2027-06-07T07:00:00','2027-06-09T07:00:00','2027-07-20T07:00:00','2027-07-22T07:00:00','2027-07-20T07:00:00','2027-07-22T07:00:00','P0Y0M0D','P0Y0M0D',.T.,$,$,$,$,$,0.00);
#114=IFCTASK('10KHtCbXaWUk9d4RWtKwGG',#6,'Install building services',$,$,'4.1',$,$,$,.F.,$,#113,.CONSTRUCTION.);
#115=IFCTASKTIME('Plastering Time',.PREDICTED.,$,.WORKTIME.,'P0Y0M2D','2027-06-07T07:00:00','2027-06-10T07:00:00','2027-07-23T07:00:00','2027-07-26T07:00:00','2027-07-23T07:00:00','2027-07-26T07:00:00','P0Y0M0D','P0Y0M0D',.T.,$,$,$,$,$,0.00);
#116=IFCTASK('37mp067JwbDh9IXHxD6uoR',#6,'Plastering',$,$,'4.2',$,$,$,.F.,$,#115,.CONSTRUCTION.);
#117=IFCTASKTIME('Lay floor screed Time',.PREDICTED.,$,.WORKTIME.,'P0Y0M1D','2027-06-07T07:00:00','2027-06-07T07:00:00','2027-07-27T07:00:00','2027-07-27T07:00:00','2027-07-27T07:00:00','2027-07-27T07:00:00','P0Y0M0D','P0Y0M0D',.T.,$,$,$,$,$,0.00);
#118=IFCTASK('3Tpch$eABOHXDLpd7cKkrN',#6,'Lay floor screed',$,$,'4.3',$,$,$,.F.,$,#117,.CONSTRUCTION.);
#119=IFCTASKTIME('Tiling Time',.PREDICTED.,$,.WORKTIME.,'P0Y0M3D','2027-06-07T07:00:00','2027-06-09T07:00:00','2027-08-25T07:00:00','2027-08-27T07:00:00','2027-08-25T07:00:00','2027-08-27T07:00:00','P0Y0M0D','P0Y0M0D',.T.,$,$,$,$,$,0.00);
#120=IFCTASK('2pdx1nT1dUlNXenS3YRDCK',#6,'Tiling',$,$,'4.4',$,$,$,.F.,$,#119,.CONSTRUCTION.);
#121=IFCTASKTIME('Painting Time',.PREDICTED.,$,.WORKTIME.,'P0Y0M3D','2027-06-07T07:00:00','2027-06-09T07:00:00','2027-07-27T07:00:00','2027-07-29T07:00:00','2027-08-25T07:00:00','2027-08-27T07:00:00','P0Y0M6D','P0Y0M6D',.F.,$,$,$,$,$,0.00);
#122=IFCTASK('3jc0b6cpFMm8JsrFQenSiH',#6,'Painting',$,$,'4.5',$,$,$,.F.,$,#121,.CONSTRUCTION.);
#123=IFCTASKTIME('Snagging and cleaning Time',.PREDICTED.,$,.WORKTIME.,'P0Y0M1D','2027-06-07T07:00:00','2027-06-07T07:00:00','2027-08-30T07:00:00','2027-08-30T07:00:00','2027-08-30T07:00:00','2027-08-30T07:00:00','P0Y0M0D','P0Y0M0D',.T.,$,$,$,$,$,0.00);
#124=IFCTASK('1yCJPZiRZLw5shkH70Onfn',#6,'Snagging and cleaning',$,$,'4.6',$,$,$,.F.,$,#123,.CONSTRUCTION.);
#125=IFCTASKTIME('Handover Time',.PREDICTED.,$,.WORKTIME.,'P0Y0M0D','2027-06-07T07:00:00','2027-06-07T07:00:00','2027-08-30T07:00:00','2027-08-30T07:00:00','2027-08-30T07:00:00','2027-08-30T07:00:00','P0Y0M0D','P0Y0M0D',.T.,$,$,$,$,$,0.00);
#126=IFCTASK('0kohISMlQ1T9NC2zolJt8R',#6,'Handover',$,$,'4.7',$,$,$,.T.,$,#125,.USERDEFINED.);
#127=IFCRELNESTS('1Hy8rQ0_G$drzl5547zPxG',#6,'WBS Preparation',$,#74,( #82,#84,#86,#88));
#128=IFCRELNESTS('3pg2s7ylYbCmDAfFkjoDNe',#6,'WBS Foundations',$,#76,( #90,#92,#94,#96,#98,#100));
#129=IFCRELNESTS('1sT_VWZKkOL$1h8GuvUwvQ',#6,'WBS Shell',$,#78,( #102,#104,#106,#108,#110,#112));
#130=IFCRELNESTS('3nSmuRQT4ZghQR3U0Ziwfg',#6,'WBS Finishing',$,#80,( #114,#116,#118,#120,#122,#124,#126));
#131=IFCRELNESTS('16nmRJfDzgTb0dKQcifOl_',#6,'WBS Hoofd',$,#70,(#74,#76,#78,#80));
#132=IFCRELSEQUENCE('32ryk5I6zDsJBBOl_6FTx1',#6,$,$,#82,#84,$,.FINISH_START.,$);
#133=IFCRELSEQUENCE('1tCL_KpIF8HGUH3MsMMi8l',#6,$,$,#84,#86,$,.FINISH_START.,$);
#134=IFCRELSEQUENCE('1SdvphGF1dIHlw9bmdPUVN',#6,$,$,#86,#88,$,.FINISH_START.,$);
#135=IFCRELSEQUENCE('2k$ojKOfCNByn_IXS2X$X9',#6,$,$,#88,#90,$,.FINISH_START.,$);
#136=IFCRELSEQUENCE('1YxJOXWwfOFFPDjeq$drLD',#6,$,$,#90,#92,$,.FINISH_START.,$);
#137=IFCRELSEQUENCE('00FXpHTAs2AGcdCk0SV4uH',#6,$,$,#92,#94,$,.FINISH_START.,$);
#138=IFCRELSEQUENCE('0aywlKSSmDSPl4G6bvaxGU',#6,$,$,#94,#96,$,.FINISH_START.,$);
#139=IFCLAGTIME('Lag',.PREDICTED.,$,IFCDURATION('P3D'),.WORKTIME.);
#140=IFCRELSEQUENCE('3g7HCqbiA8c0r$PJ7c4C21',#6,$,$,#96,#98,#139,.FINISH_START.,$);
#141=IFCRELSEQUENCE('2r3o2$LMpazn2$ECXq$yT8',#6,$,$,#98,#100,$,.FINISH_START.,$);
#142=IFCRELSEQUENCE('3k_a60B29PKue82d0ho5BY',#6,$,$,#100,#102,$,.FINISH_START.,$);
#143=IFCRELSEQUENCE('2eP2dp6XWo1pdHamjOsCwf',#6,$,$,#100,#104,$,.FINISH_START.,$);
#144=IFCRELSEQUENCE('21jFn4xsWwUwnSWfq9i2RU',#6,$,$,#102,#106,$,.FINISH_START.,$);
#145=IFCRELSEQUENCE('2lDWiohTdBXkIVYJTlJKdn',#6,$,$,#106,#108,$,.FINISH_START.,$);
#146=IFCRELSEQUENCE('2kTzOtP3qgK9xt3DN7prx_',#6,$,$,#108,#110,$,.FINISH_START.,$);
#147=IFCRELSEQUENCE('3w8D6Z3EFy41bwH_3cKrYe',#6,$,$,#104,#110,$,.FINISH_START.,$);
#148=IFCRELSEQUENCE('0RETx_i0$KiQBcYqc_iqQU',#6,$,$,#110,#112,$,.FINISH_START.,$);
#149=IFCRELSEQUENCE('3WbFCQcBgVgRaxYEZNsHlB',#6,$,$,#112,#114,$,.FINISH_START.,$);
#150=IFCRELSEQUENCE('2_RPXh7gZfmfCKw73JGm7k',#6,$,$,#114,#116,$,.FINISH_START.,$);
#151=IFCRELSEQUENCE('0n30g$4VjJLA5cyWrHCVgd',#6,$,$,#116,#118,$,.FINISH_START.,$);
#152=IFCRELSEQUENCE('1Pykdzlaqmh1MjB5vrMXiT',#6,$,$,#116,#122,$,.FINISH_START.,$);
#153=IFCLAGTIME('Lag',.PREDICTED.,$,IFCDURATION('P5D'),.WORKTIME.);
#154=IFCRELSEQUENCE('0qn5Tc2CqifxajuAFpy5EB',#6,$,$,#118,#120,#153,.FINISH_START.,$);
#155=IFCRELSEQUENCE('3vgHXYljYh5_V1OXxcfKaY',#6,$,$,#120,#124,$,.FINISH_START.,$);
#156=IFCRELSEQUENCE('3KhjuCzh4N97QS3ipssTbk',#6,$,$,#122,#124,$,.FINISH_START.,$);
#157=IFCRELSEQUENCE('1EMmLZ6thDJiTJq8LcoHO2',#6,$,$,#124,#126,$,.FINISH_START.,$);
#158=IFCCREWRESOURCE('0u9m1WiGRN8qwHjhaTIJE$',#6,'Carpentry crew',$,$,$,$,$,.USERDEFINED.);
#159=IFCLABORRESOURCE('1RSeYVfRjzbukbQzKXaTZz',#6,'Bricklayer',$,$,$,$,$,.USERDEFINED.);
#160=IFCCONSTRUCTIONEQUIPMENTRESOURCE('28BBNxDkUcIyAffgoVB12V',#6,'Mobile crane',$,$,$,$,$,.USERDEFINED.);
#161=IFCSUBCONTRACTRESOURCE('0_fVsiDc5h2$rE0xNZMAfl',#6,'Plasterer',$,$,$,$,$,.USERDEFINED.);
#162=IFCCONSTRUCTIONMATERIALRESOURCE('3thv9o1l4MXfUyRECmem41',#6,'Concrete',$,$,$,$,$,.USERDEFINED.);
#163=IFCPROPERTYSINGLEVALUE('Color',$,IFCTEXT('#1E293B'),$);
#164=IFCPROPERTYSET('1DiJUqZxwPgdAtuM17_pK0',#6,'OPS_Resource',$,(#163));
#165=IFCRELDEFINESBYPROPERTIES('0d9r6E_N$axpeDCyhQoP0y',#6,$,$,(#158),#164);
#166=IFCPROPERTYSINGLEVALUE('Color',$,IFCTEXT('#B91C1C'),$);
#167=IFCPROPERTYSET('2mQJvYlbrq$7XhsXXXOevr',#6,'OPS_Resource',$,(#166));
#168=IFCRELDEFINESBYPROPERTIES('3q2X9XDRHbNSgSaVwnQWJS',#6,$,$,(#159),#167);
#169=IFCPROPERTYSINGLEVALUE('Color',$,IFCTEXT('#DB2777'),$);
#170=IFCPROPERTYSET('26TUKlNxKDwKqM6vm0M4wR',#6,'OPS_Resource',$,(#169));
#171=IFCRELDEFINESBYPROPERTIES('3h9rTO_Z1cgiczieDZWJOC',#6,$,$,(#160),#170);
#172=IFCPROPERTYSINGLEVALUE('MaxUnits',$,IFCREAL(2),$);
#173=IFCPROPERTYSINGLEVALUE('Color',$,IFCTEXT('#C2410C'),$);
#174=IFCPROPERTYSET('3Bd1BG5VhU0juHmcxagS00',#6,'OPS_Resource',$,(#172,#173));
#175=IFCRELDEFINESBYPROPERTIES('0jFY2zu$Am$xSSuBfw616_',#6,$,$,(#161),#174);
#176=IFCPROPERTYSINGLEVALUE('MaxUnits',$,IFCREAL(50),$);
#177=IFCPROPERTYSINGLEVALUE('UnitOfMeasure',$,IFCLABEL('m\X2\00B3\X0\'),$);
#178=IFCPROPERTYSINGLEVALUE('Color',$,IFCTEXT('#6366F1'),$);
#179=IFCPROPERTYSET('0omiTRtk9Jp889I9SjopUg',#6,'OPS_Resource',$,(#176,#177,#178));
#180=IFCRELDEFINESBYPROPERTIES('2t4Yacs2bPqDxxZesLTJDe',#6,$,$,(#162),#179);
#181=IFCRELASSIGNSTOPROCESS('2JanA4dMcRwVQSlTD6cTZi',#6,$,$,(#158),$,#92,$);
#182=IFCRELASSIGNSTOPROCESS('0fnfO7Pr3INdjh0K63LWEh',#6,$,$,(#162),$,#96,$);
#183=IFCRELASSIGNSTOPROCESS('3QT2alSP6ycx_t$zzXCxY1',#6,$,$,(#159),$,#98,$);
#184=IFCRELASSIGNSTOPROCESS('2prQCS6J_x0aDXubfoyr04',#6,$,$,(#158,#160),$,#100,$);
#185=IFCRELASSIGNSTOPROCESS('3WxNJzlTqV3nrSM30qnQHs',#6,$,$,(#159),$,#102,$);
#186=IFCRELASSIGNSTOPROCESS('1X1gs4jBsuNWliENtFkeVS',#6,$,$,(#159),$,#104,$);
#187=IFCRELASSIGNSTOPROCESS('0cFg1JSsjcYadDFY9QZhkM',#6,$,$,(#158,#160),$,#106,$);
#188=IFCRELASSIGNSTOPROCESS('2flW2kBf35Wpr_HLPkvpg_',#6,$,$,(#158),$,#110,$);
#189=IFCRELASSIGNSTOPROCESS('0bCmeip2gFqm7qE0qCpFE7',#6,$,$,(#159),$,#112,$);
#190=IFCRELASSIGNSTOPROCESS('3vUzhe_qxJB8sXFEPVfzi3',#6,$,$,(#161),$,#116,$);
#191=IFCPROPERTYSINGLEVALUE('0u9m1WiGRN8qwHjhaTIJE$#0',$,IFCTEXT('1|UNIFORM'),$);
#192=IFCPROPERTYSET('0GA_eTSnhly_GJGopREFwa',#6,'OPS_Assignments',$,(#191));
#193=IFCRELDEFINESBYPROPERTIES('1roL5VAH9GRQdIINgvQwos',#6,$,$,(#92),#192);
#194=IFCPROPERTYSINGLEVALUE('3thv9o1l4MXfUyRECmem41#0',$,IFCTEXT('8|UNIFORM'),$);
#195=IFCPROPERTYSET('2m503dzKHVR79ttTkITrsl',#6,'OPS_Assignments',$,(#194));
#196=IFCRELDEFINESBYPROPERTIES('0TUaP55n5qBYcD0mQwIjNF',#6,$,$,(#96),#195);
#197=IFCPROPERTYSINGLEVALUE('1RSeYVfRjzbukbQzKXaTZz#0',$,IFCTEXT('1|UNIFORM'),$);
#198=IFCPROPERTYSET('3FBEXxTTHFJSE3C_DMINYV',#6,'OPS_Assignments',$,(#197));
#199=IFCRELDEFINESBYPROPERTIES('16KyypnLaLvKdrcdEJCvgp',#6,$,$,(#98),#198);
#200=IFCPROPERTYSINGLEVALUE('0u9m1WiGRN8qwHjhaTIJE$#0',$,IFCTEXT('1|UNIFORM'),$);
#201=IFCPROPERTYSINGLEVALUE('28BBNxDkUcIyAffgoVB12V#1',$,IFCTEXT('1|UNIFORM'),$);
#202=IFCPROPERTYSET('15h29nLyZbhHV$gcvBpuZh',#6,'OPS_Assignments',$,(#200,#201));
#203=IFCRELDEFINESBYPROPERTIES('3YqNQRieAjNxm3c4uE3QC8',#6,$,$,(#100),#202);
#204=IFCPROPERTYSINGLEVALUE('1RSeYVfRjzbukbQzKXaTZz#0',$,IFCTEXT('1|UNIFORM'),$);
#205=IFCPROPERTYSET('2vsdxuZFIStVwvB5eoo3Js',#6,'OPS_Assignments',$,(#204));
#206=IFCRELDEFINESBYPROPERTIES('0CcAqPu0zD5xrwlB72kN2a',#6,$,$,(#102),#205);
#207=IFCPROPERTYSINGLEVALUE('1RSeYVfRjzbukbQzKXaTZz#0',$,IFCTEXT('1|UNIFORM'),$);
#208=IFCPROPERTYSET('2pF_WqZhZMPF3xiC9iPxUY',#6,'OPS_Assignments',$,(#207));
#209=IFCRELDEFINESBYPROPERTIES('3brnQ6tJDeYtwUOoy_wO4m',#6,$,$,(#104),#208);
#210=IFCPROPERTYSINGLEVALUE('0u9m1WiGRN8qwHjhaTIJE$#0',$,IFCTEXT('1|UNIFORM'),$);
#211=IFCPROPERTYSINGLEVALUE('28BBNxDkUcIyAffgoVB12V#1',$,IFCTEXT('1|UNIFORM'),$);
#212=IFCPROPERTYSET('14m1WIfwyY91iAHdFhLvi_',#6,'OPS_Assignments',$,(#210,#211));
#213=IFCRELDEFINESBYPROPERTIES('0aDFxbQptVbc5CpXHzYB5I',#6,$,$,(#106),#212);
#214=IFCPROPERTYSINGLEVALUE('0u9m1WiGRN8qwHjhaTIJE$#0',$,IFCTEXT('1|UNIFORM'),$);
#215=IFCPROPERTYSET('3NWyWCbZMD9BgDNpjsbO6f',#6,'OPS_Assignments',$,(#214));
#216=IFCRELDEFINESBYPROPERTIES('0Z$hK$w4VE49jgodTmtb7w',#6,$,$,(#110),#215);
#217=IFCPROPERTYSINGLEVALUE('1RSeYVfRjzbukbQzKXaTZz#0',$,IFCTEXT('1|UNIFORM'),$);
#218=IFCPROPERTYSET('2G2HfG8GYSEkDVbpQhHlpG',#6,'OPS_Assignments',$,(#217));
#219=IFCRELDEFINESBYPROPERTIES('3HGj9oXhqXuwhUN0QOkpa2',#6,$,$,(#112),#218);
#220=IFCPROPERTYSINGLEVALUE('0_fVsiDc5h2$rE0xNZMAfl#0',$,IFCTEXT('2|UNIFORM'),$);
#221=IFCPROPERTYSET('3TsevtL$1erQeg8wKp4M7L',#6,'OPS_Assignments',$,(#220));
#222=IFCRELDEFINESBYPROPERTIES('0S8X2cV0Awc7kd3E4$y$qi',#6,$,$,(#116),#221);
#223=IFCPROPERTYSINGLEVALUE('Windows',$,IFCTEXT('{"0_fVsiDc5h2$rE0xNZMAfl#0":{"remainingWorkMinutes":1920}}'),$);
#224=IFCPROPERTYSET('0hmHssQQkpCiCWCSCCsNUT',#6,'OPS_Timephased',$,(#223));
#225=IFCRELDEFINESBYPROPERTIES('3FVUiwHtcK9I2tsKb0fjbd',#6,$,$,(#116),#224);
#226=IFCRELASSIGNSTOCONTROL('1vu8sNJ$QqeI9mF$_7XWT7',#6,$,$,(#74,#76,#78,#80,#82,#84,#86,#88,#90,#92,#94,#96,#98,#100,#102,#104,#106,#108,#110,#112,#114,#116,#118,#120,#122,#124,#126),$,#70);
#227=IFCPROPERTYSINGLEVALUE('InternalProjectId',$,IFCTEXT('proj-muspycwfa8ym76'),$);
#228=IFCPROPERTYSINGLEVALUE('wbsAutoNumber',$,IFCBOOLEAN(.T.),$);
#229=IFCPROPERTYSINGLEVALUE('DefaultTaskDurationUnit',$,IFCLABEL('days'),$);
#230=IFCPROPERTYSINGLEVALUE('StatusDate',$,IFCDATE('2027-06-28'),$);
#231=IFCPROPERTYSINGLEVALUE('ProjectStartDate',$,IFCDATE('2027-06-07'),$);
#232=IFCPROPERTYSINGLEVALUE('ProjectEndDate',$,$,$);
#233=IFCPROPERTYSINGLEVALUE('CreatedAt',$,IFCTEXT('2026-10-03T18:22:06.543Z'),$);
#234=IFCPROPERTYSINGLEVALUE('ModifiedAt',$,IFCTEXT('2026-10-03T18:22:06.775Z'),$);
#235=IFCPROPERTYSET('3aI7xoTHxpZ8MMcdlJXcOC',#6,'OPS_ProjectSettings',$,(#227,#228,#229,#230,#231,#232,#233,#234));
#236=IFCRELDEFINESBYPROPERTIES('1FnQ_O0OBIGREsf8E3NVal',#6,$,$,(#13),#235);
#237=IFCPROPERTYSINGLEVALUE('InternalTaskId',$,IFCTEXT('task-muspycwgnrlk78'),$);
#238=IFCPROPERTYSET('06D6cubsRrws_nTh0f2Nn2',#6,'OPS_TaskIdentity',$,(#237));
#239=IFCRELDEFINESBYPROPERTIES('1CODmabb$dpJ0l79wQl5JN',#6,$,$,(#74),#238);
#240=IFCPROPERTYSINGLEVALUE('InternalTaskId',$,IFCTEXT('task-muspycwhpcer79'),$);
#241=IFCPROPERTYSET('1bh5N1oBPuat0WIJfVuDu6',#6,'OPS_TaskIdentity',$,(#240));
#242=IFCRELDEFINESBYPROPERTIES('0pTJa4mS6$Ef$LUAjXdIOo',#6,$,$,(#76),#241);
#243=IFCPROPERTYSINGLEVALUE('InternalTaskId',$,IFCTEXT('task-muspycwjcfj480'),$);
#244=IFCPROPERTYSET('0e8aytcg5BP3s_Kty11gJq',#6,'OPS_TaskIdentity',$,(#243));
#245=IFCRELDEFINESBYPROPERTIES('0hXylVpCzd1ds0yrzL7_GU',#6,$,$,(#78),#244);
#246=IFCPROPERTYSINGLEVALUE('InternalTaskId',$,IFCTEXT('task-muspycwkklp081'),$);
#247=IFCPROPERTYSET('18OMqPByFkGzK5M4tRILkG',#6,'OPS_TaskIdentity',$,(#246));
#248=IFCRELDEFINESBYPROPERTIES('3W8ry1AJMPhhcl7xVqTp2_',#6,$,$,(#80),#247);
#249=IFCPROPERTYSINGLEVALUE('InternalTaskId',$,IFCTEXT('task-muspycwmmmap82'),$);
#250=IFCPROPERTYSET('3f6X6FFpWp$WvJcl07RoJI',#6,'OPS_TaskIdentity',$,(#249));
#251=IFCRELDEFINESBYPROPERTIES('2AjWM_YQVj8XTnbopAcBf$',#6,$,$,(#82),#250);
#252=IFCPROPERTYSINGLEVALUE('InternalTaskId',$,IFCTEXT('task-muspycwnu0co83'),$);
#253=IFCPROPERTYSET('2UHH3JVxz1uv1YzDrn5iSN',#6,'OPS_TaskIdentity',$,(#252));
#254=IFCRELDEFINESBYPROPERTIES('1Aeyqw0YtKQL1GsC5PO3j6',#6,$,$,(#84),#253);
#255=IFCPROPERTYSINGLEVALUE('InternalTaskId',$,IFCTEXT('task-muspycwp2w7d84'),$);
#256=IFCPROPERTYSET('0ygPeqLq5gIxY3XMSg9b6o',#6,'OPS_TaskIdentity',$,(#255));
#257=IFCRELDEFINESBYPROPERTIES('39flqGniPhiFpzP8mTWVLN',#6,$,$,(#86),#256);
#258=IFCPROPERTYSINGLEVALUE('InternalTaskId',$,IFCTEXT('task-muspycwqhqfo85'),$);
#259=IFCPROPERTYSET('054dng2h_nXqWtuHLpBI6J',#6,'OPS_TaskIdentity',$,(#258));
#260=IFCRELDEFINESBYPROPERTIES('3YuZUCl0v9f6qc7ogaqNUS',#6,$,$,(#88),#259);
#261=IFCPROPERTYSINGLEVALUE('InternalTaskId',$,IFCTEXT('task-muspycwsr6wz86'),$);
#262=IFCPROPERTYSET('19ERW77FwZpkN60Q0v82uU',#6,'OPS_TaskIdentity',$,(#261));
#263=IFCRELDEFINESBYPROPERTIES('1l0zDOnJ2s9T9XIkOhOfA_',#6,$,$,(#90),#262);
#264=IFCPROPERTYSINGLEVALUE('InternalTaskId',$,IFCTEXT('task-muspycwtc85q87'),$);
#265=IFCPROPERTYSET('2WRkuljaVd$4aQI0LB54CN',#6,'OPS_TaskIdentity',$,(#264));
#266=IFCRELDEFINESBYPROPERTIES('0PieJXHoaTLClWvY1oGh_L',#6,$,$,(#92),#265);
#267=IFCPROPERTYSINGLEVALUE('InternalTaskId',$,IFCTEXT('task-muspycwvskua88'),$);
#268=IFCPROPERTYSET('0nB3jsjY8_3M6KBjywM9Le',#6,'OPS_TaskIdentity',$,(#267));
#269=IFCRELDEFINESBYPROPERTIES('1wR5REvRs38tz_hlcXdu1_',#6,$,$,(#94),#268);
#270=IFCPROPERTYSINGLEVALUE('InternalTaskId',$,IFCTEXT('task-muspycwxxen989'),$);
#271=IFCPROPERTYSET('3p8L9moekyRt6z2DGfP2by',#6,'OPS_TaskIdentity',$,(#270));
#272=IFCRELDEFINESBYPROPERTIES('3wYbu13$CrCmuKkln4lLQ9',#6,$,$,(#96),#271);
#273=IFCPROPERTYSINGLEVALUE('InternalTaskId',$,IFCTEXT('task-muspycwy6fi990'),$);
#274=IFCPROPERTYSET('281vsy43YT0zWbIvJ0vbe4',#6,'OPS_TaskIdentity',$,(#273));
#275=IFCRELDEFINESBYPROPERTIES('2M9rv4F2Ap2HfW0_7$04PI',#6,$,$,(#98),#274);
#276=IFCPROPERTYSINGLEVALUE('InternalTaskId',$,IFCTEXT('task-muspycx01mw291'),$);
#277=IFCPROPERTYSET('0jWXeabfxNsSExNzBkE2HM',#6,'OPS_TaskIdentity',$,(#276));
#278=IFCRELDEFINESBYPROPERTIES('3nszjFmCFzJY3UjAVBWanv',#6,$,$,(#100),#277);
#279=IFCPROPERTYSINGLEVALUE('InternalTaskId',$,IFCTEXT('task-muspycx2dcys92'),$);
#280=IFCPROPERTYSET('1gvxIK34bPrq0kWTRD$W2C',#6,'OPS_TaskIdentity',$,(#279));
#281=IFCRELDEFINESBYPROPERTIES('2DtNAwuqdqYi67HvtiweLl',#6,$,$,(#102),#280);
#282=IFCPROPERTYSINGLEVALUE('InternalTaskId',$,IFCTEXT('task-muspycx3hmrr93'),$);
#283=IFCPROPERTYSET('1w8ZFwzPz7K5SdjYSCIoWl',#6,'OPS_TaskIdentity',$,(#282));
#284=IFCRELDEFINESBYPROPERTIES('2bFlXZSQHLXvOzpYJraUs5',#6,$,$,(#104),#283);
#285=IFCPROPERTYSINGLEVALUE('InternalTaskId',$,IFCTEXT('task-muspycx5hpm994'),$);
#286=IFCPROPERTYSET('2p2qmgr$D_eBrlZCZTaPSv',#6,'OPS_TaskIdentity',$,(#285));
#287=IFCRELDEFINESBYPROPERTIES('0W01Ru374FZXPjXbRaVKxc',#6,$,$,(#106),#286);
#288=IFCPROPERTYSINGLEVALUE('InternalTaskId',$,IFCTEXT('task-muspycx6oc7o95'),$);
#289=IFCPROPERTYSET('2Wtyi2LxlQb7fqwKnDx_y3',#6,'OPS_TaskIdentity',$,(#288));
#290=IFCRELDEFINESBYPROPERTIES('32OGhwnaMxHTNsL3KLnOCC',#6,$,$,(#108),#289);
#291=IFCPROPERTYSINGLEVALUE('InternalTaskId',$,IFCTEXT('task-muspycx8jrlf96'),$);
#292=IFCPROPERTYSET('11X9Mc3BISNTQU569tFQb3',#6,'OPS_TaskIdentity',$,(#291));
#293=IFCRELDEFINESBYPROPERTIES('3sF_9eJ4oLKM7XJiIQSdi5',#6,$,$,(#110),#292);
#294=IFCPROPERTYSINGLEVALUE('InternalTaskId',$,IFCTEXT('task-muspycxacsiq97'),$);
#295=IFCPROPERTYSET('2VBuRRkpikOZg7F3PsPzTa',#6,'OPS_TaskIdentity',$,(#294));
#296=IFCRELDEFINESBYPROPERTIES('3KlD0SnqFnTk4QMQElALMa',#6,$,$,(#112),#295);
#297=IFCPROPERTYSINGLEVALUE('InternalTaskId',$,IFCTEXT('task-muspycxbdtqe98'),$);
#298=IFCPROPERTYSET('2ftz9Kh$OgDrlkPIM581ob',#6,'OPS_TaskIdentity',$,(#297));
#299=IFCRELDEFINESBYPROPERTIES('2v$kJhPgmLPMRMi2u9MpA3',#6,$,$,(#114),#298);
#300=IFCPROPERTYSINGLEVALUE('InternalTaskId',$,IFCTEXT('task-muspycxdovec99'),$);
#301=IFCPROPERTYSET('3tLtJJWkG8HJc1$dyrCQjr',#6,'OPS_TaskIdentity',$,(#300));
#302=IFCRELDEFINESBYPROPERTIES('0OBqaSVDvhybP4AwoTAu3W',#6,$,$,(#116),#301);
#303=IFCPROPERTYSINGLEVALUE('InternalTaskId',$,IFCTEXT('task-muspycxfa7gw100'),$);
#304=IFCPROPERTYSET('15rHMo33w_eukZnz8w5FGs',#6,'OPS_TaskIdentity',$,(#303));
#305=IFCRELDEFINESBYPROPERTIES('2C_rrDe7VCe5cTsVpCHiyc',#6,$,$,(#118),#304);
#306=IFCPROPERTYSINGLEVALUE('InternalTaskId',$,IFCTEXT('task-muspycxhjw3m101'),$);
#307=IFCPROPERTYSET('3GG0PE2o8jXrPekHFvs4Uz',#6,'OPS_TaskIdentity',$,(#306));
#308=IFCRELDEFINESBYPROPERTIES('0qDON0oynxyRNMc5HZxwlL',#6,$,$,(#120),#307);
#309=IFCPROPERTYSINGLEVALUE('InternalTaskId',$,IFCTEXT('task-muspycxjqw7g102'),$);
#310=IFCPROPERTYSET('2fmdGCLejpZOtoBA4ijJrt',#6,'OPS_TaskIdentity',$,(#309));
#311=IFCRELDEFINESBYPROPERTIES('3ZQTeKxdrITrqEnUoeXZYX',#6,$,$,(#122),#310);
#312=IFCPROPERTYSINGLEVALUE('InternalTaskId',$,IFCTEXT('task-muspycxkasnt103'),$);
#313=IFCPROPERTYSET('1PMp7822nENw6g8tZhKyQQ',#6,'OPS_TaskIdentity',$,(#312));
#314=IFCRELDEFINESBYPROPERTIES('2atKhn7KgC2wQ6jXWy$b5A',#6,$,$,(#124),#313);
#315=IFCPROPERTYSINGLEVALUE('InternalTaskId',$,IFCTEXT('task-muspycxmxc7x104'),$);
#316=IFCPROPERTYSET('3G9Z27u0_C_OOEls_vPHuB',#6,'OPS_TaskIdentity',$,(#315));
#317=IFCRELDEFINESBYPROPERTIES('1HAd6dsWUNlFmwb7MrCZt_',#6,$,$,(#126),#316);
#318=IFCPROPERTYSINGLEVALUE('ConstraintType',$,IFCLABEL('SNET'),$);
#319=IFCPROPERTYSINGLEVALUE('ConstraintDate',$,IFCDATE('2027-07-14'),$);
#320=IFCPROPERTYSET('1cmC3mrrq94E$hCYBpeazI',#6,'OPS_Constraints',$,(#318,#319));
#321=IFCRELDEFINESBYPROPERTIES('0hq_yWOArJ3hpbGE2Ie5g5',#6,$,$,(#110),#320);
#322=IFCPROPERTYSINGLEVALUE('Deadline',$,IFCDATE('2027-09-10'),$);
#323=IFCPROPERTYSET('3g1kFDg92pDNjP4wmYXsCl',#6,'OPS_Constraints',$,(#322));
#324=IFCRELDEFINESBYPROPERTIES('16xLqAymUvwqnAAasojsId',#6,$,$,(#126),#323);
#325=IFCPROPERTYSINGLEVALUE('MilestoneKind',$,IFCLABEL('START'),$);
#326=IFCPROPERTYSET('3nhQI3N1aILZDE3uadk5VO',#6,'OPS_Milestone',$,(#325));
#327=IFCRELDEFINESBYPROPERTIES('03R2Hy3oWOW2bpF7S1Vc$9',#6,$,$,(#82),#326);
#328=IFCPROPERTYSINGLEVALUE('MilestoneKind',$,IFCLABEL('FINISH'),$);
#329=IFCPROPERTYSINGLEVALUE('Mandatory',$,IFCBOOLEAN(.T.),$);
#330=IFCPROPERTYSET('2YyrhKHDtEahoyyzN2YAQS',#6,'OPS_Milestone',$,(#328,#329));
#331=IFCRELDEFINESBYPROPERTIES('2iH8DBmeEk3M8mKRR5Du24',#6,$,$,(#94),#330);
#332=IFCPROPERTYSINGLEVALUE('MilestoneKind',$,IFCLABEL('FINISH'),$);
#333=IFCPROPERTYSET('2MXO3ipEmiyJZ$EZqz2QQi',#6,'OPS_Milestone',$,(#332));
#334=IFCRELDEFINESBYPROPERTIES('180_gprp1G_lNAyW9NRIqH',#6,$,$,(#126),#333);
#335=IFCPROPERTYSINGLEVALUE('LevelingDelay',$,IFCINTEGER(5),$);
#336=IFCPROPERTYSET('0UIf7YOELDYbTNJWCoPZKh',#6,'OPS_Leveling',$,(#335));
#337=IFCRELDEFINESBYPROPERTIES('0lKfh3bi5d2rDSHeCDZmM4',#6,$,$,(#104),#336);
#338=IFCPROPERTYSINGLEVALUE('WorkRule',$,IFCLABEL('FIXED_WORK'),$);
#339=IFCPROPERTYSET('2$6lLCCgzE6S0TpfKouUjd',#6,'OPS_WorkRule',$,(#338));
#340=IFCRELDEFINESBYPROPERTIES('2OzDZ0xFyVvGK$Q90TKEIp',#6,$,$,(#116),#339);
#341=IFCPROPERTYSINGLEVALUE('Baselines',$,IFCTEXT('[{"id":"baseline-muspyd2ra5vs146","name":"Baseline","createdAt":"2026-10-03T18:22:06.771Z","tasks":[{"taskId":"task-muspycwmmmap82","start":"2027-06-07","finish":"2027-06-07","duration":0,"isMilestone":true,"milestoneKind":"START"},{"taskId":"task-muspycwnu0co83","start":"2027-06-07","finish":"2027-06-08","duration":2,"isMilestone":false},{"taskId":"task-muspycwp2w7d84","start":"2027-06-09","finish":"2027-06-09","duration":1,"isMilestone":false},{"taskId":"task-muspycwqhqfo85","start":"2027-06-10","finish":"2027-06-10","duration":1,"isMilestone":false},{"taskId":"task-muspycwsr6wz86","start":"2027-06-11","finish":"2027-06-14","duration":2,"isMilestone":false},{"taskId":"task-muspycwtc85q87","start":"2027-06-15","finish":"2027-06-17","duration":3,"isMilestone":false},{"taskId":"task-muspycwvskua88","start":"2027-06-17","finish":"2027-06-17","duration":0,"isMilestone":true,"milestoneKind":"FINISH"},{"taskId":"task-muspycwxxen989","start":"2027-06-18T07:00","finish":"2027-06-18T14:00","duration":0.75,"isMilestone":false},{"taskId":"task-muspycwy6fi990","start":"2027-06-24","finish":"2027-06-25","duration":2,"isMilestone":false},{"taskId":"task-muspycx01mw291","start":"2027-06-28T07:00","finish":"2027-06-28T12:00","duration":0.625,"isMilestone":false},{"taskId":"task-muspycx2dcys92","start":"2027-06-29","finish":"2027-07-05","duration":5,"isMilestone":false},{"taskId":"task-muspycx3hmrr93","start":"2027-07-06","finish":"2027-07-13","duration":6,"isMilestone":false},{"taskId":"task-muspycx5hpm994","start":"2027-07-06T07:00","finish":"2027-07-06T14:00","duration":0.75,"isMilestone":false},{"taskId":"task-muspycx6oc7o95","start":"2027-07-07","finish":"2027-07-08","duration":2,"isMilestone":false},{"taskId":"task-muspycx8jrlf96","start":"2027-07-14","finish":"2027-07-15","duration":2,"isMilestone":false},{"taskId":"task-muspycxacsiq97","start":"2027-07-16","finish":"2027-07-19","duration":2,"isMilestone":false},{"taskId":"task-muspycxbdtqe98","start":"2027-07-20","finish":"2027-07-22","duration":3,"isMilestone":false},{"taskId":"task-muspycxdovec99","start":"2027-07-23","finish":"2027-07-26","duration":2,"isMilestone":false},{"taskId":"task-muspycxfa7gw100","start":"2027-07-27","finish":"2027-07-27","duration":1,"isMilestone":false},{"taskId":"task-muspycxhjw3m101","start":"2027-08-25","finish":"2027-08-27","duration":3,"isMilestone":false},{"taskId":"task-muspycxjqw7g102","start":"2027-07-27","finish":"2027-07-29","duration":3,"isMilestone":false},{"taskId":"task-muspycxkasnt103","start":"2027-08-30","finish":"2027-08-30","duration":1,"isMilestone":false},{"taskId":"task-muspycxmxc7x104","start":"2027-08-30","finish":"2027-08-30","duration":0,"isMilestone":true,"milestoneKind":"FINISH"}],"projectEnd":"2027-08-30","projectDuration":46}]'),$);
#342=IFCPROPERTYSINGLEVALUE('TaskGuids',$,IFCTEXT('{"task-muspycwmmmap82":"2zrrZrvPC5aTfUV6pgV0sE","task-muspycwnu0co83":"2GWB1r6oJYlrUmy0MOGlsp","task-muspycwp2w7d84":"1LsqbPuKbKrxOL5GUUAs52","task-muspycwqhqfo85":"1p5TmnTZsVtCfqNGZbFSCY","task-muspycwsr6wz86":"2qMLNkgco9x8p40rjh6XST","task-muspycwtc85q87":"00aNs_XOS9vyiDmPDNiR9J","task-muspycwvskua88":"1mbmA4j4FSPtlzV74IjuUC","task-muspycwxxen989":"0nYYEno4JEXow3XdKNX6JZ","task-muspycwy6fi990":"3LD$Ruf6MOZk7W4bRVVEDV","task-muspycx01mw291":"3nr9Aa2CcYboNIt$B6s$jT","task-muspycx2dcys92":"3OmHznVrspSo$db8xhTJr$","task-muspycx3hmrr93":"1x3va4ug3sZ0zH3oyynDxn","task-muspycx5hpm994":"26MHR6D8m5UpKRmjiQFjmB","task-muspycx6oc7o95":"0zrjxcoHBz2QkyGeIaBhnr","task-muspycx8jrlf96":"0E5To0Cz980TZMi4I5Qduq","task-muspycxacsiq97":"1wKIOyURnZZ5kQH39HHMLo","task-muspycxbdtqe98":"10KHtCbXaWUk9d4RWtKwGG","task-muspycxdovec99":"37mp067JwbDh9IXHxD6uoR","task-muspycxfa7gw100":"3Tpch$eABOHXDLpd7cKkrN","task-muspycxhjw3m101":"2pdx1nT1dUlNXenS3YRDCK","task-muspycxjqw7g102":"3jc0b6cpFMm8JsrFQenSiH","task-muspycxkasnt103":"1yCJPZiRZLw5shkH70Onfn","task-muspycxmxc7x104":"0kohISMlQ1T9NC2zolJt8R"}'),$);
#343=IFCPROPERTYSINGLEVALUE('ActiveBaselineId',$,IFCTEXT('baseline-muspyd2ra5vs146'),$);
#344=IFCPROPERTYSET('1_ppUBZHBHwPENqn$cgIkK',#6,'OPS_Baselines',$,(#341,#342,#343));
#345=IFCRELDEFINESBYPROPERTIES('21m1aOUWL97zdfvSb4S_bW',#6,$,$,(#70),#344);
ENDSEC;
END-ISO-10303-21;
