ISO-10303-21;
HEADER;
FILE_DESCRIPTION(('ViewDefinition [SchedulingView]'),'2;1');
FILE_NAME('House extension.ifc','2026-10-03T16:19:17',('Open Planner Studio'),('OpenAEC Foundation'),'Open Planner Studio 0.1','Open Planner Studio','');
FILE_SCHEMA(('IFC4X3'));
ENDSEC;
DATA;
#1=IFCPERSON($,$,$,$,$,$,$,$);
#2=IFCORGANIZATION($,$,$,$,$);
#3=IFCPERSONANDORGANIZATION(#1,#2,$);
#4=IFCORGANIZATION($,'OpenAEC Foundation',$,$,$);
#5=IFCAPPLICATION(#4,'0.2','Open Planner Studio','OPS');
#6=IFCOWNERHISTORY(#3,#5,$,.NOCHANGE.,$,$,$,1791044357);
#7=IFCSIUNIT(*,.LENGTHUNIT.,$,.METRE.);
#8=IFCSIUNIT(*,.TIMEUNIT.,$,.SECOND.);
#9=IFCUNITASSIGNMENT((#7,#8));
#10=IFCCARTESIANPOINT((0.,0.,0.));
#11=IFCAXIS2PLACEMENT3D(#10,$,$);
#12=IFCGEOMETRICREPRESENTATIONCONTEXT($,'Plan',3,1.0E-05,#11,$);
#13=IFCPROJECT('0jG3k5tHvd9K59Iiub4u39',#6,'House extension','A 4 by 5 metre extension at the rear of a family home \X2\2014\X0\ the practice project for the tutorials.',$,$,$,(#12),#9);
#14=IFCTIMEPERIOD('07:00:00','12:00:00');
#15=IFCTIMEPERIOD('13:00:00','16:00:00');
#16=IFCRECURRENCEPATTERN(.WEEKLY.,$,(1,2,3,4,5),$,$,$,$,(#14,#15));
#17=IFCWORKTIME('Standard work week',.PREDICTED.,$,#16,$,$);
#18=IFCWORKTIME('Nieuwjaar',.PREDICTED.,$,$,'2026-01-01','2026-01-01');
#19=IFCWORKTIME('Goede Vrijdag',.PREDICTED.,$,$,'2026-04-03','2026-04-03');
#20=IFCWORKTIME('Pasen',.PREDICTED.,$,$,'2026-04-05','2026-04-06');
#21=IFCWORKTIME('Koningsdag',.PREDICTED.,$,$,'2026-04-27','2026-04-27');
#22=IFCWORKTIME('Hemelvaart',.PREDICTED.,$,$,'2026-05-14','2026-05-14');
#23=IFCWORKTIME('Pinksteren',.PREDICTED.,$,$,'2026-05-24','2026-05-25');
#24=IFCWORKTIME('Bouwvak (Midden)',.PREDICTED.,$,$,'2026-08-03','2026-08-21');
#25=IFCWORKTIME('Kerst',.PREDICTED.,$,$,'2026-12-25','2026-12-26');
#26=IFCWORKTIME('Nieuwjaar',.PREDICTED.,$,$,'2027-01-01','2027-01-01');
#27=IFCWORKTIME('Goede Vrijdag',.PREDICTED.,$,$,'2027-03-26','2027-03-26');
#28=IFCWORKTIME('Pasen',.PREDICTED.,$,$,'2027-03-28','2027-03-29');
#29=IFCWORKTIME('Koningsdag',.PREDICTED.,$,$,'2027-04-27','2027-04-27');
#30=IFCWORKTIME('Hemelvaart',.PREDICTED.,$,$,'2027-05-06','2027-05-06');
#31=IFCWORKTIME('Pinksteren',.PREDICTED.,$,$,'2027-05-16','2027-05-17');
#32=IFCWORKTIME('Bouwvak (Midden)',.PREDICTED.,$,$,'2027-08-02','2027-08-20');
#33=IFCWORKTIME('Kerst',.PREDICTED.,$,$,'2027-12-25','2027-12-26');
#34=IFCWORKTIME('Nieuwjaar',.PREDICTED.,$,$,'2028-01-01','2028-01-01');
#35=IFCWORKTIME('Goede Vrijdag',.PREDICTED.,$,$,'2028-04-14','2028-04-14');
#36=IFCWORKTIME('Pasen',.PREDICTED.,$,$,'2028-04-16','2028-04-17');
#37=IFCWORKTIME('Koningsdag',.PREDICTED.,$,$,'2028-04-27','2028-04-27');
#38=IFCWORKTIME('Hemelvaart',.PREDICTED.,$,$,'2028-05-25','2028-05-25');
#39=IFCWORKTIME('Pinksteren',.PREDICTED.,$,$,'2028-06-04','2028-06-05');
#40=IFCWORKTIME('Bouwvak (Midden)',.PREDICTED.,$,$,'2028-07-24','2028-08-11');
#41=IFCWORKTIME('Kerst',.PREDICTED.,$,$,'2028-12-25','2028-12-26');
#42=IFCWORKTIME('Nieuwjaar',.PREDICTED.,$,$,'2029-01-01','2029-01-01');
#43=IFCWORKTIME('Goede Vrijdag',.PREDICTED.,$,$,'2029-03-30','2029-03-30');
#44=IFCWORKTIME('Pasen',.PREDICTED.,$,$,'2029-04-01','2029-04-02');
#45=IFCWORKTIME('Koningsdag',.PREDICTED.,$,$,'2029-04-27','2029-04-27');
#46=IFCWORKTIME('Hemelvaart',.PREDICTED.,$,$,'2029-05-10','2029-05-10');
#47=IFCWORKTIME('Pinksteren',.PREDICTED.,$,$,'2029-05-20','2029-05-21');
#48=IFCWORKTIME('Bouwvak (Midden)',.PREDICTED.,$,$,'2029-07-30','2029-08-17');
#49=IFCWORKTIME('Kerst',.PREDICTED.,$,$,'2029-12-25','2029-12-26');
#50=IFCWORKTIME('Nieuwjaar',.PREDICTED.,$,$,'2030-01-01','2030-01-01');
#51=IFCWORKTIME('Goede Vrijdag',.PREDICTED.,$,$,'2030-04-19','2030-04-19');
#52=IFCWORKTIME('Pasen',.PREDICTED.,$,$,'2030-04-21','2030-04-22');
#53=IFCWORKTIME('Koningsdag',.PREDICTED.,$,$,'2030-04-27','2030-04-27');
#54=IFCWORKTIME('Bevrijdingsdag',.PREDICTED.,$,$,'2030-05-05','2030-05-05');
#55=IFCWORKTIME('Hemelvaart',.PREDICTED.,$,$,'2030-05-30','2030-05-30');
#56=IFCWORKTIME('Pinksteren',.PREDICTED.,$,$,'2030-06-09','2030-06-10');
#57=IFCWORKTIME('Bouwvak (Midden)',.PREDICTED.,$,$,'2030-07-29','2030-08-16');
#58=IFCWORKTIME('Kerst',.PREDICTED.,$,$,'2030-12-25','2030-12-26');
#59=IFCWORKCALENDAR('3iHbVKFMzi_HNJbIj$RyXc',#6,'Construction calendar NL','Standaard bouwkalender: ma-vr 07:00-16:00',$,(#17),(#18,#19,#20,#21,#22,#23,#24,#25,#26,#27,#28,#29,#30,#31,#32,#33,#34,#35,#36,#37,#38,#39,#40,#41,#42,#43,#44,#45,#46,#47,#48,#49,#50,#51,#52,#53,#54,#55,#56,#57,#58),.FIRSTSHIFT.);
#60=IFCPROPERTYSINGLEVALUE('RuleSetId',$,IFCLABEL('NL'),$);
#61=IFCPROPERTYSINGLEVALUE('BreakChoice',$,IFCLABEL('midden'),$);
#62=IFCPROPERTYSINGLEVALUE('GeneratedFromYear',$,IFCINTEGER(2026),$);
#63=IFCPROPERTYSINGLEVALUE('GeneratedToYear',$,IFCINTEGER(2030),$);
#64=IFCPROPERTYSINGLEVALUE('HoursPerDay',$,IFCREAL(8),$);
#65=IFCPROPERTYSINGLEVALUE('WorkEndHour',$,IFCREAL(16),$);
#66=IFCPROPERTYSINGLEVALUE('IsHourCalendar',$,IFCBOOLEAN(.F.),$);
#67=IFCPROPERTYSET('35BEEanePJ9xZ7DaRxPFGO',#6,'OPS_Calendar',$,(#60,#61,#62,#63,#64,#65,#66));
#68=IFCRELDEFINESBYPROPERTIES('0DPoI1PA4e1OruT8jFYRrq',#6,$,$,(#59),#67);
#69=IFCWORKPLAN('1HuxaQ3d4lpzdVK8V0n454',#6,'House extension','A 4 by 5 metre extension at the rear of a family home \X2\2014\X0\ the practice project for the tutorials.',$,$,'2026-10-03T16:19:17',$,$,$,$,$,'2027-06-07T07:00:00','2027-06-14T07:00:00',.PLANNED.);
#70=IFCWORKSCHEDULE('3n8HtOB2CcsSJl7e5wTISi',#6,'Construction schedule v1.0',$,$,$,'2026-10-03T16:19:17',$,$,$,$,$,'2027-06-07T07:00:00','2027-06-14T07:00:00',.PLANNED.);
#71=IFCRELAGGREGATES('17REt1kC9fAh14NW0JS2LY',#6,$,$,#69,(#70));
#72=IFCTASKTIME('Preparation Time',.PREDICTED.,$,.WORKTIME.,'P0Y0M4D','2027-06-07T07:00:00','2027-06-11T07:00:00','2027-06-07T07:00:00','2027-06-10T07:00:00','2027-06-10T07:00:00','2027-06-15T07:00:00','P0Y0M0D','P0Y0M3D',.F.,$,$,$,$,$,0.00);
#73=IFCTASK('1dloSWoNfMCA_IIrSVifE3',#6,'Preparation',$,$,'1',$,$,$,.F.,$,#72,.CONSTRUCTION.);
#74=IFCTASKTIME('Foundations Time',.PREDICTED.,$,.WORKTIME.,'P0Y0M12D','2027-06-07T07:00:00','2027-06-11T07:00:00','2027-06-11T07:00:00','2027-06-28T12:00','2027-06-16T07:00:00','2027-07-01T16:00','P0Y0M0D','P0Y0M3D',.F.,$,$,$,$,$,0.00);
#75=IFCTASK('3xy13fmzueckZAnxcgSJmW',#6,'Foundations',$,$,'2',$,$,$,.F.,$,#74,.CONSTRUCTION.);
#76=IFCTASKTIME('Shell Time',.PREDICTED.,$,.WORKTIME.,'P0Y0M15D','2027-06-07T07:00:00','2027-06-11T07:00:00','2027-06-29T07:00:00','2027-07-19T07:00:00','2027-07-02T07:00:00','2027-07-19T07:00:00','P0Y0M0D','P0Y0M0D',.T.,$,$,$,$,$,0.00);
#77=IFCTASK('2EjyrucIzKwmLZPDswPZPh',#6,'Shell',$,$,'3',$,$,$,.F.,$,#76,.CONSTRUCTION.);
#78=IFCTASKTIME('Finishing Time',.PREDICTED.,$,.WORKTIME.,'P0Y0M17D','2027-06-07T07:00:00','2027-06-11T07:00:00','2027-07-20T07:00:00','2027-09-01T07:00:00','2027-07-20T07:00:00','2027-09-01T07:00:00','P0Y0M0D','P0Y0M0D',.T.,$,$,$,$,$,0.00);
#79=IFCTASK('2egOrF69L9fxSFpMUBeWMp',#6,'Finishing',$,$,'4',$,$,$,.F.,$,#78,.CONSTRUCTION.);
#80=IFCTASKTIME('Start of construction Time',.PREDICTED.,$,.WORKTIME.,'P0Y0M0D','2027-06-07T07:00:00','2027-06-07T07:00:00','2027-06-07T07:00:00','2027-06-07T07:00:00','2027-06-10T07:00:00','2027-06-10T07:00:00','P0Y0M0D','P0Y0M3D',.F.,$,$,$,$,$,0.00);
#81=IFCTASK('1VHGwfleDt0x9yCmDxjaXT',#6,'Start of construction',$,$,'1.1',$,$,$,.T.,$,#80,.USERDEFINED.);
#82=IFCTASKTIME('Set up site Time',.PREDICTED.,$,.WORKTIME.,'P0Y0M2D','2027-06-07T07:00:00','2027-06-08T07:00:00','2027-06-07T07:00:00','2027-06-08T07:00:00','2027-06-10T07:00:00','2027-06-11T07:00:00','P0Y0M0D','P0Y0M3D',.F.,$,$,$,$,$,0.00);
#83=IFCTASK('3lNlZwknOvfIbvpFD_0HmX',#6,'Set up site',$,$,'1.2',$,$,$,.F.,$,#82,.CONSTRUCTION.);
#84=IFCTASKTIME('Clear garden and paving Time',.PREDICTED.,$,.WORKTIME.,'P0Y0M1D','2027-06-07T07:00:00','2027-06-07T07:00:00','2027-06-09T07:00:00','2027-06-09T07:00:00','2027-06-14T07:00:00','2027-06-14T07:00:00','P0Y0M0D','P0Y0M3D',.F.,$,$,$,$,$,0.00);
#85=IFCTASK('2YBwqXKBhdxYWUZ4gSojJ_',#6,'Clear garden and paving',$,$,'1.3',$,$,$,.F.,$,#84,.CONSTRUCTION.);
#86=IFCTASKTIME('Set out the extension Time',.PREDICTED.,$,.WORKTIME.,'P0Y0M1D','2027-06-07T07:00:00','2027-06-07T07:00:00','2027-06-10T07:00:00','2027-06-10T07:00:00','2027-06-15T07:00:00','2027-06-15T07:00:00','P0Y0M0D','P0Y0M3D',.F.,$,$,$,$,$,0.00);
#87=IFCTASK('2IoAB61u6GZQ71e8z_BsuH',#6,'Set out the extension',$,$,'1.4',$,$,$,.F.,$,#86,.CONSTRUCTION.);
#88=IFCTASKTIME('Excavate foundation trench Time',.PREDICTED.,$,.WORKTIME.,'P0Y0M2D','2027-06-07T07:00:00','2027-06-08T07:00:00','2027-06-11T07:00:00','2027-06-14T07:00:00','2027-06-16T07:00:00','2027-06-17T07:00:00','P0Y0M0D','P0Y0M3D',.F.,$,$,$,$,$,0.00);
#89=IFCTASK('0EYT69kfoEH9urbqqfxOfg',#6,'Excavate foundation trench',$,$,'2.1',$,$,$,.F.,$,#88,.CONSTRUCTION.);
#90=IFCTASKTIME('Foundation formwork and reinforcement Time',.PREDICTED.,$,.WORKTIME.,'P0Y0M3D','2027-06-07T07:00:00','2027-06-09T07:00:00','2027-06-15T07:00:00','2027-06-17T07:00:00','2027-06-18T07:00:00','2027-06-22T07:00:00','P0Y0M0D','P0Y0M3D',.F.,$,$,$,$,$,0.00);
#91=IFCTASK('25vVDM7rQUb9v5pmCtMtCs',#6,'Foundation formwork and reinforcement',$,$,'2.2',$,$,$,.F.,$,#90,.CONSTRUCTION.);
#92=IFCTASKTIME('Reinforcement inspection Time',.PREDICTED.,$,.WORKTIME.,'P0Y0M0D','2027-06-07T07:00:00','2027-06-07T07:00:00','2027-06-17T07:00:00','2027-06-17T07:00:00','2027-06-22T07:00:00','2027-06-22T07:00:00','P0Y0M0D','P0Y0M3D',.F.,$,$,$,$,$,0.00);
#93=IFCTASK('1Rv7w3S_RlOjD8roHplAvJ',#6,'Reinforcement inspection',$,$,'2.3',$,$,$,.T.,$,#92,.ATTENDANCE.);
#94=IFCTASKTIME('Pour foundation Time',.PREDICTED.,$,.WORKTIME.,'PT6H0M0S','2027-06-07T00:00:00','2027-06-07T14:00:00','2027-06-18T07:00:00','2027-06-18T14:00:00','2027-06-23T09:00:00','2027-06-23T16:00:00','P0Y0M0D','P0Y0M3.25D',.F.,$,$,$,$,$,0.00);
#95=IFCTASK('11D2RhK2Nz_y8B8OOJPs3z',#6,'Pour foundation',$,$,'2.4',$,$,$,.F.,$,#94,.CONSTRUCTION.);
#96=IFCTASKTIME('Foundation brickwork Time',.PREDICTED.,$,.WORKTIME.,'P0Y0M2D','2027-06-07T07:00:00','2027-06-08T07:00:00','2027-06-24T07:00:00','2027-06-25T07:00:00','2027-06-29T07:00:00','2027-06-30T07:00:00','P0Y0M0D','P0Y0M3D',.F.,$,$,$,$,$,0.00);
#97=IFCTASK('17Vunl075J4wT8d3lveugK',#6,'Foundation brickwork',$,$,'2.5',$,$,$,.F.,$,#96,.CONSTRUCTION.);
#98=IFCTASKTIME('Lay hollow-core floor Time',.PREDICTED.,$,.WORKTIME.,'PT5H0M0S','2027-06-07T00:00:00','2027-06-07T12:00:00','2027-06-28T07:00:00','2027-06-28T12:00:00','2027-07-01T10:00:00','2027-07-01T16:00:00','P0Y0M0D','P0Y0M3.375D',.F.,$,$,$,$,$,0.00);
#99=IFCTASK('32PVpXGMuyMOa73v509NNh',#6,'Lay hollow-core floor',$,$,'2.6',$,$,$,.F.,$,#98,.CONSTRUCTION.);
#100=IFCTASKTIME('Build inner cavity leaf Time',.PREDICTED.,$,.WORKTIME.,'P0Y0M5D','2027-06-07T07:00:00','2027-06-11T07:00:00','2027-06-29T07:00:00','2027-07-05T07:00:00','2027-07-02T07:00:00','2027-07-08T07:00:00','P0Y0M0D','P0Y0M3D',.F.,$,$,$,$,$,0.00);
#101=IFCTASK('3UC5cPdGw4C4s7vPoju_jd',#6,'Build inner cavity leaf',$,$,'3.1',$,$,$,.F.,$,#100,.CONSTRUCTION.);
#102=IFCTASKTIME('Build outer cavity leaf Time',.PREDICTED.,$,.WORKTIME.,'P0Y0M6D','2027-06-07T07:00:00','2027-06-14T07:00:00','2027-06-29T07:00:00','2027-07-06T07:00:00','2027-07-06T07:00:00','2027-07-13T07:00:00','P0Y0M5D','P0Y0M5D',.F.,$,$,$,$,$,0.00);
#103=IFCTASK('2p02Q0QtlMmZCXVYgYsioZ',#6,'Build outer cavity leaf',$,$,'3.2',$,$,$,.F.,$,#102,.CONSTRUCTION.);
#104=IFCTASKTIME('Place roof elements Time',.PREDICTED.,$,.WORKTIME.,'PT6H0M0S','2027-06-07T00:00:00','2027-06-07T14:00:00','2027-07-06T07:00:00','2027-07-06T14:00:00','2027-07-09T09:00:00','2027-07-09T16:00:00','P0Y0M0D','P0Y0M3.25D',.F.,$,$,$,$,$,0.00);
#105=IFCTASK('0DJdF4Baa3wHSoicbDm0U6',#6,'Place roof elements',$,$,'3.3',$,$,$,.F.,$,#104,.CONSTRUCTION.);
#106=IFCTASKTIME('Apply roofing Time',.PREDICTED.,$,.WORKTIME.,'P0Y0M2D','2027-06-07T07:00:00','2027-06-08T07:00:00','2027-07-07T07:00:00','2027-07-08T07:00:00','2027-07-12T07:00:00','2027-07-13T07:00:00','P0Y0M3D','P0Y0M3D',.F.,$,$,$,$,$,0.00);
#107=IFCTASK('2vg$KyBu$XxIIAJPRpdDPk',#6,'Apply roofing',$,$,'3.4',$,$,$,.F.,$,#106,.CONSTRUCTION.);
#108=IFCTASKTIME('Install window frames Time',.PREDICTED.,$,.WORKTIME.,'P0Y0M2D','2027-06-07T07:00:00','2027-06-08T07:00:00','2027-07-14T07:00:00','2027-07-15T07:00:00','2027-07-14T07:00:00','2027-07-15T07:00:00','P0Y0M0D','P0Y0M0D',.T.,$,$,$,$,$,0.00);
#109=IFCTASK('3xOYzDu7A38GRKn5Q_MV6K',#6,'Install window frames',$,$,'3.5',$,$,$,.F.,$,#108,.CONSTRUCTION.);
#110=IFCTASKTIME('Break through rear wall Time',.PREDICTED.,$,.WORKTIME.,'P0Y0M2D','2027-06-07T07:00:00','2027-06-08T07:00:00','2027-07-16T07:00:00','2027-07-19T07:00:00','2027-07-16T07:00:00','2027-07-19T07:00:00','P0Y0M0D','P0Y0M0D',.T.,$,$,$,$,$,0.00);
#111=IFCTASK('1MGJ4zlmCbPgaKmBKsqGe5',#6,'Break through rear wall',$,$,'3.6',$,$,$,.F.,$,#110,.CONSTRUCTION.);
#112=IFCTASKTIME('Install building services Time',.PREDICTED.,$,.WORKTIME.,'P0Y0M3D','2027-06-07T07:00:00','2027-06-09T07:00:00','2027-07-20T07:00:00','2027-07-22T07:00:00','2027-07-20T07:00:00','2027-07-22T07:00:00','P0Y0M0D','P0Y0M0D',.T.,$,$,$,$,$,0.00);
#113=IFCTASK('1Osyc1Ob_pImC5gPeN2toj',#6,'Install building services',$,$,'4.1',$,$,$,.F.,$,#112,.CONSTRUCTION.);
#114=IFCTASKTIME('Plastering Time',.PREDICTED.,$,.WORKTIME.,'P0Y0M4D','2027-06-07T07:00:00','2027-06-10T07:00:00','2027-07-23T07:00:00','2027-07-28T07:00:00','2027-07-23T07:00:00','2027-07-28T07:00:00','P0Y0M0D','P0Y0M0D',.T.,$,$,$,$,$,0.00);
#115=IFCTASK('20q62r2ganCN_51RQz3RFk',#6,'Plastering',$,$,'4.2',$,$,$,.F.,$,#114,.CONSTRUCTION.);
#116=IFCTASKTIME('Lay floor screed Time',.PREDICTED.,$,.WORKTIME.,'P0Y0M1D','2027-06-07T07:00:00','2027-06-07T07:00:00','2027-07-29T07:00:00','2027-07-29T07:00:00','2027-07-29T07:00:00','2027-07-29T07:00:00','P0Y0M0D','P0Y0M0D',.T.,$,$,$,$,$,0.00);
#117=IFCTASK('093Y6hmrANEE9KrY2Q90cs',#6,'Lay floor screed',$,$,'4.3',$,$,$,.F.,$,#116,.CONSTRUCTION.);
#118=IFCTASKTIME('Tiling Time',.PREDICTED.,$,.WORKTIME.,'P0Y0M3D','2027-06-07T07:00:00','2027-06-09T07:00:00','2027-08-27T07:00:00','2027-08-31T07:00:00','2027-08-27T07:00:00','2027-08-31T07:00:00','P0Y0M0D','P0Y0M0D',.T.,$,$,$,$,$,0.00);
#119=IFCTASK('0wNWOqsz4RROZe86wyHja3',#6,'Tiling',$,$,'4.4',$,$,$,.F.,$,#118,.CONSTRUCTION.);
#120=IFCTASKTIME('Painting Time',.PREDICTED.,$,.WORKTIME.,'P0Y0M3D','2027-06-07T07:00:00','2027-06-09T07:00:00','2027-07-29T07:00:00','2027-08-23T07:00:00','2027-08-27T07:00:00','2027-08-31T07:00:00','P0Y0M6D','P0Y0M6D',.F.,$,$,$,$,$,0.00);
#121=IFCTASK('23vTaTtWz9K_1dxf5C6OI5',#6,'Painting',$,$,'4.5',$,$,$,.F.,$,#120,.CONSTRUCTION.);
#122=IFCTASKTIME('Snagging and cleaning Time',.PREDICTED.,$,.WORKTIME.,'P0Y0M1D','2027-06-07T07:00:00','2027-06-07T07:00:00','2027-09-01T07:00:00','2027-09-01T07:00:00','2027-09-01T07:00:00','2027-09-01T07:00:00','P0Y0M0D','P0Y0M0D',.T.,$,$,$,$,$,0.00);
#123=IFCTASK('0euBzt08Kic$pFBw_MyTGp',#6,'Snagging and cleaning',$,$,'4.6',$,$,$,.F.,$,#122,.CONSTRUCTION.);
#124=IFCTASKTIME('Handover Time',.PREDICTED.,$,.WORKTIME.,'P0Y0M0D','2027-06-07T07:00:00','2027-06-07T07:00:00','2027-09-01T07:00:00','2027-09-01T07:00:00','2027-09-01T07:00:00','2027-09-01T07:00:00','P0Y0M0D','P0Y0M0D',.T.,$,$,$,$,$,0.00);
#125=IFCTASK('0XDADyY$34Z2feiR7M7vUx',#6,'Handover',$,$,'4.7',$,$,$,.T.,$,#124,.USERDEFINED.);
#126=IFCRELNESTS('2WtNzKrCwQjPmmZ4Lhi8rR',#6,'WBS Preparation',$,#73,( #81,#83,#85,#87));
#127=IFCRELNESTS('1xsGFr4VWyQDX26sTBryyT',#6,'WBS Foundations',$,#75,( #89,#91,#93,#95,#97,#99));
#128=IFCRELNESTS('1kuYy79AFnfjGoforIJsY5',#6,'WBS Shell',$,#77,( #101,#103,#105,#107,#109,#111));
#129=IFCRELNESTS('2yTQ7FTQyZUgsDujI539K1',#6,'WBS Finishing',$,#79,( #113,#115,#117,#119,#121,#123,#125));
#130=IFCRELNESTS('0N$Z4JfYMuY3$XVQ$HljGP',#6,'WBS Hoofd',$,#70,(#73,#75,#77,#79));
#131=IFCRELSEQUENCE('3_O127JSoons$vq3raUyt3',#6,$,$,#81,#83,$,.FINISH_START.,$);
#132=IFCRELSEQUENCE('2QK2e_qz5gjpUknbKTrWUW',#6,$,$,#83,#85,$,.FINISH_START.,$);
#133=IFCRELSEQUENCE('1Lm_n$dCgApWkcLiqMUHJ$',#6,$,$,#85,#87,$,.FINISH_START.,$);
#134=IFCRELSEQUENCE('1UIk42cMrKH1FEt68jI2Tl',#6,$,$,#87,#89,$,.FINISH_START.,$);
#135=IFCRELSEQUENCE('21bZeHFyDPEfcxVLRg17dY',#6,$,$,#89,#91,$,.FINISH_START.,$);
#136=IFCRELSEQUENCE('2xi03nu4l1AFsV0rXPyTSc',#6,$,$,#91,#93,$,.FINISH_START.,$);
#137=IFCRELSEQUENCE('2L50M3Zcj1vbBzunj9XYyw',#6,$,$,#93,#95,$,.FINISH_START.,$);
#138=IFCLAGTIME('Lag',.PREDICTED.,$,IFCDURATION('P3D'),.WORKTIME.);
#139=IFCRELSEQUENCE('29r_4VXZTuO$aRrGrMHvdV',#6,$,$,#95,#97,#138,.FINISH_START.,$);
#140=IFCRELSEQUENCE('19wRagoD3S946NPMNtbygt',#6,$,$,#97,#99,$,.FINISH_START.,$);
#141=IFCRELSEQUENCE('2jCBxu0STvt99VDLUWNN2D',#6,$,$,#99,#101,$,.FINISH_START.,$);
#142=IFCRELSEQUENCE('0z5d2eP4t2N_a6EpEnvDA9',#6,$,$,#99,#103,$,.FINISH_START.,$);
#143=IFCRELSEQUENCE('2JcCgPrNPLUVTpKF9VPz3Y',#6,$,$,#101,#105,$,.FINISH_START.,$);
#144=IFCRELSEQUENCE('2bKOOSwFFGW3gmpFIil6_4',#6,$,$,#105,#107,$,.FINISH_START.,$);
#145=IFCRELSEQUENCE('1q9CN$ASzWnr45DSngZ89A',#6,$,$,#107,#109,$,.FINISH_START.,$);
#146=IFCRELSEQUENCE('2gTO5rr3hzW_a7eQrRHdxG',#6,$,$,#103,#109,$,.FINISH_START.,$);
#147=IFCRELSEQUENCE('07bgheUKqz2kHB_bMqOlKc',#6,$,$,#109,#111,$,.FINISH_START.,$);
#148=IFCRELSEQUENCE('3aNnxG5L3mPRIFa9f3utJ$',#6,$,$,#111,#113,$,.FINISH_START.,$);
#149=IFCRELSEQUENCE('25QxD7$c0$Cne9q_x_9Q47',#6,$,$,#113,#115,$,.FINISH_START.,$);
#150=IFCRELSEQUENCE('2GspJFAquThfg8A3VbZgk4',#6,$,$,#115,#117,$,.FINISH_START.,$);
#151=IFCRELSEQUENCE('2SEx8wBFf5Hhd04ftYWQ9f',#6,$,$,#115,#121,$,.FINISH_START.,$);
#152=IFCLAGTIME('Lag',.PREDICTED.,$,IFCDURATION('P5D'),.WORKTIME.);
#153=IFCRELSEQUENCE('3plwrGgELu6yWgDWylJ760',#6,$,$,#117,#119,#152,.FINISH_START.,$);
#154=IFCRELSEQUENCE('1OAkbj31f$TcXpPYk8_qIk',#6,$,$,#119,#123,$,.FINISH_START.,$);
#155=IFCRELSEQUENCE('28lBP5xYLpy4AAqPvUQ41$',#6,$,$,#121,#123,$,.FINISH_START.,$);
#156=IFCRELSEQUENCE('3HFCASp_ATlXLtO7L53lg1',#6,$,$,#123,#125,$,.FINISH_START.,$);
#157=IFCCREWRESOURCE('2cRFVRKfKF7WI3tNS0TgM1',#6,'Carpentry crew',$,$,$,$,$,.USERDEFINED.);
#158=IFCLABORRESOURCE('3xkGNdAvpXha0PNA7Dwh1d',#6,'Bricklayer',$,$,$,$,$,.USERDEFINED.);
#159=IFCCONSTRUCTIONEQUIPMENTRESOURCE('2cUpc4jcg3vOlXynniaAD1',#6,'Mobile crane',$,$,$,$,$,.USERDEFINED.);
#160=IFCSUBCONTRACTRESOURCE('2BKZbNS$cyz0u7I8yV4VFF',#6,'Plasterer',$,$,$,$,$,.USERDEFINED.);
#161=IFCCONSTRUCTIONMATERIALRESOURCE('2aUbWTVFr38$4CYv8Uzt4M',#6,'Concrete',$,$,$,$,$,.USERDEFINED.);
#162=IFCPROPERTYSINGLEVALUE('Color',$,IFCTEXT('#1E293B'),$);
#163=IFCPROPERTYSET('1qGRgOqxitNZ8dYqC7nJIQ',#6,'OPS_Resource',$,(#162));
#164=IFCRELDEFINESBYPROPERTIES('1dsUqUWQXxUYe4a6rYLv3t',#6,$,$,(#157),#163);
#165=IFCPROPERTYSINGLEVALUE('Color',$,IFCTEXT('#B91C1C'),$);
#166=IFCPROPERTYSET('1i3iWmfrJUNSgYirvbY5xG',#6,'OPS_Resource',$,(#165));
#167=IFCRELDEFINESBYPROPERTIES('3X7WRWuQ4JViG$gfCJXXkJ',#6,$,$,(#158),#166);
#168=IFCPROPERTYSINGLEVALUE('Color',$,IFCTEXT('#DB2777'),$);
#169=IFCPROPERTYSET('2HbicxWyUJlXf0VpKBlhFU',#6,'OPS_Resource',$,(#168));
#170=IFCRELDEFINESBYPROPERTIES('3cmBd9qg_txQ2yOmXvt_HV',#6,$,$,(#159),#169);
#171=IFCPROPERTYSINGLEVALUE('MaxUnits',$,IFCREAL(2),$);
#172=IFCPROPERTYSINGLEVALUE('Color',$,IFCTEXT('#C2410C'),$);
#173=IFCPROPERTYSET('1mTdwXmjKcNtmVHouoiMHJ',#6,'OPS_Resource',$,(#171,#172));
#174=IFCRELDEFINESBYPROPERTIES('0QtrE2XNb1d8arIN57lxyP',#6,$,$,(#160),#173);
#175=IFCPROPERTYSINGLEVALUE('MaxUnits',$,IFCREAL(50),$);
#176=IFCPROPERTYSINGLEVALUE('UnitOfMeasure',$,IFCLABEL('m\X2\00B3\X0\'),$);
#177=IFCPROPERTYSINGLEVALUE('Color',$,IFCTEXT('#6366F1'),$);
#178=IFCPROPERTYSET('3nkBv9Cc_lue1UVmLcSO42',#6,'OPS_Resource',$,(#175,#176,#177));
#179=IFCRELDEFINESBYPROPERTIES('1Cv0D8mmckSTVNE6n7BqvT',#6,$,$,(#161),#178);
#180=IFCRELASSIGNSTOCONTROL('3Lnp5L76IXDt3MRAlohPXU',#6,$,$,(#73,#75,#77,#79,#81,#83,#85,#87,#89,#91,#93,#95,#97,#99,#101,#103,#105,#107,#109,#111,#113,#115,#117,#119,#121,#123,#125),$,#70);
#181=IFCPROPERTYSINGLEVALUE('InternalProjectId',$,IFCTEXT('proj-muslkegq5txa76'),$);
#182=IFCPROPERTYSINGLEVALUE('wbsAutoNumber',$,IFCBOOLEAN(.T.),$);
#183=IFCPROPERTYSINGLEVALUE('DefaultTaskDurationUnit',$,IFCLABEL('days'),$);
#184=IFCPROPERTYSINGLEVALUE('ProjectStartDate',$,IFCDATE('2027-06-07'),$);
#185=IFCPROPERTYSINGLEVALUE('ProjectEndDate',$,$,$);
#186=IFCPROPERTYSINGLEVALUE('CreatedAt',$,IFCTEXT('2026-10-03T16:19:16.922Z'),$);
#187=IFCPROPERTYSINGLEVALUE('ModifiedAt',$,IFCTEXT('2026-10-03T16:19:16.922Z'),$);
#188=IFCPROPERTYSET('2ufjXwM4Y7O4_xwYwDM9qO',#6,'OPS_ProjectSettings',$,(#181,#182,#183,#184,#185,#186,#187));
#189=IFCRELDEFINESBYPROPERTIES('3VH9j0tmvrO4qUx_I9L4F3',#6,$,$,(#13),#188);
#190=IFCPROPERTYSINGLEVALUE('InternalTaskId',$,IFCTEXT('task-muslkegrgew678'),$);
#191=IFCPROPERTYSET('0t3mieIJCEb0Pv962T2MqG',#6,'OPS_TaskIdentity',$,(#190));
#192=IFCRELDEFINESBYPROPERTIES('3mDXGmTDsqSu_OY61gk7Cf',#6,$,$,(#73),#191);
#193=IFCPROPERTYSINGLEVALUE('InternalTaskId',$,IFCTEXT('task-muslkegs3ufs79'),$);
#194=IFCPROPERTYSET('2tZnTuaZGY5bTDJGXQTRT7',#6,'OPS_TaskIdentity',$,(#193));
#195=IFCRELDEFINESBYPROPERTIES('0ZAXYxN7uJhMI01rsSUwYG',#6,$,$,(#75),#194);
#196=IFCPROPERTYSINGLEVALUE('InternalTaskId',$,IFCTEXT('task-muslkegtitf280'),$);
#197=IFCPROPERTYSET('3h8dPCwWrei19w5Tacl5qQ',#6,'OPS_TaskIdentity',$,(#196));
#198=IFCRELDEFINESBYPROPERTIES('3MG$OaODlJDZIwVBTic3qb',#6,$,$,(#77),#197);
#199=IFCPROPERTYSINGLEVALUE('InternalTaskId',$,IFCTEXT('task-muslkegurps081'),$);
#200=IFCPROPERTYSET('3Zl2yKkYcfK1ytPSfgiznA',#6,'OPS_TaskIdentity',$,(#199));
#201=IFCRELDEFINESBYPROPERTIES('2WwxG9NT4auarUvf9$gsZk',#6,$,$,(#79),#200);
#202=IFCPROPERTYSINGLEVALUE('InternalTaskId',$,IFCTEXT('task-muslkegwiqme82'),$);
#203=IFCPROPERTYSET('29ZgQdL3GcGeV74$6w19aA',#6,'OPS_TaskIdentity',$,(#202));
#204=IFCRELDEFINESBYPROPERTIES('2WxKsQyRafVqjXYd6ItRGL',#6,$,$,(#81),#203);
#205=IFCPROPERTYSINGLEVALUE('InternalTaskId',$,IFCTEXT('task-muslkegxdag483'),$);
#206=IFCPROPERTYSET('1X_X0qTeV3szLDo5fPLt8n',#6,'OPS_TaskIdentity',$,(#205));
#207=IFCRELDEFINESBYPROPERTIES('0uXeOG8rWQ4tctNg5j$Wc0',#6,$,$,(#83),#206);
#208=IFCPROPERTYSINGLEVALUE('InternalTaskId',$,IFCTEXT('task-muslkegzinxu84'),$);
#209=IFCPROPERTYSET('2OAQUExPzoUQPogIbhtTnO',#6,'OPS_TaskIdentity',$,(#208));
#210=IFCRELDEFINESBYPROPERTIES('2KHyP5f96pJftLSPongUbo',#6,$,$,(#85),#209);
#211=IFCPROPERTYSINGLEVALUE('InternalTaskId',$,IFCTEXT('task-muslkeh0pdp585'),$);
#212=IFCPROPERTYSET('3Y7QvVdeG3Ijbiwawu2aig',#6,'OPS_TaskIdentity',$,(#211));
#213=IFCRELDEFINESBYPROPERTIES('2YDRVK1FHzDaah2a0GjrCP',#6,$,$,(#87),#212);
#214=IFCPROPERTYSINGLEVALUE('InternalTaskId',$,IFCTEXT('task-muslkeh2d1go86'),$);
#215=IFCPROPERTYSET('3HIFkFDXnyEhYWk4yvIgQ_',#6,'OPS_TaskIdentity',$,(#214));
#216=IFCRELDEFINESBYPROPERTIES('0e2385LzNM$qc0Y1hp2I6G',#6,$,$,(#89),#215);
#217=IFCPROPERTYSINGLEVALUE('InternalTaskId',$,IFCTEXT('task-muslkeh3zb0l87'),$);
#218=IFCPROPERTYSET('3HOf_gbuXc7Ev_7yiE2TN1',#6,'OPS_TaskIdentity',$,(#217));
#219=IFCRELDEFINESBYPROPERTIES('0THbOEmxDQIwO1sX94JSbr',#6,$,$,(#91),#218);
#220=IFCPROPERTYSINGLEVALUE('InternalTaskId',$,IFCTEXT('task-muslkeh5hv6488'),$);
#221=IFCPROPERTYSET('2DoH1VdlqtlJyGtq$bXMDT',#6,'OPS_TaskIdentity',$,(#220));
#222=IFCRELDEFINESBYPROPERTIES('0vPcWmDpZ4tdV2PteEbjpz',#6,$,$,(#93),#221);
#223=IFCPROPERTYSINGLEVALUE('InternalTaskId',$,IFCTEXT('task-muslkeh7bwd689'),$);
#224=IFCPROPERTYSET('3lL7Y$l20JG7WQN_UBa6Hi',#6,'OPS_TaskIdentity',$,(#223));
#225=IFCRELDEFINESBYPROPERTIES('2YaE53OeVKIt4YzYtlmhYZ',#6,$,$,(#95),#224);
#226=IFCPROPERTYSINGLEVALUE('InternalTaskId',$,IFCTEXT('task-muslkeh8q5i690'),$);
#227=IFCPROPERTYSET('17vPeYBcLBlnf4lqzvkgK3',#6,'OPS_TaskIdentity',$,(#226));
#228=IFCRELDEFINESBYPROPERTIES('2C5fYt2wf2TxND7_YayRkr',#6,$,$,(#97),#227);
#229=IFCPROPERTYSINGLEVALUE('InternalTaskId',$,IFCTEXT('task-muslkehamozu91'),$);
#230=IFCPROPERTYSET('32W8kXWilqVnPHj8EBI3ix',#6,'OPS_TaskIdentity',$,(#229));
#231=IFCRELDEFINESBYPROPERTIES('3NJMmqoTcaRkFbQI91yzPk',#6,$,$,(#99),#230);
#232=IFCPROPERTYSINGLEVALUE('InternalTaskId',$,IFCTEXT('task-muslkehb8msp92'),$);
#233=IFCPROPERTYSET('3diip5vJh5RgxM9qabrNl4',#6,'OPS_TaskIdentity',$,(#232));
#234=IFCRELDEFINESBYPROPERTIES('3dUaZ9CzBtCa6ZIrpERf3I',#6,$,$,(#101),#233);
#235=IFCPROPERTYSINGLEVALUE('InternalTaskId',$,IFCTEXT('task-muslkehdp4u593'),$);
#236=IFCPROPERTYSET('0PUii4n6x51cEqP$51kIuP',#6,'OPS_TaskIdentity',$,(#235));
#237=IFCRELDEFINESBYPROPERTIES('1yh$zdd62G9Kcf9Snc$2gz',#6,$,$,(#103),#236);
#238=IFCPROPERTYSINGLEVALUE('InternalTaskId',$,IFCTEXT('task-muslkehepbtp94'),$);
#239=IFCPROPERTYSET('0N8ivC2HatqkOKiZk1qpf7',#6,'OPS_TaskIdentity',$,(#238));
#240=IFCRELDEFINESBYPROPERTIES('3PpC2TR_GK4_1SIC6rcKay',#6,$,$,(#105),#239);
#241=IFCPROPERTYSINGLEVALUE('InternalTaskId',$,IFCTEXT('task-muslkehgt05895'),$);
#242=IFCPROPERTYSET('3B3fp1ZlG$wXUCiAw0zJc5',#6,'OPS_TaskIdentity',$,(#241));
#243=IFCRELDEFINESBYPROPERTIES('1POHjzuPF0OD3sqBMIBsXs',#6,$,$,(#107),#242);
#244=IFCPROPERTYSINGLEVALUE('InternalTaskId',$,IFCTEXT('task-muslkehi0zho96'),$);
#245=IFCPROPERTYSET('1J8NfeKL493YmxrEpz2CYk',#6,'OPS_TaskIdentity',$,(#244));
#246=IFCRELDEFINESBYPROPERTIES('0t8ilXMoC$WI9rRt9fNSJr',#6,$,$,(#109),#245);
#247=IFCPROPERTYSINGLEVALUE('InternalTaskId',$,IFCTEXT('task-muslkehkcn7697'),$);
#248=IFCPROPERTYSET('0INZtDaujVw4HJSMIJEFTm',#6,'OPS_TaskIdentity',$,(#247));
#249=IFCRELDEFINESBYPROPERTIES('0VGVVoya9ZkkJ4GP5pXSTv',#6,$,$,(#111),#248);
#250=IFCPROPERTYSINGLEVALUE('InternalTaskId',$,IFCTEXT('task-muslkehmlkl798'),$);
#251=IFCPROPERTYSET('2ZQ7Ovvz11pCIPAGuD_H6Z',#6,'OPS_TaskIdentity',$,(#250));
#252=IFCRELDEFINESBYPROPERTIES('2AKsxkoycfqhKvZQ3xU4g0',#6,$,$,(#113),#251);
#253=IFCPROPERTYSINGLEVALUE('InternalTaskId',$,IFCTEXT('task-muslkehoyhof99'),$);
#254=IFCPROPERTYSET('2X$IVIVxh3xAIE6BA5mC1V',#6,'OPS_TaskIdentity',$,(#253));
#255=IFCRELDEFINESBYPROPERTIES('0YfsYdbgQ0HRLjAsBVGViz',#6,$,$,(#115),#254);
#256=IFCPROPERTYSINGLEVALUE('InternalTaskId',$,IFCTEXT('task-muslkehp5uym100'),$);
#257=IFCPROPERTYSET('1JcKtKLPB$d$sxMfF$wNOz',#6,'OPS_TaskIdentity',$,(#256));
#258=IFCRELDEFINESBYPROPERTIES('2X0COsrecbdeWrlSgmfcDy',#6,$,$,(#117),#257);
#259=IFCPROPERTYSINGLEVALUE('InternalTaskId',$,IFCTEXT('task-muslkehrd6nk101'),$);
#260=IFCPROPERTYSET('2ORNnyTVckPFdILYucjWew',#6,'OPS_TaskIdentity',$,(#259));
#261=IFCRELDEFINESBYPROPERTIES('3HgB8dQopl2lrKBtPQTZPQ',#6,$,$,(#119),#260);
#262=IFCPROPERTYSINGLEVALUE('InternalTaskId',$,IFCTEXT('task-muslkeht091y102'),$);
#263=IFCPROPERTYSET('3M9t7YAC6R81uJooJxyeun',#6,'OPS_TaskIdentity',$,(#262));
#264=IFCRELDEFINESBYPROPERTIES('3tiNHC0rK_WZXraPo9ujxJ',#6,$,$,(#121),#263);
#265=IFCPROPERTYSINGLEVALUE('InternalTaskId',$,IFCTEXT('task-muslkehvqlvf103'),$);
#266=IFCPROPERTYSET('2m$HD1gGe4PoUn$x7RqAtt',#6,'OPS_TaskIdentity',$,(#265));
#267=IFCRELDEFINESBYPROPERTIES('1BH9Xxvq_ixu0ui4UI3q0b',#6,$,$,(#123),#266);
#268=IFCPROPERTYSINGLEVALUE('InternalTaskId',$,IFCTEXT('task-muslkehxwikx104'),$);
#269=IFCPROPERTYSET('2dbQ5xnKH39iRR0GgRif1Y',#6,'OPS_TaskIdentity',$,(#268));
#270=IFCRELDEFINESBYPROPERTIES('3TGbQWMFTFGMDlDMG$ZcZQ',#6,$,$,(#125),#269);
#271=IFCPROPERTYSINGLEVALUE('ConstraintType',$,IFCLABEL('SNET'),$);
#272=IFCPROPERTYSINGLEVALUE('ConstraintDate',$,IFCDATE('2027-07-14'),$);
#273=IFCPROPERTYSET('1_C3uZfBwrfPX5w2OnfbX$',#6,'OPS_Constraints',$,(#271,#272));
#274=IFCRELDEFINESBYPROPERTIES('0qwpgqC366cLut3jjtyRqL',#6,$,$,(#109),#273);
#275=IFCPROPERTYSINGLEVALUE('Deadline',$,IFCDATE('2027-09-10'),$);
#276=IFCPROPERTYSET('0IWuUarHREFuJYMelukH26',#6,'OPS_Constraints',$,(#275));
#277=IFCRELDEFINESBYPROPERTIES('0aaO7AVQSQfVmX8qb2ehfX',#6,$,$,(#125),#276);
#278=IFCPROPERTYSINGLEVALUE('MilestoneKind',$,IFCLABEL('START'),$);
#279=IFCPROPERTYSET('19etKpkZGPIVdhCaXOC0S6',#6,'OPS_Milestone',$,(#278));
#280=IFCRELDEFINESBYPROPERTIES('3QQ3dfdhJuJf_Yum1qnwIy',#6,$,$,(#81),#279);
#281=IFCPROPERTYSINGLEVALUE('MilestoneKind',$,IFCLABEL('FINISH'),$);
#282=IFCPROPERTYSINGLEVALUE('Mandatory',$,IFCBOOLEAN(.T.),$);
#283=IFCPROPERTYSET('14rZ4FgSR8d9paK4ym$4m4',#6,'OPS_Milestone',$,(#281,#282));
#284=IFCRELDEFINESBYPROPERTIES('1EDZAGfoWHvMHkzoKZyBgB',#6,$,$,(#93),#283);
#285=IFCPROPERTYSINGLEVALUE('MilestoneKind',$,IFCLABEL('FINISH'),$);
#286=IFCPROPERTYSET('2gppMMu4nq_WEadIYZksVm',#6,'OPS_Milestone',$,(#285));
#287=IFCRELDEFINESBYPROPERTIES('2ET7gE7y_wQZlXIh38Yz5k',#6,$,$,(#125),#286);
ENDSEC;
END-ISO-10303-21;
