ISO-10303-21;
HEADER;
FILE_DESCRIPTION(('ViewDefinition [SchedulingView]'),'2;1');
FILE_NAME('Aanbouw woning.ifc','2026-10-03T16:19:12',('Open Planner Studio'),('OpenAEC Foundation'),'Open Planner Studio 0.1','Open Planner Studio','');
FILE_SCHEMA(('IFC4X3'));
ENDSEC;
DATA;
#1=IFCPERSON($,$,$,$,$,$,$,$);
#2=IFCORGANIZATION($,$,$,$,$);
#3=IFCPERSONANDORGANIZATION(#1,#2,$);
#4=IFCORGANIZATION($,'OpenAEC Foundation',$,$,$);
#5=IFCAPPLICATION(#4,'0.2','Open Planner Studio','OPS');
#6=IFCOWNERHISTORY(#3,#5,$,.NOCHANGE.,$,$,$,1791044352);
#7=IFCSIUNIT(*,.LENGTHUNIT.,$,.METRE.);
#8=IFCSIUNIT(*,.TIMEUNIT.,$,.SECOND.);
#9=IFCUNITASSIGNMENT((#7,#8));
#10=IFCCARTESIANPOINT((0.,0.,0.));
#11=IFCAXIS2PLACEMENT3D(#10,$,$);
#12=IFCGEOMETRICREPRESENTATIONCONTEXT($,'Plan',3,1.0E-05,#11,$);
#13=IFCPROJECT('3XYiIALL3hN$Om$NYmPX1e',#6,'Aanbouw woning','Uitbouw van 4 bij 5 meter aan de achtergevel van een eengezinswoning \X2\2014\X0\ het oefenproject van de tutorials.',$,$,$,(#12),#9);
#14=IFCTIMEPERIOD('07:00:00','12:00:00');
#15=IFCTIMEPERIOD('13:00:00','16:00:00');
#16=IFCRECURRENCEPATTERN(.WEEKLY.,$,(1,2,3,4,5),$,$,$,$,(#14,#15));
#17=IFCWORKTIME('Standard work week',.PREDICTED.,$,#16,$,$);
#18=IFCWORKTIME('Nieuwjaar',.PREDICTED.,$,$,'2026-01-01','2026-01-01');
#19=IFCWORKTIME('Goede Vrijdag',.PREDICTED.,$,$,'2026-04-03','2026-04-03');
#20=IFCWORKTIME('Pasen',.PREDICTED.,$,$,'2026-04-05','2026-04-06');
#21=IFCWORKTIME('Koningsdag',.PREDICTED.,$,$,'2026-04-27','2026-04-27');
#22=IFCWORKTIME('Hemelvaart',.PREDICTED.,$,$,'2026-05-14','2026-05-14');
#23=IFCWORKTIME('Pinksteren',.PREDICTED.,$,$,'2026-05-24','2026-05-25');
#24=IFCWORKTIME('Bouwvak (Midden)',.PREDICTED.,$,$,'2026-08-03','2026-08-21');
#25=IFCWORKTIME('Kerst',.PREDICTED.,$,$,'2026-12-25','2026-12-26');
#26=IFCWORKTIME('Nieuwjaar',.PREDICTED.,$,$,'2027-01-01','2027-01-01');
#27=IFCWORKTIME('Goede Vrijdag',.PREDICTED.,$,$,'2027-03-26','2027-03-26');
#28=IFCWORKTIME('Pasen',.PREDICTED.,$,$,'2027-03-28','2027-03-29');
#29=IFCWORKTIME('Koningsdag',.PREDICTED.,$,$,'2027-04-27','2027-04-27');
#30=IFCWORKTIME('Hemelvaart',.PREDICTED.,$,$,'2027-05-06','2027-05-06');
#31=IFCWORKTIME('Pinksteren',.PREDICTED.,$,$,'2027-05-16','2027-05-17');
#32=IFCWORKTIME('Bouwvak (Midden)',.PREDICTED.,$,$,'2027-08-02','2027-08-20');
#33=IFCWORKTIME('Kerst',.PREDICTED.,$,$,'2027-12-25','2027-12-26');
#34=IFCWORKTIME('Nieuwjaar',.PREDICTED.,$,$,'2028-01-01','2028-01-01');
#35=IFCWORKTIME('Goede Vrijdag',.PREDICTED.,$,$,'2028-04-14','2028-04-14');
#36=IFCWORKTIME('Pasen',.PREDICTED.,$,$,'2028-04-16','2028-04-17');
#37=IFCWORKTIME('Koningsdag',.PREDICTED.,$,$,'2028-04-27','2028-04-27');
#38=IFCWORKTIME('Hemelvaart',.PREDICTED.,$,$,'2028-05-25','2028-05-25');
#39=IFCWORKTIME('Pinksteren',.PREDICTED.,$,$,'2028-06-04','2028-06-05');
#40=IFCWORKTIME('Bouwvak (Midden)',.PREDICTED.,$,$,'2028-07-24','2028-08-11');
#41=IFCWORKTIME('Kerst',.PREDICTED.,$,$,'2028-12-25','2028-12-26');
#42=IFCWORKTIME('Nieuwjaar',.PREDICTED.,$,$,'2029-01-01','2029-01-01');
#43=IFCWORKTIME('Goede Vrijdag',.PREDICTED.,$,$,'2029-03-30','2029-03-30');
#44=IFCWORKTIME('Pasen',.PREDICTED.,$,$,'2029-04-01','2029-04-02');
#45=IFCWORKTIME('Koningsdag',.PREDICTED.,$,$,'2029-04-27','2029-04-27');
#46=IFCWORKTIME('Hemelvaart',.PREDICTED.,$,$,'2029-05-10','2029-05-10');
#47=IFCWORKTIME('Pinksteren',.PREDICTED.,$,$,'2029-05-20','2029-05-21');
#48=IFCWORKTIME('Bouwvak (Midden)',.PREDICTED.,$,$,'2029-07-30','2029-08-17');
#49=IFCWORKTIME('Kerst',.PREDICTED.,$,$,'2029-12-25','2029-12-26');
#50=IFCWORKTIME('Nieuwjaar',.PREDICTED.,$,$,'2030-01-01','2030-01-01');
#51=IFCWORKTIME('Goede Vrijdag',.PREDICTED.,$,$,'2030-04-19','2030-04-19');
#52=IFCWORKTIME('Pasen',.PREDICTED.,$,$,'2030-04-21','2030-04-22');
#53=IFCWORKTIME('Koningsdag',.PREDICTED.,$,$,'2030-04-27','2030-04-27');
#54=IFCWORKTIME('Bevrijdingsdag',.PREDICTED.,$,$,'2030-05-05','2030-05-05');
#55=IFCWORKTIME('Hemelvaart',.PREDICTED.,$,$,'2030-05-30','2030-05-30');
#56=IFCWORKTIME('Pinksteren',.PREDICTED.,$,$,'2030-06-09','2030-06-10');
#57=IFCWORKTIME('Bouwvak (Midden)',.PREDICTED.,$,$,'2030-07-29','2030-08-16');
#58=IFCWORKTIME('Kerst',.PREDICTED.,$,$,'2030-12-25','2030-12-26');
#59=IFCWORKCALENDAR('3$RUW17datI$03$qzS7S4e',#6,'Bouwkalender NL','Standaard bouwkalender: ma-vr 07:00-16:00',$,(#17),(#18,#19,#20,#21,#22,#23,#24,#25,#26,#27,#28,#29,#30,#31,#32,#33,#34,#35,#36,#37,#38,#39,#40,#41,#42,#43,#44,#45,#46,#47,#48,#49,#50,#51,#52,#53,#54,#55,#56,#57,#58),.FIRSTSHIFT.);
#60=IFCPROPERTYSINGLEVALUE('RuleSetId',$,IFCLABEL('NL'),$);
#61=IFCPROPERTYSINGLEVALUE('BreakChoice',$,IFCLABEL('midden'),$);
#62=IFCPROPERTYSINGLEVALUE('GeneratedFromYear',$,IFCINTEGER(2026),$);
#63=IFCPROPERTYSINGLEVALUE('GeneratedToYear',$,IFCINTEGER(2030),$);
#64=IFCPROPERTYSINGLEVALUE('HoursPerDay',$,IFCREAL(8),$);
#65=IFCPROPERTYSINGLEVALUE('WorkEndHour',$,IFCREAL(16),$);
#66=IFCPROPERTYSINGLEVALUE('IsHourCalendar',$,IFCBOOLEAN(.F.),$);
#67=IFCPROPERTYSET('0778ukGCcRvZHrLYuf43cs',#6,'OPS_Calendar',$,(#60,#61,#62,#63,#64,#65,#66));
#68=IFCRELDEFINESBYPROPERTIES('21oopoAA6w0IFWVeJTlMmf',#6,$,$,(#59),#67);
#69=IFCWORKPLAN('3X4EvYqGzxlaSPJ93cgdkN',#6,'Aanbouw woning','Uitbouw van 4 bij 5 meter aan de achtergevel van een eengezinswoning \X2\2014\X0\ het oefenproject van de tutorials.',$,$,'2026-10-03T16:19:12',$,$,$,$,$,'2027-06-07T07:00:00','2027-06-14T07:00:00',.PLANNED.);
#70=IFCWORKSCHEDULE('3y5UXYh8DmPn2wjIbB0TNj',#6,'Construction schedule v1.0',$,$,$,'2026-10-03T16:19:12',$,$,$,$,$,'2027-06-07T07:00:00','2027-06-14T07:00:00',.PLANNED.);
#71=IFCWORKSCHEDULE('2koMzDppNLW9xAEeQywV1G',#6,'Basisplanning',$,$,$,'2026-10-03T16:19:12.033Z',$,$,$,$,$,$,'2027-08-30T07:00:00',.BASELINE.);
#72=IFCRELAGGREGATES('0C_NR4D9htskE29QpqmjyC',#6,$,$,#69,(#70,#71));
#73=IFCTASKTIME('Voorbereiding Time',.PREDICTED.,$,.WORKTIME.,'P0Y0M4D','2027-06-07T07:00:00','2027-06-11T07:00:00','2027-06-07T07:00:00','2027-06-10T07:00:00','2027-06-08T07:00:00','2027-06-11T07:00:00','P0Y0M0D','P0Y0M1D',.F.,'2027-06-28T07:00:00',$,'2027-06-07T07:00:00','2027-06-10T07:00:00',$,1.00);
#74=IFCTASK('11_fP1nGp4eVvJRd$DBM3U',#6,'Voorbereiding',$,$,'1',$,$,$,.F.,$,#73,.CONSTRUCTION.);
#75=IFCTASKTIME('Fundering Time',.PREDICTED.,$,.WORKTIME.,'P0Y0M13D','2027-06-07T07:00:00','2027-06-11T07:00:00','2027-06-11T07:00:00','2027-06-29T12:00','2027-06-14T07:00:00','2027-06-29T16:00','P0Y0M0D','P0Y0M0D',.T.,'2027-06-28T07:00:00',$,'2027-06-11T07:00:00',$,$,0.81);
#76=IFCTASK('1snu9bldJY7gtxjlZ3z_0B',#6,'Fundering',$,$,'2',$,$,$,.F.,$,#75,.CONSTRUCTION.);
#77=IFCTASKTIME('Ruwbouw Time',.PREDICTED.,$,.WORKTIME.,'P0Y0M15D','2027-06-07T07:00:00','2027-06-11T07:00:00','2027-06-30T07:00:00','2027-07-20T07:00:00','2027-07-05T07:00:00','2027-07-20T07:00:00','P0Y0M0D','P0Y0M0D',.T.,$,$,$,$,$,0.00);
#78=IFCTASK('2jmmTXsIMYCc0znaqESvFS',#6,'Ruwbouw',$,$,'3',$,$,$,.F.,$,#77,.CONSTRUCTION.);
#79=IFCTASKTIME('Afbouw Time',.PREDICTED.,$,.WORKTIME.,'P0Y0M15D','2027-06-07T07:00:00','2027-06-11T07:00:00','2027-07-21T07:00:00','2027-08-31T07:00:00','2027-07-21T07:00:00','2027-08-31T07:00:00','P0Y0M0D','P0Y0M0D',.T.,$,$,$,$,$,0.00);
#80=IFCTASK('2meyhLADHDjD7EtFR9n21F',#6,'Afbouw',$,$,'4',$,$,$,.F.,$,#79,.CONSTRUCTION.);
#81=IFCTASKTIME('Start bouw Time',.PREDICTED.,$,.WORKTIME.,'P0Y0M0D','2027-06-07T07:00:00','2027-06-07T07:00:00','2027-06-07T07:00:00','2027-06-07T07:00:00','2027-06-08T07:00:00','2027-06-08T07:00:00','P0Y0M0D','P0Y0M1D',.F.,'2027-06-28T07:00:00',$,'2027-06-07T07:00:00','2027-06-07T07:00:00','P0Y0M0D',1.00);
#82=IFCTASK('000FIVq06qUrgjfUucDOC7',#6,'Start bouw',$,$,'1.1',$,$,$,.T.,$,#81,.USERDEFINED.);
#83=IFCTASKTIME('Bouwplaats inrichten Time',.PREDICTED.,$,.WORKTIME.,'P0Y0M2D','2027-06-07T07:00:00','2027-06-08T07:00:00','2027-06-07T07:00:00','2027-06-08T07:00:00','2027-06-08T07:00:00','2027-06-09T07:00:00','P0Y0M0D','P0Y0M1D',.F.,'2027-06-28T07:00:00',$,'2027-06-07T07:00:00','2027-06-08T07:00:00','P0Y0M0D',1.00);
#84=IFCTASK('3F0wKPKSEICGiAUNetBoSb',#6,'Bouwplaats inrichten',$,$,'1.2',$,$,$,.F.,$,#83,.CONSTRUCTION.);
#85=IFCTASKTIME('Tuin en bestrating verwijderen Time',.PREDICTED.,$,.WORKTIME.,'P0Y0M1D','2027-06-07T07:00:00','2027-06-07T07:00:00','2027-06-09T07:00:00','2027-06-09T07:00:00','2027-06-10T07:00:00','2027-06-10T07:00:00','P0Y0M0D','P0Y0M1D',.F.,'2027-06-28T07:00:00',$,'2027-06-09T07:00:00','2027-06-09T07:00:00','P0Y0M0D',1.00);
#86=IFCTASK('1NWd6qrNi4_gnfsd_D2o87',#6,'Tuin en bestrating verwijderen',$,$,'1.3',$,$,$,.F.,$,#85,.CONSTRUCTION.);
#87=IFCTASKTIME('Aanbouw uitzetten Time',.PREDICTED.,$,.WORKTIME.,'P0Y0M1D','2027-06-07T07:00:00','2027-06-07T07:00:00','2027-06-10T07:00:00','2027-06-10T07:00:00','2027-06-11T07:00:00','2027-06-11T07:00:00','P0Y0M0D','P0Y0M1D',.F.,'2027-06-28T07:00:00',$,'2027-06-10T07:00:00','2027-06-10T07:00:00','P0Y0M0D',1.00);
#88=IFCTASK('0JwShj1Kc8kNhygH246NBU',#6,'Aanbouw uitzetten',$,$,'1.4',$,$,$,.F.,$,#87,.CONSTRUCTION.);
#89=IFCTASKTIME('Funderingssleuf ontgraven Time',.PREDICTED.,$,.WORKTIME.,'P0Y0M2D','2027-06-07T07:00:00','2027-06-08T07:00:00','2027-06-11T07:00:00','2027-06-15T07:00:00','2027-06-14T07:00:00','2027-06-15T07:00:00','P0Y0M0D','P0Y0M0D',.F.,'2027-06-28T07:00:00',$,'2027-06-11T07:00:00','2027-06-15T07:00:00','P0Y0M0D',1.00);
#90=IFCTASK('3_Gxqc78wbNv6dEO3w3zt_',#6,'Funderingssleuf ontgraven',$,$,'2.1',$,$,$,.F.,$,#89,.CONSTRUCTION.);
#91=IFCTASKTIME('Wapening en bekisting fundering Time',.PREDICTED.,$,.WORKTIME.,'P0Y0M3D','2027-06-07T07:00:00','2027-06-09T07:00:00','2027-06-16T07:00:00','2027-06-18T07:00:00','2027-06-16T07:00:00','2027-06-18T07:00:00','P0Y0M0D','P0Y0M0D',.F.,'2027-06-28T07:00:00',$,'2027-06-16T07:00:00','2027-06-18T07:00:00','P0Y0M0D',1.00);
#92=IFCTASK('2lWA344WN4uWjwUYtiFY3q',#6,'Wapening en bekisting fundering',$,$,'2.2',$,$,$,.F.,$,#91,.CONSTRUCTION.);
#93=IFCTASKTIME('Inspectie wapening Time',.PREDICTED.,$,.WORKTIME.,'P0Y0M0D','2027-06-07T07:00:00','2027-06-07T07:00:00','2027-06-18T07:00:00','2027-06-18T07:00:00','2027-06-18T07:00:00','2027-06-18T07:00:00','P0Y0M0D','P0Y0M0D',.F.,'2027-06-28T07:00:00',$,'2027-06-18T07:00:00','2027-06-18T07:00:00','P0Y0M0D',1.00);
#94=IFCTASK('21qfu0MkA27B0O1g9m5v6G',#6,'Inspectie wapening',$,$,'2.3',$,$,$,.T.,$,#93,.ATTENDANCE.);
#95=IFCTASKTIME('Fundering storten Time',.PREDICTED.,$,.WORKTIME.,'PT6H0M0S','2027-06-07T00:00:00','2027-06-07T14:00:00','2027-06-21T07:00:00','2027-06-21T14:00:00','2027-06-21T09:00:00','2027-06-21T16:00:00','P0Y0M0D','P0Y0M0.25D',.F.,'2027-06-28T00:00:00',$,'2027-06-21T07:00:00','2027-06-21T14:00:00','PT0H0M0S',1.00);
#96=IFCTASK('1kpcqp7r9dVd6XNix0Wgmt',#6,'Fundering storten',$,$,'2.4',$,$,$,.F.,$,#95,.CONSTRUCTION.);
#97=IFCTASKTIME('Funderingsmetselwerk Time',.PREDICTED.,$,.WORKTIME.,'P0Y0M2D','2027-06-07T07:00:00','2027-06-08T07:00:00','2027-06-25T07:00:00','2027-06-28T07:00:00','2027-06-25T07:00:00','2027-06-28T07:00:00','P0Y0M0D','P0Y0M0D',.T.,'2027-06-28T07:00:00',$,'2027-06-25T07:00:00',$,'P0Y0M1D',0.50);
#98=IFCTASK('3SqFXFcWDdpjjlTuQwzrVT',#6,'Funderingsmetselwerk',$,$,'2.5',$,$,$,.F.,$,#97,.CONSTRUCTION.);
#99=IFCTASKTIME('Kanaalplaatvloer leggen Time',.PREDICTED.,$,.WORKTIME.,'PT5H0M0S','2027-06-07T00:00:00','2027-06-07T12:00:00','2027-06-29T07:00:00','2027-06-29T12:00:00','2027-06-29T10:00:00','2027-06-29T16:00:00','P0Y0M0D','P0Y0M0.375D',.F.,$,$,$,$,$,0.00);
#100=IFCTASK('29AyGzAQ$RaxocVisZJ323',#6,'Kanaalplaatvloer leggen',$,$,'2.6',$,$,$,.F.,$,#99,.CONSTRUCTION.);
#101=IFCTASKTIME('Binnenspouwblad metselen Time',.PREDICTED.,$,.WORKTIME.,'P0Y0M5D','2027-06-07T07:00:00','2027-06-11T07:00:00','2027-06-30T07:00:00','2027-07-06T07:00:00','2027-07-05T07:00:00','2027-07-09T07:00:00','P0Y0M0D','P0Y0M3D',.F.,$,$,$,$,$,0.00);
#102=IFCTASK('04iHiVm7qAver9gfpDhB1p',#6,'Binnenspouwblad metselen',$,$,'3.1',$,$,$,.F.,$,#101,.CONSTRUCTION.);
#103=IFCTASKTIME('Buitenspouwblad metselen Time',.PREDICTED.,$,.WORKTIME.,'P0Y0M6D','2027-06-07T07:00:00','2027-06-14T07:00:00','2027-07-07T07:00:00','2027-07-14T07:00:00','2027-07-07T07:00:00','2027-07-14T07:00:00','P0Y0M0D','P0Y0M0D',.T.,$,$,$,$,$,0.00);
#104=IFCTASK('2aU4LQaONxxiarpanIw7hv',#6,'Buitenspouwblad metselen',$,$,'3.2',$,$,$,.F.,$,#103,.CONSTRUCTION.);
#105=IFCTASKTIME('Dakelementen plaatsen Time',.PREDICTED.,$,.WORKTIME.,'PT6H0M0S','2027-06-07T00:00:00','2027-06-07T14:00:00','2027-07-07T07:00:00','2027-07-07T14:00:00','2027-07-12T09:00:00','2027-07-12T16:00:00','P0Y0M0D','P0Y0M3.25D',.F.,$,$,$,$,$,0.00);
#106=IFCTASK('0YB80SpJtvG61Fp5YbZUgc',#6,'Dakelementen plaatsen',$,$,'3.3',$,$,$,.F.,$,#105,.CONSTRUCTION.);
#107=IFCTASKTIME('Dakbedekking aanbrengen Time',.PREDICTED.,$,.WORKTIME.,'P0Y0M2D','2027-06-07T07:00:00','2027-06-08T07:00:00','2027-07-08T07:00:00','2027-07-09T07:00:00','2027-07-13T07:00:00','2027-07-14T07:00:00','P0Y0M3D','P0Y0M3D',.F.,$,$,$,$,$,0.00);
#108=IFCTASK('0YZixEdsK300boD1rMDx4_',#6,'Dakbedekking aanbrengen',$,$,'3.4',$,$,$,.F.,$,#107,.CONSTRUCTION.);
#109=IFCTASKTIME('Kozijnen plaatsen Time',.PREDICTED.,$,.WORKTIME.,'P0Y0M2D','2027-06-07T07:00:00','2027-06-08T07:00:00','2027-07-15T07:00:00','2027-07-16T07:00:00','2027-07-15T07:00:00','2027-07-16T07:00:00','P0Y0M0D','P0Y0M0D',.T.,$,$,$,$,$,0.00);
#110=IFCTASK('01UwmeTm7w9StUYYjW1cTL',#6,'Kozijnen plaatsen',$,$,'3.5',$,$,$,.F.,$,#109,.CONSTRUCTION.);
#111=IFCTASKTIME('Achtergevel doorbreken Time',.PREDICTED.,$,.WORKTIME.,'P0Y0M2D','2027-06-07T07:00:00','2027-06-08T07:00:00','2027-07-19T07:00:00','2027-07-20T07:00:00','2027-07-19T07:00:00','2027-07-20T07:00:00','P0Y0M0D','P0Y0M0D',.T.,$,$,$,$,$,0.00);
#112=IFCTASK('1XGu7k022T5mR76t2jv64p',#6,'Achtergevel doorbreken',$,$,'3.6',$,$,$,.F.,$,#111,.CONSTRUCTION.);
#113=IFCTASKTIME('Installaties aanleggen Time',.PREDICTED.,$,.WORKTIME.,'P0Y0M3D','2027-06-07T07:00:00','2027-06-09T07:00:00','2027-07-21T07:00:00','2027-07-23T07:00:00','2027-07-21T07:00:00','2027-07-23T07:00:00','P0Y0M0D','P0Y0M0D',.T.,$,$,$,$,$,0.00);
#114=IFCTASK('2fu5phUVlnHZQTiDZWWNBE',#6,'Installaties aanleggen',$,$,'4.1',$,$,$,.F.,$,#113,.CONSTRUCTION.);
#115=IFCTASKTIME('Stucwerk Time',.PREDICTED.,$,.WORKTIME.,'P0Y0M2D','2027-06-07T07:00:00','2027-06-10T07:00:00','2027-07-26T07:00:00','2027-07-27T07:00:00','2027-07-26T07:00:00','2027-07-27T07:00:00','P0Y0M0D','P0Y0M0D',.T.,$,$,$,$,$,0.00);
#116=IFCTASK('36hcK_97oScyFEeeM515CK',#6,'Stucwerk',$,$,'4.2',$,$,$,.F.,$,#115,.CONSTRUCTION.);
#117=IFCTASKTIME('Dekvloer aanbrengen Time',.PREDICTED.,$,.WORKTIME.,'P0Y0M1D','2027-06-07T07:00:00','2027-06-07T07:00:00','2027-07-28T07:00:00','2027-07-28T07:00:00','2027-07-28T07:00:00','2027-07-28T07:00:00','P0Y0M0D','P0Y0M0D',.T.,$,$,$,$,$,0.00);
#118=IFCTASK('3_kS$9P9pPQtYnL7GQ0p4f',#6,'Dekvloer aanbrengen',$,$,'4.3',$,$,$,.F.,$,#117,.CONSTRUCTION.);
#119=IFCTASKTIME('Tegelwerk Time',.PREDICTED.,$,.WORKTIME.,'P0Y0M3D','2027-06-07T07:00:00','2027-06-09T07:00:00','2027-08-26T07:00:00','2027-08-30T07:00:00','2027-08-26T07:00:00','2027-08-30T07:00:00','P0Y0M0D','P0Y0M0D',.T.,$,$,$,$,$,0.00);
#120=IFCTASK('3S2HJh07XcXulcCPrtaee7',#6,'Tegelwerk',$,$,'4.4',$,$,$,.F.,$,#119,.CONSTRUCTION.);
#121=IFCTASKTIME('Schilderwerk Time',.PREDICTED.,$,.WORKTIME.,'P0Y0M3D','2027-06-07T07:00:00','2027-06-09T07:00:00','2027-07-28T07:00:00','2027-07-30T07:00:00','2027-08-26T07:00:00','2027-08-30T07:00:00','P0Y0M6D','P0Y0M6D',.F.,$,$,$,$,$,0.00);
#122=IFCTASK('0EAklrmM0U4lnzmn2QhIiu',#6,'Schilderwerk',$,$,'4.5',$,$,$,.F.,$,#121,.CONSTRUCTION.);
#123=IFCTASKTIME('Opleverpunten en schoonmaken Time',.PREDICTED.,$,.WORKTIME.,'P0Y0M1D','2027-06-07T07:00:00','2027-06-07T07:00:00','2027-08-31T07:00:00','2027-08-31T07:00:00','2027-08-31T07:00:00','2027-08-31T07:00:00','P0Y0M0D','P0Y0M0D',.T.,$,$,$,$,$,0.00);
#124=IFCTASK('1D4xyA5Fi5QsT5lB_iManZ',#6,'Opleverpunten en schoonmaken',$,$,'4.6',$,$,$,.F.,$,#123,.CONSTRUCTION.);
#125=IFCTASKTIME('Oplevering Time',.PREDICTED.,$,.WORKTIME.,'P0Y0M0D','2027-06-07T07:00:00','2027-06-07T07:00:00','2027-08-31T07:00:00','2027-08-31T07:00:00','2027-08-31T07:00:00','2027-08-31T07:00:00','P0Y0M0D','P0Y0M0D',.T.,$,$,$,$,$,0.00);
#126=IFCTASK('0obHppC7$OGB7sB2_p8PfC',#6,'Oplevering',$,$,'4.7',$,$,$,.T.,$,#125,.USERDEFINED.);
#127=IFCRELNESTS('1tVN6gKyyZFC5ATLBdauzO',#6,'WBS Voorbereiding',$,#74,( #82,#84,#86,#88));
#128=IFCRELNESTS('3Vp9ObLC7ZolFedfxRSieJ',#6,'WBS Fundering',$,#76,( #90,#92,#94,#96,#98,#100));
#129=IFCRELNESTS('3j5x7xSBGvom10wW7WiGNv',#6,'WBS Ruwbouw',$,#78,( #102,#104,#106,#108,#110,#112));
#130=IFCRELNESTS('1tg9gpMiRYZDVMshgCZAgK',#6,'WBS Afbouw',$,#80,( #114,#116,#118,#120,#122,#124,#126));
#131=IFCRELNESTS('0LH_QDijRFPdnZ_Ory_ws0',#6,'WBS Hoofd',$,#70,(#74,#76,#78,#80));
#132=IFCRELSEQUENCE('1WpKueXL5kFPmJTazUs$Hh',#6,$,$,#82,#84,$,.FINISH_START.,$);
#133=IFCRELSEQUENCE('2QtLT92CuwSBc5ofgD5p8J',#6,$,$,#84,#86,$,.FINISH_START.,$);
#134=IFCRELSEQUENCE('1S5s5esl5WxS9c7E4LmAZe',#6,$,$,#86,#88,$,.FINISH_START.,$);
#135=IFCRELSEQUENCE('3a2pC7EUmoG5XE4sQ2Vavw',#6,$,$,#88,#90,$,.FINISH_START.,$);
#136=IFCRELSEQUENCE('2$_Bd2XnZ_5MbcmHRWAHN9',#6,$,$,#90,#92,$,.FINISH_START.,$);
#137=IFCRELSEQUENCE('1fYobzYvUZ127mKAw$lJV9',#6,$,$,#92,#94,$,.FINISH_START.,$);
#138=IFCRELSEQUENCE('1DY7h5MdyaEOxHfbICDaMk',#6,$,$,#94,#96,$,.FINISH_START.,$);
#139=IFCLAGTIME('Lag',.PREDICTED.,$,IFCDURATION('P3D'),.WORKTIME.);
#140=IFCRELSEQUENCE('2RLEXztmx1OeIVzt5r7t7s',#6,$,$,#96,#98,#139,.FINISH_START.,$);
#141=IFCRELSEQUENCE('2co2hVRJ2E6a6q1evyOBHY',#6,$,$,#98,#100,$,.FINISH_START.,$);
#142=IFCRELSEQUENCE('3qOvkzpuF3AH2UMUcLhCE3',#6,$,$,#100,#102,$,.FINISH_START.,$);
#143=IFCRELSEQUENCE('3uYxerMcSsrwak$UmkTIoe',#6,$,$,#100,#104,$,.FINISH_START.,$);
#144=IFCRELSEQUENCE('1ytyBB_agwtgPOVotUFbqe',#6,$,$,#102,#106,$,.FINISH_START.,$);
#145=IFCRELSEQUENCE('3rGZp0DBPe0nOBhe6rB9G2',#6,$,$,#106,#108,$,.FINISH_START.,$);
#146=IFCRELSEQUENCE('21_crVS9hXJiZf2sG3ivMQ',#6,$,$,#108,#110,$,.FINISH_START.,$);
#147=IFCRELSEQUENCE('3b8FSYhNuG528ELY0lpUq1',#6,$,$,#104,#110,$,.FINISH_START.,$);
#148=IFCRELSEQUENCE('2IV7bWIdwjWhtzVt21npHa',#6,$,$,#110,#112,$,.FINISH_START.,$);
#149=IFCRELSEQUENCE('3MztqAuH$8v$uZKVjLfLch',#6,$,$,#112,#114,$,.FINISH_START.,$);
#150=IFCRELSEQUENCE('1oKVxk5ZW01XeJIxRyHfRU',#6,$,$,#114,#116,$,.FINISH_START.,$);
#151=IFCRELSEQUENCE('1sqRDgHEY8C4ipYpvKXNo3',#6,$,$,#116,#118,$,.FINISH_START.,$);
#152=IFCRELSEQUENCE('1N9sHEgwqrzOb4hSnGdCuu',#6,$,$,#116,#122,$,.FINISH_START.,$);
#153=IFCLAGTIME('Lag',.PREDICTED.,$,IFCDURATION('P5D'),.WORKTIME.);
#154=IFCRELSEQUENCE('2oLr0j3$dlueOODiXRt6_S',#6,$,$,#118,#120,#153,.FINISH_START.,$);
#155=IFCRELSEQUENCE('3n7pGqUk6rB28g2UoV$Ndq',#6,$,$,#120,#124,$,.FINISH_START.,$);
#156=IFCRELSEQUENCE('199VBZk4EazbMzd$VfmFhr',#6,$,$,#122,#124,$,.FINISH_START.,$);
#157=IFCRELSEQUENCE('1W0$bDglg8ZEFERyMXW8y5',#6,$,$,#124,#126,$,.FINISH_START.,$);
#158=IFCCREWRESOURCE('05jkDcam5kTjdewxgJUwHr',#6,'Timmerploeg',$,$,$,$,$,.USERDEFINED.);
#159=IFCLABORRESOURCE('0KkvsmbG7J02_kYooqujn0',#6,'Metselaar',$,$,$,$,$,.USERDEFINED.);
#160=IFCCONSTRUCTIONEQUIPMENTRESOURCE('1ar1UfAPz0M4_Syen1Zxa6',#6,'Mobiele kraan',$,$,$,$,$,.USERDEFINED.);
#161=IFCSUBCONTRACTRESOURCE('0_hS$EQiM1Q7KabxVHN09L',#6,'Stukadoor',$,$,$,$,$,.USERDEFINED.);
#162=IFCCONSTRUCTIONMATERIALRESOURCE('27JxUYZIlsb7vQJTGH__r0',#6,'Beton',$,$,$,$,$,.USERDEFINED.);
#163=IFCPROPERTYSINGLEVALUE('Color',$,IFCTEXT('#1E293B'),$);
#164=IFCPROPERTYSET('0NzzGGMGQqeUP43$CpLVxk',#6,'OPS_Resource',$,(#163));
#165=IFCRELDEFINESBYPROPERTIES('1HO$kBrfmqsp8VpOYmaAEt',#6,$,$,(#158),#164);
#166=IFCPROPERTYSINGLEVALUE('Color',$,IFCTEXT('#B91C1C'),$);
#167=IFCPROPERTYSET('2ZvGdPvqniYuaWk28Ues1G',#6,'OPS_Resource',$,(#166));
#168=IFCRELDEFINESBYPROPERTIES('3EoqN7e9I$3No3n6xrxT5V',#6,$,$,(#159),#167);
#169=IFCPROPERTYSINGLEVALUE('Color',$,IFCTEXT('#DB2777'),$);
#170=IFCPROPERTYSET('3ptwCoz00hg5rW_6NjXZ4k',#6,'OPS_Resource',$,(#169));
#171=IFCRELDEFINESBYPROPERTIES('15V_P2_vDPdccmBZ8fj2GH',#6,$,$,(#160),#170);
#172=IFCPROPERTYSINGLEVALUE('MaxUnits',$,IFCREAL(2),$);
#173=IFCPROPERTYSINGLEVALUE('Color',$,IFCTEXT('#C2410C'),$);
#174=IFCPROPERTYSET('0UEjng6abow6sgO52Vto$h',#6,'OPS_Resource',$,(#172,#173));
#175=IFCRELDEFINESBYPROPERTIES('1o7VHzPLfFJSkEYfA__FPn',#6,$,$,(#161),#174);
#176=IFCPROPERTYSINGLEVALUE('MaxUnits',$,IFCREAL(50),$);
#177=IFCPROPERTYSINGLEVALUE('UnitOfMeasure',$,IFCLABEL('m\X2\00B3\X0\'),$);
#178=IFCPROPERTYSINGLEVALUE('Color',$,IFCTEXT('#6366F1'),$);
#179=IFCPROPERTYSET('0NxiL2X1GZszr_NlXpnnNI',#6,'OPS_Resource',$,(#176,#177,#178));
#180=IFCRELDEFINESBYPROPERTIES('06xOfo1YVlwzDcEQSeHAq6',#6,$,$,(#162),#179);
#181=IFCRELASSIGNSTOPROCESS('0cwMjiVUj62yjH0s7Z7mPF',#6,$,$,(#158),$,#92,$);
#182=IFCRELASSIGNSTOPROCESS('3X1Meu$lSpzbNuPuKfBpKK',#6,$,$,(#162),$,#96,$);
#183=IFCRELASSIGNSTOPROCESS('1PyLGYfu8tjlv0X1390Y2e',#6,$,$,(#159),$,#98,$);
#184=IFCRELASSIGNSTOPROCESS('0hAM7LLXDPM4EnunMKd4ek',#6,$,$,(#158,#160),$,#100,$);
#185=IFCRELASSIGNSTOPROCESS('1bsv$fPjdTIcB8CRTk6UKq',#6,$,$,(#159),$,#102,$);
#186=IFCRELASSIGNSTOPROCESS('1PYkLbeEYWvYuhEaJDVTdJ',#6,$,$,(#159),$,#104,$);
#187=IFCRELASSIGNSTOPROCESS('3KPU$_x2RYs7hIInBTChi5',#6,$,$,(#158,#160),$,#106,$);
#188=IFCRELASSIGNSTOPROCESS('1m3kETW1rxT4rYhsnQqAiK',#6,$,$,(#158),$,#110,$);
#189=IFCRELASSIGNSTOPROCESS('09FPmkbKpxb2y8n_C2vWxx',#6,$,$,(#159),$,#112,$);
#190=IFCRELASSIGNSTOPROCESS('16tI7tc$KEWRQV4mltXwrv',#6,$,$,(#161),$,#116,$);
#191=IFCPROPERTYSINGLEVALUE('05jkDcam5kTjdewxgJUwHr#0',$,IFCTEXT('1|UNIFORM'),$);
#192=IFCPROPERTYSET('1BFPv_$WzybVqduMlIBNXM',#6,'OPS_Assignments',$,(#191));
#193=IFCRELDEFINESBYPROPERTIES('3ZA84HknBx0JZCKimSL11u',#6,$,$,(#92),#192);
#194=IFCPROPERTYSINGLEVALUE('27JxUYZIlsb7vQJTGH__r0#0',$,IFCTEXT('8|UNIFORM'),$);
#195=IFCPROPERTYSET('2CxLwjDjqfDlMm2ScUqoUM',#6,'OPS_Assignments',$,(#194));
#196=IFCRELDEFINESBYPROPERTIES('3QglH5j6U3bLFH2StH8JVe',#6,$,$,(#96),#195);
#197=IFCPROPERTYSINGLEVALUE('0KkvsmbG7J02_kYooqujn0#0',$,IFCTEXT('1|UNIFORM'),$);
#198=IFCPROPERTYSET('34gb4uMcuOOs_P6nJWTviW',#6,'OPS_Assignments',$,(#197));
#199=IFCRELDEFINESBYPROPERTIES('1zONVJzihCyJb4845P2IVe',#6,$,$,(#98),#198);
#200=IFCPROPERTYSINGLEVALUE('05jkDcam5kTjdewxgJUwHr#0',$,IFCTEXT('1|UNIFORM'),$);
#201=IFCPROPERTYSINGLEVALUE('1ar1UfAPz0M4_Syen1Zxa6#1',$,IFCTEXT('1|UNIFORM'),$);
#202=IFCPROPERTYSET('1uKKSThpoKUYIDz0Byse3I',#6,'OPS_Assignments',$,(#200,#201));
#203=IFCRELDEFINESBYPROPERTIES('0_pxMgbIpPb_ASmhGjNlB6',#6,$,$,(#100),#202);
#204=IFCPROPERTYSINGLEVALUE('0KkvsmbG7J02_kYooqujn0#0',$,IFCTEXT('1|UNIFORM'),$);
#205=IFCPROPERTYSET('3duRvcZF1w_gQmWB8$vAKz',#6,'OPS_Assignments',$,(#204));
#206=IFCRELDEFINESBYPROPERTIES('24I9ClxssCMRN$8Qsqn9yY',#6,$,$,(#102),#205);
#207=IFCPROPERTYSINGLEVALUE('0KkvsmbG7J02_kYooqujn0#0',$,IFCTEXT('1|UNIFORM'),$);
#208=IFCPROPERTYSET('1_mlgMSJGRqcsbhiUYUSGY',#6,'OPS_Assignments',$,(#207));
#209=IFCRELDEFINESBYPROPERTIES('0z6pv4X4YnpLB7FN6QJf9x',#6,$,$,(#104),#208);
#210=IFCPROPERTYSINGLEVALUE('05jkDcam5kTjdewxgJUwHr#0',$,IFCTEXT('1|UNIFORM'),$);
#211=IFCPROPERTYSINGLEVALUE('1ar1UfAPz0M4_Syen1Zxa6#1',$,IFCTEXT('1|UNIFORM'),$);
#212=IFCPROPERTYSET('2dqNqLolU4iDjlC2LLeKaG',#6,'OPS_Assignments',$,(#210,#211));
#213=IFCRELDEFINESBYPROPERTIES('1i31LkYYJsPFRYEqGx6X7Q',#6,$,$,(#106),#212);
#214=IFCPROPERTYSINGLEVALUE('05jkDcam5kTjdewxgJUwHr#0',$,IFCTEXT('1|UNIFORM'),$);
#215=IFCPROPERTYSET('3wQQSRuMVS3_Fq9ev6r$d8',#6,'OPS_Assignments',$,(#214));
#216=IFCRELDEFINESBYPROPERTIES('1rHvGkP_Co10exfAaM36PA',#6,$,$,(#110),#215);
#217=IFCPROPERTYSINGLEVALUE('0KkvsmbG7J02_kYooqujn0#0',$,IFCTEXT('1|UNIFORM'),$);
#218=IFCPROPERTYSET('20MPl47iTVOo0c3W9aebUb',#6,'OPS_Assignments',$,(#217));
#219=IFCRELDEFINESBYPROPERTIES('3kWj2$27K4OeuWOoKnn1Na',#6,$,$,(#112),#218);
#220=IFCPROPERTYSINGLEVALUE('0_hS$EQiM1Q7KabxVHN09L#0',$,IFCTEXT('2|UNIFORM'),$);
#221=IFCPROPERTYSET('1qdIpDaxcXXOocpm1teGDe',#6,'OPS_Assignments',$,(#220));
#222=IFCRELDEFINESBYPROPERTIES('0$lO7JWY5wWcTmzG4Y33pc',#6,$,$,(#116),#221);
#223=IFCPROPERTYSINGLEVALUE('Windows',$,IFCTEXT('{"0_hS$EQiM1Q7KabxVHN09L#0":{"remainingWorkMinutes":1920}}'),$);
#224=IFCPROPERTYSET('0cLFWhtWejqBfUdO54RvpB',#6,'OPS_Timephased',$,(#223));
#225=IFCRELDEFINESBYPROPERTIES('0OU$5a8okqMVw8cvOQ6VOH',#6,$,$,(#116),#224);
#226=IFCRELASSIGNSTOCONTROL('0urocO$YekPVQBDpru_lor',#6,$,$,(#74,#76,#78,#80,#82,#84,#86,#88,#90,#92,#94,#96,#98,#100,#102,#104,#106,#108,#110,#112,#114,#116,#118,#120,#122,#124,#126),$,#70);
#227=IFCPROPERTYSINGLEVALUE('InternalProjectId',$,IFCTEXT('proj-muslkafxfa7t4'),$);
#228=IFCPROPERTYSINGLEVALUE('wbsAutoNumber',$,IFCBOOLEAN(.T.),$);
#229=IFCPROPERTYSINGLEVALUE('DefaultTaskDurationUnit',$,IFCLABEL('days'),$);
#230=IFCPROPERTYSINGLEVALUE('StatusDate',$,IFCDATE('2027-06-28'),$);
#231=IFCPROPERTYSINGLEVALUE('ProjectStartDate',$,IFCDATE('2027-06-07'),$);
#232=IFCPROPERTYSINGLEVALUE('ProjectEndDate',$,$,$);
#233=IFCPROPERTYSINGLEVALUE('CreatedAt',$,IFCTEXT('2026-10-03T16:19:11.709Z'),$);
#234=IFCPROPERTYSINGLEVALUE('ModifiedAt',$,IFCTEXT('2026-10-03T16:19:12.184Z'),$);
#235=IFCPROPERTYSET('1M9hUKtGOH5mD5HlYqqlYU',#6,'OPS_ProjectSettings',$,(#227,#228,#229,#230,#231,#232,#233,#234));
#236=IFCRELDEFINESBYPROPERTIES('3gw22JguIZKv6DkCMxf$io',#6,$,$,(#13),#235);
#237=IFCPROPERTYSINGLEVALUE('InternalTaskId',$,IFCTEXT('task-muslkag36rjy6'),$);
#238=IFCPROPERTYSET('1ddZ5udI8o03EVDyl7rgSA',#6,'OPS_TaskIdentity',$,(#237));
#239=IFCRELDEFINESBYPROPERTIES('3khwAWSsNFcymvZn8ggYKz',#6,$,$,(#74),#238);
#240=IFCPROPERTYSINGLEVALUE('InternalTaskId',$,IFCTEXT('task-muslkag9qoez7'),$);
#241=IFCPROPERTYSET('0cApZS7aGHC_xsI_jOL9Rm',#6,'OPS_TaskIdentity',$,(#240));
#242=IFCRELDEFINESBYPROPERTIES('0IZb4K4d4M0C88cB4$A6_9',#6,$,$,(#76),#241);
#243=IFCPROPERTYSINGLEVALUE('InternalTaskId',$,IFCTEXT('task-muslkagep2358'),$);
#244=IFCPROPERTYSET('0qzmI0AqedsqeVlBySrptm',#6,'OPS_TaskIdentity',$,(#243));
#245=IFCRELDEFINESBYPROPERTIES('3kgXSF9UYxvoM8KVdfLL6c',#6,$,$,(#78),#244);
#246=IFCPROPERTYSINGLEVALUE('InternalTaskId',$,IFCTEXT('task-muslkaghwdj29'),$);
#247=IFCPROPERTYSET('0q26q4bnQdX151H7BhlJ4A',#6,'OPS_TaskIdentity',$,(#246));
#248=IFCRELDEFINESBYPROPERTIES('1dGDjpW2ZIOUSDUekhEaH5',#6,$,$,(#80),#247);
#249=IFCPROPERTYSINGLEVALUE('InternalTaskId',$,IFCTEXT('task-muslkaglpcn410'),$);
#250=IFCPROPERTYSET('10i5thPTBvqdKJ3RJrl6Zf',#6,'OPS_TaskIdentity',$,(#249));
#251=IFCRELDEFINESBYPROPERTIES('1T58Bxqzv_vaYhtU2kJjcm',#6,$,$,(#82),#250);
#252=IFCPROPERTYSINGLEVALUE('InternalTaskId',$,IFCTEXT('task-muslkagq60kn11'),$);
#253=IFCPROPERTYSET('1IyO75$4IO5xxRyAc$oN2k',#6,'OPS_TaskIdentity',$,(#252));
#254=IFCRELDEFINESBYPROPERTIES('0CoGY7KBWTrLhxWBosrHZG',#6,$,$,(#84),#253);
#255=IFCPROPERTYSINGLEVALUE('InternalTaskId',$,IFCTEXT('task-muslkagsoppn12'),$);
#256=IFCPROPERTYSET('2q9gP96IINup3Ytx08Y4YS',#6,'OPS_TaskIdentity',$,(#255));
#257=IFCRELDEFINESBYPROPERTIES('3GRUDuCevOQpG3Z_bHJzIt',#6,$,$,(#86),#256);
#258=IFCPROPERTYSINGLEVALUE('InternalTaskId',$,IFCTEXT('task-muslkagulkys13'),$);
#259=IFCPROPERTYSET('1_ioIXX5ARUIjgUqquhjrM',#6,'OPS_TaskIdentity',$,(#258));
#260=IFCRELDEFINESBYPROPERTIES('0SxiqxSwvy_MtnIJkqwXfW',#6,$,$,(#88),#259);
#261=IFCPROPERTYSINGLEVALUE('InternalTaskId',$,IFCTEXT('task-muslkagxluwf14'),$);
#262=IFCPROPERTYSET('1JrF2fu2KWQPt1NhQyfbU_',#6,'OPS_TaskIdentity',$,(#261));
#263=IFCRELDEFINESBYPROPERTIES('0CmRT9clOULusp$iXeB8lH',#6,$,$,(#90),#262);
#264=IFCPROPERTYSINGLEVALUE('InternalTaskId',$,IFCTEXT('task-muslkagz8fka15'),$);
#265=IFCPROPERTYSET('2mKJREIfDVmJmrIcfRE67Y',#6,'OPS_TaskIdentity',$,(#264));
#266=IFCRELDEFINESBYPROPERTIES('37$bBnkcVNoNDUDmQUToAj',#6,$,$,(#92),#265);
#267=IFCPROPERTYSINGLEVALUE('InternalTaskId',$,IFCTEXT('task-muslkah2fxtg16'),$);
#268=IFCPROPERTYSET('1esVtFeLOrARz1vnAJfiId',#6,'OPS_TaskIdentity',$,(#267));
#269=IFCRELDEFINESBYPROPERTIES('1ocR4ZAIimse$b3DokSO3o',#6,$,$,(#94),#268);
#270=IFCPROPERTYSINGLEVALUE('InternalTaskId',$,IFCTEXT('task-muslkah3mu6y17'),$);
#271=IFCPROPERTYSET('1z44RWYGc9Ni1wAd9izP57',#6,'OPS_TaskIdentity',$,(#270));
#272=IFCRELDEFINESBYPROPERTIES('0$_kCTR_Bdke92x$HKBIXO',#6,$,$,(#96),#271);
#273=IFCPROPERTYSINGLEVALUE('InternalTaskId',$,IFCTEXT('task-muslkah5veqy18'),$);
#274=IFCPROPERTYSET('0CRjEdci0r16O_3R83HuH7',#6,'OPS_TaskIdentity',$,(#273));
#275=IFCRELDEFINESBYPROPERTIES('3v8ZktnKABuYxVhlxyl4Lg',#6,$,$,(#98),#274);
#276=IFCPROPERTYSINGLEVALUE('InternalTaskId',$,IFCTEXT('task-muslkah7ru2719'),$);
#277=IFCPROPERTYSET('12ZhV0LCdK4UdxSMI3mGM0',#6,'OPS_TaskIdentity',$,(#276));
#278=IFCRELDEFINESBYPROPERTIES('2X33PJOZZXfpKponWYLsg6',#6,$,$,(#100),#277);
#279=IFCPROPERTYSINGLEVALUE('InternalTaskId',$,IFCTEXT('task-muslkah9or1t20'),$);
#280=IFCPROPERTYSET('0yHFQztLzl$gzfBap1G1j3',#6,'OPS_TaskIdentity',$,(#279));
#281=IFCRELDEFINESBYPROPERTIES('3_n9U3PDm5jN1bDcfmRqV9',#6,$,$,(#102),#280);
#282=IFCPROPERTYSINGLEVALUE('InternalTaskId',$,IFCTEXT('task-muslkahb6lzn21'),$);
#283=IFCPROPERTYSET('2mUyu0ptJLnUakYK2POr6C',#6,'OPS_TaskIdentity',$,(#282));
#284=IFCRELDEFINESBYPROPERTIES('3mMteD2SwkyAkazBdMyZdy',#6,$,$,(#104),#283);
#285=IFCPROPERTYSINGLEVALUE('InternalTaskId',$,IFCTEXT('task-muslkahcj0rd22'),$);
#286=IFCPROPERTYSET('0$q3rdz4MJz1k5uGZE9$lY',#6,'OPS_TaskIdentity',$,(#285));
#287=IFCRELDEFINESBYPROPERTIES('1c$TV1kkoIiFx1izvCwQsj',#6,$,$,(#106),#286);
#288=IFCPROPERTYSINGLEVALUE('InternalTaskId',$,IFCTEXT('task-muslkahe2h3h23'),$);
#289=IFCPROPERTYSET('13ZiZie1k3yhMREX7MRcft',#6,'OPS_TaskIdentity',$,(#288));
#290=IFCRELDEFINESBYPROPERTIES('2WDgjRPZZzCy0Fi65QJMDu',#6,$,$,(#108),#289);
#291=IFCPROPERTYSINGLEVALUE('InternalTaskId',$,IFCTEXT('task-muslkahgyf9r24'),$);
#292=IFCPROPERTYSET('07pyjxpJCvbvbsLmmNnXns',#6,'OPS_TaskIdentity',$,(#291));
#293=IFCRELDEFINESBYPROPERTIES('1e2KxaY551w5aVZ5vcWymX',#6,$,$,(#110),#292);
#294=IFCPROPERTYSINGLEVALUE('InternalTaskId',$,IFCTEXT('task-muslkahh53tg25'),$);
#295=IFCPROPERTYSET('2gc6rXx5EzAuAwOapSXi$y',#6,'OPS_TaskIdentity',$,(#294));
#296=IFCRELDEFINESBYPROPERTIES('0$vd7T47t2rE9XVSzh2VeV',#6,$,$,(#112),#295);
#297=IFCPROPERTYSINGLEVALUE('InternalTaskId',$,IFCTEXT('task-muslkahk25c526'),$);
#298=IFCPROPERTYSET('2Q$67Q8_d6QXbrC$KJ0vQ_',#6,'OPS_TaskIdentity',$,(#297));
#299=IFCRELDEFINESBYPROPERTIES('1Ry8hu1NhWUzogoelqyUcx',#6,$,$,(#114),#298);
#300=IFCPROPERTYSINGLEVALUE('InternalTaskId',$,IFCTEXT('task-muslkahlt93m27'),$);
#301=IFCPROPERTYSET('0OgvcSKDjAxGiGWysrYTVc',#6,'OPS_TaskIdentity',$,(#300));
#302=IFCRELDEFINESBYPROPERTIES('3MzXmegDkTshKXc2wK9Rzi',#6,$,$,(#116),#301);
#303=IFCPROPERTYSINGLEVALUE('InternalTaskId',$,IFCTEXT('task-muslkahnh3pp28'),$);
#304=IFCPROPERTYSET('339RpSvvzwP8ePdUaBlznf',#6,'OPS_TaskIdentity',$,(#303));
#305=IFCRELDEFINESBYPROPERTIES('0tgKXcOq_uiLpDFkZqThKp',#6,$,$,(#118),#304);
#306=IFCPROPERTYSINGLEVALUE('InternalTaskId',$,IFCTEXT('task-muslkahpd8k929'),$);
#307=IFCPROPERTYSET('3vb6FrScNHFhTXQ4zhZOkK',#6,'OPS_TaskIdentity',$,(#306));
#308=IFCRELDEFINESBYPROPERTIES('2GdS$6VEXQz1ZeQl8wX_qU',#6,$,$,(#120),#307);
#309=IFCPROPERTYSINGLEVALUE('InternalTaskId',$,IFCTEXT('task-muslkahrytrb30'),$);
#310=IFCPROPERTYSET('0nklZ3ioLD_atccMeaue_R',#6,'OPS_TaskIdentity',$,(#309));
#311=IFCRELDEFINESBYPROPERTIES('3ur0YUJ9J$RkEQtrAXDv5m',#6,$,$,(#122),#310);
#312=IFCPROPERTYSINGLEVALUE('InternalTaskId',$,IFCTEXT('task-muslkaht6kd731'),$);
#313=IFCPROPERTYSET('2nODleTGknxaBrgOgAwapl',#6,'OPS_TaskIdentity',$,(#312));
#314=IFCRELDEFINESBYPROPERTIES('2epwKghzAZQz6u6KRoy1Ur',#6,$,$,(#124),#313);
#315=IFCPROPERTYSINGLEVALUE('InternalTaskId',$,IFCTEXT('task-muslkahvjioc32'),$);
#316=IFCPROPERTYSET('2AV3YSA53S_UL0P5YlL7H4',#6,'OPS_TaskIdentity',$,(#315));
#317=IFCRELDEFINESBYPROPERTIES('24wTnZ90z3yH6$UwxCFOYC',#6,$,$,(#126),#316);
#318=IFCPROPERTYSINGLEVALUE('ConstraintType',$,IFCLABEL('SNET'),$);
#319=IFCPROPERTYSINGLEVALUE('ConstraintDate',$,IFCDATE('2027-07-14'),$);
#320=IFCPROPERTYSET('1p69jNg2LJrDJPy99TLjaS',#6,'OPS_Constraints',$,(#318,#319));
#321=IFCRELDEFINESBYPROPERTIES('2TMWbvoeppqjORsef8QsfG',#6,$,$,(#110),#320);
#322=IFCPROPERTYSINGLEVALUE('Deadline',$,IFCDATE('2027-09-10'),$);
#323=IFCPROPERTYSET('0aq3Mq3jcDIbiqLrd2Ywdd',#6,'OPS_Constraints',$,(#322));
#324=IFCRELDEFINESBYPROPERTIES('0NEpBkONeo$00WTZXnigvc',#6,$,$,(#126),#323);
#325=IFCPROPERTYSINGLEVALUE('MilestoneKind',$,IFCLABEL('START'),$);
#326=IFCPROPERTYSET('2kGmMnFGIo79xujpe6kQRm',#6,'OPS_Milestone',$,(#325));
#327=IFCRELDEFINESBYPROPERTIES('3pCIkoeTnFfO_usGfkXFOI',#6,$,$,(#82),#326);
#328=IFCPROPERTYSINGLEVALUE('MilestoneKind',$,IFCLABEL('FINISH'),$);
#329=IFCPROPERTYSINGLEVALUE('Mandatory',$,IFCBOOLEAN(.T.),$);
#330=IFCPROPERTYSET('15zRdSwZFZLC9$iIhLn7_m',#6,'OPS_Milestone',$,(#328,#329));
#331=IFCRELDEFINESBYPROPERTIES('1ICRHzBu4zKGv_b8RGTZnl',#6,$,$,(#94),#330);
#332=IFCPROPERTYSINGLEVALUE('MilestoneKind',$,IFCLABEL('FINISH'),$);
#333=IFCPROPERTYSET('1Q_eOZl2bXPJm4jbyIBxnO',#6,'OPS_Milestone',$,(#332));
#334=IFCRELDEFINESBYPROPERTIES('21fR1$CQUXNq8LsDjyZUDa',#6,$,$,(#126),#333);
#335=IFCPROPERTYSINGLEVALUE('LevelingDelay',$,IFCINTEGER(5),$);
#336=IFCPROPERTYSET('2ob7wKyg49nAvzO_ahRbVz',#6,'OPS_Leveling',$,(#335));
#337=IFCRELDEFINESBYPROPERTIES('23mmizIU1FpSPk_gMuIYXh',#6,$,$,(#104),#336);
#338=IFCPROPERTYSINGLEVALUE('WorkRule',$,IFCLABEL('FIXED_WORK'),$);
#339=IFCPROPERTYSET('1d43UIPy7RMzy1OR7$hedJ',#6,'OPS_WorkRule',$,(#338));
#340=IFCRELDEFINESBYPROPERTIES('0$HfQv6a9SBl2G2eIOn_pP',#6,$,$,(#116),#339);
#341=IFCPROPERTYSINGLEVALUE('Baselines',$,IFCTEXT('[{"id":"baseline-muslkaox7vim74","name":"Basisplanning","createdAt":"2026-10-03T16:19:12.033Z","tasks":[{"taskId":"task-muslkaglpcn410","start":"2027-06-07","finish":"2027-06-07","duration":0,"isMilestone":true,"milestoneKind":"START"},{"taskId":"task-muslkagq60kn11","start":"2027-06-07","finish":"2027-06-08","duration":2,"isMilestone":false},{"taskId":"task-muslkagsoppn12","start":"2027-06-09","finish":"2027-06-09","duration":1,"isMilestone":false},{"taskId":"task-muslkagulkys13","start":"2027-06-10","finish":"2027-06-10","duration":1,"isMilestone":false},{"taskId":"task-muslkagxluwf14","start":"2027-06-11","finish":"2027-06-14","duration":2,"isMilestone":false},{"taskId":"task-muslkagz8fka15","start":"2027-06-15","finish":"2027-06-17","duration":3,"isMilestone":false},{"taskId":"task-muslkah2fxtg16","start":"2027-06-17","finish":"2027-06-17","duration":0,"isMilestone":true,"milestoneKind":"FINISH"},{"taskId":"task-muslkah3mu6y17","start":"2027-06-18T07:00","finish":"2027-06-18T14:00","duration":0.75,"isMilestone":false},{"taskId":"task-muslkah5veqy18","start":"2027-06-24","finish":"2027-06-25","duration":2,"isMilestone":false},{"taskId":"task-muslkah7ru2719","start":"2027-06-28T07:00","finish":"2027-06-28T12:00","duration":0.625,"isMilestone":false},{"taskId":"task-muslkah9or1t20","start":"2027-06-29","finish":"2027-07-05","duration":5,"isMilestone":false},{"taskId":"task-muslkahb6lzn21","start":"2027-07-06","finish":"2027-07-13","duration":6,"isMilestone":false},{"taskId":"task-muslkahcj0rd22","start":"2027-07-06T07:00","finish":"2027-07-06T14:00","duration":0.75,"isMilestone":false},{"taskId":"task-muslkahe2h3h23","start":"2027-07-07","finish":"2027-07-08","duration":2,"isMilestone":false},{"taskId":"task-muslkahgyf9r24","start":"2027-07-14","finish":"2027-07-15","duration":2,"isMilestone":false},{"taskId":"task-muslkahh53tg25","start":"2027-07-16","finish":"2027-07-19","duration":2,"isMilestone":false},{"taskId":"task-muslkahk25c526","start":"2027-07-20","finish":"2027-07-22","duration":3,"isMilestone":false},{"taskId":"task-muslkahlt93m27","start":"2027-07-23","finish":"2027-07-26","duration":2,"isMilestone":false},{"taskId":"task-muslkahnh3pp28","start":"2027-07-27","finish":"2027-07-27","duration":1,"isMilestone":false},{"taskId":"task-muslkahpd8k929","start":"2027-08-25","finish":"2027-08-27","duration":3,"isMilestone":false},{"taskId":"task-muslkahrytrb30","start":"2027-07-27","finish":"2027-07-29","duration":3,"isMilestone":false},{"taskId":"task-muslkaht6kd731","start":"2027-08-30","finish":"2027-08-30","duration":1,"isMilestone":false},{"taskId":"task-muslkahvjioc32","start":"2027-08-30","finish":"2027-08-30","duration":0,"isMilestone":true,"milestoneKind":"FINISH"}],"projectEnd":"2027-08-30","projectDuration":46}]'),$);
#342=IFCPROPERTYSINGLEVALUE('TaskGuids',$,IFCTEXT('{"task-muslkaglpcn410":"000FIVq06qUrgjfUucDOC7","task-muslkagq60kn11":"3F0wKPKSEICGiAUNetBoSb","task-muslkagsoppn12":"1NWd6qrNi4_gnfsd_D2o87","task-muslkagulkys13":"0JwShj1Kc8kNhygH246NBU","task-muslkagxluwf14":"3_Gxqc78wbNv6dEO3w3zt_","task-muslkagz8fka15":"2lWA344WN4uWjwUYtiFY3q","task-muslkah2fxtg16":"21qfu0MkA27B0O1g9m5v6G","task-muslkah3mu6y17":"1kpcqp7r9dVd6XNix0Wgmt","task-muslkah5veqy18":"3SqFXFcWDdpjjlTuQwzrVT","task-muslkah7ru2719":"29AyGzAQ$RaxocVisZJ323","task-muslkah9or1t20":"04iHiVm7qAver9gfpDhB1p","task-muslkahb6lzn21":"2aU4LQaONxxiarpanIw7hv","task-muslkahcj0rd22":"0YB80SpJtvG61Fp5YbZUgc","task-muslkahe2h3h23":"0YZixEdsK300boD1rMDx4_","task-muslkahgyf9r24":"01UwmeTm7w9StUYYjW1cTL","task-muslkahh53tg25":"1XGu7k022T5mR76t2jv64p","task-muslkahk25c526":"2fu5phUVlnHZQTiDZWWNBE","task-muslkahlt93m27":"36hcK_97oScyFEeeM515CK","task-muslkahnh3pp28":"3_kS$9P9pPQtYnL7GQ0p4f","task-muslkahpd8k929":"3S2HJh07XcXulcCPrtaee7","task-muslkahrytrb30":"0EAklrmM0U4lnzmn2QhIiu","task-muslkaht6kd731":"1D4xyA5Fi5QsT5lB_iManZ","task-muslkahvjioc32":"0obHppC7$OGB7sB2_p8PfC"}'),$);
#343=IFCPROPERTYSINGLEVALUE('ActiveBaselineId',$,IFCTEXT('baseline-muslkaox7vim74'),$);
#344=IFCPROPERTYSET('0LSjL4yD6bDZGNPL4YeeJR',#6,'OPS_Baselines',$,(#341,#342,#343));
#345=IFCRELDEFINESBYPROPERTIES('3PLNFc8jMtP9iIFalD49T2',#6,$,$,(#70),#344);
ENDSEC;
END-ISO-10303-21;
