ISO-10303-21;
HEADER;
FILE_DESCRIPTION(('ViewDefinition [SchedulingView]'),'2;1');
FILE_NAME('Aanbouw woning.ifc','2026-10-02T16:16:35',('Open Planner Studio'),('OpenAEC Foundation'),'Open Planner Studio 0.1','Open Planner Studio','');
FILE_SCHEMA(('IFC4X3'));
ENDSEC;
DATA;
#1=IFCPERSON($,$,$,$,$,$,$,$);
#2=IFCORGANIZATION($,$,$,$,$);
#3=IFCPERSONANDORGANIZATION(#1,#2,$);
#4=IFCORGANIZATION($,'OpenAEC Foundation',$,$,$);
#5=IFCAPPLICATION(#4,'0.2','Open Planner Studio','OPS');
#6=IFCOWNERHISTORY(#3,#5,$,.NOCHANGE.,$,$,$,1790957795);
#7=IFCSIUNIT(*,.LENGTHUNIT.,$,.METRE.);
#8=IFCSIUNIT(*,.TIMEUNIT.,$,.SECOND.);
#9=IFCUNITASSIGNMENT((#7,#8));
#10=IFCCARTESIANPOINT((0.,0.,0.));
#11=IFCAXIS2PLACEMENT3D(#10,$,$);
#12=IFCGEOMETRICREPRESENTATIONCONTEXT($,'Plan',3,1.0E-05,#11,$);
#13=IFCPROJECT('2iATCzrpOhySm7AG6OMOd8',#6,'Aanbouw woning','Uitbouw van 4 bij 5 meter aan de achtergevel van een eengezinswoning \X2\2014\X0\ het oefenproject van de tutorials.',$,$,$,(#12),#9);
#14=IFCTIMEPERIOD('07:00:00','12:00:00');
#15=IFCTIMEPERIOD('13:00:00','16:00:00');
#16=IFCRECURRENCEPATTERN(.WEEKLY.,$,(1,2,3,4,5),$,$,$,$,(#14,#15));
#17=IFCWORKTIME('Standard work week',.PREDICTED.,$,#16,$,$);
#18=IFCWORKTIME('Nieuwjaar',.PREDICTED.,$,$,'2026-01-01','2026-01-01');
#19=IFCWORKTIME('Goede Vrijdag',.PREDICTED.,$,$,'2026-04-03','2026-04-03');
#20=IFCWORKTIME('Pasen',.PREDICTED.,$,$,'2026-04-05','2026-04-06');
#21=IFCWORKTIME('Koningsdag',.PREDICTED.,$,$,'2026-04-27','2026-04-27');
#22=IFCWORKTIME('Hemelvaart',.PREDICTED.,$,$,'2026-05-14','2026-05-14');
#23=IFCWORKTIME('Pinksteren',.PREDICTED.,$,$,'2026-05-24','2026-05-25');
#24=IFCWORKTIME('Bouwvak (Midden)',.PREDICTED.,$,$,'2026-08-03','2026-08-21');
#25=IFCWORKTIME('Kerst',.PREDICTED.,$,$,'2026-12-25','2026-12-26');
#26=IFCWORKTIME('Nieuwjaar',.PREDICTED.,$,$,'2027-01-01','2027-01-01');
#27=IFCWORKTIME('Goede Vrijdag',.PREDICTED.,$,$,'2027-03-26','2027-03-26');
#28=IFCWORKTIME('Pasen',.PREDICTED.,$,$,'2027-03-28','2027-03-29');
#29=IFCWORKTIME('Koningsdag',.PREDICTED.,$,$,'2027-04-27','2027-04-27');
#30=IFCWORKTIME('Hemelvaart',.PREDICTED.,$,$,'2027-05-06','2027-05-06');
#31=IFCWORKTIME('Pinksteren',.PREDICTED.,$,$,'2027-05-16','2027-05-17');
#32=IFCWORKTIME('Bouwvak (Midden)',.PREDICTED.,$,$,'2027-08-02','2027-08-20');
#33=IFCWORKTIME('Kerst',.PREDICTED.,$,$,'2027-12-25','2027-12-26');
#34=IFCWORKTIME('Nieuwjaar',.PREDICTED.,$,$,'2028-01-01','2028-01-01');
#35=IFCWORKTIME('Goede Vrijdag',.PREDICTED.,$,$,'2028-04-14','2028-04-14');
#36=IFCWORKTIME('Pasen',.PREDICTED.,$,$,'2028-04-16','2028-04-17');
#37=IFCWORKTIME('Koningsdag',.PREDICTED.,$,$,'2028-04-27','2028-04-27');
#38=IFCWORKTIME('Hemelvaart',.PREDICTED.,$,$,'2028-05-25','2028-05-25');
#39=IFCWORKTIME('Pinksteren',.PREDICTED.,$,$,'2028-06-04','2028-06-05');
#40=IFCWORKTIME('Bouwvak (Midden)',.PREDICTED.,$,$,'2028-07-24','2028-08-11');
#41=IFCWORKTIME('Kerst',.PREDICTED.,$,$,'2028-12-25','2028-12-26');
#42=IFCWORKTIME('Nieuwjaar',.PREDICTED.,$,$,'2029-01-01','2029-01-01');
#43=IFCWORKTIME('Goede Vrijdag',.PREDICTED.,$,$,'2029-03-30','2029-03-30');
#44=IFCWORKTIME('Pasen',.PREDICTED.,$,$,'2029-04-01','2029-04-02');
#45=IFCWORKTIME('Koningsdag',.PREDICTED.,$,$,'2029-04-27','2029-04-27');
#46=IFCWORKTIME('Hemelvaart',.PREDICTED.,$,$,'2029-05-10','2029-05-10');
#47=IFCWORKTIME('Pinksteren',.PREDICTED.,$,$,'2029-05-20','2029-05-21');
#48=IFCWORKTIME('Bouwvak (Midden)',.PREDICTED.,$,$,'2029-07-30','2029-08-17');
#49=IFCWORKTIME('Kerst',.PREDICTED.,$,$,'2029-12-25','2029-12-26');
#50=IFCWORKTIME('Nieuwjaar',.PREDICTED.,$,$,'2030-01-01','2030-01-01');
#51=IFCWORKTIME('Goede Vrijdag',.PREDICTED.,$,$,'2030-04-19','2030-04-19');
#52=IFCWORKTIME('Pasen',.PREDICTED.,$,$,'2030-04-21','2030-04-22');
#53=IFCWORKTIME('Koningsdag',.PREDICTED.,$,$,'2030-04-27','2030-04-27');
#54=IFCWORKTIME('Bevrijdingsdag',.PREDICTED.,$,$,'2030-05-05','2030-05-05');
#55=IFCWORKTIME('Hemelvaart',.PREDICTED.,$,$,'2030-05-30','2030-05-30');
#56=IFCWORKTIME('Pinksteren',.PREDICTED.,$,$,'2030-06-09','2030-06-10');
#57=IFCWORKTIME('Bouwvak (Midden)',.PREDICTED.,$,$,'2030-07-29','2030-08-16');
#58=IFCWORKTIME('Kerst',.PREDICTED.,$,$,'2030-12-25','2030-12-26');
#59=IFCWORKCALENDAR('031n5Kd5ccrNfv_BL3Nizq',#6,'Bouwkalender NL','Standaard bouwkalender: ma-vr 07:00-16:00',$,(#17),(#18,#19,#20,#21,#22,#23,#24,#25,#26,#27,#28,#29,#30,#31,#32,#33,#34,#35,#36,#37,#38,#39,#40,#41,#42,#43,#44,#45,#46,#47,#48,#49,#50,#51,#52,#53,#54,#55,#56,#57,#58),.FIRSTSHIFT.);
#60=IFCPROPERTYSINGLEVALUE('RuleSetId',$,IFCLABEL('NL'),$);
#61=IFCPROPERTYSINGLEVALUE('BreakChoice',$,IFCLABEL('midden'),$);
#62=IFCPROPERTYSINGLEVALUE('GeneratedFromYear',$,IFCINTEGER(2026),$);
#63=IFCPROPERTYSINGLEVALUE('GeneratedToYear',$,IFCINTEGER(2030),$);
#64=IFCPROPERTYSINGLEVALUE('HoursPerDay',$,IFCREAL(8),$);
#65=IFCPROPERTYSINGLEVALUE('WorkEndHour',$,IFCREAL(16),$);
#66=IFCPROPERTYSINGLEVALUE('IsHourCalendar',$,IFCBOOLEAN(.F.),$);
#67=IFCPROPERTYSET('03T9Z0Pk2L9w7BA3xRO_q1',#6,'OPS_Calendar',$,(#60,#61,#62,#63,#64,#65,#66));
#68=IFCRELDEFINESBYPROPERTIES('2h50UNxs6PwQMs2CT9itNj',#6,$,$,(#59),#67);
#69=IFCWORKPLAN('3WLPrwBmL6X_0LMhTRdJvq',#6,'Aanbouw woning','Uitbouw van 4 bij 5 meter aan de achtergevel van een eengezinswoning \X2\2014\X0\ het oefenproject van de tutorials.',$,$,'2026-10-02T16:16:35',$,$,$,$,$,'2027-06-07T07:00:00','2027-06-14T07:00:00',.PLANNED.);
#70=IFCWORKSCHEDULE('3JPl$qdzR47v_HLrjjfPv$',#6,'Construction schedule v1.0',$,$,$,'2026-10-02T16:16:35',$,$,$,$,$,'2027-06-07T07:00:00','2027-06-14T07:00:00',.PLANNED.);
#71=IFCRELAGGREGATES('0o9Xd7w_36oi9kype1W67a',#6,$,$,#69,(#70));
#72=IFCTASKTIME('Voorbereiding Time',.PREDICTED.,$,.WORKTIME.,'P0Y0M4D','2027-06-07T07:00:00','2027-06-11T07:00:00','2027-06-07T07:00:00','2027-06-10T07:00:00','2027-06-10T07:00:00','2027-06-15T07:00:00','P0Y0M0D','P0Y0M3D',.F.,$,$,$,$,$,0.00);
#73=IFCTASK('2x_RPVe6geWkGxqn6Y7frl',#6,'Voorbereiding',$,$,'1',$,$,$,.F.,$,#72,.CONSTRUCTION.);
#74=IFCTASKTIME('Fundering Time',.PREDICTED.,$,.WORKTIME.,'P0Y0M12D','2027-06-07T07:00:00','2027-06-11T07:00:00','2027-06-11T07:00:00','2027-06-28T12:00','2027-06-16T07:00:00','2027-07-01T16:00','P0Y0M0D','P0Y0M3D',.F.,$,$,$,$,$,0.00);
#75=IFCTASK('2kF5BUUw3S$M$TCgXddkZt',#6,'Fundering',$,$,'2',$,$,$,.F.,$,#74,.CONSTRUCTION.);
#76=IFCTASKTIME('Ruwbouw Time',.PREDICTED.,$,.WORKTIME.,'P0Y0M15D','2027-06-07T07:00:00','2027-06-11T07:00:00','2027-06-29T07:00:00','2027-07-19T07:00:00','2027-07-02T07:00:00','2027-07-19T07:00:00','P0Y0M0D','P0Y0M0D',.T.,$,$,$,$,$,0.00);
#77=IFCTASK('1QQmQc8YdYHq7IouacRRds',#6,'Ruwbouw',$,$,'3',$,$,$,.F.,$,#76,.CONSTRUCTION.);
#78=IFCTASKTIME('Afbouw Time',.PREDICTED.,$,.WORKTIME.,'P0Y0M17D','2027-06-07T07:00:00','2027-06-11T07:00:00','2027-07-20T07:00:00','2027-09-01T07:00:00','2027-07-20T07:00:00','2027-09-01T07:00:00','P0Y0M0D','P0Y0M0D',.T.,$,$,$,$,$,0.00);
#79=IFCTASK('3O7JQs4XCcChmMbPVGjLux',#6,'Afbouw',$,$,'4',$,$,$,.F.,$,#78,.CONSTRUCTION.);
#80=IFCTASKTIME('Start bouw Time',.PREDICTED.,$,.WORKTIME.,'P0Y0M0D','2027-06-07T07:00:00','2027-06-07T07:00:00','2027-06-07T07:00:00','2027-06-07T07:00:00','2027-06-10T07:00:00','2027-06-10T07:00:00','P0Y0M0D','P0Y0M3D',.F.,$,$,$,$,$,0.00);
#81=IFCTASK('3LxheE8sK5Z_Tt3BsqD85k',#6,'Start bouw',$,$,'1.1',$,$,$,.T.,$,#80,.USERDEFINED.);
#82=IFCTASKTIME('Bouwplaats inrichten Time',.PREDICTED.,$,.WORKTIME.,'P0Y0M2D','2027-06-07T07:00:00','2027-06-08T07:00:00','2027-06-07T07:00:00','2027-06-08T07:00:00','2027-06-10T07:00:00','2027-06-11T07:00:00','P0Y0M0D','P0Y0M3D',.F.,$,$,$,$,$,0.00);
#83=IFCTASK('1sxIl4B7Dci0N9fieattVD',#6,'Bouwplaats inrichten',$,$,'1.2',$,$,$,.F.,$,#82,.CONSTRUCTION.);
#84=IFCTASKTIME('Tuin en bestrating verwijderen Time',.PREDICTED.,$,.WORKTIME.,'P0Y0M1D','2027-06-07T07:00:00','2027-06-07T07:00:00','2027-06-09T07:00:00','2027-06-09T07:00:00','2027-06-14T07:00:00','2027-06-14T07:00:00','P0Y0M0D','P0Y0M3D',.F.,$,$,$,$,$,0.00);
#85=IFCTASK('1njzZsQWJP8dWE3QjUMgM0',#6,'Tuin en bestrating verwijderen',$,$,'1.3',$,$,$,.F.,$,#84,.CONSTRUCTION.);
#86=IFCTASKTIME('Aanbouw uitzetten Time',.PREDICTED.,$,.WORKTIME.,'P0Y0M1D','2027-06-07T07:00:00','2027-06-07T07:00:00','2027-06-10T07:00:00','2027-06-10T07:00:00','2027-06-15T07:00:00','2027-06-15T07:00:00','P0Y0M0D','P0Y0M3D',.F.,$,$,$,$,$,0.00);
#87=IFCTASK('1jfNMMaPqDJ6pWGbyRse1T',#6,'Aanbouw uitzetten',$,$,'1.4',$,$,$,.F.,$,#86,.CONSTRUCTION.);
#88=IFCTASKTIME('Funderingssleuf ontgraven Time',.PREDICTED.,$,.WORKTIME.,'P0Y0M2D','2027-06-07T07:00:00','2027-06-08T07:00:00','2027-06-11T07:00:00','2027-06-14T07:00:00','2027-06-16T07:00:00','2027-06-17T07:00:00','P0Y0M0D','P0Y0M3D',.F.,$,$,$,$,$,0.00);
#89=IFCTASK('36jpoc6DuJAxWJP3PBG39R',#6,'Funderingssleuf ontgraven',$,$,'2.1',$,$,$,.F.,$,#88,.CONSTRUCTION.);
#90=IFCTASKTIME('Wapening en bekisting fundering Time',.PREDICTED.,$,.WORKTIME.,'P0Y0M3D','2027-06-07T07:00:00','2027-06-09T07:00:00','2027-06-15T07:00:00','2027-06-17T07:00:00','2027-06-18T07:00:00','2027-06-22T07:00:00','P0Y0M0D','P0Y0M3D',.F.,$,$,$,$,$,0.00);
#91=IFCTASK('1LBIlgcyZxLOLq0wAR2Hlq',#6,'Wapening en bekisting fundering',$,$,'2.2',$,$,$,.F.,$,#90,.CONSTRUCTION.);
#92=IFCTASKTIME('Inspectie wapening Time',.PREDICTED.,$,.WORKTIME.,'P0Y0M0D','2027-06-07T07:00:00','2027-06-07T07:00:00','2027-06-17T07:00:00','2027-06-17T07:00:00','2027-06-22T07:00:00','2027-06-22T07:00:00','P0Y0M0D','P0Y0M3D',.F.,$,$,$,$,$,0.00);
#93=IFCTASK('2wniCz6KDrMFFir0lOXTsl',#6,'Inspectie wapening',$,$,'2.3',$,$,$,.T.,$,#92,.ATTENDANCE.);
#94=IFCTASKTIME('Fundering storten Time',.PREDICTED.,$,.WORKTIME.,'PT6H0M0S','2027-06-07T00:00:00','2027-06-07T14:00:00','2027-06-18T07:00:00','2027-06-18T14:00:00','2027-06-23T09:00:00','2027-06-23T16:00:00','P0Y0M0D','P0Y0M3.25D',.F.,$,$,$,$,$,0.00);
#95=IFCTASK('0pUcr_EeE0RlTnmdmbJP7c',#6,'Fundering storten',$,$,'2.4',$,$,$,.F.,$,#94,.CONSTRUCTION.);
#96=IFCTASKTIME('Funderingsmetselwerk Time',.PREDICTED.,$,.WORKTIME.,'P0Y0M2D','2027-06-07T07:00:00','2027-06-08T07:00:00','2027-06-24T07:00:00','2027-06-25T07:00:00','2027-06-29T07:00:00','2027-06-30T07:00:00','P0Y0M0D','P0Y0M3D',.F.,$,$,$,$,$,0.00);
#97=IFCTASK('2gZp$KEbLz1_UVn1G6qdT2',#6,'Funderingsmetselwerk',$,$,'2.5',$,$,$,.F.,$,#96,.CONSTRUCTION.);
#98=IFCTASKTIME('Kanaalplaatvloer leggen Time',.PREDICTED.,$,.WORKTIME.,'PT5H0M0S','2027-06-07T00:00:00','2027-06-07T12:00:00','2027-06-28T07:00:00','2027-06-28T12:00:00','2027-07-01T10:00:00','2027-07-01T16:00:00','P0Y0M0D','P0Y0M3.375D',.F.,$,$,$,$,$,0.00);
#99=IFCTASK('2IUk$vOfJp9Fif27po6wnD',#6,'Kanaalplaatvloer leggen',$,$,'2.6',$,$,$,.F.,$,#98,.CONSTRUCTION.);
#100=IFCTASKTIME('Binnenspouwblad metselen Time',.PREDICTED.,$,.WORKTIME.,'P0Y0M5D','2027-06-07T07:00:00','2027-06-11T07:00:00','2027-06-29T07:00:00','2027-07-05T07:00:00','2027-07-02T07:00:00','2027-07-08T07:00:00','P0Y0M0D','P0Y0M3D',.F.,$,$,$,$,$,0.00);
#101=IFCTASK('3EzuBhTc2asydLPcNExYfl',#6,'Binnenspouwblad metselen',$,$,'3.1',$,$,$,.F.,$,#100,.CONSTRUCTION.);
#102=IFCTASKTIME('Buitenspouwblad metselen Time',.PREDICTED.,$,.WORKTIME.,'P0Y0M6D','2027-06-07T07:00:00','2027-06-14T07:00:00','2027-06-29T07:00:00','2027-07-06T07:00:00','2027-07-06T07:00:00','2027-07-13T07:00:00','P0Y0M5D','P0Y0M5D',.F.,$,$,$,$,$,0.00);
#103=IFCTASK('108abprtB5njztsKnayzA_',#6,'Buitenspouwblad metselen',$,$,'3.2',$,$,$,.F.,$,#102,.CONSTRUCTION.);
#104=IFCTASKTIME('Dakelementen plaatsen Time',.PREDICTED.,$,.WORKTIME.,'PT6H0M0S','2027-06-07T00:00:00','2027-06-07T14:00:00','2027-07-06T07:00:00','2027-07-06T14:00:00','2027-07-09T09:00:00','2027-07-09T16:00:00','P0Y0M0D','P0Y0M3.25D',.F.,$,$,$,$,$,0.00);
#105=IFCTASK('0FzdBsYe_lUJaIjnDVUQTq',#6,'Dakelementen plaatsen',$,$,'3.3',$,$,$,.F.,$,#104,.CONSTRUCTION.);
#106=IFCTASKTIME('Dakbedekking aanbrengen Time',.PREDICTED.,$,.WORKTIME.,'P0Y0M2D','2027-06-07T07:00:00','2027-06-08T07:00:00','2027-07-07T07:00:00','2027-07-08T07:00:00','2027-07-12T07:00:00','2027-07-13T07:00:00','P0Y0M3D','P0Y0M3D',.F.,$,$,$,$,$,0.00);
#107=IFCTASK('2iDBTGcL4A9fOD$$7R4K8M',#6,'Dakbedekking aanbrengen',$,$,'3.4',$,$,$,.F.,$,#106,.CONSTRUCTION.);
#108=IFCTASKTIME('Kozijnen plaatsen Time',.PREDICTED.,$,.WORKTIME.,'P0Y0M2D','2027-06-07T07:00:00','2027-06-08T07:00:00','2027-07-14T07:00:00','2027-07-15T07:00:00','2027-07-14T07:00:00','2027-07-15T07:00:00','P0Y0M0D','P0Y0M0D',.T.,$,$,$,$,$,0.00);
#109=IFCTASK('25gfqAoQVwSxN$tfXBPHd3',#6,'Kozijnen plaatsen',$,$,'3.5',$,$,$,.F.,$,#108,.CONSTRUCTION.);
#110=IFCTASKTIME('Achtergevel doorbreken Time',.PREDICTED.,$,.WORKTIME.,'P0Y0M2D','2027-06-07T07:00:00','2027-06-08T07:00:00','2027-07-16T07:00:00','2027-07-19T07:00:00','2027-07-16T07:00:00','2027-07-19T07:00:00','P0Y0M0D','P0Y0M0D',.T.,$,$,$,$,$,0.00);
#111=IFCTASK('2bf6SdcxAbOtxEn3EG_ifY',#6,'Achtergevel doorbreken',$,$,'3.6',$,$,$,.F.,$,#110,.CONSTRUCTION.);
#112=IFCTASKTIME('Installaties aanleggen Time',.PREDICTED.,$,.WORKTIME.,'P0Y0M3D','2027-06-07T07:00:00','2027-06-09T07:00:00','2027-07-20T07:00:00','2027-07-22T07:00:00','2027-07-20T07:00:00','2027-07-22T07:00:00','P0Y0M0D','P0Y0M0D',.T.,$,$,$,$,$,0.00);
#113=IFCTASK('3PPH0X3kNCk3bJ1J5I5rHv',#6,'Installaties aanleggen',$,$,'4.1',$,$,$,.F.,$,#112,.CONSTRUCTION.);
#114=IFCTASKTIME('Stucwerk Time',.PREDICTED.,$,.WORKTIME.,'P0Y0M4D','2027-06-07T07:00:00','2027-06-10T07:00:00','2027-07-23T07:00:00','2027-07-28T07:00:00','2027-07-23T07:00:00','2027-07-28T07:00:00','P0Y0M0D','P0Y0M0D',.T.,$,$,$,$,$,0.00);
#115=IFCTASK('1HBaapte$pgH4M0dpMO3Tj',#6,'Stucwerk',$,$,'4.2',$,$,$,.F.,$,#114,.CONSTRUCTION.);
#116=IFCTASKTIME('Dekvloer aanbrengen Time',.PREDICTED.,$,.WORKTIME.,'P0Y0M1D','2027-06-07T07:00:00','2027-06-07T07:00:00','2027-07-29T07:00:00','2027-07-29T07:00:00','2027-07-29T07:00:00','2027-07-29T07:00:00','P0Y0M0D','P0Y0M0D',.T.,$,$,$,$,$,0.00);
#117=IFCTASK('0rc1XefAyF2fFFwqAPKjvZ',#6,'Dekvloer aanbrengen',$,$,'4.3',$,$,$,.F.,$,#116,.CONSTRUCTION.);
#118=IFCTASKTIME('Tegelwerk Time',.PREDICTED.,$,.WORKTIME.,'P0Y0M3D','2027-06-07T07:00:00','2027-06-09T07:00:00','2027-08-27T07:00:00','2027-08-31T07:00:00','2027-08-27T07:00:00','2027-08-31T07:00:00','P0Y0M0D','P0Y0M0D',.T.,$,$,$,$,$,0.00);
#119=IFCTASK('3LsWJEQykHLCiugoHy5txU',#6,'Tegelwerk',$,$,'4.4',$,$,$,.F.,$,#118,.CONSTRUCTION.);
#120=IFCTASKTIME('Schilderwerk Time',.PREDICTED.,$,.WORKTIME.,'P0Y0M3D','2027-06-07T07:00:00','2027-06-09T07:00:00','2027-07-29T07:00:00','2027-08-23T07:00:00','2027-08-27T07:00:00','2027-08-31T07:00:00','P0Y0M6D','P0Y0M6D',.F.,$,$,$,$,$,0.00);
#121=IFCTASK('2LVYaqbDKaBHWwtrWj8fc0',#6,'Schilderwerk',$,$,'4.5',$,$,$,.F.,$,#120,.CONSTRUCTION.);
#122=IFCTASKTIME('Opleverpunten en schoonmaken Time',.PREDICTED.,$,.WORKTIME.,'P0Y0M1D','2027-06-07T07:00:00','2027-06-07T07:00:00','2027-09-01T07:00:00','2027-09-01T07:00:00','2027-09-01T07:00:00','2027-09-01T07:00:00','P0Y0M0D','P0Y0M0D',.T.,$,$,$,$,$,0.00);
#123=IFCTASK('0rsso_h6iv12v$Dj0$GSPx',#6,'Opleverpunten en schoonmaken',$,$,'4.6',$,$,$,.F.,$,#122,.CONSTRUCTION.);
#124=IFCTASKTIME('Oplevering Time',.PREDICTED.,$,.WORKTIME.,'P0Y0M0D','2027-06-07T07:00:00','2027-06-07T07:00:00','2027-09-01T07:00:00','2027-09-01T07:00:00','2027-09-01T07:00:00','2027-09-01T07:00:00','P0Y0M0D','P0Y0M0D',.T.,$,$,$,$,$,0.00);
#125=IFCTASK('1_3MrzyGR_gnXE_wVZoXYf',#6,'Oplevering',$,$,'4.7',$,$,$,.T.,$,#124,.USERDEFINED.);
#126=IFCRELNESTS('2G6sLu$GOFE_ov1qX3r77U',#6,'WBS Voorbereiding',$,#73,( #81,#83,#85,#87));
#127=IFCRELNESTS('345X6YyNc_KkB1cIxwrtM_',#6,'WBS Fundering',$,#75,( #89,#91,#93,#95,#97,#99));
#128=IFCRELNESTS('0CVLGe7ICheiakNBJaH$nc',#6,'WBS Ruwbouw',$,#77,( #101,#103,#105,#107,#109,#111));
#129=IFCRELNESTS('1r3vVTBIbOGVPfgfPR1Oe4',#6,'WBS Afbouw',$,#79,( #113,#115,#117,#119,#121,#123,#125));
#130=IFCRELNESTS('2k7uWJAlyVoMNPuvywMuDA',#6,'WBS Hoofd',$,#70,(#73,#75,#77,#79));
#131=IFCRELSEQUENCE('3sp6YBkxi6U8_f484pWUFH',#6,$,$,#81,#83,$,.FINISH_START.,$);
#132=IFCRELSEQUENCE('0HI6qzFozEk2EnAw37_3zt',#6,$,$,#83,#85,$,.FINISH_START.,$);
#133=IFCRELSEQUENCE('2pyz0nboqIKmjsF04IlKeh',#6,$,$,#85,#87,$,.FINISH_START.,$);
#134=IFCRELSEQUENCE('2vfOABLWiX8Xv_QoqRhPzc',#6,$,$,#87,#89,$,.FINISH_START.,$);
#135=IFCRELSEQUENCE('0ubF7eXim0kH7d1yx9JXLo',#6,$,$,#89,#91,$,.FINISH_START.,$);
#136=IFCRELSEQUENCE('0X$woHRxOIzHZelO6PF0zH',#6,$,$,#91,#93,$,.FINISH_START.,$);
#137=IFCRELSEQUENCE('0OdDd4iJL3gB74NtEylxb0',#6,$,$,#93,#95,$,.FINISH_START.,$);
#138=IFCLAGTIME('Lag',.PREDICTED.,$,IFCDURATION('P3D'),.WORKTIME.);
#139=IFCRELSEQUENCE('1EInA0nQ7MJ3UGoNrFQA_d',#6,$,$,#95,#97,#138,.FINISH_START.,$);
#140=IFCRELSEQUENCE('0nmGAMANd6R5e$wl5VUhqb',#6,$,$,#97,#99,$,.FINISH_START.,$);
#141=IFCRELSEQUENCE('3Hsd0k92KL11PGuT7mmJ5A',#6,$,$,#99,#101,$,.FINISH_START.,$);
#142=IFCRELSEQUENCE('1bydVJsxquhEr2wF4UeO4q',#6,$,$,#99,#103,$,.FINISH_START.,$);
#143=IFCRELSEQUENCE('1dicSAynwz3QwMRwtcUmPk',#6,$,$,#101,#105,$,.FINISH_START.,$);
#144=IFCRELSEQUENCE('0d3UbdsWxK7_r4BjE6Qb2M',#6,$,$,#105,#107,$,.FINISH_START.,$);
#145=IFCRELSEQUENCE('0NgDpzZ01pPTJkLvEbqNsk',#6,$,$,#107,#109,$,.FINISH_START.,$);
#146=IFCRELSEQUENCE('28pyeHSbKZTis8pi3tKfxL',#6,$,$,#103,#109,$,.FINISH_START.,$);
#147=IFCRELSEQUENCE('2phxkOzqQIvFqE4P_4GOLU',#6,$,$,#109,#111,$,.FINISH_START.,$);
#148=IFCRELSEQUENCE('2njxO4jd8QaHylzVfDKy1U',#6,$,$,#111,#113,$,.FINISH_START.,$);
#149=IFCRELSEQUENCE('0ANXd5uFvfk0BQq6vURe87',#6,$,$,#113,#115,$,.FINISH_START.,$);
#150=IFCRELSEQUENCE('3Zm20jw8Gor$r4ES7z67KK',#6,$,$,#115,#117,$,.FINISH_START.,$);
#151=IFCRELSEQUENCE('0Nfv3lckf$VsldedFouqc6',#6,$,$,#115,#121,$,.FINISH_START.,$);
#152=IFCLAGTIME('Lag',.PREDICTED.,$,IFCDURATION('P5D'),.WORKTIME.);
#153=IFCRELSEQUENCE('1qNFqLh6GWMFyPOyXYeUHb',#6,$,$,#117,#119,#152,.FINISH_START.,$);
#154=IFCRELSEQUENCE('1ORSh$tW3Jpgbbd5G5Q9r1',#6,$,$,#119,#123,$,.FINISH_START.,$);
#155=IFCRELSEQUENCE('0yn3b5Jqzo9dCcuk$mfPb0',#6,$,$,#121,#123,$,.FINISH_START.,$);
#156=IFCRELSEQUENCE('07CzFM14xwk4YwdDZK1UPW',#6,$,$,#123,#125,$,.FINISH_START.,$);
#157=IFCRELASSIGNSTOCONTROL('20oKNeCSSRpK0OVHGEVLU$',#6,$,$,(#73,#75,#77,#79,#81,#83,#85,#87,#89,#91,#93,#95,#97,#99,#101,#103,#105,#107,#109,#111,#113,#115,#117,#119,#121,#123,#125),$,#70);
#158=IFCPROPERTYSINGLEVALUE('InternalProjectId',$,IFCTEXT('proj-mur612gv6qir4'),$);
#159=IFCPROPERTYSINGLEVALUE('wbsAutoNumber',$,IFCBOOLEAN(.T.),$);
#160=IFCPROPERTYSINGLEVALUE('DefaultTaskDurationUnit',$,IFCLABEL('days'),$);
#161=IFCPROPERTYSINGLEVALUE('ProjectStartDate',$,IFCDATE('2027-06-07'),$);
#162=IFCPROPERTYSINGLEVALUE('ProjectEndDate',$,$,$);
#163=IFCPROPERTYSINGLEVALUE('CreatedAt',$,IFCTEXT('2026-10-02T16:16:34.495Z'),$);
#164=IFCPROPERTYSINGLEVALUE('ModifiedAt',$,IFCTEXT('2026-10-02T16:16:34.495Z'),$);
#165=IFCPROPERTYSET('22_2bPrI21NDVE1j_YnSlA',#6,'OPS_ProjectSettings',$,(#158,#159,#160,#161,#162,#163,#164));
#166=IFCRELDEFINESBYPROPERTIES('1k2IZ1d4arF7TLSg$xiTp_',#6,$,$,(#13),#165);
#167=IFCPROPERTYSINGLEVALUE('InternalTaskId',$,IFCTEXT('task-mur612hlprog6'),$);
#168=IFCPROPERTYSET('2uom9FPtE3IBUYAvXV_RF1',#6,'OPS_TaskIdentity',$,(#167));
#169=IFCRELDEFINESBYPROPERTIES('3DcwXyJN8b4vloW5EqHFXf',#6,$,$,(#73),#168);
#170=IFCPROPERTYSINGLEVALUE('InternalTaskId',$,IFCTEXT('task-mur612i13lm57'),$);
#171=IFCPROPERTYSET('1iNUuS5_MSlmLeV7hI$dk_',#6,'OPS_TaskIdentity',$,(#170));
#172=IFCRELDEFINESBYPROPERTIES('0ROHMQbDXOdyj_R27QmrQ4',#6,$,$,(#75),#171);
#173=IFCPROPERTYSINGLEVALUE('InternalTaskId',$,IFCTEXT('task-mur612i4jsgq8'),$);
#174=IFCPROPERTYSET('2nvmCf9n1WaYdYWD24gk41',#6,'OPS_TaskIdentity',$,(#173));
#175=IFCRELDEFINESBYPROPERTIES('3fXeKfNMRIxoEzqYB7ilnc',#6,$,$,(#77),#174);
#176=IFCPROPERTYSINGLEVALUE('InternalTaskId',$,IFCTEXT('task-mur612i780mp9'),$);
#177=IFCPROPERTYSET('3AAPiGZkwIo1w1xnRdGk4C',#6,'OPS_TaskIdentity',$,(#176));
#178=IFCRELDEFINESBYPROPERTIES('0cnJtsxdaAOhBrChRWs9RP',#6,$,$,(#79),#177);
#179=IFCPROPERTYSINGLEVALUE('InternalTaskId',$,IFCTEXT('task-mur612idev3d10'),$);
#180=IFCPROPERTYSET('1$RAr7CxaDtHJV6Z7VYXGV',#6,'OPS_TaskIdentity',$,(#179));
#181=IFCRELDEFINESBYPROPERTIES('32f2MNHNT0sj89aa8sT7F0',#6,$,$,(#81),#180);
#182=IFCPROPERTYSINGLEVALUE('InternalTaskId',$,IFCTEXT('task-mur612ikvxsc11'),$);
#183=IFCPROPERTYSET('16zHELt5yTl6cRtIysB3$O',#6,'OPS_TaskIdentity',$,(#182));
#184=IFCRELDEFINESBYPROPERTIES('1dustjYUbSJbi1ABkclL6$',#6,$,$,(#83),#183);
#185=IFCPROPERTYSINGLEVALUE('InternalTaskId',$,IFCTEXT('task-mur612inw9v312'),$);
#186=IFCPROPERTYSET('1h4$3SGJEhCRIc74D37LbB',#6,'OPS_TaskIdentity',$,(#185));
#187=IFCRELDEFINESBYPROPERTIES('3QVpjUssbJ6ZpFXBJVRyyG',#6,$,$,(#85),#186);
#188=IFCPROPERTYSINGLEVALUE('InternalTaskId',$,IFCTEXT('task-mur612ipi12o13'),$);
#189=IFCPROPERTYSET('2XmKm2k71on2I$FxUZ_q4Y',#6,'OPS_TaskIdentity',$,(#188));
#190=IFCRELDEFINESBYPROPERTIES('2twZRSW6qc0H_OR88pSFxS',#6,$,$,(#87),#189);
#191=IFCPROPERTYSINGLEVALUE('InternalTaskId',$,IFCTEXT('task-mur612ix4rf714'),$);
#192=IFCPROPERTYSET('0HP4eiWQGzAC5PFHY053_a',#6,'OPS_TaskIdentity',$,(#191));
#193=IFCRELDEFINESBYPROPERTIES('05_L6fH5As6g2gfBTKPqLB',#6,$,$,(#89),#192);
#194=IFCPROPERTYSINGLEVALUE('InternalTaskId',$,IFCTEXT('task-mur612j4zmbv15'),$);
#195=IFCPROPERTYSET('3YCrGeI0b3Tf3Lm6bERBCJ',#6,'OPS_TaskIdentity',$,(#194));
#196=IFCRELDEFINESBYPROPERTIES('1xjytd85VBm8Bk6VABY9Bh',#6,$,$,(#91),#195);
#197=IFCPROPERTYSINGLEVALUE('InternalTaskId',$,IFCTEXT('task-mur612jdu9xz16'),$);
#198=IFCPROPERTYSET('1MhEBHKf6dTtP4b$M8EKR0',#6,'OPS_TaskIdentity',$,(#197));
#199=IFCRELDEFINESBYPROPERTIES('2yYciRBAs0_96sFuyJWJOB',#6,$,$,(#93),#198);
#200=IFCPROPERTYSINGLEVALUE('InternalTaskId',$,IFCTEXT('task-mur612jfe1cd17'),$);
#201=IFCPROPERTYSET('3bLzMevWuw0bL9cc8c3BES',#6,'OPS_TaskIdentity',$,(#200));
#202=IFCRELDEFINESBYPROPERTIES('2TVKV5domU1HwYxfrthTQ$',#6,$,$,(#95),#201);
#203=IFCPROPERTYSINGLEVALUE('InternalTaskId',$,IFCTEXT('task-mur612jhvqx518'),$);
#204=IFCPROPERTYSET('1YQFc2ZX50e4NH_XCoNKk1',#6,'OPS_TaskIdentity',$,(#203));
#205=IFCRELDEFINESBYPROPERTIES('0FEcUjxGXh36xb94WewhZb',#6,$,$,(#97),#204);
#206=IFCPROPERTYSINGLEVALUE('InternalTaskId',$,IFCTEXT('task-mur612jkfjcn19'),$);
#207=IFCPROPERTYSET('2norYfrMRjGIEM1MfxJAlJ',#6,'OPS_TaskIdentity',$,(#206));
#208=IFCRELDEFINESBYPROPERTIES('02nixx52Q1UKnyvaIJ8eI8',#6,$,$,(#99),#207);
#209=IFCPROPERTYSINGLEVALUE('InternalTaskId',$,IFCTEXT('task-mur612jmin1d20'),$);
#210=IFCPROPERTYSET('1HrNAkCl6k9p41xpS$4bYu',#6,'OPS_TaskIdentity',$,(#209));
#211=IFCRELDEFINESBYPROPERTIES('1vK1SKDyBBI$1TGqZnNO0S',#6,$,$,(#101),#210);
#212=IFCPROPERTYSINGLEVALUE('InternalTaskId',$,IFCTEXT('task-mur612jxt9kd21'),$);
#213=IFCPROPERTYSET('28Q6o5gpnQRZ7l16NRKlqZ',#6,'OPS_TaskIdentity',$,(#212));
#214=IFCRELDEFINESBYPROPERTIES('0v$ncrh7vz9JgfD0Me4gZ7',#6,$,$,(#103),#213);
#215=IFCPROPERTYSINGLEVALUE('InternalTaskId',$,IFCTEXT('task-mur612jz6kcw22'),$);
#216=IFCPROPERTYSET('3$W56jXvrQvjNcm_CZ$9f7',#6,'OPS_TaskIdentity',$,(#215));
#217=IFCRELDEFINESBYPROPERTIES('0M0P7QO2vQO5QdhW9z44nr',#6,$,$,(#105),#216);
#218=IFCPROPERTYSINGLEVALUE('InternalTaskId',$,IFCTEXT('task-mur612k32g9823'),$);
#219=IFCPROPERTYSET('2M7M__3ruOpMmiy$Zrufzr',#6,'OPS_TaskIdentity',$,(#218));
#220=IFCRELDEFINESBYPROPERTIES('3UJChDRrmb9JZ7JSp2oKL3',#6,$,$,(#107),#219);
#221=IFCPROPERTYSINGLEVALUE('InternalTaskId',$,IFCTEXT('task-mur612k5euf324'),$);
#222=IFCPROPERTYSET('28wVibqR$SVt7Ux57zEZkD',#6,'OPS_TaskIdentity',$,(#221));
#223=IFCRELDEFINESBYPROPERTIES('3bvJmpJx0o0qTan4i3P4$O',#6,$,$,(#109),#222);
#224=IFCPROPERTYSINGLEVALUE('InternalTaskId',$,IFCTEXT('task-mur612k8f01a25'),$);
#225=IFCPROPERTYSET('1Y$AwRFR8GDe4fZVnqlElZ',#6,'OPS_TaskIdentity',$,(#224));
#226=IFCRELDEFINESBYPROPERTIES('0Wfvlgr9a9dp1whr5QGl_I',#6,$,$,(#111),#225);
#227=IFCPROPERTYSINGLEVALUE('InternalTaskId',$,IFCTEXT('task-mur612ka89ge26'),$);
#228=IFCPROPERTYSET('3Qusu4xF4VMCsTEoswgfMH',#6,'OPS_TaskIdentity',$,(#227));
#229=IFCRELDEFINESBYPROPERTIES('1G69vSr9P4rT0m5C5Cbamw',#6,$,$,(#113),#228);
#230=IFCPROPERTYSINGLEVALUE('InternalTaskId',$,IFCTEXT('task-mur612kcncaz27'),$);
#231=IFCPROPERTYSET('32gcAwyAowQ60GDxlNFyX0',#6,'OPS_TaskIdentity',$,(#230));
#232=IFCRELDEFINESBYPROPERTIES('3m_w$u08DrXhNaHE4B8pYc',#6,$,$,(#115),#231);
#233=IFCPROPERTYSINGLEVALUE('InternalTaskId',$,IFCTEXT('task-mur612kfa3sh28'),$);
#234=IFCPROPERTYSET('1QvVUmq0So0ALm$sjuSeZ8',#6,'OPS_TaskIdentity',$,(#233));
#235=IFCRELDEFINESBYPROPERTIES('3ikawHmeBxTGFUvnGYCS5y',#6,$,$,(#117),#234);
#236=IFCPROPERTYSINGLEVALUE('InternalTaskId',$,IFCTEXT('task-mur612khh0sg29'),$);
#237=IFCPROPERTYSET('3KCQxUAf2Ob9lR2Dh0ukxY',#6,'OPS_TaskIdentity',$,(#236));
#238=IFCRELDEFINESBYPROPERTIES('0cadPnOkJ5u27Z7C5IKCrV',#6,$,$,(#119),#237);
#239=IFCPROPERTYSINGLEVALUE('InternalTaskId',$,IFCTEXT('task-mur612kjxa7q30'),$);
#240=IFCPROPERTYSET('28Xvj$zGv0jYYzrTZlxHiN',#6,'OPS_TaskIdentity',$,(#239));
#241=IFCRELDEFINESBYPROPERTIES('0J0bfRJXqRgqVYZ$qAGEBB',#6,$,$,(#121),#240);
#242=IFCPROPERTYSINGLEVALUE('InternalTaskId',$,IFCTEXT('task-mur612kmbi7u31'),$);
#243=IFCPROPERTYSET('3AuvQ55A215SQ1mcwtaycV',#6,'OPS_TaskIdentity',$,(#242));
#244=IFCRELDEFINESBYPROPERTIES('2bHDsODV1HESHde7vEIYK_',#6,$,$,(#123),#243);
#245=IFCPROPERTYSINGLEVALUE('InternalTaskId',$,IFCTEXT('task-mur612koxc0v32'),$);
#246=IFCPROPERTYSET('18XNY9HS8Mw7DyhPYBR4I7',#6,'OPS_TaskIdentity',$,(#245));
#247=IFCRELDEFINESBYPROPERTIES('2KHgU0Ar7du0EmaXja$Uqg',#6,$,$,(#125),#246);
#248=IFCPROPERTYSINGLEVALUE('ConstraintType',$,IFCLABEL('SNET'),$);
#249=IFCPROPERTYSINGLEVALUE('ConstraintDate',$,IFCDATE('2027-07-14'),$);
#250=IFCPROPERTYSET('2sA0KRkLIknbnE8F4DtY68',#6,'OPS_Constraints',$,(#248,#249));
#251=IFCRELDEFINESBYPROPERTIES('0BgYxlc_dngiY0Hgl9PGc4',#6,$,$,(#109),#250);
#252=IFCPROPERTYSINGLEVALUE('Deadline',$,IFCDATE('2027-09-10'),$);
#253=IFCPROPERTYSET('3adcVyuVIgJQCrGRZVES7b',#6,'OPS_Constraints',$,(#252));
#254=IFCRELDEFINESBYPROPERTIES('3O2Am0wwvmWv3B6v86WxXO',#6,$,$,(#125),#253);
#255=IFCPROPERTYSINGLEVALUE('MilestoneKind',$,IFCLABEL('START'),$);
#256=IFCPROPERTYSET('0pYW3DlleHSKuEbzh4gaqU',#6,'OPS_Milestone',$,(#255));
#257=IFCRELDEFINESBYPROPERTIES('2_ILQFLd5C7ASeu1WRUZsb',#6,$,$,(#81),#256);
#258=IFCPROPERTYSINGLEVALUE('MilestoneKind',$,IFCLABEL('FINISH'),$);
#259=IFCPROPERTYSINGLEVALUE('Mandatory',$,IFCBOOLEAN(.T.),$);
#260=IFCPROPERTYSET('20VwjBaewqFY4BKSgIBCZu',#6,'OPS_Milestone',$,(#258,#259));
#261=IFCRELDEFINESBYPROPERTIES('060n9X0ruCvIMoLTPKjt5L',#6,$,$,(#93),#260);
#262=IFCPROPERTYSINGLEVALUE('MilestoneKind',$,IFCLABEL('FINISH'),$);
#263=IFCPROPERTYSET('1YOk6fJ7ArSP97h47XBl8S',#6,'OPS_Milestone',$,(#262));
#264=IFCRELDEFINESBYPROPERTIES('1sB6V0JdjAoPhps3jumaJt',#6,$,$,(#125),#263);
ENDSEC;
END-ISO-10303-21;
