ISO-10303-21;
HEADER;
FILE_DESCRIPTION(('ViewDefinition [SchedulingView]'),'2;1');
FILE_NAME('Aanbouw woning.ifc','2026-09-28T15:51:46',('Open Planner Studio'),('OpenAEC Foundation'),'Open Planner Studio 0.1','Open Planner Studio','');
FILE_SCHEMA(('IFC4X3'));
ENDSEC;
DATA;
#1=IFCPERSON($,$,$,$,$,$,$,$);
#2=IFCORGANIZATION($,$,$,$,$);
#3=IFCPERSONANDORGANIZATION(#1,#2,$);
#4=IFCORGANIZATION($,'OpenAEC Foundation',$,$,$);
#5=IFCAPPLICATION(#4,'0.1','Open Planner Studio','OPS');
#6=IFCOWNERHISTORY(#3,#5,$,.NOCHANGE.,$,$,$,1790610706);
#7=IFCSIUNIT(*,.LENGTHUNIT.,$,.METRE.);
#8=IFCSIUNIT(*,.TIMEUNIT.,$,.SECOND.);
#9=IFCUNITASSIGNMENT((#7,#8));
#10=IFCCARTESIANPOINT((0.,0.,0.));
#11=IFCAXIS2PLACEMENT3D(#10,$,$);
#12=IFCGEOMETRICREPRESENTATIONCONTEXT($,'Plan',3,1.0E-05,#11,$);
#13=IFCPROJECT('_Hdz2LSHTVkdCBc$_5r1_1',#6,'Aanbouw woning','Uitbouw van 4 bij 5 meter aan de achtergevel van een eengezinswoning — het oefenproject van de tutorials.',$,$,$,(#12),#9);
#14=IFCTIMEPERIOD('07:00:00','16:00:00');
#15=IFCRECURRENCEPATTERN(.WEEKLY.,$,(1,2,3,4,5),$,$,$,$,(#14));
#16=IFCWORKTIME('Standard work week',.PREDICTED.,$,#15,$,$);
#17=IFCWORKTIME('Nieuwjaar',.PREDICTED.,$,$,'2026-01-01','2026-01-01');
#18=IFCWORKTIME('Goede Vrijdag',.PREDICTED.,$,$,'2026-04-03','2026-04-03');
#19=IFCWORKTIME('Pasen',.PREDICTED.,$,$,'2026-04-05','2026-04-06');
#20=IFCWORKTIME('Koningsdag',.PREDICTED.,$,$,'2026-04-27','2026-04-27');
#21=IFCWORKTIME('Hemelvaart',.PREDICTED.,$,$,'2026-05-14','2026-05-14');
#22=IFCWORKTIME('Pinksteren',.PREDICTED.,$,$,'2026-05-24','2026-05-25');
#23=IFCWORKTIME('Kerst',.PREDICTED.,$,$,'2026-12-25','2026-12-26');
#24=IFCWORKTIME('Nieuwjaar',.PREDICTED.,$,$,'2027-01-01','2027-01-01');
#25=IFCWORKTIME('Goede Vrijdag',.PREDICTED.,$,$,'2027-03-26','2027-03-26');
#26=IFCWORKTIME('Pasen',.PREDICTED.,$,$,'2027-03-28','2027-03-29');
#27=IFCWORKTIME('Koningsdag',.PREDICTED.,$,$,'2027-04-27','2027-04-27');
#28=IFCWORKTIME('Hemelvaart',.PREDICTED.,$,$,'2027-05-06','2027-05-06');
#29=IFCWORKTIME('Pinksteren',.PREDICTED.,$,$,'2027-05-16','2027-05-17');
#30=IFCWORKTIME('Kerst',.PREDICTED.,$,$,'2027-12-25','2027-12-26');
#31=IFCWORKTIME('Nieuwjaar',.PREDICTED.,$,$,'2028-01-01','2028-01-01');
#32=IFCWORKTIME('Goede Vrijdag',.PREDICTED.,$,$,'2028-04-14','2028-04-14');
#33=IFCWORKTIME('Pasen',.PREDICTED.,$,$,'2028-04-16','2028-04-17');
#34=IFCWORKTIME('Koningsdag',.PREDICTED.,$,$,'2028-04-27','2028-04-27');
#35=IFCWORKTIME('Hemelvaart',.PREDICTED.,$,$,'2028-05-25','2028-05-25');
#36=IFCWORKTIME('Pinksteren',.PREDICTED.,$,$,'2028-06-04','2028-06-05');
#37=IFCWORKTIME('Kerst',.PREDICTED.,$,$,'2028-12-25','2028-12-26');
#38=IFCWORKTIME('Nieuwjaar',.PREDICTED.,$,$,'2029-01-01','2029-01-01');
#39=IFCWORKTIME('Goede Vrijdag',.PREDICTED.,$,$,'2029-03-30','2029-03-30');
#40=IFCWORKTIME('Pasen',.PREDICTED.,$,$,'2029-04-01','2029-04-02');
#41=IFCWORKTIME('Koningsdag',.PREDICTED.,$,$,'2029-04-27','2029-04-27');
#42=IFCWORKTIME('Hemelvaart',.PREDICTED.,$,$,'2029-05-10','2029-05-10');
#43=IFCWORKTIME('Pinksteren',.PREDICTED.,$,$,'2029-05-20','2029-05-21');
#44=IFCWORKTIME('Kerst',.PREDICTED.,$,$,'2029-12-25','2029-12-26');
#45=IFCWORKTIME('Nieuwjaar',.PREDICTED.,$,$,'2030-01-01','2030-01-01');
#46=IFCWORKTIME('Goede Vrijdag',.PREDICTED.,$,$,'2030-04-19','2030-04-19');
#47=IFCWORKTIME('Pasen',.PREDICTED.,$,$,'2030-04-21','2030-04-22');
#48=IFCWORKTIME('Koningsdag',.PREDICTED.,$,$,'2030-04-27','2030-04-27');
#49=IFCWORKTIME('Bevrijdingsdag',.PREDICTED.,$,$,'2030-05-05','2030-05-05');
#50=IFCWORKTIME('Hemelvaart',.PREDICTED.,$,$,'2030-05-30','2030-05-30');
#51=IFCWORKTIME('Pinksteren',.PREDICTED.,$,$,'2030-06-09','2030-06-10');
#52=IFCWORKTIME('Kerst',.PREDICTED.,$,$,'2030-12-25','2030-12-26');
#53=IFCWORKCALENDAR('_HlbW$VPl1Yxnv_nBDbFBd',#6,'Bouwkalender NL','Standaard bouwkalender: ma-vr 07:00-16:00',$,(#16),(#17,#18,#19,#20,#21,#22,#23,#24,#25,#26,#27,#28,#29,#30,#31,#32,#33,#34,#35,#36,#37,#38,#39,#40,#41,#42,#43,#44,#45,#46,#47,#48,#49,#50,#51,#52),.FIRSTSHIFT.);
#54=IFCPROPERTYSINGLEVALUE('RuleSetId',$,IFCLABEL('NL'),$);
#55=IFCPROPERTYSINGLEVALUE('GeneratedFromYear',$,IFCINTEGER(2026),$);
#56=IFCPROPERTYSINGLEVALUE('GeneratedToYear',$,IFCINTEGER(2030),$);
#57=IFCPROPERTYSINGLEVALUE('HoursPerDay',$,IFCREAL(8),$);
#58=IFCPROPERTYSET('qL5XmPUFgdlJ6X9$WtAtOZ',#6,'OPS_Calendar',$,(#54,#55,#56,#57));
#59=IFCRELDEFINESBYPROPERTIES('bXh12hy$qvOdOP_VbbYntl',#6,$,$,(#53),#58);
#60=IFCWORKPLAN('s969EzJVhdar8npFdlxV4B',#6,'Aanbouw woning','Uitbouw van 4 bij 5 meter aan de achtergevel van een eengezinswoning — het oefenproject van de tutorials.',$,$,'2026-09-28T15:51:46',$,$,$,$,$,'2027-06-07T07:00:00','2027-06-14T07:00:00',.PLANNED.);
#61=IFCWORKSCHEDULE('PR09cf8dT1wJYfKnoH7bjV',#6,'Construction schedule v1.0',$,$,$,'2026-09-28T15:51:46',$,$,$,$,$,'2027-06-07T07:00:00','2027-06-14T07:00:00',.PLANNED.);
#62=IFCRELAGGREGATES('X$Ph9TPtbVDd8te$ftI1sz',#6,$,$,#60,(#61));
#63=IFCTASKTIME('Voorbereiding Time',.PREDICTED.,$,.WORKTIME.,'P0Y0M2D','2027-06-07T07:00:00','2027-06-11T07:00:00','2027-06-07T07:00:00','2027-06-08T07:00:00','2027-06-11T07:00:00','2027-06-14T07:00:00','P0Y0M4D','P0Y0M4D',.F.,$,$,$,$,$,0.00);
#64=IFCTASK('CBdz6TedVPvhcFXVqlrnv9',#6,'Voorbereiding',$,$,'1',$,$,$,.F.,$,#63,.CONSTRUCTION.);
#65=IFCTASKTIME('Fundering Time',.PREDICTED.,$,.WORKTIME.,'P0Y0M3D','2027-06-07T07:00:00','2027-06-11T07:00:00','2027-06-07T07:00:00','2027-06-09T07:00:00','2027-06-10T07:00:00','2027-06-14T07:00:00','P0Y0M3D','P0Y0M3D',.F.,$,$,$,$,$,0.00);
#66=IFCTASK('UTelPRA$KjaravEn2foRVP',#6,'Fundering',$,$,'2',$,$,$,.F.,$,#65,.CONSTRUCTION.);
#67=IFCTASKTIME('Ruwbouw Time',.PREDICTED.,$,.WORKTIME.,'P0Y0M6D','2027-06-07T07:00:00','2027-06-11T07:00:00','2027-06-07T07:00:00','2027-06-14T07:00:00','2027-06-07T07:00:00','2027-06-14T07:00:00','P0Y0M0D','P0Y0M0D',.T.,$,$,$,$,$,0.00);
#68=IFCTASK('4n$r7PjFS$$xTNGVydWPXz',#6,'Ruwbouw',$,$,'3',$,$,$,.F.,$,#67,.CONSTRUCTION.);
#69=IFCTASKTIME('Afbouw Time',.PREDICTED.,$,.WORKTIME.,'P0Y0M4D','2027-06-07T07:00:00','2027-06-11T07:00:00','2027-06-07T07:00:00','2027-06-10T07:00:00','2027-06-09T07:00:00','2027-06-14T07:00:00','P0Y0M2D','P0Y0M2D',.F.,$,$,$,$,$,0.00);
#70=IFCTASK('hvC5U9bnAL7pWpjnB9EVSf',#6,'Afbouw',$,$,'4',$,$,$,.F.,$,#69,.CONSTRUCTION.);
#71=IFCTASKTIME('Start bouw Time',.PREDICTED.,$,.WORKTIME.,'P0Y0M0D','2027-06-07T07:00:00','2027-06-07T07:00:00','2027-06-07T07:00:00','2027-06-07T07:00:00','2027-06-14T07:00:00','2027-06-14T07:00:00','P0Y0M5D','P0Y0M5D',.F.,$,$,$,$,$,0.00);
#72=IFCTASK('8ptp1vQ7y5tbzxCFyPOVmn',#6,'Start bouw',$,$,'1.1',$,$,$,.T.,$,#71,.USERDEFINED.);
#73=IFCTASKTIME('Bouwplaats inrichten Time',.PREDICTED.,$,.WORKTIME.,'P0Y0M2D','2027-06-07T07:00:00','2027-06-08T07:00:00','2027-06-07T07:00:00','2027-06-08T07:00:00','2027-06-11T07:00:00','2027-06-14T07:00:00','P0Y0M4D','P0Y0M4D',.F.,$,$,$,$,$,0.00);
#74=IFCTASK('3ldzgxlvShnLc3BnpBb$ot',#6,'Bouwplaats inrichten',$,$,'1.2',$,$,$,.F.,$,#73,.CONSTRUCTION.);
#75=IFCTASKTIME('Tuin en bestrating verwijderen Time',.PREDICTED.,$,.WORKTIME.,'P0Y0M1D','2027-06-07T07:00:00','2027-06-07T07:00:00','2027-06-07T07:00:00','2027-06-07T07:00:00','2027-06-14T07:00:00','2027-06-14T07:00:00','P0Y0M5D','P0Y0M5D',.F.,$,$,$,$,$,0.00);
#76=IFCTASK('GfWNmd6V7NAlZfmXm1Z90f',#6,'Tuin en bestrating verwijderen',$,$,'1.3',$,$,$,.F.,$,#75,.CONSTRUCTION.);
#77=IFCTASKTIME('Aanbouw uitzetten Time',.PREDICTED.,$,.WORKTIME.,'P0Y0M1D','2027-06-07T07:00:00','2027-06-07T07:00:00','2027-06-07T07:00:00','2027-06-07T07:00:00','2027-06-14T07:00:00','2027-06-14T07:00:00','P0Y0M5D','P0Y0M5D',.F.,$,$,$,$,$,0.00);
#78=IFCTASK('VTGPXtiFgRhHxxu$zpobLp',#6,'Aanbouw uitzetten',$,$,'1.4',$,$,$,.F.,$,#77,.CONSTRUCTION.);
#79=IFCTASKTIME('Funderingssleuf ontgraven Time',.PREDICTED.,$,.WORKTIME.,'P0Y0M2D','2027-06-07T07:00:00','2027-06-08T07:00:00','2027-06-07T07:00:00','2027-06-08T07:00:00','2027-06-11T07:00:00','2027-06-14T07:00:00','P0Y0M4D','P0Y0M4D',.F.,$,$,$,$,$,0.00);
#80=IFCTASK('xLM3wvc7mzePiXf16jtr4P',#6,'Funderingssleuf ontgraven',$,$,'2.1',$,$,$,.F.,$,#79,.CONSTRUCTION.);
#81=IFCTASKTIME('Wapening en bekisting fundering Time',.PREDICTED.,$,.WORKTIME.,'P0Y0M3D','2027-06-07T07:00:00','2027-06-09T07:00:00','2027-06-07T07:00:00','2027-06-09T07:00:00','2027-06-10T07:00:00','2027-06-14T07:00:00','P0Y0M3D','P0Y0M3D',.F.,$,$,$,$,$,0.00);
#82=IFCTASK('sjR$EZtfQJ4pytylrNI5Lf',#6,'Wapening en bekisting fundering',$,$,'2.2',$,$,$,.F.,$,#81,.CONSTRUCTION.);
#83=IFCTASKTIME('Inspectie wapening Time',.PREDICTED.,$,.WORKTIME.,'P0Y0M0D','2027-06-07T07:00:00','2027-06-07T07:00:00','2027-06-07T07:00:00','2027-06-07T07:00:00','2027-06-14T07:00:00','2027-06-14T07:00:00','P0Y0M5D','P0Y0M5D',.F.,$,$,$,$,$,0.00);
#84=IFCTASK('8pHRO5ItDbp9pT1VEl7Rtj',#6,'Inspectie wapening',$,$,'2.3',$,$,$,.T.,$,#83,.ATTENDANCE.);
#85=IFCTASKTIME('Fundering storten Time',.PREDICTED.,$,.WORKTIME.,'P0Y0M1D','2027-06-07T07:00:00','2027-06-07T07:00:00','2027-06-07T07:00:00','2027-06-07T07:00:00','2027-06-14T07:00:00','2027-06-14T07:00:00','P0Y0M5D','P0Y0M5D',.F.,$,$,$,$,$,0.00);
#86=IFCTASK('KRBX8JTH55N5rjrFxlT9Cl',#6,'Fundering storten',$,$,'2.4',$,$,$,.F.,$,#85,.CONSTRUCTION.);
#87=IFCTASKTIME('Funderingsmetselwerk Time',.PREDICTED.,$,.WORKTIME.,'P0Y0M2D','2027-06-07T07:00:00','2027-06-08T07:00:00','2027-06-07T07:00:00','2027-06-08T07:00:00','2027-06-11T07:00:00','2027-06-14T07:00:00','P0Y0M4D','P0Y0M4D',.F.,$,$,$,$,$,0.00);
#88=IFCTASK('$jUhRbRXBT4hQZXVOJnZHL',#6,'Funderingsmetselwerk',$,$,'2.5',$,$,$,.F.,$,#87,.CONSTRUCTION.);
#89=IFCTASKTIME('Kanaalplaatvloer leggen Time',.PREDICTED.,$,.WORKTIME.,'P0Y0M1D','2027-06-07T07:00:00','2027-06-07T07:00:00','2027-06-07T07:00:00','2027-06-07T07:00:00','2027-06-14T07:00:00','2027-06-14T07:00:00','P0Y0M5D','P0Y0M5D',.F.,$,$,$,$,$,0.00);
#90=IFCTASK('jt4Z8rW9BNcXQFN$zJAtG1',#6,'Kanaalplaatvloer leggen',$,$,'2.6',$,$,$,.F.,$,#89,.CONSTRUCTION.);
#91=IFCTASKTIME('Binnenspouwblad metselen Time',.PREDICTED.,$,.WORKTIME.,'P0Y0M5D','2027-06-07T07:00:00','2027-06-11T07:00:00','2027-06-07T07:00:00','2027-06-11T07:00:00','2027-06-08T07:00:00','2027-06-14T07:00:00','P0Y0M1D','P0Y0M1D',.F.,$,$,$,$,$,0.00);
#92=IFCTASK('t9U1IFCV3ZYxDFHXnRP5Tb',#6,'Binnenspouwblad metselen',$,$,'3.1',$,$,$,.F.,$,#91,.CONSTRUCTION.);
#93=IFCTASKTIME('Buitenspouwblad metselen Time',.PREDICTED.,$,.WORKTIME.,'P0Y0M6D','2027-06-07T07:00:00','2027-06-14T07:00:00','2027-06-07T07:00:00','2027-06-14T07:00:00','2027-06-07T07:00:00','2027-06-14T07:00:00','P0Y0M0D','P0Y0M0D',.T.,$,$,$,$,$,0.00);
#94=IFCTASK('f3XzET17sBb1S7kn07mN6b',#6,'Buitenspouwblad metselen',$,$,'3.2',$,$,$,.F.,$,#93,.CONSTRUCTION.);
#95=IFCTASKTIME('Dakelementen plaatsen Time',.PREDICTED.,$,.WORKTIME.,'P0Y0M1D','2027-06-07T07:00:00','2027-06-07T07:00:00','2027-06-07T07:00:00','2027-06-07T07:00:00','2027-06-14T07:00:00','2027-06-14T07:00:00','P0Y0M5D','P0Y0M5D',.F.,$,$,$,$,$,0.00);
#96=IFCTASK('vFdzshBH7zWl5bqHYB3NYH',#6,'Dakelementen plaatsen',$,$,'3.3',$,$,$,.F.,$,#95,.CONSTRUCTION.);
#97=IFCTASKTIME('Dakbedekking aanbrengen Time',.PREDICTED.,$,.WORKTIME.,'P0Y0M2D','2027-06-07T07:00:00','2027-06-08T07:00:00','2027-06-07T07:00:00','2027-06-08T07:00:00','2027-06-11T07:00:00','2027-06-14T07:00:00','P0Y0M4D','P0Y0M4D',.F.,$,$,$,$,$,0.00);
#98=IFCTASK('Q5KJpjJFe7LlBjDHzlnT1j',#6,'Dakbedekking aanbrengen',$,$,'3.4',$,$,$,.F.,$,#97,.CONSTRUCTION.);
#99=IFCTASKTIME('Kozijnen plaatsen Time',.PREDICTED.,$,.WORKTIME.,'P0Y0M2D','2027-06-07T07:00:00','2027-06-08T07:00:00','2027-06-07T07:00:00','2027-06-08T07:00:00','2027-06-11T07:00:00','2027-06-14T07:00:00','P0Y0M4D','P0Y0M4D',.F.,$,$,$,$,$,0.00);
#100=IFCTASK('XZWf8J5XLPSj2jplLz$5dv',#6,'Kozijnen plaatsen',$,$,'3.5',$,$,$,.F.,$,#99,.CONSTRUCTION.);
#101=IFCTASKTIME('Achtergevel doorbreken Time',.PREDICTED.,$,.WORKTIME.,'P0Y0M2D','2027-06-07T07:00:00','2027-06-08T07:00:00','2027-06-07T07:00:00','2027-06-08T07:00:00','2027-06-11T07:00:00','2027-06-14T07:00:00','P0Y0M4D','P0Y0M4D',.F.,$,$,$,$,$,0.00);
#102=IFCTASK('KPm7nhT$230nht8$7xoRzd',#6,'Achtergevel doorbreken',$,$,'3.6',$,$,$,.F.,$,#101,.CONSTRUCTION.);
#103=IFCTASKTIME('Installaties aanleggen Time',.PREDICTED.,$,.WORKTIME.,'P0Y0M3D','2027-06-07T07:00:00','2027-06-09T07:00:00','2027-06-07T07:00:00','2027-06-09T07:00:00','2027-06-10T07:00:00','2027-06-14T07:00:00','P0Y0M3D','P0Y0M3D',.F.,$,$,$,$,$,0.00);
#104=IFCTASK('gduXOzBHdp2txFznWN_r4v',#6,'Installaties aanleggen',$,$,'4.1',$,$,$,.F.,$,#103,.CONSTRUCTION.);
#105=IFCTASKTIME('Stucwerk Time',.PREDICTED.,$,.WORKTIME.,'P0Y0M4D','2027-06-07T07:00:00','2027-06-10T07:00:00','2027-06-07T07:00:00','2027-06-10T07:00:00','2027-06-09T07:00:00','2027-06-14T07:00:00','P0Y0M2D','P0Y0M2D',.F.,$,$,$,$,$,0.00);
#106=IFCTASK('DrNjlxHvqvuvoBkX_9wPT5',#6,'Stucwerk',$,$,'4.2',$,$,$,.F.,$,#105,.CONSTRUCTION.);
#107=IFCTASKTIME('Dekvloer aanbrengen Time',.PREDICTED.,$,.WORKTIME.,'P0Y0M1D','2027-06-07T07:00:00','2027-06-07T07:00:00','2027-06-07T07:00:00','2027-06-07T07:00:00','2027-06-14T07:00:00','2027-06-14T07:00:00','P0Y0M5D','P0Y0M5D',.F.,$,$,$,$,$,0.00);
#108=IFCTASK('EPwp$vk9BfovgBIV_5ztOZ',#6,'Dekvloer aanbrengen',$,$,'4.3',$,$,$,.F.,$,#107,.CONSTRUCTION.);
#109=IFCTASKTIME('Tegelwerk Time',.PREDICTED.,$,.WORKTIME.,'P0Y0M3D','2027-06-07T07:00:00','2027-06-09T07:00:00','2027-06-07T07:00:00','2027-06-09T07:00:00','2027-06-10T07:00:00','2027-06-14T07:00:00','P0Y0M3D','P0Y0M3D',.F.,$,$,$,$,$,0.00);
#110=IFCTASK('lNOHz7fN2NovQHxFQz9zzd',#6,'Tegelwerk',$,$,'4.4',$,$,$,.F.,$,#109,.CONSTRUCTION.);
#111=IFCTASKTIME('Schilderwerk Time',.PREDICTED.,$,.WORKTIME.,'P0Y0M3D','2027-06-07T07:00:00','2027-06-09T07:00:00','2027-06-07T07:00:00','2027-06-09T07:00:00','2027-06-10T07:00:00','2027-06-14T07:00:00','P0Y0M3D','P0Y0M3D',.F.,$,$,$,$,$,0.00);
#112=IFCTASK('Ob0tALT1wHm$mRGVwp5lB3',#6,'Schilderwerk',$,$,'4.5',$,$,$,.F.,$,#111,.CONSTRUCTION.);
#113=IFCTASKTIME('Opleverpunten en schoonmaken Time',.PREDICTED.,$,.WORKTIME.,'P0Y0M1D','2027-06-07T07:00:00','2027-06-07T07:00:00','2027-06-07T07:00:00','2027-06-07T07:00:00','2027-06-14T07:00:00','2027-06-14T07:00:00','P0Y0M5D','P0Y0M5D',.F.,$,$,$,$,$,0.00);
#114=IFCTASK('bbOl9zjVfxHjQnN$drqDGX',#6,'Opleverpunten en schoonmaken',$,$,'4.6',$,$,$,.F.,$,#113,.CONSTRUCTION.);
#115=IFCTASKTIME('Oplevering Time',.PREDICTED.,$,.WORKTIME.,'P0Y0M0D','2027-06-07T07:00:00','2027-06-07T07:00:00','2027-06-07T07:00:00','2027-06-07T07:00:00','2027-06-14T07:00:00','2027-06-14T07:00:00','P0Y0M5D','P0Y0M5D',.F.,$,$,$,$,$,0.00);
#116=IFCTASK('RXDdj$cvedNxLZhllLNTpp',#6,'Oplevering',$,$,'4.7',$,$,$,.T.,$,#115,.USERDEFINED.);
#117=IFCRELNESTS('p7onfFCXhPq51$VX0v8$kd',#6,'WBS Voorbereiding',$,#64,( #72,#74,#76,#78));
#118=IFCRELNESTS('5Hb1kJh$c$cpeXxnAxYLcL',#6,'WBS Fundering',$,#66,( #80,#82,#84,#86,#88,#90));
#119=IFCRELNESTS('hz9xIpnvkrnhMBkVQd0vbx',#6,'WBS Ruwbouw',$,#68,( #92,#94,#96,#98,#100,#102));
#120=IFCRELNESTS('yJ6pVNWtV75$eV3H_5J75r',#6,'WBS Afbouw',$,#70,( #104,#106,#108,#110,#112,#114,#116));
#121=IFCRELNESTS('tjjP5r1vgdnD4TBHzDgTrv',#6,'WBS Hoofd',$,#61,(#64,#66,#68,#70));
#122=IFCRELASSIGNSTOCONTROL('rDVhNjbXHjyDCF$VkTSruD',#6,$,$,(#64,#66,#68,#70,#72,#74,#76,#78,#80,#82,#84,#86,#88,#90,#92,#94,#96,#98,#100,#102,#104,#106,#108,#110,#112,#114,#116),$,#61);
#123=IFCPROPERTYSINGLEVALUE('InternalProjectId',$,IFCTEXT('proj-mulfdr8w8msq4'),$);
#124=IFCPROPERTYSINGLEVALUE('wbsAutoNumber',$,IFCBOOLEAN(.T.),$);
#125=IFCPROPERTYSINGLEVALUE('DefaultTaskDurationUnit',$,IFCLABEL('days'),$);
#126=IFCPROPERTYSINGLEVALUE('ProjectStartDate',$,IFCDATE('2027-06-07'),$);
#127=IFCPROPERTYSINGLEVALUE('ProjectEndDate',$,$,$);
#128=IFCPROPERTYSINGLEVALUE('CreatedAt',$,IFCTEXT('2026-09-28T15:51:45.968Z'),$);
#129=IFCPROPERTYSINGLEVALUE('ModifiedAt',$,IFCTEXT('2026-09-28T15:51:45.968Z'),$);
#130=IFCPROPERTYSET('e5a3ArlP$tNZvpDF1ZK5n5',#6,'OPS_ProjectSettings',$,(#123,#124,#125,#126,#127,#128,#129));
#131=IFCRELDEFINESBYPROPERTIES('0Hdzo1sPJhdjQlBF$1BF9l',#6,$,$,(#13),#130);
#132=IFCPROPERTYSINGLEVALUE('InternalTaskId',$,IFCTEXT('task-mulfdr910wfy6'),$);
#133=IFCPROPERTYSET('tplR4zS1srrFpZt1zF39KV',#6,'OPS_TaskIdentity',$,(#132));
#134=IFCRELDEFINESBYPROPERTIES('UVh$sFhl55dB03DlpPSr0N',#6,$,$,(#64),#133);
#135=IFCPROPERTYSINGLEVALUE('InternalTaskId',$,IFCTEXT('task-mulfdr96v2zb7'),$);
#136=IFCPROPERTYSET('bRmvvvffMx7LoL_nlhXbZt',#6,'OPS_TaskIdentity',$,(#135));
#137=IFCRELDEFINESBYPROPERTIES('q9IlB3iV$hPJIlXXk1JvF$',#6,$,$,(#66),#136);
#138=IFCPROPERTYSINGLEVALUE('InternalTaskId',$,IFCTEXT('task-mulfdr98zdpc8'),$);
#139=IFCPROPERTYSET('1lvZq7l7iN_tZhongh0vnX',#6,'OPS_TaskIdentity',$,(#138));
#140=IFCRELDEFINESBYPROPERTIES('QRGdzv7tLjoB03LnlBrFLN',#6,$,$,(#68),#139);
#141=IFCPROPERTYSINGLEVALUE('InternalTaskId',$,IFCTEXT('task-mulfdr9bztn79'),$);
#142=IFCPROPERTYSET('ItKJJTtNkhBnVRyFn9wd3r',#6,'OPS_TaskIdentity',$,(#141));
#143=IFCRELDEFINESBYPROPERTIES('hzfbaD2fERbX6XlXbxAzlH',#6,$,$,(#70),#142);
#144=IFCPROPERTYSINGLEVALUE('InternalTaskId',$,IFCTEXT('task-mulfdr9e0c2d10'),$);
#145=IFCPROPERTYSET('LZBVGPoHDvTdqBw$0dqp4P',#6,'OPS_TaskIdentity',$,(#144));
#146=IFCRELDEFINESBYPROPERTIES('oPAT0nDXLJwjMBIVMlDPDJ',#6,$,$,(#72),#145);
#147=IFCPROPERTYSINGLEVALUE('InternalTaskId',$,IFCTEXT('task-mulfdr9hnq0i11'),$);
#148=IFCPROPERTYSET('Q1Fpz7FvMx$TVHt$8BK5tn',#6,'OPS_TaskIdentity',$,(#147));
#149=IFCRELDEFINESBYPROPERTIES('j5HJHx1dBZqZrjplrjNLgp',#6,$,$,(#74),#148);
#150=IFCPROPERTYSINGLEVALUE('InternalTaskId',$,IFCTEXT('task-mulfdr9jpf8h12'),$);
#151=IFCPROPERTYSET('p7s7vPDFwnK3$hcHHdaBSb',#6,'OPS_TaskIdentity',$,(#150));
#152=IFCRELDEFINESBYPROPERTIES('6BklrziXDPPBK13nG$R1cB',#6,$,$,(#76),#151);
#153=IFCPROPERTYSINGLEVALUE('InternalTaskId',$,IFCTEXT('task-mulfdr9mggvg13'),$);
#154=IFCPROPERTYSET('_lnxURkl1fb1Grc$2tk$oR',#6,'OPS_TaskIdentity',$,(#153));
#155=IFCRELDEFINESBYPROPERTIES('9JxXebIl$9nLEVpH5BqDKV',#6,$,$,(#78),#154);
#156=IFCPROPERTYSINGLEVALUE('InternalTaskId',$,IFCTEXT('task-mulfdr9o17dh14'),$);
#157=IFCPROPERTYSET('UT0twzKXDd7h2JJHl7Gt8p',#6,'OPS_TaskIdentity',$,(#156));
#158=IFCRELDEFINESBYPROPERTIES('bXL1M$v9NHLH37Qljb9ra5',#6,$,$,(#80),#157);
#159=IFCPROPERTYSINGLEVALUE('InternalTaskId',$,IFCTEXT('task-mulfdr9r7cdm15'),$);
#160=IFCPROPERTYSET('JxFD1d_Fevx1CBM1NpDdtH',#6,'OPS_TaskIdentity',$,(#159));
#161=IFCRELDEFINESBYPROPERTIES('C9wtM1NNgRrnnDlVHLlreT',#6,$,$,(#82),#160);
#162=IFCPROPERTYSINGLEVALUE('InternalTaskId',$,IFCTEXT('task-mulfdr9t23jy16'),$);
#163=IFCPROPERTYSET('hZJvDpnvMbptV50X1X159F',#6,'OPS_TaskIdentity',$,(#162));
#164=IFCRELDEFINESBYPROPERTIES('oP2r5lNfeniRXRyFr92lVv',#6,$,$,(#84),#163);
#165=IFCPROPERTYSINGLEVALUE('InternalTaskId',$,IFCTEXT('task-mulfdr9vgmlw17'),$);
#166=IFCPROPERTYSET('nrNjb$fN6TEruf4HJR$jYJ',#6,'OPS_TaskIdentity',$,(#165));
#167=IFCRELDEFINESBYPROPERTIES('MduFl5n7I1nhYT3F8TDPJz',#6,$,$,(#86),#166);
#168=IFCPROPERTYSINGLEVALUE('InternalTaskId',$,IFCTEXT('task-mulfdr9y463q18'),$);
#169=IFCPROPERTYSET('YXblfDH7Wxdrmx4nlvelBT',#6,'OPS_TaskIdentity',$,(#168));
#170=IFCRELDEFINESBYPROPERTIES('fZZNKhLHddi3ZB_Vrj9r0f',#6,$,$,(#88),#169);
#171=IFCPROPERTYSINGLEVALUE('InternalTaskId',$,IFCTEXT('task-mulfdra0mi0819'),$);
#172=IFCPROPERTYSET('AtoFH5$P7tkhsb0Xfjtrip',#6,'OPS_TaskIdentity',$,(#171));
#173=IFCRELDEFINESBYPROPERTIES('3pIHpninkXpPyZTF_tQ7zv',#6,$,$,(#90),#172);
#174=IFCPROPERTYSINGLEVALUE('InternalTaskId',$,IFCTEXT('task-mulfdra2obol20'),$);
#175=IFCPROPERTYSET('Qxqp7h4lJBT9pzZH0PCbv5',#6,'OPS_TaskIdentity',$,(#174));
#176=IFCRELDEFINESBYPROPERTIES('X1FpfDPt$9Vbzb81ph93Dl',#6,$,$,(#92),#175);
#177=IFCPROPERTYSINGLEVALUE('InternalTaskId',$,IFCTEXT('task-mulfdra3vbnb21'),$);
#178=IFCPROPERTYSET('CB9pPbs1OFyhsvYndrij_X',#6,'OPS_TaskIdentity',$,(#177));
#179=IFCRELDEFINESBYPROPERTIES('jN0tQfOvGT4p0zxn69MNYl',#6,$,$,(#94),#178);
#180=IFCPROPERTYSINGLEVALUE('InternalTaskId',$,IFCTEXT('task-mulfdra61kw722'),$);
#181=IFCPROPERTYSET('gzFpzPr$8Vw1y9SllL$xfX',#6,'OPS_TaskIdentity',$,(#180));
#182=IFCRELDEFINESBYPROPERTIES('FvkHj1gdn32t9tylXHFZBv',#6,$,$,(#96),#181);
#183=IFCPROPERTYSINGLEVALUE('InternalTaskId',$,IFCTEXT('task-mulfdra7fno223'),$);
#184=IFCPROPERTYSET('zj_BnrtfYdyL6$hlRb_Hhj',#6,'OPS_TaskIdentity',$,(#183));
#185=IFCRELDEFINESBYPROPERTIES('4Fd3EZX7mz0nFDVXOpDd1j',#6,$,$,(#98),#184);
#186=IFCPROPERTYSINGLEVALUE('InternalTaskId',$,IFCTEXT('task-mulfdra9ho2x24'),$);
#187=IFCPROPERTYSET('2HVhPbEHzluf5RClgHzNAZ',#6,'OPS_TaskIdentity',$,(#186));
#188=IFCRELDEFINESBYPROPERTIES('tjrnppl7GDIPGhMl6pZNI7',#6,$,$,(#100),#187);
#189=IFCPROPERTYSINGLEVALUE('InternalTaskId',$,IFCTEXT('task-mulfdrabhe2m25'),$);
#190=IFCPROPERTYSET('9t6tsHdtjrZ9pzbFWf_BKp',#6,'OPS_TaskIdentity',$,(#189));
#191=IFCRELDEFINESBYPROPERTIES('_p_VCv$dBT4hcFt1t7yLMf',#6,$,$,(#102),#190);
#192=IFCPROPERTYSINGLEVALUE('InternalTaskId',$,IFCTEXT('task-mulfdraehgz126'),$);
#193=IFCPROPERTYSET('7rEF1Z09ddyDqHpl3H7R5r',#6,'OPS_TaskIdentity',$,(#192));
#194=IFCRELDEFINESBYPROPERTIES('0FTNaFylH$_b1rkVEDIxtn',#6,$,$,(#104),#193);
#195=IFCPROPERTYSINGLEVALUE('InternalTaskId',$,IFCTEXT('task-mulfdragci5y27'),$);
#196=IFCPROPERTYSET('Gv_XKthHFzw$WprlHdqbln',#6,'OPS_TaskIdentity',$,(#195));
#197=IFCRELDEFINESBYPROPERTIES('ttsv13SlZVsHh3nV75kxzL',#6,$,$,(#106),#196);
#198=IFCPROPERTYSINGLEVALUE('InternalTaskId',$,IFCTEXT('task-mulfdraivjme28'),$);
#199=IFCPROPERTYSET('L7ahBZmNkXBF1LclXFB$65',#6,'OPS_TaskIdentity',$,(#198));
#200=IFCRELDEFINESBYPROPERTIES('aZ8nzLS1o57LkbaHRb_HlH',#6,$,$,(#108),#199);
#201=IFCPROPERTYSINGLEVALUE('InternalTaskId',$,IFCTEXT('task-mulfdraku3o929'),$);
#202=IFCPROPERTYSET('CfUhH$fNM5vLInTFoltBaf',#6,'OPS_TaskIdentity',$,(#201));
#203=IFCRELDEFINESBYPROPERTIES('xhERSJM$sfLlRhIFipkxjz',#6,$,$,(#110),#202);
#204=IFCPROPERTYSINGLEVALUE('InternalTaskId',$,IFCTEXT('task-mulfdrama63530'),$);
#205=IFCPROPERTYSET('xBMPP5Qv4lJNfxSFbRI1kL',#6,'OPS_TaskIdentity',$,(#204));
#206=IFCRELDEFINESBYPROPERTIES('2FjdVNOvGzO9v$ZFk1pdfV',#6,$,$,(#112),#205);
#207=IFCPROPERTYSINGLEVALUE('InternalTaskId',$,IFCTEXT('task-mulfdrapm1yk31'),$);
#208=IFCPROPERTYSET('2jYhZ9pV7NUNXlFVHPaz3v',#6,'OPS_TaskIdentity',$,(#207));
#209=IFCRELDEFINESBYPROPERTIES('5HJd3dh1Qpu7gNWXj9k1IB',#6,$,$,(#114),#208);
#210=IFCPROPERTYSINGLEVALUE('InternalTaskId',$,IFCTEXT('task-mulfdrar0m0p32'),$);
#211=IFCPROPERTYSET('uJZfqRZHFz293xKlGHnZpp',#6,'OPS_TaskIdentity',$,(#210));
#212=IFCRELDEFINESBYPROPERTIES('FrdzAlNNW59brvAHyrb16V',#6,$,$,(#116),#211);
#213=IFCPROPERTYSINGLEVALUE('MilestoneKind',$,IFCLABEL('START'),$);
#214=IFCPROPERTYSET('aTmv134$WRDt$h6H5ByL_V',#6,'OPS_Milestone',$,(#213));
#215=IFCRELDEFINESBYPROPERTIES('BfkxgRZHjNpP4Ne$RxQpyv',#6,$,$,(#72),#214);
#216=IFCPROPERTYSINGLEVALUE('MilestoneKind',$,IFCLABEL('FINISH'),$);
#217=IFCPROPERTYSINGLEVALUE('Mandatory',$,IFCBOOLEAN(.T.),$);
#218=IFCPROPERTYSET('aZOHlVB$yxFDSpt$hZ3fEN',#6,'OPS_Milestone',$,(#216,#217));
#219=IFCRELDEFINESBYPROPERTIES('BfgzMVxV7ZC5Xl7$jRH3N3',#6,$,$,(#84),#218);
#220=IFCPROPERTYSINGLEVALUE('MilestoneKind',$,IFCLABEL('FINISH'),$);
#221=IFCPROPERTYSET('7B6t_rOdPpw$mRO$i1d5lB',#6,'OPS_Milestone',$,(#220));
#222=IFCRELDEFINESBYPROPERTIES('kfuXqRB1G3GXc33HYBLHDl',#6,$,$,(#116),#221);
ENDSEC;
END-ISO-10303-21;
