ISO-10303-21;
HEADER;
FILE_DESCRIPTION(('ViewDefinition [SchedulingView]'),'2;1');
FILE_NAME('Aanbouw woning.ifc','2026-09-29T14:10:40',('Open Planner Studio'),('OpenAEC Foundation'),'Open Planner Studio 0.1','Open Planner Studio','');
FILE_SCHEMA(('IFC4X3'));
ENDSEC;
DATA;
#1=IFCPERSON($,$,$,$,$,$,$,$);
#2=IFCORGANIZATION($,$,$,$,$);
#3=IFCPERSONANDORGANIZATION(#1,#2,$);
#4=IFCORGANIZATION($,'OpenAEC Foundation',$,$,$);
#5=IFCAPPLICATION(#4,'0.2','Open Planner Studio','OPS');
#6=IFCOWNERHISTORY(#3,#5,$,.NOCHANGE.,$,$,$,1790691040);
#7=IFCSIUNIT(*,.LENGTHUNIT.,$,.METRE.);
#8=IFCSIUNIT(*,.TIMEUNIT.,$,.SECOND.);
#9=IFCUNITASSIGNMENT((#7,#8));
#10=IFCCARTESIANPOINT((0.,0.,0.));
#11=IFCAXIS2PLACEMENT3D(#10,$,$);
#12=IFCGEOMETRICREPRESENTATIONCONTEXT($,'Plan',3,1.0E-05,#11,$);
#13=IFCPROJECT('3ryNm4OG8MBEEVyJmgDOI3',#6,'Aanbouw woning','Uitbouw van 4 bij 5 meter aan de achtergevel van een eengezinswoning \X2\2014\X0\ het oefenproject van de tutorials.',$,$,$,(#12),#9);
#14=IFCTIMEPERIOD('07:00:00','16:00:00');
#15=IFCRECURRENCEPATTERN(.WEEKLY.,$,(1,2,3,4,5),$,$,$,$,(#14));
#16=IFCWORKTIME('Standard work week',.PREDICTED.,$,#15,$,$);
#17=IFCWORKTIME('Nieuwjaar',.PREDICTED.,$,$,'2026-01-01','2026-01-01');
#18=IFCWORKTIME('Goede Vrijdag',.PREDICTED.,$,$,'2026-04-03','2026-04-03');
#19=IFCWORKTIME('Pasen',.PREDICTED.,$,$,'2026-04-05','2026-04-06');
#20=IFCWORKTIME('Koningsdag',.PREDICTED.,$,$,'2026-04-27','2026-04-27');
#21=IFCWORKTIME('Hemelvaart',.PREDICTED.,$,$,'2026-05-14','2026-05-14');
#22=IFCWORKTIME('Pinksteren',.PREDICTED.,$,$,'2026-05-24','2026-05-25');
#23=IFCWORKTIME('Bouwvak (Midden)',.PREDICTED.,$,$,'2026-08-03','2026-08-21');
#24=IFCWORKTIME('Kerst',.PREDICTED.,$,$,'2026-12-25','2026-12-26');
#25=IFCWORKTIME('Nieuwjaar',.PREDICTED.,$,$,'2027-01-01','2027-01-01');
#26=IFCWORKTIME('Goede Vrijdag',.PREDICTED.,$,$,'2027-03-26','2027-03-26');
#27=IFCWORKTIME('Pasen',.PREDICTED.,$,$,'2027-03-28','2027-03-29');
#28=IFCWORKTIME('Koningsdag',.PREDICTED.,$,$,'2027-04-27','2027-04-27');
#29=IFCWORKTIME('Hemelvaart',.PREDICTED.,$,$,'2027-05-06','2027-05-06');
#30=IFCWORKTIME('Pinksteren',.PREDICTED.,$,$,'2027-05-16','2027-05-17');
#31=IFCWORKTIME('Bouwvak (Midden)',.PREDICTED.,$,$,'2027-08-02','2027-08-20');
#32=IFCWORKTIME('Kerst',.PREDICTED.,$,$,'2027-12-25','2027-12-26');
#33=IFCWORKTIME('Nieuwjaar',.PREDICTED.,$,$,'2028-01-01','2028-01-01');
#34=IFCWORKTIME('Goede Vrijdag',.PREDICTED.,$,$,'2028-04-14','2028-04-14');
#35=IFCWORKTIME('Pasen',.PREDICTED.,$,$,'2028-04-16','2028-04-17');
#36=IFCWORKTIME('Koningsdag',.PREDICTED.,$,$,'2028-04-27','2028-04-27');
#37=IFCWORKTIME('Hemelvaart',.PREDICTED.,$,$,'2028-05-25','2028-05-25');
#38=IFCWORKTIME('Pinksteren',.PREDICTED.,$,$,'2028-06-04','2028-06-05');
#39=IFCWORKTIME('Bouwvak (Midden)',.PREDICTED.,$,$,'2028-07-24','2028-08-11');
#40=IFCWORKTIME('Kerst',.PREDICTED.,$,$,'2028-12-25','2028-12-26');
#41=IFCWORKTIME('Nieuwjaar',.PREDICTED.,$,$,'2029-01-01','2029-01-01');
#42=IFCWORKTIME('Goede Vrijdag',.PREDICTED.,$,$,'2029-03-30','2029-03-30');
#43=IFCWORKTIME('Pasen',.PREDICTED.,$,$,'2029-04-01','2029-04-02');
#44=IFCWORKTIME('Koningsdag',.PREDICTED.,$,$,'2029-04-27','2029-04-27');
#45=IFCWORKTIME('Hemelvaart',.PREDICTED.,$,$,'2029-05-10','2029-05-10');
#46=IFCWORKTIME('Pinksteren',.PREDICTED.,$,$,'2029-05-20','2029-05-21');
#47=IFCWORKTIME('Bouwvak (Midden)',.PREDICTED.,$,$,'2029-07-30','2029-08-17');
#48=IFCWORKTIME('Kerst',.PREDICTED.,$,$,'2029-12-25','2029-12-26');
#49=IFCWORKTIME('Nieuwjaar',.PREDICTED.,$,$,'2030-01-01','2030-01-01');
#50=IFCWORKTIME('Goede Vrijdag',.PREDICTED.,$,$,'2030-04-19','2030-04-19');
#51=IFCWORKTIME('Pasen',.PREDICTED.,$,$,'2030-04-21','2030-04-22');
#52=IFCWORKTIME('Koningsdag',.PREDICTED.,$,$,'2030-04-27','2030-04-27');
#53=IFCWORKTIME('Bevrijdingsdag',.PREDICTED.,$,$,'2030-05-05','2030-05-05');
#54=IFCWORKTIME('Hemelvaart',.PREDICTED.,$,$,'2030-05-30','2030-05-30');
#55=IFCWORKTIME('Pinksteren',.PREDICTED.,$,$,'2030-06-09','2030-06-10');
#56=IFCWORKTIME('Bouwvak (Midden)',.PREDICTED.,$,$,'2030-07-29','2030-08-16');
#57=IFCWORKTIME('Kerst',.PREDICTED.,$,$,'2030-12-25','2030-12-26');
#58=IFCWORKCALENDAR('0y12yFPd9ahDXl8OZJwM3p',#6,'Bouwkalender NL','Standaard bouwkalender: ma-vr 07:00-16:00',$,(#16),(#17,#18,#19,#20,#21,#22,#23,#24,#25,#26,#27,#28,#29,#30,#31,#32,#33,#34,#35,#36,#37,#38,#39,#40,#41,#42,#43,#44,#45,#46,#47,#48,#49,#50,#51,#52,#53,#54,#55,#56,#57),.FIRSTSHIFT.);
#59=IFCPROPERTYSINGLEVALUE('RuleSetId',$,IFCLABEL('NL'),$);
#60=IFCPROPERTYSINGLEVALUE('BreakChoice',$,IFCLABEL('midden'),$);
#61=IFCPROPERTYSINGLEVALUE('GeneratedFromYear',$,IFCINTEGER(2026),$);
#62=IFCPROPERTYSINGLEVALUE('GeneratedToYear',$,IFCINTEGER(2030),$);
#63=IFCPROPERTYSINGLEVALUE('HoursPerDay',$,IFCREAL(8),$);
#64=IFCPROPERTYSET('2k6vSZX4YErymSapQLigXn',#6,'OPS_Calendar',$,(#59,#60,#61,#62,#63));
#65=IFCRELDEFINESBYPROPERTIES('3Mw1$7dtpEabl02$yafBQJ',#6,$,$,(#58),#64);
#66=IFCWORKPLAN('3nzpICstjER0duGBmLo$Wj',#6,'Aanbouw woning','Uitbouw van 4 bij 5 meter aan de achtergevel van een eengezinswoning \X2\2014\X0\ het oefenproject van de tutorials.',$,$,'2026-09-29T14:10:40',$,$,$,$,$,'2027-06-07T07:00:00','2027-06-14T07:00:00',.PLANNED.);
#67=IFCWORKSCHEDULE('1mcp1zYs3Xr69VQdzA4w1$',#6,'Construction schedule v1.0',$,$,$,'2026-09-29T14:10:40',$,$,$,$,$,'2027-06-07T07:00:00','2027-06-14T07:00:00',.PLANNED.);
#68=IFCRELAGGREGATES('18CvB5m_9VBSDyft1x8ikq',#6,$,$,#66,(#67));
#69=IFCTASKTIME('Voorbereiding Time',.PREDICTED.,$,.WORKTIME.,'P0Y0M4D','2027-06-07T07:00:00','2027-06-11T07:00:00','2027-06-07T07:00:00','2027-06-10T07:00:00','2027-06-07T07:00:00','2027-06-10T07:00:00','P0Y0M0D','P0Y0M0D',.T.,$,$,$,$,$,0.00);
#70=IFCTASK('3INg5Z8KBZJsmYiTnnhC9S',#6,'Voorbereiding',$,$,'1',$,$,$,.F.,$,#69,.CONSTRUCTION.);
#71=IFCTASKTIME('Fundering Time',.PREDICTED.,$,.WORKTIME.,'P0Y0M12D','2027-06-07T07:00:00','2027-06-11T07:00:00','2027-06-11T07:00:00','2027-06-28T07:00:00','2027-06-11T07:00:00','2027-06-28T07:00:00','P0Y0M0D','P0Y0M0D',.T.,$,$,$,$,$,0.00);
#72=IFCTASK('1eIM_PD8q3FREptLdkkbMc',#6,'Fundering',$,$,'2',$,$,$,.F.,$,#71,.CONSTRUCTION.);
#73=IFCTASKTIME('Ruwbouw Time',.PREDICTED.,$,.WORKTIME.,'P0Y0M12D','2027-06-07T07:00:00','2027-06-11T07:00:00','2027-06-29T07:00:00','2027-07-14T07:00:00','2027-06-29T07:00:00','2027-07-14T07:00:00','P0Y0M0D','P0Y0M0D',.T.,$,$,$,$,$,0.00);
#74=IFCTASK('3uMPLE0m1sPjt4UGxRO7_N',#6,'Ruwbouw',$,$,'3',$,$,$,.F.,$,#73,.CONSTRUCTION.);
#75=IFCTASKTIME('Afbouw Time',.PREDICTED.,$,.WORKTIME.,'P0Y0M17D','2027-06-07T07:00:00','2027-06-11T07:00:00','2027-07-15T07:00:00','2027-08-27T07:00:00','2027-07-15T07:00:00','2027-08-27T07:00:00','P0Y0M0D','P0Y0M0D',.T.,$,$,$,$,$,0.00);
#76=IFCTASK('1ghVpbww5thlfSWMoSAWzX',#6,'Afbouw',$,$,'4',$,$,$,.F.,$,#75,.CONSTRUCTION.);
#77=IFCTASKTIME('Start bouw Time',.PREDICTED.,$,.WORKTIME.,'P0Y0M0D','2027-06-07T07:00:00','2027-06-07T07:00:00','2027-06-07T07:00:00','2027-06-07T07:00:00','2027-06-07T07:00:00','2027-06-07T07:00:00','P0Y0M0D','P0Y0M0D',.T.,$,$,$,$,$,0.00);
#78=IFCTASK('29A9emD9WUu57asOi7p8OO',#6,'Start bouw',$,$,'1.1',$,$,$,.T.,$,#77,.USERDEFINED.);
#79=IFCTASKTIME('Bouwplaats inrichten Time',.PREDICTED.,$,.WORKTIME.,'P0Y0M2D','2027-06-07T07:00:00','2027-06-08T07:00:00','2027-06-07T07:00:00','2027-06-08T07:00:00','2027-06-07T07:00:00','2027-06-08T07:00:00','P0Y0M0D','P0Y0M0D',.T.,$,$,$,$,$,0.00);
#80=IFCTASK('2u2uzCUdSXmcneUaqcqsOT',#6,'Bouwplaats inrichten',$,$,'1.2',$,$,$,.F.,$,#79,.CONSTRUCTION.);
#81=IFCTASKTIME('Tuin en bestrating verwijderen Time',.PREDICTED.,$,.WORKTIME.,'P0Y0M1D','2027-06-07T07:00:00','2027-06-07T07:00:00','2027-06-09T07:00:00','2027-06-09T07:00:00','2027-06-09T07:00:00','2027-06-09T07:00:00','P0Y0M0D','P0Y0M0D',.T.,$,$,$,$,$,0.00);
#82=IFCTASK('1AgiuovoSPHFlKQpoV3Mr7',#6,'Tuin en bestrating verwijderen',$,$,'1.3',$,$,$,.F.,$,#81,.CONSTRUCTION.);
#83=IFCTASKTIME('Aanbouw uitzetten Time',.PREDICTED.,$,.WORKTIME.,'P0Y0M1D','2027-06-07T07:00:00','2027-06-07T07:00:00','2027-06-10T07:00:00','2027-06-10T07:00:00','2027-06-10T07:00:00','2027-06-10T07:00:00','P0Y0M0D','P0Y0M0D',.T.,$,$,$,$,$,0.00);
#84=IFCTASK('1GN332WXnIAQ5P0JOw2x8d',#6,'Aanbouw uitzetten',$,$,'1.4',$,$,$,.F.,$,#83,.CONSTRUCTION.);
#85=IFCTASKTIME('Funderingssleuf ontgraven Time',.PREDICTED.,$,.WORKTIME.,'P0Y0M2D','2027-06-07T07:00:00','2027-06-08T07:00:00','2027-06-11T07:00:00','2027-06-14T07:00:00','2027-06-11T07:00:00','2027-06-14T07:00:00','P0Y0M0D','P0Y0M0D',.T.,$,$,$,$,$,0.00);
#86=IFCTASK('0kmHio8q7Po2eoXxZ9Luda',#6,'Funderingssleuf ontgraven',$,$,'2.1',$,$,$,.F.,$,#85,.CONSTRUCTION.);
#87=IFCTASKTIME('Wapening en bekisting fundering Time',.PREDICTED.,$,.WORKTIME.,'P0Y0M3D','2027-06-07T07:00:00','2027-06-09T07:00:00','2027-06-15T07:00:00','2027-06-17T07:00:00','2027-06-15T07:00:00','2027-06-17T07:00:00','P0Y0M0D','P0Y0M0D',.T.,$,$,$,$,$,0.00);
#88=IFCTASK('2vXouL4Q1fTZVc_YoqmVCW',#6,'Wapening en bekisting fundering',$,$,'2.2',$,$,$,.F.,$,#87,.CONSTRUCTION.);
#89=IFCTASKTIME('Inspectie wapening Time',.PREDICTED.,$,.WORKTIME.,'P0Y0M0D','2027-06-07T07:00:00','2027-06-07T07:00:00','2027-06-17T07:00:00','2027-06-17T07:00:00','2027-06-17T07:00:00','2027-06-17T07:00:00','P0Y0M0D','P0Y0M0D',.T.,$,$,$,$,$,0.00);
#90=IFCTASK('1PSx5BgOCAMut2mmqwb66V',#6,'Inspectie wapening',$,$,'2.3',$,$,$,.T.,$,#89,.ATTENDANCE.);
#91=IFCTASKTIME('Fundering storten Time',.PREDICTED.,$,.WORKTIME.,'P0Y0M1D','2027-06-07T07:00:00','2027-06-07T07:00:00','2027-06-18T07:00:00','2027-06-18T07:00:00','2027-06-18T07:00:00','2027-06-18T07:00:00','P0Y0M0D','P0Y0M0D',.T.,$,$,$,$,$,0.00);
#92=IFCTASK('1u3glr4sPyMjirU7jFl0xF',#6,'Fundering storten',$,$,'2.4',$,$,$,.F.,$,#91,.CONSTRUCTION.);
#93=IFCTASKTIME('Funderingsmetselwerk Time',.PREDICTED.,$,.WORKTIME.,'P0Y0M2D','2027-06-07T07:00:00','2027-06-08T07:00:00','2027-06-24T07:00:00','2027-06-25T07:00:00','2027-06-24T07:00:00','2027-06-25T07:00:00','P0Y0M0D','P0Y0M0D',.T.,$,$,$,$,$,0.00);
#94=IFCTASK('2bpUB7reemqUKOnLli3O4b',#6,'Funderingsmetselwerk',$,$,'2.5',$,$,$,.F.,$,#93,.CONSTRUCTION.);
#95=IFCTASKTIME('Kanaalplaatvloer leggen Time',.PREDICTED.,$,.WORKTIME.,'P0Y0M1D','2027-06-07T07:00:00','2027-06-07T07:00:00','2027-06-28T07:00:00','2027-06-28T07:00:00','2027-06-28T07:00:00','2027-06-28T07:00:00','P0Y0M0D','P0Y0M0D',.T.,$,$,$,$,$,0.00);
#96=IFCTASK('1q4KzqioR3BBe9SfFDH1Sz',#6,'Kanaalplaatvloer leggen',$,$,'2.6',$,$,$,.F.,$,#95,.CONSTRUCTION.);
#97=IFCTASKTIME('Binnenspouwblad metselen Time',.PREDICTED.,$,.WORKTIME.,'P0Y0M5D','2027-06-07T07:00:00','2027-06-11T07:00:00','2027-06-29T07:00:00','2027-07-05T07:00:00','2027-06-29T07:00:00','2027-07-05T07:00:00','P0Y0M0D','P0Y0M0D',.T.,$,$,$,$,$,0.00);
#98=IFCTASK('35MdnKBj0RosuwnxobrZCa',#6,'Binnenspouwblad metselen',$,$,'3.1',$,$,$,.F.,$,#97,.CONSTRUCTION.);
#99=IFCTASKTIME('Buitenspouwblad metselen Time',.PREDICTED.,$,.WORKTIME.,'P0Y0M6D','2027-06-07T07:00:00','2027-06-14T07:00:00','2027-06-29T07:00:00','2027-07-06T07:00:00','2027-07-01T07:00:00','2027-07-08T07:00:00','P0Y0M2D','P0Y0M2D',.F.,$,$,$,$,$,0.00);
#100=IFCTASK('2aq6OB2DOBft$3Zcnxk44u',#6,'Buitenspouwblad metselen',$,$,'3.2',$,$,$,.F.,$,#99,.CONSTRUCTION.);
#101=IFCTASKTIME('Dakelementen plaatsen Time',.PREDICTED.,$,.WORKTIME.,'P0Y0M1D','2027-06-07T07:00:00','2027-06-07T07:00:00','2027-07-06T07:00:00','2027-07-06T07:00:00','2027-07-06T07:00:00','2027-07-06T07:00:00','P0Y0M0D','P0Y0M0D',.T.,$,$,$,$,$,0.00);
#102=IFCTASK('2hmX2OWbN5cv6fNR7xvCse',#6,'Dakelementen plaatsen',$,$,'3.3',$,$,$,.F.,$,#101,.CONSTRUCTION.);
#103=IFCTASKTIME('Dakbedekking aanbrengen Time',.PREDICTED.,$,.WORKTIME.,'P0Y0M2D','2027-06-07T07:00:00','2027-06-08T07:00:00','2027-07-07T07:00:00','2027-07-08T07:00:00','2027-07-07T07:00:00','2027-07-08T07:00:00','P0Y0M0D','P0Y0M0D',.T.,$,$,$,$,$,0.00);
#104=IFCTASK('2nQY_RSFmpNCAeEHZIuFOy',#6,'Dakbedekking aanbrengen',$,$,'3.4',$,$,$,.F.,$,#103,.CONSTRUCTION.);
#105=IFCTASKTIME('Kozijnen plaatsen Time',.PREDICTED.,$,.WORKTIME.,'P0Y0M2D','2027-06-07T07:00:00','2027-06-08T07:00:00','2027-07-09T07:00:00','2027-07-12T07:00:00','2027-07-09T07:00:00','2027-07-12T07:00:00','P0Y0M0D','P0Y0M0D',.T.,$,$,$,$,$,0.00);
#106=IFCTASK('333NTTGZUe$FFFawy8UjY$',#6,'Kozijnen plaatsen',$,$,'3.5',$,$,$,.F.,$,#105,.CONSTRUCTION.);
#107=IFCTASKTIME('Achtergevel doorbreken Time',.PREDICTED.,$,.WORKTIME.,'P0Y0M2D','2027-06-07T07:00:00','2027-06-08T07:00:00','2027-07-13T07:00:00','2027-07-14T07:00:00','2027-07-13T07:00:00','2027-07-14T07:00:00','P0Y0M0D','P0Y0M0D',.T.,$,$,$,$,$,0.00);
#108=IFCTASK('2yC5Rz2o6ih9JMRjNkbl3u',#6,'Achtergevel doorbreken',$,$,'3.6',$,$,$,.F.,$,#107,.CONSTRUCTION.);
#109=IFCTASKTIME('Installaties aanleggen Time',.PREDICTED.,$,.WORKTIME.,'P0Y0M3D','2027-06-07T07:00:00','2027-06-09T07:00:00','2027-07-15T07:00:00','2027-07-19T07:00:00','2027-07-15T07:00:00','2027-07-19T07:00:00','P0Y0M0D','P0Y0M0D',.T.,$,$,$,$,$,0.00);
#110=IFCTASK('0wYuzWSADNwW193uDHEWsR',#6,'Installaties aanleggen',$,$,'4.1',$,$,$,.F.,$,#109,.CONSTRUCTION.);
#111=IFCTASKTIME('Stucwerk Time',.PREDICTED.,$,.WORKTIME.,'P0Y0M4D','2027-06-07T07:00:00','2027-06-10T07:00:00','2027-07-20T07:00:00','2027-07-23T07:00:00','2027-07-20T07:00:00','2027-07-23T07:00:00','P0Y0M0D','P0Y0M0D',.T.,$,$,$,$,$,0.00);
#112=IFCTASK('3p_dcMSq7vgPJMFcYf2Ybj',#6,'Stucwerk',$,$,'4.2',$,$,$,.F.,$,#111,.CONSTRUCTION.);
#113=IFCTASKTIME('Dekvloer aanbrengen Time',.PREDICTED.,$,.WORKTIME.,'P0Y0M1D','2027-06-07T07:00:00','2027-06-07T07:00:00','2027-07-26T07:00:00','2027-07-26T07:00:00','2027-07-26T07:00:00','2027-07-26T07:00:00','P0Y0M0D','P0Y0M0D',.T.,$,$,$,$,$,0.00);
#114=IFCTASK('3RkZqtHIwgtR_wRWahhbM6',#6,'Dekvloer aanbrengen',$,$,'4.3',$,$,$,.F.,$,#113,.CONSTRUCTION.);
#115=IFCTASKTIME('Tegelwerk Time',.PREDICTED.,$,.WORKTIME.,'P0Y0M3D','2027-06-07T07:00:00','2027-06-09T07:00:00','2027-08-24T07:00:00','2027-08-26T07:00:00','2027-08-24T07:00:00','2027-08-26T07:00:00','P0Y0M0D','P0Y0M0D',.T.,$,$,$,$,$,0.00);
#116=IFCTASK('26SDDFMhyFxMuNijCOcue_',#6,'Tegelwerk',$,$,'4.4',$,$,$,.F.,$,#115,.CONSTRUCTION.);
#117=IFCTASKTIME('Schilderwerk Time',.PREDICTED.,$,.WORKTIME.,'P0Y0M3D','2027-06-07T07:00:00','2027-06-09T07:00:00','2027-07-26T07:00:00','2027-07-28T07:00:00','2027-08-24T07:00:00','2027-08-26T07:00:00','P0Y0M6D','P0Y0M6D',.F.,$,$,$,$,$,0.00);
#118=IFCTASK('3o$Xu9sq8qfNfPMMT_td2Z',#6,'Schilderwerk',$,$,'4.5',$,$,$,.F.,$,#117,.CONSTRUCTION.);
#119=IFCTASKTIME('Opleverpunten en schoonmaken Time',.PREDICTED.,$,.WORKTIME.,'P0Y0M1D','2027-06-07T07:00:00','2027-06-07T07:00:00','2027-08-27T07:00:00','2027-08-27T07:00:00','2027-08-27T07:00:00','2027-08-27T07:00:00','P0Y0M0D','P0Y0M0D',.T.,$,$,$,$,$,0.00);
#120=IFCTASK('009sDqAv6Hb6On5a5T84BD',#6,'Opleverpunten en schoonmaken',$,$,'4.6',$,$,$,.F.,$,#119,.CONSTRUCTION.);
#121=IFCTASKTIME('Oplevering Time',.PREDICTED.,$,.WORKTIME.,'P0Y0M0D','2027-06-07T07:00:00','2027-06-07T07:00:00','2027-08-27T07:00:00','2027-08-27T07:00:00','2027-08-27T07:00:00','2027-08-27T07:00:00','P0Y0M0D','P0Y0M0D',.T.,$,$,$,$,$,0.00);
#122=IFCTASK('3RLzXwU27diqpi9VDedPUi',#6,'Oplevering',$,$,'4.7',$,$,$,.T.,$,#121,.USERDEFINED.);
#123=IFCRELNESTS('1MGDarWXQgywsctThoRaEN',#6,'WBS Voorbereiding',$,#70,( #78,#80,#82,#84));
#124=IFCRELNESTS('31dw8YCJzgYZvqtCg$4kDs',#6,'WBS Fundering',$,#72,( #86,#88,#90,#92,#94,#96));
#125=IFCRELNESTS('15sjbbYRKjKPEZbmeKIfhm',#6,'WBS Ruwbouw',$,#74,( #98,#100,#102,#104,#106,#108));
#126=IFCRELNESTS('2We242XgeJvjdTpTAmp5Dm',#6,'WBS Afbouw',$,#76,( #110,#112,#114,#116,#118,#120,#122));
#127=IFCRELNESTS('3t$KbqDNDTKajOQ4HKFnZR',#6,'WBS Hoofd',$,#67,(#70,#72,#74,#76));
#128=IFCRELSEQUENCE('1Mnz2OUZWYkW_0UlKe5lst',#6,$,$,#78,#80,$,.FINISH_START.,$);
#129=IFCRELSEQUENCE('2uuw$HLvPg321E6Ku8ciD4',#6,$,$,#80,#82,$,.FINISH_START.,$);
#130=IFCRELSEQUENCE('1JHXLy$2dlJlEqbmY3JaTq',#6,$,$,#82,#84,$,.FINISH_START.,$);
#131=IFCRELSEQUENCE('0oXIeLBsy44FZ1V_a$u0Wd',#6,$,$,#84,#86,$,.FINISH_START.,$);
#132=IFCRELSEQUENCE('3zWzJFEbRftOIPRD0C3vjn',#6,$,$,#86,#88,$,.FINISH_START.,$);
#133=IFCRELSEQUENCE('1fgxaVgE17wcYCtnqV6h5Z',#6,$,$,#88,#90,$,.FINISH_START.,$);
#134=IFCRELSEQUENCE('3c2Yum9XA0bbYsCEgeZ8n0',#6,$,$,#90,#92,$,.FINISH_START.,$);
#135=IFCLAGTIME('Lag',.PREDICTED.,$,IFCDURATION('P3D'),.WORKTIME.);
#136=IFCRELSEQUENCE('2HTi_mn_kllDNp1hn6QLrb',#6,$,$,#92,#94,#135,.FINISH_START.,$);
#137=IFCRELSEQUENCE('2r0ZtLc9ghpJhsfWwHgb05',#6,$,$,#94,#96,$,.FINISH_START.,$);
#138=IFCRELSEQUENCE('12wp1v6B3lm3ukfBeRsndF',#6,$,$,#96,#98,$,.FINISH_START.,$);
#139=IFCRELSEQUENCE('2iZu2BF_3C2S5TgEcAISsL',#6,$,$,#96,#100,$,.FINISH_START.,$);
#140=IFCRELSEQUENCE('29oaLGJDwoxSRUCJNNrf8k',#6,$,$,#98,#102,$,.FINISH_START.,$);
#141=IFCRELSEQUENCE('3HAcyVMk9p5ssj1Cf7CG8o',#6,$,$,#102,#104,$,.FINISH_START.,$);
#142=IFCRELSEQUENCE('2aEd06B_oWSMfukvrt__PE',#6,$,$,#104,#106,$,.FINISH_START.,$);
#143=IFCRELSEQUENCE('1kVAmfmD4fdKJQE4dA3pKB',#6,$,$,#100,#106,$,.FINISH_START.,$);
#144=IFCRELSEQUENCE('1f3LJtBjKmv4m6otVW0anM',#6,$,$,#106,#108,$,.FINISH_START.,$);
#145=IFCRELSEQUENCE('0pSehv96IVHLxAj7MdZGSq',#6,$,$,#108,#110,$,.FINISH_START.,$);
#146=IFCRELSEQUENCE('1pGypqiWyRwwLaLebj3hIG',#6,$,$,#110,#112,$,.FINISH_START.,$);
#147=IFCRELSEQUENCE('2W3mOvpX3TOaWaYazjKXYW',#6,$,$,#112,#114,$,.FINISH_START.,$);
#148=IFCRELSEQUENCE('1yfoa8A_suKQoUkto2px9T',#6,$,$,#112,#118,$,.FINISH_START.,$);
#149=IFCLAGTIME('Lag',.PREDICTED.,$,IFCDURATION('P5D'),.WORKTIME.);
#150=IFCRELSEQUENCE('3G$_Eaj2OegI7hmWIoJ_xz',#6,$,$,#114,#116,#149,.FINISH_START.,$);
#151=IFCRELSEQUENCE('11Sf8XhqhbFSltjS2ulpCH',#6,$,$,#116,#120,$,.FINISH_START.,$);
#152=IFCRELSEQUENCE('2aoM5TKy4R7bo15z01pvKJ',#6,$,$,#118,#120,$,.FINISH_START.,$);
#153=IFCRELSEQUENCE('10XDZPtMpvx9nR3rHOuKIN',#6,$,$,#120,#122,$,.FINISH_START.,$);
#154=IFCRELASSIGNSTOCONTROL('3$tjrRj24anjV69q9TSXk7',#6,$,$,(#70,#72,#74,#76,#78,#80,#82,#84,#86,#88,#90,#92,#94,#96,#98,#100,#102,#104,#106,#108,#110,#112,#114,#116,#118,#120,#122),$,#67);
#155=IFCPROPERTYSINGLEVALUE('InternalProjectId',$,IFCTEXT('proj-mumr7lbasipj4'),$);
#156=IFCPROPERTYSINGLEVALUE('wbsAutoNumber',$,IFCBOOLEAN(.T.),$);
#157=IFCPROPERTYSINGLEVALUE('DefaultTaskDurationUnit',$,IFCLABEL('days'),$);
#158=IFCPROPERTYSINGLEVALUE('ProjectStartDate',$,IFCDATE('2027-06-07'),$);
#159=IFCPROPERTYSINGLEVALUE('ProjectEndDate',$,$,$);
#160=IFCPROPERTYSINGLEVALUE('CreatedAt',$,IFCTEXT('2026-09-29T14:10:39.910Z'),$);
#161=IFCPROPERTYSINGLEVALUE('ModifiedAt',$,IFCTEXT('2026-09-29T14:10:39.910Z'),$);
#162=IFCPROPERTYSET('0jSOh5hiUEKCEzoXhL3mpF',#6,'OPS_ProjectSettings',$,(#155,#156,#157,#158,#159,#160,#161));
#163=IFCRELDEFINESBYPROPERTIES('20YhhExg6wUu4ezC$67vZ2',#6,$,$,(#13),#162);
#164=IFCPROPERTYSINGLEVALUE('InternalTaskId',$,IFCTEXT('task-mumr7lbhejzp6'),$);
#165=IFCPROPERTYSET('1N9pk9UJcYrz$j3DI5AWsA',#6,'OPS_TaskIdentity',$,(#164));
#166=IFCRELDEFINESBYPROPERTIES('0TorGNNo$wlzndbQJLjTRN',#6,$,$,(#70),#165);
#167=IFCPROPERTYSINGLEVALUE('InternalTaskId',$,IFCTEXT('task-mumr7lbp3mzo7'),$);
#168=IFCPROPERTYSET('3FjIwYzGNdlLS7klDM43Fu',#6,'OPS_TaskIdentity',$,(#167));
#169=IFCRELDEFINESBYPROPERTIES('2446qAK7H3yhDWd3080tLZ',#6,$,$,(#72),#168);
#170=IFCPROPERTYSINGLEVALUE('InternalTaskId',$,IFCTEXT('task-mumr7lbskozu8'),$);
#171=IFCPROPERTYSET('1ZxRXZ4$PLD1AlcsaX3ROF',#6,'OPS_TaskIdentity',$,(#170));
#172=IFCRELDEFINESBYPROPERTIES('3khQcrj9nVz5D769xLcoRY',#6,$,$,(#74),#171);
#173=IFCPROPERTYSINGLEVALUE('InternalTaskId',$,IFCTEXT('task-mumr7lbv61i19'),$);
#174=IFCPROPERTYSET('22mlXIPBwdY1MUPi1Wmajx',#6,'OPS_TaskIdentity',$,(#173));
#175=IFCRELDEFINESBYPROPERTIES('3v$ojIl1rQg3SFwneBBrd7',#6,$,$,(#76),#174);
#176=IFCPROPERTYSINGLEVALUE('InternalTaskId',$,IFCTEXT('task-mumr7lby628j10'),$);
#177=IFCPROPERTYSET('1pU8HTfBG32m6NVG3e54rn',#6,'OPS_TaskIdentity',$,(#176));
#178=IFCRELDEFINESBYPROPERTIES('0QlQIddd86ADz4gIifLvTT',#6,$,$,(#78),#177);
#179=IFCPROPERTYSINGLEVALUE('InternalTaskId',$,IFCTEXT('task-mumr7lc2grn911'),$);
#180=IFCPROPERTYSET('1FKApCECpU1DzAOOd0ElsR',#6,'OPS_TaskIdentity',$,(#179));
#181=IFCRELDEFINESBYPROPERTIES('2CQ5hAi4RLC4k$OCRtuCy2',#6,$,$,(#80),#180);
#182=IFCPROPERTYSINGLEVALUE('InternalTaskId',$,IFCTEXT('task-mumr7lc4ubu512'),$);
#183=IFCPROPERTYSET('0evMm0IIkR$j$lcxhPw9FJ',#6,'OPS_TaskIdentity',$,(#182));
#184=IFCRELDEFINESBYPROPERTIES('0_uGrLZPUff82SkcmyDN$g',#6,$,$,(#82),#183);
#185=IFCPROPERTYSINGLEVALUE('InternalTaskId',$,IFCTEXT('task-mumr7lc70d1x13'),$);
#186=IFCPROPERTYSET('1FzDJnaRqv1OyocmRNSpAk',#6,'OPS_TaskIdentity',$,(#185));
#187=IFCRELDEFINESBYPROPERTIES('1juChCc8_4Z$$6jRC_izyZ',#6,$,$,(#84),#186);
#188=IFCPROPERTYSINGLEVALUE('InternalTaskId',$,IFCTEXT('task-mumr7lc9dpmj14'),$);
#189=IFCPROPERTYSET('3swezaXGBaYrUhIsKPotfG',#6,'OPS_TaskIdentity',$,(#188));
#190=IFCRELDEFINESBYPROPERTIES('248QKTKD5fCEpE5CXxp1Zw',#6,$,$,(#86),#189);
#191=IFCPROPERTYSINGLEVALUE('InternalTaskId',$,IFCTEXT('task-mumr7lcc02gd15'),$);
#192=IFCPROPERTYSET('1o_8BjSwghd0Q9ONqdBmhk',#6,'OPS_TaskIdentity',$,(#191));
#193=IFCRELDEFINESBYPROPERTIES('0_8Jz29AGE_YTd8IBvIP9c',#6,$,$,(#88),#192);
#194=IFCPROPERTYSINGLEVALUE('InternalTaskId',$,IFCTEXT('task-mumr7lcgitjz16'),$);
#195=IFCPROPERTYSET('1K3Zkf$lqPclqUP5wpJWa1',#6,'OPS_TaskIdentity',$,(#194));
#196=IFCRELDEFINESBYPROPERTIES('09nUoQoNw2M6zmq3HcdS70',#6,$,$,(#90),#195);
#197=IFCPROPERTYSINGLEVALUE('InternalTaskId',$,IFCTEXT('task-mumr7lci55xu17'),$);
#198=IFCPROPERTYSET('2ejqq9g6AurBptIskpCf8W',#6,'OPS_TaskIdentity',$,(#197));
#199=IFCRELDEFINESBYPROPERTIES('1Bxj7zRsHR4RAV1ssB$PEi',#6,$,$,(#92),#198);
#200=IFCPROPERTYSINGLEVALUE('InternalTaskId',$,IFCTEXT('task-mumr7lclkasq18'),$);
#201=IFCPROPERTYSET('2cIVKBI1TP10df60mx$bce',#6,'OPS_TaskIdentity',$,(#200));
#202=IFCRELDEFINESBYPROPERTIES('20DX2_gp5PuFE00VMnvRSS',#6,$,$,(#94),#201);
#203=IFCPROPERTYSINGLEVALUE('InternalTaskId',$,IFCTEXT('task-mumr7lcp7oue19'),$);
#204=IFCPROPERTYSET('0_Jk5pZwI18V2srnIpzwxC',#6,'OPS_TaskIdentity',$,(#203));
#205=IFCRELDEFINESBYPROPERTIES('3M4YfiItXGasUgKZNFGpSe',#6,$,$,(#96),#204);
#206=IFCPROPERTYSINGLEVALUE('InternalTaskId',$,IFCTEXT('task-mumr7lcvlpn520'),$);
#207=IFCPROPERTYSET('19Ti5xJtV37ba6gyTlV$Wn',#6,'OPS_TaskIdentity',$,(#206));
#208=IFCRELDEFINESBYPROPERTIES('3AoRjilL9tnp$RqGp9J920',#6,$,$,(#98),#207);
#209=IFCPROPERTYSINGLEVALUE('InternalTaskId',$,IFCTEXT('task-mumr7lcyt7r421'),$);
#210=IFCPROPERTYSET('3VN4GDBYhDvzbU_ZcYpS3b',#6,'OPS_TaskIdentity',$,(#209));
#211=IFCRELDEFINESBYPROPERTIES('0qoFH8f8yPrBUa44Ks7nGV',#6,$,$,(#100),#210);
#212=IFCPROPERTYSINGLEVALUE('InternalTaskId',$,IFCTEXT('task-mumr7ld0wwue22'),$);
#213=IFCPROPERTYSET('02QfKMqH2VBrJQ4eqaD7d4',#6,'OPS_TaskIdentity',$,(#212));
#214=IFCRELDEFINESBYPROPERTIES('175XCrcucOWOvufzme1uFI',#6,$,$,(#102),#213);
#215=IFCPROPERTYSINGLEVALUE('InternalTaskId',$,IFCTEXT('task-mumr7ld2jo9g23'),$);
#216=IFCPROPERTYSET('22I7pjz9X4_WyKDFSzjECT',#6,'OPS_TaskIdentity',$,(#215));
#217=IFCRELDEFINESBYPROPERTIES('0pAxB2jYZ_6GDr2Eb_GtLH',#6,$,$,(#104),#216);
#218=IFCPROPERTYSINGLEVALUE('InternalTaskId',$,IFCTEXT('task-mumr7ld4lr0t24'),$);
#219=IFCPROPERTYSET('1Rstz44FnoR96OWpJTTqcB',#6,'OPS_TaskIdentity',$,(#218));
#220=IFCRELDEFINESBYPROPERTIES('2tddVIX7STo2u5fotqkBZ7',#6,$,$,(#106),#219);
#221=IFCPROPERTYSINGLEVALUE('InternalTaskId',$,IFCTEXT('task-mumr7ld6i5jc25'),$);
#222=IFCPROPERTYSET('2LWUp5_ILv84ppqfKroFCs',#6,'OPS_TaskIdentity',$,(#221));
#223=IFCRELDEFINESBYPROPERTIES('0$1AxxRnPBAjofwarwkQwf',#6,$,$,(#108),#222);
#224=IFCPROPERTYSINGLEVALUE('InternalTaskId',$,IFCTEXT('task-mumr7ldagjbo26'),$);
#225=IFCPROPERTYSET('0c_1HxQsQnsEbiKrFeITyr',#6,'OPS_TaskIdentity',$,(#224));
#226=IFCRELDEFINESBYPROPERTIES('2u$X9DnfvtZFYXa$hVvBKT',#6,$,$,(#110),#225);
#227=IFCPROPERTYSINGLEVALUE('InternalTaskId',$,IFCTEXT('task-mumr7ldch8ri27'),$);
#228=IFCPROPERTYSET('0n_fc_b_sGB9VYFRKKoxy8',#6,'OPS_TaskIdentity',$,(#227));
#229=IFCRELDEFINESBYPROPERTIES('3V2BcZjNIoP2GYWGHxM18n',#6,$,$,(#112),#228);
#230=IFCPROPERTYSINGLEVALUE('InternalTaskId',$,IFCTEXT('task-mumr7lder9wm28'),$);
#231=IFCPROPERTYSET('3CCnX5cELQA5hsPuxG_1$H',#6,'OPS_TaskIdentity',$,(#230));
#232=IFCRELDEFINESBYPROPERTIES('0UySwJX8_DTsOpdLNETJux',#6,$,$,(#114),#231);
#233=IFCPROPERTYSINGLEVALUE('InternalTaskId',$,IFCTEXT('task-mumr7ldgnwmu29'),$);
#234=IFCPROPERTYSET('0o_4hUVo1BT61yuHo6tvJN',#6,'OPS_TaskIdentity',$,(#233));
#235=IFCRELDEFINESBYPROPERTIES('3BXXuUup3F_70rBkckRoOt',#6,$,$,(#116),#234);
#236=IFCPROPERTYSINGLEVALUE('InternalTaskId',$,IFCTEXT('task-mumr7ldj2e9t30'),$);
#237=IFCPROPERTYSET('2Qiq0VQI3odovlcd3hK$jI',#6,'OPS_TaskIdentity',$,(#236));
#238=IFCRELDEFINESBYPROPERTIES('1K6rFlgaOzG7VBwbpgjzpL',#6,$,$,(#118),#237);
#239=IFCPROPERTYSINGLEVALUE('InternalTaskId',$,IFCTEXT('task-mumr7ldlwldq31'),$);
#240=IFCPROPERTYSET('3Wyd5iKXpUcFm9tH_m$u_5',#6,'OPS_TaskIdentity',$,(#239));
#241=IFCRELDEFINESBYPROPERTIES('1lc_d1pZloM2T2S11bDAdm',#6,$,$,(#120),#240);
#242=IFCPROPERTYSINGLEVALUE('InternalTaskId',$,IFCTEXT('task-mumr7ldnnawo32'),$);
#243=IFCPROPERTYSET('2FcMMDvHBbVjNHEWUgWCLm',#6,'OPS_TaskIdentity',$,(#242));
#244=IFCRELDEFINESBYPROPERTIES('0yy1rJWuEYlMWaZxrBF2zc',#6,$,$,(#122),#243);
#245=IFCPROPERTYSINGLEVALUE('MilestoneKind',$,IFCLABEL('START'),$);
#246=IFCPROPERTYSET('1M5U6ROKEoEr2n8wdPl1eL',#6,'OPS_Milestone',$,(#245));
#247=IFCRELDEFINESBYPROPERTIES('0OEp27SUyDkLu1T45e_sUx',#6,$,$,(#78),#246);
#248=IFCPROPERTYSINGLEVALUE('MilestoneKind',$,IFCLABEL('FINISH'),$);
#249=IFCPROPERTYSINGLEVALUE('Mandatory',$,IFCBOOLEAN(.T.),$);
#250=IFCPROPERTYSET('2MI9L21LG5EgXlYdbExyI0',#6,'OPS_Milestone',$,(#248,#249));
#251=IFCRELDEFINESBYPROPERTIES('32ukcD2pl_EpmgUYpulO8D',#6,$,$,(#90),#250);
#252=IFCPROPERTYSINGLEVALUE('MilestoneKind',$,IFCLABEL('FINISH'),$);
#253=IFCPROPERTYSET('2YgxEypDbTA17RT7_MIwd_',#6,'OPS_Milestone',$,(#252));
#254=IFCRELDEFINESBYPROPERTIES('3cCdMbtvXbGzy8pjjofMdB',#6,$,$,(#122),#253);
ENDSEC;
END-ISO-10303-21;
