ISO-10303-21;
HEADER;
FILE_DESCRIPTION(('ViewDefinition [SchedulingView]'),'2;1');
FILE_NAME('Aanbouw woning.ifc','2026-10-03T18:22:06',('Open Planner Studio'),('OpenAEC Foundation'),'Open Planner Studio 0.1','Open Planner Studio','');
FILE_SCHEMA(('IFC4X3'));
ENDSEC;
DATA;
#1=IFCPERSON($,$,$,$,$,$,$,$);
#2=IFCORGANIZATION($,$,$,$,$);
#3=IFCPERSONANDORGANIZATION(#1,#2,$);
#4=IFCORGANIZATION($,'OpenAEC Foundation',$,$,$);
#5=IFCAPPLICATION(#4,'0.2','Open Planner Studio','OPS');
#6=IFCOWNERHISTORY(#3,#5,$,.NOCHANGE.,$,$,$,1791051726);
#7=IFCSIUNIT(*,.LENGTHUNIT.,$,.METRE.);
#8=IFCSIUNIT(*,.TIMEUNIT.,$,.SECOND.);
#9=IFCUNITASSIGNMENT((#7,#8));
#10=IFCCARTESIANPOINT((0.,0.,0.));
#11=IFCAXIS2PLACEMENT3D(#10,$,$);
#12=IFCGEOMETRICREPRESENTATIONCONTEXT($,'Plan',3,1.0E-05,#11,$);
#13=IFCPROJECT('0540NPp0GvIIBb$QnCIdP0',#6,'Aanbouw woning','Uitbouw van 4 bij 5 meter aan de achtergevel van een eengezinswoning \X2\2014\X0\ het oefenproject van de tutorials.',$,$,$,(#12),#9);
#14=IFCTIMEPERIOD('07:00:00','12:00:00');
#15=IFCTIMEPERIOD('13:00:00','16:00:00');
#16=IFCRECURRENCEPATTERN(.WEEKLY.,$,(1,2,3,4,5),$,$,$,$,(#14,#15));
#17=IFCWORKTIME('Standard work week',.PREDICTED.,$,#16,$,$);
#18=IFCWORKTIME('Nieuwjaar',.PREDICTED.,$,$,'2026-01-01','2026-01-01');
#19=IFCWORKTIME('Goede Vrijdag',.PREDICTED.,$,$,'2026-04-03','2026-04-03');
#20=IFCWORKTIME('Pasen',.PREDICTED.,$,$,'2026-04-05','2026-04-06');
#21=IFCWORKTIME('Koningsdag',.PREDICTED.,$,$,'2026-04-27','2026-04-27');
#22=IFCWORKTIME('Hemelvaart',.PREDICTED.,$,$,'2026-05-14','2026-05-14');
#23=IFCWORKTIME('Pinksteren',.PREDICTED.,$,$,'2026-05-24','2026-05-25');
#24=IFCWORKTIME('Bouwvak (Midden)',.PREDICTED.,$,$,'2026-08-03','2026-08-21');
#25=IFCWORKTIME('Kerst',.PREDICTED.,$,$,'2026-12-25','2026-12-26');
#26=IFCWORKTIME('Nieuwjaar',.PREDICTED.,$,$,'2027-01-01','2027-01-01');
#27=IFCWORKTIME('Goede Vrijdag',.PREDICTED.,$,$,'2027-03-26','2027-03-26');
#28=IFCWORKTIME('Pasen',.PREDICTED.,$,$,'2027-03-28','2027-03-29');
#29=IFCWORKTIME('Koningsdag',.PREDICTED.,$,$,'2027-04-27','2027-04-27');
#30=IFCWORKTIME('Hemelvaart',.PREDICTED.,$,$,'2027-05-06','2027-05-06');
#31=IFCWORKTIME('Pinksteren',.PREDICTED.,$,$,'2027-05-16','2027-05-17');
#32=IFCWORKTIME('Bouwvak (Midden)',.PREDICTED.,$,$,'2027-08-02','2027-08-20');
#33=IFCWORKTIME('Kerst',.PREDICTED.,$,$,'2027-12-25','2027-12-26');
#34=IFCWORKTIME('Nieuwjaar',.PREDICTED.,$,$,'2028-01-01','2028-01-01');
#35=IFCWORKTIME('Goede Vrijdag',.PREDICTED.,$,$,'2028-04-14','2028-04-14');
#36=IFCWORKTIME('Pasen',.PREDICTED.,$,$,'2028-04-16','2028-04-17');
#37=IFCWORKTIME('Koningsdag',.PREDICTED.,$,$,'2028-04-27','2028-04-27');
#38=IFCWORKTIME('Hemelvaart',.PREDICTED.,$,$,'2028-05-25','2028-05-25');
#39=IFCWORKTIME('Pinksteren',.PREDICTED.,$,$,'2028-06-04','2028-06-05');
#40=IFCWORKTIME('Bouwvak (Midden)',.PREDICTED.,$,$,'2028-07-24','2028-08-11');
#41=IFCWORKTIME('Kerst',.PREDICTED.,$,$,'2028-12-25','2028-12-26');
#42=IFCWORKTIME('Nieuwjaar',.PREDICTED.,$,$,'2029-01-01','2029-01-01');
#43=IFCWORKTIME('Goede Vrijdag',.PREDICTED.,$,$,'2029-03-30','2029-03-30');
#44=IFCWORKTIME('Pasen',.PREDICTED.,$,$,'2029-04-01','2029-04-02');
#45=IFCWORKTIME('Koningsdag',.PREDICTED.,$,$,'2029-04-27','2029-04-27');
#46=IFCWORKTIME('Hemelvaart',.PREDICTED.,$,$,'2029-05-10','2029-05-10');
#47=IFCWORKTIME('Pinksteren',.PREDICTED.,$,$,'2029-05-20','2029-05-21');
#48=IFCWORKTIME('Bouwvak (Midden)',.PREDICTED.,$,$,'2029-07-30','2029-08-17');
#49=IFCWORKTIME('Kerst',.PREDICTED.,$,$,'2029-12-25','2029-12-26');
#50=IFCWORKTIME('Nieuwjaar',.PREDICTED.,$,$,'2030-01-01','2030-01-01');
#51=IFCWORKTIME('Goede Vrijdag',.PREDICTED.,$,$,'2030-04-19','2030-04-19');
#52=IFCWORKTIME('Pasen',.PREDICTED.,$,$,'2030-04-21','2030-04-22');
#53=IFCWORKTIME('Koningsdag',.PREDICTED.,$,$,'2030-04-27','2030-04-27');
#54=IFCWORKTIME('Bevrijdingsdag',.PREDICTED.,$,$,'2030-05-05','2030-05-05');
#55=IFCWORKTIME('Hemelvaart',.PREDICTED.,$,$,'2030-05-30','2030-05-30');
#56=IFCWORKTIME('Pinksteren',.PREDICTED.,$,$,'2030-06-09','2030-06-10');
#57=IFCWORKTIME('Bouwvak (Midden)',.PREDICTED.,$,$,'2030-07-29','2030-08-16');
#58=IFCWORKTIME('Kerst',.PREDICTED.,$,$,'2030-12-25','2030-12-26');
#59=IFCWORKCALENDAR('1SouGudt2xDV7oq7_J73FM',#6,'Bouwkalender NL','Standaard bouwkalender: ma-vr 07:00-16:00',$,(#17),(#18,#19,#20,#21,#22,#23,#24,#25,#26,#27,#28,#29,#30,#31,#32,#33,#34,#35,#36,#37,#38,#39,#40,#41,#42,#43,#44,#45,#46,#47,#48,#49,#50,#51,#52,#53,#54,#55,#56,#57,#58),.FIRSTSHIFT.);
#60=IFCPROPERTYSINGLEVALUE('RuleSetId',$,IFCLABEL('NL'),$);
#61=IFCPROPERTYSINGLEVALUE('BreakChoice',$,IFCLABEL('midden'),$);
#62=IFCPROPERTYSINGLEVALUE('GeneratedFromYear',$,IFCINTEGER(2026),$);
#63=IFCPROPERTYSINGLEVALUE('GeneratedToYear',$,IFCINTEGER(2030),$);
#64=IFCPROPERTYSINGLEVALUE('HoursPerDay',$,IFCREAL(8),$);
#65=IFCPROPERTYSINGLEVALUE('WorkEndHour',$,IFCREAL(16),$);
#66=IFCPROPERTYSINGLEVALUE('IsHourCalendar',$,IFCBOOLEAN(.F.),$);
#67=IFCPROPERTYSET('1ZNhytTcWpSgSetYz7GytE',#6,'OPS_Calendar',$,(#60,#61,#62,#63,#64,#65,#66));
#68=IFCRELDEFINESBYPROPERTIES('1t0y283I8uWt16I2MphRPA',#6,$,$,(#59),#67);
#69=IFCWORKPLAN('00LWny9J7skbPki$st3_z9',#6,'Aanbouw woning','Uitbouw van 4 bij 5 meter aan de achtergevel van een eengezinswoning \X2\2014\X0\ het oefenproject van de tutorials.',$,$,'2026-10-03T18:22:06',$,$,$,$,$,'2027-06-07T07:00:00','2027-06-14T07:00:00',.PLANNED.);
#70=IFCWORKSCHEDULE('0nJ8WWXA9WZLsYvM2DZG$H',#6,'Construction schedule v1.0',$,$,$,'2026-10-03T18:22:06',$,$,$,$,$,'2027-06-07T07:00:00','2027-06-14T07:00:00',.PLANNED.);
#71=IFCWORKSCHEDULE('2XiQ5bKtu_7ADIXrolY8Jl',#6,'Basisplanning',$,$,$,'2026-10-03T18:22:06.460Z',$,$,$,$,$,$,'2027-08-30T07:00:00',.BASELINE.);
#72=IFCRELAGGREGATES('3G$XvKc$BJgC2wufKyNzKL',#6,$,$,#69,(#70,#71));
#73=IFCTASKTIME('Voorbereiding Time',.PREDICTED.,$,.WORKTIME.,'P0Y0M4D','2027-06-07T07:00:00','2027-06-11T07:00:00','2027-06-07T07:00:00','2027-06-10T07:00:00','2027-06-07T07:00:00','2027-06-10T07:00:00','P0Y0M0D','P0Y0M0D',.T.,$,$,$,$,$,0.00);
#74=IFCTASK('1UZ$S181qlc4Q_wEFhFFGe',#6,'Voorbereiding',$,$,'1',$,$,$,.F.,$,#73,.CONSTRUCTION.);
#75=IFCTASKTIME('Fundering Time',.PREDICTED.,$,.WORKTIME.,'P0Y0M12D','2027-06-07T07:00:00','2027-06-11T07:00:00','2027-06-11T07:00:00','2027-06-28T12:00','2027-06-11T07:00:00','2027-06-28T16:00','P0Y0M0D','P0Y0M0D',.T.,$,$,$,$,$,0.00);
#76=IFCTASK('2gLTj3Qrz9$A0XnbZADOKS',#6,'Fundering',$,$,'2',$,$,$,.F.,$,#75,.CONSTRUCTION.);
#77=IFCTASKTIME('Ruwbouw Time',.PREDICTED.,$,.WORKTIME.,'P0Y0M15D','2027-06-07T07:00:00','2027-06-11T07:00:00','2027-06-29T07:00:00','2027-07-19T07:00:00','2027-07-02T07:00:00','2027-07-19T07:00:00','P0Y0M0D','P0Y0M0D',.T.,$,$,$,$,$,0.00);
#78=IFCTASK('0ngvl1iPrSWoxCVy2plm9B',#6,'Ruwbouw',$,$,'3',$,$,$,.F.,$,#77,.CONSTRUCTION.);
#79=IFCTASKTIME('Afbouw Time',.PREDICTED.,$,.WORKTIME.,'P0Y0M15D','2027-06-07T07:00:00','2027-06-11T07:00:00','2027-07-20T07:00:00','2027-08-30T07:00:00','2027-07-20T07:00:00','2027-08-30T07:00:00','P0Y0M0D','P0Y0M0D',.T.,$,$,$,$,$,0.00);
#80=IFCTASK('08mcR55KJOo91_8aZxcxbh',#6,'Afbouw',$,$,'4',$,$,$,.F.,$,#79,.CONSTRUCTION.);
#81=IFCTASKTIME('Start bouw Time',.PREDICTED.,$,.WORKTIME.,'P0Y0M0D','2027-06-07T07:00:00','2027-06-07T07:00:00','2027-06-07T07:00:00','2027-06-07T07:00:00','2027-06-07T07:00:00','2027-06-07T07:00:00','P0Y0M0D','P0Y0M0D',.T.,'2027-06-28T07:00:00',$,'2027-06-07T07:00:00','2027-06-07T07:00:00','P0Y0M0D',1.00);
#82=IFCTASK('0ZefzAiukyztVLNWMtkCnR',#6,'Start bouw',$,$,'1.1',$,$,$,.T.,$,#81,.USERDEFINED.);
#83=IFCTASKTIME('Bouwplaats inrichten Time',.PREDICTED.,$,.WORKTIME.,'P0Y0M2D','2027-06-07T07:00:00','2027-06-08T07:00:00','2027-06-07T07:00:00','2027-06-08T07:00:00','2027-06-07T07:00:00','2027-06-08T07:00:00','P0Y0M0D','P0Y0M0D',.T.,'2027-06-28T07:00:00',$,'2027-06-07T07:00:00','2027-06-08T07:00:00','P0Y0M0D',1.00);
#84=IFCTASK('2_zIhsQFeyqOoyANEF3rJJ',#6,'Bouwplaats inrichten',$,$,'1.2',$,$,$,.F.,$,#83,.CONSTRUCTION.);
#85=IFCTASKTIME('Tuin en bestrating verwijderen Time',.PREDICTED.,$,.WORKTIME.,'P0Y0M1D','2027-06-07T07:00:00','2027-06-07T07:00:00','2027-06-09T07:00:00','2027-06-09T07:00:00','2027-06-09T07:00:00','2027-06-09T07:00:00','P0Y0M0D','P0Y0M0D',.T.,'2027-06-28T07:00:00',$,'2027-06-09T07:00:00','2027-06-09T07:00:00','P0Y0M0D',1.00);
#86=IFCTASK('2OzNn9fgvoV02iAiosBcpM',#6,'Tuin en bestrating verwijderen',$,$,'1.3',$,$,$,.F.,$,#85,.CONSTRUCTION.);
#87=IFCTASKTIME('Aanbouw uitzetten Time',.PREDICTED.,$,.WORKTIME.,'P0Y0M1D','2027-06-07T07:00:00','2027-06-07T07:00:00','2027-06-10T07:00:00','2027-06-10T07:00:00','2027-06-10T07:00:00','2027-06-10T07:00:00','P0Y0M0D','P0Y0M0D',.T.,'2027-06-28T07:00:00',$,'2027-06-10T07:00:00','2027-06-10T07:00:00','P0Y0M0D',1.00);
#88=IFCTASK('2BIu3zhUmBdJaaPa10JA$p',#6,'Aanbouw uitzetten',$,$,'1.4',$,$,$,.F.,$,#87,.CONSTRUCTION.);
#89=IFCTASKTIME('Funderingssleuf ontgraven Time',.PREDICTED.,$,.WORKTIME.,'P0Y0M2D','2027-06-07T07:00:00','2027-06-08T07:00:00','2027-06-11T07:00:00','2027-06-14T07:00:00','2027-06-11T07:00:00','2027-06-14T07:00:00','P0Y0M0D','P0Y0M0D',.T.,'2027-06-28T07:00:00',$,'2027-06-11T07:00:00','2027-06-15T07:00:00','P0Y0M0D',1.00);
#90=IFCTASK('2b_nPd_ShO1tAItZUQHLGZ',#6,'Funderingssleuf ontgraven',$,$,'2.1',$,$,$,.F.,$,#89,.CONSTRUCTION.);
#91=IFCTASKTIME('Wapening en bekisting fundering Time',.PREDICTED.,$,.WORKTIME.,'P0Y0M3D','2027-06-07T07:00:00','2027-06-09T07:00:00','2027-06-15T07:00:00','2027-06-17T07:00:00','2027-06-15T07:00:00','2027-06-17T07:00:00','P0Y0M0D','P0Y0M0D',.T.,$,$,$,$,$,0.00);
#92=IFCTASK('2KyeF7V01AwMUIYUn8Pq9e',#6,'Wapening en bekisting fundering',$,$,'2.2',$,$,$,.F.,$,#91,.CONSTRUCTION.);
#93=IFCTASKTIME('Inspectie wapening Time',.PREDICTED.,$,.WORKTIME.,'P0Y0M0D','2027-06-07T07:00:00','2027-06-07T07:00:00','2027-06-17T07:00:00','2027-06-17T07:00:00','2027-06-17T07:00:00','2027-06-17T07:00:00','P0Y0M0D','P0Y0M0D',.T.,$,$,$,$,$,0.00);
#94=IFCTASK('05Kl8KpxCSMdBTEbyadoFm',#6,'Inspectie wapening',$,$,'2.3',$,$,$,.T.,$,#93,.ATTENDANCE.);
#95=IFCTASKTIME('Fundering storten Time',.PREDICTED.,$,.WORKTIME.,'PT6H0M0S','2027-06-07T00:00:00','2027-06-07T14:00:00','2027-06-18T07:00:00','2027-06-18T14:00:00','2027-06-18T09:00:00','2027-06-18T16:00:00','P0Y0M0D','P0Y0M0.25D',.F.,$,$,$,$,$,0.00);
#96=IFCTASK('1Bvt2XaCg0g7GqBjRGNgz3',#6,'Fundering storten',$,$,'2.4',$,$,$,.F.,$,#95,.CONSTRUCTION.);
#97=IFCTASKTIME('Funderingsmetselwerk Time',.PREDICTED.,$,.WORKTIME.,'P0Y0M2D','2027-06-07T07:00:00','2027-06-08T07:00:00','2027-06-24T07:00:00','2027-06-25T07:00:00','2027-06-24T07:00:00','2027-06-25T07:00:00','P0Y0M0D','P0Y0M0D',.T.,$,$,$,$,$,0.00);
#98=IFCTASK('0K2HcCmazHTC1u_7IG6D4s',#6,'Funderingsmetselwerk',$,$,'2.5',$,$,$,.F.,$,#97,.CONSTRUCTION.);
#99=IFCTASKTIME('Kanaalplaatvloer leggen Time',.PREDICTED.,$,.WORKTIME.,'PT5H0M0S','2027-06-07T00:00:00','2027-06-07T12:00:00','2027-06-28T07:00:00','2027-06-28T12:00:00','2027-06-28T10:00:00','2027-06-28T16:00:00','P0Y0M0D','P0Y0M0.375D',.F.,$,$,$,$,$,0.00);
#100=IFCTASK('0$Pg1mByqki27uM84NHTtZ',#6,'Kanaalplaatvloer leggen',$,$,'2.6',$,$,$,.F.,$,#99,.CONSTRUCTION.);
#101=IFCTASKTIME('Binnenspouwblad metselen Time',.PREDICTED.,$,.WORKTIME.,'P0Y0M5D','2027-06-07T07:00:00','2027-06-11T07:00:00','2027-06-29T07:00:00','2027-07-05T07:00:00','2027-07-02T07:00:00','2027-07-08T07:00:00','P0Y0M0D','P0Y0M3D',.F.,$,$,$,$,$,0.00);
#102=IFCTASK('1kosdpN1pl0b8vcF3CiK9G',#6,'Binnenspouwblad metselen',$,$,'3.1',$,$,$,.F.,$,#101,.CONSTRUCTION.);
#103=IFCTASKTIME('Buitenspouwblad metselen Time',.PREDICTED.,$,.WORKTIME.,'P0Y0M6D','2027-06-07T07:00:00','2027-06-14T07:00:00','2027-07-06T07:00:00','2027-07-13T07:00:00','2027-07-06T07:00:00','2027-07-13T07:00:00','P0Y0M0D','P0Y0M0D',.T.,$,$,$,$,$,0.00);
#104=IFCTASK('3nFoifR8HyI5663u9gcXct',#6,'Buitenspouwblad metselen',$,$,'3.2',$,$,$,.F.,$,#103,.CONSTRUCTION.);
#105=IFCTASKTIME('Dakelementen plaatsen Time',.PREDICTED.,$,.WORKTIME.,'PT6H0M0S','2027-06-07T00:00:00','2027-06-07T14:00:00','2027-07-06T07:00:00','2027-07-06T14:00:00','2027-07-09T09:00:00','2027-07-09T16:00:00','P0Y0M0D','P0Y0M3.25D',.F.,$,$,$,$,$,0.00);
#106=IFCTASK('3wdOgDi0uXMyQbrfKe1QGc',#6,'Dakelementen plaatsen',$,$,'3.3',$,$,$,.F.,$,#105,.CONSTRUCTION.);
#107=IFCTASKTIME('Dakbedekking aanbrengen Time',.PREDICTED.,$,.WORKTIME.,'P0Y0M2D','2027-06-07T07:00:00','2027-06-08T07:00:00','2027-07-07T07:00:00','2027-07-08T07:00:00','2027-07-12T07:00:00','2027-07-13T07:00:00','P0Y0M3D','P0Y0M3D',.F.,$,$,$,$,$,0.00);
#108=IFCTASK('3SJwCFPrrSH2X0nm5Q0Nos',#6,'Dakbedekking aanbrengen',$,$,'3.4',$,$,$,.F.,$,#107,.CONSTRUCTION.);
#109=IFCTASKTIME('Kozijnen plaatsen Time',.PREDICTED.,$,.WORKTIME.,'P0Y0M2D','2027-06-07T07:00:00','2027-06-08T07:00:00','2027-07-14T07:00:00','2027-07-15T07:00:00','2027-07-14T07:00:00','2027-07-15T07:00:00','P0Y0M0D','P0Y0M0D',.T.,$,$,$,$,$,0.00);
#110=IFCTASK('2utCFMZJ2dShMgE709raeg',#6,'Kozijnen plaatsen',$,$,'3.5',$,$,$,.F.,$,#109,.CONSTRUCTION.);
#111=IFCTASKTIME('Achtergevel doorbreken Time',.PREDICTED.,$,.WORKTIME.,'P0Y0M2D','2027-06-07T07:00:00','2027-06-08T07:00:00','2027-07-16T07:00:00','2027-07-19T07:00:00','2027-07-16T07:00:00','2027-07-19T07:00:00','P0Y0M0D','P0Y0M0D',.T.,$,$,$,$,$,0.00);
#112=IFCTASK('2IvLc2tJv7Z2YHAg9TJwx8',#6,'Achtergevel doorbreken',$,$,'3.6',$,$,$,.F.,$,#111,.CONSTRUCTION.);
#113=IFCTASKTIME('Installaties aanleggen Time',.PREDICTED.,$,.WORKTIME.,'P0Y0M3D','2027-06-07T07:00:00','2027-06-09T07:00:00','2027-07-20T07:00:00','2027-07-22T07:00:00','2027-07-20T07:00:00','2027-07-22T07:00:00','P0Y0M0D','P0Y0M0D',.T.,$,$,$,$,$,0.00);
#114=IFCTASK('1UzeDqa2q0r05dNvScIbSs',#6,'Installaties aanleggen',$,$,'4.1',$,$,$,.F.,$,#113,.CONSTRUCTION.);
#115=IFCTASKTIME('Stucwerk Time',.PREDICTED.,$,.WORKTIME.,'P0Y0M2D','2027-06-07T07:00:00','2027-06-10T07:00:00','2027-07-23T07:00:00','2027-07-26T07:00:00','2027-07-23T07:00:00','2027-07-26T07:00:00','P0Y0M0D','P0Y0M0D',.T.,$,$,$,$,$,0.00);
#116=IFCTASK('2TuQTmnlregcMLyEZV5Ukp',#6,'Stucwerk',$,$,'4.2',$,$,$,.F.,$,#115,.CONSTRUCTION.);
#117=IFCTASKTIME('Dekvloer aanbrengen Time',.PREDICTED.,$,.WORKTIME.,'P0Y0M1D','2027-06-07T07:00:00','2027-06-07T07:00:00','2027-07-27T07:00:00','2027-07-27T07:00:00','2027-07-27T07:00:00','2027-07-27T07:00:00','P0Y0M0D','P0Y0M0D',.T.,$,$,$,$,$,0.00);
#118=IFCTASK('2UsMk0Qh5r4sgmCIPG3J$h',#6,'Dekvloer aanbrengen',$,$,'4.3',$,$,$,.F.,$,#117,.CONSTRUCTION.);
#119=IFCTASKTIME('Tegelwerk Time',.PREDICTED.,$,.WORKTIME.,'P0Y0M3D','2027-06-07T07:00:00','2027-06-09T07:00:00','2027-08-25T07:00:00','2027-08-27T07:00:00','2027-08-25T07:00:00','2027-08-27T07:00:00','P0Y0M0D','P0Y0M0D',.T.,$,$,$,$,$,0.00);
#120=IFCTASK('0L6dkQyYvNRxL15_Ov9R90',#6,'Tegelwerk',$,$,'4.4',$,$,$,.F.,$,#119,.CONSTRUCTION.);
#121=IFCTASKTIME('Schilderwerk Time',.PREDICTED.,$,.WORKTIME.,'P0Y0M3D','2027-06-07T07:00:00','2027-06-09T07:00:00','2027-07-27T07:00:00','2027-07-29T07:00:00','2027-08-25T07:00:00','2027-08-27T07:00:00','P0Y0M6D','P0Y0M6D',.F.,$,$,$,$,$,0.00);
#122=IFCTASK('2QYfUMKafqjs6UBp8EQRpT',#6,'Schilderwerk',$,$,'4.5',$,$,$,.F.,$,#121,.CONSTRUCTION.);
#123=IFCTASKTIME('Opleverpunten en schoonmaken Time',.PREDICTED.,$,.WORKTIME.,'P0Y0M1D','2027-06-07T07:00:00','2027-06-07T07:00:00','2027-08-30T07:00:00','2027-08-30T07:00:00','2027-08-30T07:00:00','2027-08-30T07:00:00','P0Y0M0D','P0Y0M0D',.T.,$,$,$,$,$,0.00);
#124=IFCTASK('3JuUBNoWSujhR19DEnmlxj',#6,'Opleverpunten en schoonmaken',$,$,'4.6',$,$,$,.F.,$,#123,.CONSTRUCTION.);
#125=IFCTASKTIME('Oplevering Time',.PREDICTED.,$,.WORKTIME.,'P0Y0M0D','2027-06-07T07:00:00','2027-06-07T07:00:00','2027-08-30T07:00:00','2027-08-30T07:00:00','2027-08-30T07:00:00','2027-08-30T07:00:00','P0Y0M0D','P0Y0M0D',.T.,$,$,$,$,$,0.00);
#126=IFCTASK('2xO8azXnA2gWErtZMmDSfm',#6,'Oplevering',$,$,'4.7',$,$,$,.T.,$,#125,.USERDEFINED.);
#127=IFCRELNESTS('3usKnKwZ4eVFl20iHsATAu',#6,'WBS Voorbereiding',$,#74,( #82,#84,#86,#88));
#128=IFCRELNESTS('0I3UcByOemo1Bhqp$edFJo',#6,'WBS Fundering',$,#76,( #90,#92,#94,#96,#98,#100));
#129=IFCRELNESTS('1Juue64zIqOBQypuwi_HS8',#6,'WBS Ruwbouw',$,#78,( #102,#104,#106,#108,#110,#112));
#130=IFCRELNESTS('3OA0EtVfEyKxgwxM_IdE_I',#6,'WBS Afbouw',$,#80,( #114,#116,#118,#120,#122,#124,#126));
#131=IFCRELNESTS('3XGDlJIeO5lg22KZyQWaww',#6,'WBS Hoofd',$,#70,(#74,#76,#78,#80));
#132=IFCRELSEQUENCE('1X5APp7IewZkkPk$h0cGLv',#6,$,$,#82,#84,$,.FINISH_START.,$);
#133=IFCRELSEQUENCE('0zbisuheWVDTz0YxP42C1d',#6,$,$,#84,#86,$,.FINISH_START.,$);
#134=IFCRELSEQUENCE('3eS5FjQzg9W8JQbagZ2h3A',#6,$,$,#86,#88,$,.FINISH_START.,$);
#135=IFCRELSEQUENCE('0pf$adrLdSU2o0GiljWC8Y',#6,$,$,#88,#90,$,.FINISH_START.,$);
#136=IFCRELSEQUENCE('0r9ohbz92hLVycyeY44IfT',#6,$,$,#90,#92,$,.FINISH_START.,$);
#137=IFCRELSEQUENCE('3GT4VhJnQqEQZpjxI$WC4c',#6,$,$,#92,#94,$,.FINISH_START.,$);
#138=IFCRELSEQUENCE('1lsf5h0U$V76Uod246H_Do',#6,$,$,#94,#96,$,.FINISH_START.,$);
#139=IFCLAGTIME('Lag',.PREDICTED.,$,IFCDURATION('P3D'),.WORKTIME.);
#140=IFCRELSEQUENCE('1_x2dTmgmmB6PBscxIIE42',#6,$,$,#96,#98,#139,.FINISH_START.,$);
#141=IFCRELSEQUENCE('3wZFrkAMpuIN$9GZLLttzH',#6,$,$,#98,#100,$,.FINISH_START.,$);
#142=IFCRELSEQUENCE('2q6Ydn1wkx6ZQexThlmqFd',#6,$,$,#100,#102,$,.FINISH_START.,$);
#143=IFCRELSEQUENCE('1rAqFHr1nBwcCjGaXqrIEf',#6,$,$,#100,#104,$,.FINISH_START.,$);
#144=IFCRELSEQUENCE('2Ek3gUWUr55kb$uc6m3qht',#6,$,$,#102,#106,$,.FINISH_START.,$);
#145=IFCRELSEQUENCE('2K6dgPS8qbnFD2Q8rl6sRE',#6,$,$,#106,#108,$,.FINISH_START.,$);
#146=IFCRELSEQUENCE('200Sl2yO$gVJe6II8vX1sQ',#6,$,$,#108,#110,$,.FINISH_START.,$);
#147=IFCRELSEQUENCE('2ycgJ8N6mlYF32ZpXgN73h',#6,$,$,#104,#110,$,.FINISH_START.,$);
#148=IFCRELSEQUENCE('1EqNuaFc$tdbcq54QcLkXg',#6,$,$,#110,#112,$,.FINISH_START.,$);
#149=IFCRELSEQUENCE('2zbno3P0vrgPw8ZzAc7jHa',#6,$,$,#112,#114,$,.FINISH_START.,$);
#150=IFCRELSEQUENCE('1aE4svxRWKDH7dmHU100NE',#6,$,$,#114,#116,$,.FINISH_START.,$);
#151=IFCRELSEQUENCE('024z_ANPsSEAI6ZJQZ4gBL',#6,$,$,#116,#118,$,.FINISH_START.,$);
#152=IFCRELSEQUENCE('3KX2kyGWGAZZpnbF6ce4T$',#6,$,$,#116,#122,$,.FINISH_START.,$);
#153=IFCLAGTIME('Lag',.PREDICTED.,$,IFCDURATION('P5D'),.WORKTIME.);
#154=IFCRELSEQUENCE('03LEF$2Y34SKdWoWa7wnwH',#6,$,$,#118,#120,#153,.FINISH_START.,$);
#155=IFCRELSEQUENCE('3CJLchymR$x_ml_SqxhEEi',#6,$,$,#120,#124,$,.FINISH_START.,$);
#156=IFCRELSEQUENCE('2XcwOEXJ0R76dv2d5S8sWV',#6,$,$,#122,#124,$,.FINISH_START.,$);
#157=IFCRELSEQUENCE('3MuH14F68XcwcznfoThWzZ',#6,$,$,#124,#126,$,.FINISH_START.,$);
#158=IFCCREWRESOURCE('21S4kuKwNADCA1cdmCA204',#6,'Timmerploeg',$,$,$,$,$,.USERDEFINED.);
#159=IFCLABORRESOURCE('0V_TC2RTD4Be2wFojKw6dT',#6,'Metselaar',$,$,$,$,$,.USERDEFINED.);
#160=IFCCONSTRUCTIONEQUIPMENTRESOURCE('16bR31HkbebCTL$8pbwBVR',#6,'Mobiele kraan',$,$,$,$,$,.USERDEFINED.);
#161=IFCSUBCONTRACTRESOURCE('3U9Elbv_ep58MCmC936bH7',#6,'Stukadoor',$,$,$,$,$,.USERDEFINED.);
#162=IFCCONSTRUCTIONMATERIALRESOURCE('33YbofEPpzXO9mzx6c8yew',#6,'Beton',$,$,$,$,$,.USERDEFINED.);
#163=IFCPROPERTYSINGLEVALUE('Color',$,IFCTEXT('#1E293B'),$);
#164=IFCPROPERTYSET('3S0JvVYGymtajtZT9rm9JS',#6,'OPS_Resource',$,(#163));
#165=IFCRELDEFINESBYPROPERTIES('2q5jqmBZuiLQJiQhwU8a1q',#6,$,$,(#158),#164);
#166=IFCPROPERTYSINGLEVALUE('Color',$,IFCTEXT('#B91C1C'),$);
#167=IFCPROPERTYSET('2AGm2Hal3ni2Pqnz6RRT5j',#6,'OPS_Resource',$,(#166));
#168=IFCRELDEFINESBYPROPERTIES('37QUECZiX5VtItAncjdyqe',#6,$,$,(#159),#167);
#169=IFCPROPERTYSINGLEVALUE('Color',$,IFCTEXT('#DB2777'),$);
#170=IFCPROPERTYSET('0EhPZViqeFC2RT6bMlHeLP',#6,'OPS_Resource',$,(#169));
#171=IFCRELDEFINESBYPROPERTIES('0aJvkUBYtvYgcpXT8UFsG0',#6,$,$,(#160),#170);
#172=IFCPROPERTYSINGLEVALUE('MaxUnits',$,IFCREAL(2),$);
#173=IFCPROPERTYSINGLEVALUE('Color',$,IFCTEXT('#C2410C'),$);
#174=IFCPROPERTYSET('2wsBETFNfHvSwAkj4GqIVr',#6,'OPS_Resource',$,(#172,#173));
#175=IFCRELDEFINESBYPROPERTIES('0i3dDjd5QUr4HuiNIZsLW$',#6,$,$,(#161),#174);
#176=IFCPROPERTYSINGLEVALUE('MaxUnits',$,IFCREAL(50),$);
#177=IFCPROPERTYSINGLEVALUE('UnitOfMeasure',$,IFCLABEL('m\X2\00B3\X0\'),$);
#178=IFCPROPERTYSINGLEVALUE('Color',$,IFCTEXT('#6366F1'),$);
#179=IFCPROPERTYSET('1pvpJUBP4CiSExC3jWGW$h',#6,'OPS_Resource',$,(#176,#177,#178));
#180=IFCRELDEFINESBYPROPERTIES('06ocMBYPYexNPNGKVc$hOz',#6,$,$,(#162),#179);
#181=IFCRELASSIGNSTOPROCESS('2Ik18AmjA6KYq72F_ym1$T',#6,$,$,(#158),$,#92,$);
#182=IFCRELASSIGNSTOPROCESS('3G6tbZ$iviy9IQLGGmYPNW',#6,$,$,(#162),$,#96,$);
#183=IFCRELASSIGNSTOPROCESS('3dxsjETJUHzVEQqViDub9x',#6,$,$,(#159),$,#98,$);
#184=IFCRELASSIGNSTOPROCESS('1rVzwK9yixawOaqOE4D7wv',#6,$,$,(#158,#160),$,#100,$);
#185=IFCRELASSIGNSTOPROCESS('2rkuMzEcGF$U_b9bWLiazy',#6,$,$,(#159),$,#102,$);
#186=IFCRELASSIGNSTOPROCESS('1l0h$12gXxaDqGQibR13eE',#6,$,$,(#159),$,#104,$);
#187=IFCRELASSIGNSTOPROCESS('3wXGqGudC7p7$b5BZt72I1',#6,$,$,(#158,#160),$,#106,$);
#188=IFCRELASSIGNSTOPROCESS('0D49ImXmDUfJbOEZzdVrE8',#6,$,$,(#158),$,#110,$);
#189=IFCRELASSIGNSTOPROCESS('11tBZ5j4MEWq0jT7HmHfnB',#6,$,$,(#159),$,#112,$);
#190=IFCRELASSIGNSTOPROCESS('2M0ap_huOuzj8aWlN_La8v',#6,$,$,(#161),$,#116,$);
#191=IFCPROPERTYSINGLEVALUE('21S4kuKwNADCA1cdmCA204#0',$,IFCTEXT('1|UNIFORM'),$);
#192=IFCPROPERTYSET('35yzM1DBNZbw0qITqAHqUL',#6,'OPS_Assignments',$,(#191));
#193=IFCRELDEFINESBYPROPERTIES('2X1U7z6My5pLWvQorwvZOc',#6,$,$,(#92),#192);
#194=IFCPROPERTYSINGLEVALUE('33YbofEPpzXO9mzx6c8yew#0',$,IFCTEXT('8|UNIFORM'),$);
#195=IFCPROPERTYSET('1TfOyiVos1r9NF_Eq80kn7',#6,'OPS_Assignments',$,(#194));
#196=IFCRELDEFINESBYPROPERTIES('1yh54RL_7NZWu9PTbT$BSQ',#6,$,$,(#96),#195);
#197=IFCPROPERTYSINGLEVALUE('0V_TC2RTD4Be2wFojKw6dT#0',$,IFCTEXT('1|UNIFORM'),$);
#198=IFCPROPERTYSET('1HCata7JVygySLKECOk4lg',#6,'OPS_Assignments',$,(#197));
#199=IFCRELDEFINESBYPROPERTIES('1A0w2SdgCNCWZyKV2DegOB',#6,$,$,(#98),#198);
#200=IFCPROPERTYSINGLEVALUE('21S4kuKwNADCA1cdmCA204#0',$,IFCTEXT('1|UNIFORM'),$);
#201=IFCPROPERTYSINGLEVALUE('16bR31HkbebCTL$8pbwBVR#1',$,IFCTEXT('1|UNIFORM'),$);
#202=IFCPROPERTYSET('2vBdtW_nJhh96GSD6nSbyU',#6,'OPS_Assignments',$,(#200,#201));
#203=IFCRELDEFINESBYPROPERTIES('3wUX90F5kMJbkGXlFaoouJ',#6,$,$,(#100),#202);
#204=IFCPROPERTYSINGLEVALUE('0V_TC2RTD4Be2wFojKw6dT#0',$,IFCTEXT('1|UNIFORM'),$);
#205=IFCPROPERTYSET('2x4waZUvxJ4vadwsk$ES6E',#6,'OPS_Assignments',$,(#204));
#206=IFCRELDEFINESBYPROPERTIES('04UOdbU0BpkNvgTCbEP9Kf',#6,$,$,(#102),#205);
#207=IFCPROPERTYSINGLEVALUE('0V_TC2RTD4Be2wFojKw6dT#0',$,IFCTEXT('1|UNIFORM'),$);
#208=IFCPROPERTYSET('2vd0i3DlH8jhisMt3nee6j',#6,'OPS_Assignments',$,(#207));
#209=IFCRELDEFINESBYPROPERTIES('02WSeFkeRtvtUs6omA5FCv',#6,$,$,(#104),#208);
#210=IFCPROPERTYSINGLEVALUE('21S4kuKwNADCA1cdmCA204#0',$,IFCTEXT('1|UNIFORM'),$);
#211=IFCPROPERTYSINGLEVALUE('16bR31HkbebCTL$8pbwBVR#1',$,IFCTEXT('1|UNIFORM'),$);
#212=IFCPROPERTYSET('3EDH0pQD8tqC0p7ScAnOs0',#6,'OPS_Assignments',$,(#210,#211));
#213=IFCRELDEFINESBYPROPERTIES('1jzo9aDERTNnowf60Rhg17',#6,$,$,(#106),#212);
#214=IFCPROPERTYSINGLEVALUE('21S4kuKwNADCA1cdmCA204#0',$,IFCTEXT('1|UNIFORM'),$);
#215=IFCPROPERTYSET('2iHlAFGuuE5lnBAXuUT6Jp',#6,'OPS_Assignments',$,(#214));
#216=IFCRELDEFINESBYPROPERTIES('23Edt78kmm4MVulOkidSe5',#6,$,$,(#110),#215);
#217=IFCPROPERTYSINGLEVALUE('0V_TC2RTD4Be2wFojKw6dT#0',$,IFCTEXT('1|UNIFORM'),$);
#218=IFCPROPERTYSET('1O__xtIdsFdLkydYLz0kOE',#6,'OPS_Assignments',$,(#217));
#219=IFCRELDEFINESBYPROPERTIES('2th_ROOL31EYa1BfP5N9LJ',#6,$,$,(#112),#218);
#220=IFCPROPERTYSINGLEVALUE('3U9Elbv_ep58MCmC936bH7#0',$,IFCTEXT('2|UNIFORM'),$);
#221=IFCPROPERTYSET('1vb3gvvq2Qqbsvr65JpOJv',#6,'OPS_Assignments',$,(#220));
#222=IFCRELDEFINESBYPROPERTIES('1vr5QMJBTSrco7JoYMwT_Y',#6,$,$,(#116),#221);
#223=IFCPROPERTYSINGLEVALUE('Windows',$,IFCTEXT('{"3U9Elbv_ep58MCmC936bH7#0":{"remainingWorkMinutes":1920}}'),$);
#224=IFCPROPERTYSET('0$xjlwxxqpYdnfAI2zro0b',#6,'OPS_Timephased',$,(#223));
#225=IFCRELDEFINESBYPROPERTIES('3D_5cppvqIhrXN_t8PbNy3',#6,$,$,(#116),#224);
#226=IFCRELASSIGNSTOCONTROL('2aoOBWDgcGia0wxDyfYYt6',#6,$,$,(#74,#76,#78,#80,#82,#84,#86,#88,#90,#92,#94,#96,#98,#100,#102,#104,#106,#108,#110,#112,#114,#116,#118,#120,#122,#124,#126),$,#70);
#227=IFCPROPERTYSINGLEVALUE('InternalProjectId',$,IFCTEXT('proj-muspyclm47fa4'),$);
#228=IFCPROPERTYSINGLEVALUE('wbsAutoNumber',$,IFCBOOLEAN(.T.),$);
#229=IFCPROPERTYSINGLEVALUE('DefaultTaskDurationUnit',$,IFCLABEL('days'),$);
#230=IFCPROPERTYSINGLEVALUE('StatusDate',$,IFCDATE('2027-06-28'),$);
#231=IFCPROPERTYSINGLEVALUE('ProjectStartDate',$,IFCDATE('2027-06-07'),$);
#232=IFCPROPERTYSINGLEVALUE('ProjectEndDate',$,$,$);
#233=IFCPROPERTYSINGLEVALUE('CreatedAt',$,IFCTEXT('2026-10-03T18:22:06.154Z'),$);
#234=IFCPROPERTYSINGLEVALUE('ModifiedAt',$,IFCTEXT('2026-10-03T18:22:06.466Z'),$);
#235=IFCPROPERTYSET('0lSViZg9Tbz_nCUy5PxPh1',#6,'OPS_ProjectSettings',$,(#227,#228,#229,#230,#231,#232,#233,#234));
#236=IFCRELDEFINESBYPROPERTIES('3jvKN6qMnRcIZBGdWQ18dq',#6,$,$,(#13),#235);
#237=IFCPROPERTYSINGLEVALUE('InternalTaskId',$,IFCTEXT('task-muspyclrbxb36'),$);
#238=IFCPROPERTYSET('17K7K0e2n7JUMBkJPVNnnH',#6,'OPS_TaskIdentity',$,(#237));
#239=IFCRELDEFINESBYPROPERTIES('2L6rWknFx8pSaJ5SevZBUi',#6,$,$,(#74),#238);
#240=IFCPROPERTYSINGLEVALUE('InternalTaskId',$,IFCTEXT('task-muspyclwxrt97'),$);
#241=IFCPROPERTYSET('1L9tyQ32BWw_QcKSdRwRrV',#6,'OPS_TaskIdentity',$,(#240));
#242=IFCRELDEFINESBYPROPERTIES('0H8PEPgk_qffmUrqN5$y9B',#6,$,$,(#76),#241);
#243=IFCPROPERTYSINGLEVALUE('InternalTaskId',$,IFCTEXT('task-muspyclyyev28'),$);
#244=IFCPROPERTYSET('2kJCsfs_nxcJfrErgfWw_M',#6,'OPS_TaskIdentity',$,(#243));
#245=IFCRELDEFINESBYPROPERTIES('1iAL1CV9dSTKC0bVmkG4iE',#6,$,$,(#78),#244);
#246=IFCPROPERTYSINGLEVALUE('InternalTaskId',$,IFCTEXT('task-muspycm0o0q49'),$);
#247=IFCPROPERTYSET('0WWQjLzo0tzY7VZxbQ5LnY',#6,'OPS_TaskIdentity',$,(#246));
#248=IFCRELDEFINESBYPROPERTIES('0Xb_sU83SHaFMJlQrtFMcF',#6,$,$,(#80),#247);
#249=IFCPROPERTYSINGLEVALUE('InternalTaskId',$,IFCTEXT('task-muspycm3rabw10'),$);
#250=IFCPROPERTYSET('1yhe5gC2QJ3XDoydIYR2jU',#6,'OPS_TaskIdentity',$,(#249));
#251=IFCRELDEFINESBYPROPERTIES('1fKVDNhr2aqKa4Hgd0G5id',#6,$,$,(#82),#250);
#252=IFCPROPERTYSINGLEVALUE('InternalTaskId',$,IFCTEXT('task-muspycm6oe5i11'),$);
#253=IFCPROPERTYSET('2du1zb4h5VliCgYBjqMaqq',#6,'OPS_TaskIdentity',$,(#252));
#254=IFCRELDEFINESBYPROPERTIES('2HAdZo$vS$NhGaJmUrtfOh',#6,$,$,(#84),#253);
#255=IFCPROPERTYSINGLEVALUE('InternalTaskId',$,IFCTEXT('task-muspycm8nngb12'),$);
#256=IFCPROPERTYSET('3KFR2GKdQ7DxRvIZFKERRg',#6,'OPS_TaskIdentity',$,(#255));
#257=IFCRELDEFINESBYPROPERTIES('3a5apeavkoxfnaIv07Km10',#6,$,$,(#86),#256);
#258=IFCPROPERTYSINGLEVALUE('InternalTaskId',$,IFCTEXT('task-muspycma5vlk13'),$);
#259=IFCPROPERTYSET('0a55Nq94EwNAVleD_Fw5F5',#6,'OPS_TaskIdentity',$,(#258));
#260=IFCRELDEFINESBYPROPERTIES('3mqcikcCft14tXPoFft2JM',#6,$,$,(#88),#259);
#261=IFCPROPERTYSINGLEVALUE('InternalTaskId',$,IFCTEXT('task-muspycmcg0id14'),$);
#262=IFCPROPERTYSET('0apVMPcRa0HgaHeWfdmzPa',#6,'OPS_TaskIdentity',$,(#261));
#263=IFCRELDEFINESBYPROPERTIES('3cM21QUgfND8tQUJA1rf3J',#6,$,$,(#90),#262);
#264=IFCPROPERTYSINGLEVALUE('InternalTaskId',$,IFCTEXT('task-muspycme291v15'),$);
#265=IFCPROPERTYSET('2z4vk61PbEsgBoxtwXgwMK',#6,'OPS_TaskIdentity',$,(#264));
#266=IFCRELDEFINESBYPROPERTIES('1m5m3dLP6II2pBgoUDKFd2',#6,$,$,(#92),#265);
#267=IFCPROPERTYSINGLEVALUE('InternalTaskId',$,IFCTEXT('task-muspycmhkf3116'),$);
#268=IFCPROPERTYSET('0rHoMMODAAxqy4hovUD_RS',#6,'OPS_TaskIdentity',$,(#267));
#269=IFCRELDEFINESBYPROPERTIES('3EUmo8Xp2QtUIevkD7ZBxh',#6,$,$,(#94),#268);
#270=IFCPROPERTYSINGLEVALUE('InternalTaskId',$,IFCTEXT('task-muspycmjh2ji17'),$);
#271=IFCPROPERTYSET('11ttcgzkTb3KiO3imxqPr$',#6,'OPS_TaskIdentity',$,(#270));
#272=IFCRELDEFINESBYPROPERTIES('0KG6NCXEaNiI_m7H7y9M_A',#6,$,$,(#96),#271);
#273=IFCPROPERTYSINGLEVALUE('InternalTaskId',$,IFCTEXT('task-muspycmlm8lv18'),$);
#274=IFCPROPERTYSET('3lKV1fhdGjX77FN9kFCOOK',#6,'OPS_TaskIdentity',$,(#273));
#275=IFCRELDEFINESBYPROPERTIES('0cH31zp90agnRmdij55$Gm',#6,$,$,(#98),#274);
#276=IFCPROPERTYSINGLEVALUE('InternalTaskId',$,IFCTEXT('task-muspycmnp0n719'),$);
#277=IFCPROPERTYSET('1wgbS27nrqz4Xo5FViVVak',#6,'OPS_TaskIdentity',$,(#276));
#278=IFCRELDEFINESBYPROPERTIES('1EerQFCqyYrsNeWHjjkhjF',#6,$,$,(#100),#277);
#279=IFCPROPERTYSINGLEVALUE('InternalTaskId',$,IFCTEXT('task-muspycmojx0520'),$);
#280=IFCPROPERTYSET('3roBr0RG7QSFvbOuh6b7fO',#6,'OPS_TaskIdentity',$,(#279));
#281=IFCRELDEFINESBYPROPERTIES('0jU2QOvmAX1XkVdnUi2l20',#6,$,$,(#102),#280);
#282=IFCPROPERTYSINGLEVALUE('InternalTaskId',$,IFCTEXT('task-muspycmqtqv221'),$);
#283=IFCPROPERTYSET('2qYheGpTgYgQic_7vPYztr',#6,'OPS_TaskIdentity',$,(#282));
#284=IFCRELDEFINESBYPROPERTIES('0Lzz98RsLJxJwHtHN70Mjn',#6,$,$,(#104),#283);
#285=IFCPROPERTYSINGLEVALUE('InternalTaskId',$,IFCTEXT('task-muspycmsyml522'),$);
#286=IFCPROPERTYSET('2ZVbeDsC0r1SN0uimomYKU',#6,'OPS_TaskIdentity',$,(#285));
#287=IFCRELDEFINESBYPROPERTIES('01OBN5LGuryzKjd314T0wI',#6,$,$,(#106),#286);
#288=IFCPROPERTYSINGLEVALUE('InternalTaskId',$,IFCTEXT('task-muspycmtsy1c23'),$);
#289=IFCPROPERTYSET('1uhxwDitFrgG21iVHAkjQC',#6,'OPS_TaskIdentity',$,(#288));
#290=IFCRELDEFINESBYPROPERTIES('2lN4tILXFhGSCfK7aqrGvX',#6,$,$,(#108),#289);
#291=IFCPROPERTYSINGLEVALUE('InternalTaskId',$,IFCTEXT('task-muspycmvxyvo24'),$);
#292=IFCPROPERTYSET('3d6wETqXnMD_xaRoRT87oq',#6,'OPS_TaskIdentity',$,(#291));
#293=IFCRELDEFINESBYPROPERTIES('0_bAcDlMcgAV6HwlP5fD4h',#6,$,$,(#110),#292);
#294=IFCPROPERTYSINGLEVALUE('InternalTaskId',$,IFCTEXT('task-muspycmxajs125'),$);
#295=IFCPROPERTYSET('0Se7YCInZHRddUWq5DpPtQ',#6,'OPS_TaskIdentity',$,(#294));
#296=IFCRELDEFINESBYPROPERTIES('0KaGT1ucM0q9cs$8G$RYus',#6,$,$,(#112),#295);
#297=IFCPROPERTYSINGLEVALUE('InternalTaskId',$,IFCTEXT('task-muspycmz5nx626'),$);
#298=IFCPROPERTYSET('08RYKqL7kLxJOngzIkOpA1',#6,'OPS_TaskIdentity',$,(#297));
#299=IFCRELDEFINESBYPROPERTIES('1AFU00DuRzQXraR_J3FOwq',#6,$,$,(#114),#298);
#300=IFCPROPERTYSINGLEVALUE('InternalTaskId',$,IFCTEXT('task-muspycn1jayo27'),$);
#301=IFCPROPERTYSET('1T5CPup4Fbxc$RCkj4bLuD',#6,'OPS_TaskIdentity',$,(#300));
#302=IFCRELDEFINESBYPROPERTIES('0rZbWSWfLflFXk6YDnUXuv',#6,$,$,(#116),#301);
#303=IFCPROPERTYSINGLEVALUE('InternalTaskId',$,IFCTEXT('task-muspycn3wbda28'),$);
#304=IFCPROPERTYSET('28042zEhKwclfEGcQ10rXD',#6,'OPS_TaskIdentity',$,(#303));
#305=IFCRELDEFINESBYPROPERTIES('1gA1qSS9tVDjrKd7FI4LW4',#6,$,$,(#118),#304);
#306=IFCPROPERTYSINGLEVALUE('InternalTaskId',$,IFCTEXT('task-muspycn40jrl29'),$);
#307=IFCPROPERTYSET('2XRr4Gej2kUPzs6$_bXoOB',#6,'OPS_TaskIdentity',$,(#306));
#308=IFCRELDEFINESBYPROPERTIES('0JHSX1jjGdq6zzBSPIUo90',#6,$,$,(#120),#307);
#309=IFCPROPERTYSINGLEVALUE('InternalTaskId',$,IFCTEXT('task-muspycn6dvws30'),$);
#310=IFCPROPERTYSET('2FhrXgFcDpG6cqtAgTdEhK',#6,'OPS_TaskIdentity',$,(#309));
#311=IFCRELDEFINESBYPROPERTIES('3$78c8tEOLrWVoXhYleB5M',#6,$,$,(#122),#310);
#312=IFCPROPERTYSINGLEVALUE('InternalTaskId',$,IFCTEXT('task-muspycn8d35231'),$);
#313=IFCPROPERTYSET('3KWF42OSM4txFnHp29G14M',#6,'OPS_TaskIdentity',$,(#312));
#314=IFCRELDEFINESBYPROPERTIES('3NWVIGIXht3T88kmILvpEY',#6,$,$,(#124),#313);
#315=IFCPROPERTYSINGLEVALUE('InternalTaskId',$,IFCTEXT('task-muspycnaenqa32'),$);
#316=IFCPROPERTYSET('3OdVBPxbMhqJcEn$dtnGxa',#6,'OPS_TaskIdentity',$,(#315));
#317=IFCRELDEFINESBYPROPERTIES('04a63Mvp$b5eIF7EE4Ee5X',#6,$,$,(#126),#316);
#318=IFCPROPERTYSINGLEVALUE('ConstraintType',$,IFCLABEL('SNET'),$);
#319=IFCPROPERTYSINGLEVALUE('ConstraintDate',$,IFCDATE('2027-07-14'),$);
#320=IFCPROPERTYSET('3ikHHzBXRGsL0eup9Iw5uJ',#6,'OPS_Constraints',$,(#318,#319));
#321=IFCRELDEFINESBYPROPERTIES('02s33HH77ME62Hb9kT8JDS',#6,$,$,(#110),#320);
#322=IFCPROPERTYSINGLEVALUE('Deadline',$,IFCDATE('2027-09-10'),$);
#323=IFCPROPERTYSET('3$I7m28PgDJRR$J63YQCCY',#6,'OPS_Constraints',$,(#322));
#324=IFCRELDEFINESBYPROPERTIES('2pt4vSk7mM2e37vzcPOtVW',#6,$,$,(#126),#323);
#325=IFCPROPERTYSINGLEVALUE('MilestoneKind',$,IFCLABEL('START'),$);
#326=IFCPROPERTYSET('3s1yNUXZTxLXX8nM3G0zHp',#6,'OPS_Milestone',$,(#325));
#327=IFCRELDEFINESBYPROPERTIES('2bT4qnHJ7ZEA$A_xVHnNVP',#6,$,$,(#82),#326);
#328=IFCPROPERTYSINGLEVALUE('MilestoneKind',$,IFCLABEL('FINISH'),$);
#329=IFCPROPERTYSINGLEVALUE('Mandatory',$,IFCBOOLEAN(.T.),$);
#330=IFCPROPERTYSET('2mOClNHV5S9$39uh6BVDYv',#6,'OPS_Milestone',$,(#328,#329));
#331=IFCRELDEFINESBYPROPERTIES('0EfmOhS3FiA4ZupJyh1$6_',#6,$,$,(#94),#330);
#332=IFCPROPERTYSINGLEVALUE('MilestoneKind',$,IFCLABEL('FINISH'),$);
#333=IFCPROPERTYSET('3JM71V$s$pYzfEn68UlKFG',#6,'OPS_Milestone',$,(#332));
#334=IFCRELDEFINESBYPROPERTIES('3REOUdeCroFdjklN_HAxld',#6,$,$,(#126),#333);
#335=IFCPROPERTYSINGLEVALUE('LevelingDelay',$,IFCINTEGER(5),$);
#336=IFCPROPERTYSET('1DDqvSlgBidqvcgMJVKcuL',#6,'OPS_Leveling',$,(#335));
#337=IFCRELDEFINESBYPROPERTIES('2lKZvihslkb8zgu9HUG4jz',#6,$,$,(#104),#336);
#338=IFCPROPERTYSINGLEVALUE('WorkRule',$,IFCLABEL('FIXED_WORK'),$);
#339=IFCPROPERTYSET('3okwu3I6_FNJH8yWbv7sx4',#6,'OPS_WorkRule',$,(#338));
#340=IFCRELDEFINESBYPROPERTIES('2zYPdv6sZFmyHLKKqbfqGg',#6,$,$,(#116),#339);
#341=IFCPROPERTYSINGLEVALUE('Baselines',$,IFCTEXT('[{"id":"baseline-muspycu3zoqz74","name":"Basisplanning","createdAt":"2026-10-03T18:22:06.460Z","tasks":[{"taskId":"task-muspycm3rabw10","start":"2027-06-07","finish":"2027-06-07","duration":0,"isMilestone":true,"milestoneKind":"START"},{"taskId":"task-muspycm6oe5i11","start":"2027-06-07","finish":"2027-06-08","duration":2,"isMilestone":false},{"taskId":"task-muspycm8nngb12","start":"2027-06-09","finish":"2027-06-09","duration":1,"isMilestone":false},{"taskId":"task-muspycma5vlk13","start":"2027-06-10","finish":"2027-06-10","duration":1,"isMilestone":false},{"taskId":"task-muspycmcg0id14","start":"2027-06-11","finish":"2027-06-14","duration":2,"isMilestone":false},{"taskId":"task-muspycme291v15","start":"2027-06-15","finish":"2027-06-17","duration":3,"isMilestone":false},{"taskId":"task-muspycmhkf3116","start":"2027-06-17","finish":"2027-06-17","duration":0,"isMilestone":true,"milestoneKind":"FINISH"},{"taskId":"task-muspycmjh2ji17","start":"2027-06-18T07:00","finish":"2027-06-18T14:00","duration":0.75,"isMilestone":false},{"taskId":"task-muspycmlm8lv18","start":"2027-06-24","finish":"2027-06-25","duration":2,"isMilestone":false},{"taskId":"task-muspycmnp0n719","start":"2027-06-28T07:00","finish":"2027-06-28T12:00","duration":0.625,"isMilestone":false},{"taskId":"task-muspycmojx0520","start":"2027-06-29","finish":"2027-07-05","duration":5,"isMilestone":false},{"taskId":"task-muspycmqtqv221","start":"2027-07-06","finish":"2027-07-13","duration":6,"isMilestone":false},{"taskId":"task-muspycmsyml522","start":"2027-07-06T07:00","finish":"2027-07-06T14:00","duration":0.75,"isMilestone":false},{"taskId":"task-muspycmtsy1c23","start":"2027-07-07","finish":"2027-07-08","duration":2,"isMilestone":false},{"taskId":"task-muspycmvxyvo24","start":"2027-07-14","finish":"2027-07-15","duration":2,"isMilestone":false},{"taskId":"task-muspycmxajs125","start":"2027-07-16","finish":"2027-07-19","duration":2,"isMilestone":false},{"taskId":"task-muspycmz5nx626","start":"2027-07-20","finish":"2027-07-22","duration":3,"isMilestone":false},{"taskId":"task-muspycn1jayo27","start":"2027-07-23","finish":"2027-07-26","duration":2,"isMilestone":false},{"taskId":"task-muspycn3wbda28","start":"2027-07-27","finish":"2027-07-27","duration":1,"isMilestone":false},{"taskId":"task-muspycn40jrl29","start":"2027-08-25","finish":"2027-08-27","duration":3,"isMilestone":false},{"taskId":"task-muspycn6dvws30","start":"2027-07-27","finish":"2027-07-29","duration":3,"isMilestone":false},{"taskId":"task-muspycn8d35231","start":"2027-08-30","finish":"2027-08-30","duration":1,"isMilestone":false},{"taskId":"task-muspycnaenqa32","start":"2027-08-30","finish":"2027-08-30","duration":0,"isMilestone":true,"milestoneKind":"FINISH"}],"projectEnd":"2027-08-30","projectDuration":46}]'),$);
#342=IFCPROPERTYSINGLEVALUE('TaskGuids',$,IFCTEXT('{"task-muspycm3rabw10":"0ZefzAiukyztVLNWMtkCnR","task-muspycm6oe5i11":"2_zIhsQFeyqOoyANEF3rJJ","task-muspycm8nngb12":"2OzNn9fgvoV02iAiosBcpM","task-muspycma5vlk13":"2BIu3zhUmBdJaaPa10JA$p","task-muspycmcg0id14":"2b_nPd_ShO1tAItZUQHLGZ","task-muspycme291v15":"2KyeF7V01AwMUIYUn8Pq9e","task-muspycmhkf3116":"05Kl8KpxCSMdBTEbyadoFm","task-muspycmjh2ji17":"1Bvt2XaCg0g7GqBjRGNgz3","task-muspycmlm8lv18":"0K2HcCmazHTC1u_7IG6D4s","task-muspycmnp0n719":"0$Pg1mByqki27uM84NHTtZ","task-muspycmojx0520":"1kosdpN1pl0b8vcF3CiK9G","task-muspycmqtqv221":"3nFoifR8HyI5663u9gcXct","task-muspycmsyml522":"3wdOgDi0uXMyQbrfKe1QGc","task-muspycmtsy1c23":"3SJwCFPrrSH2X0nm5Q0Nos","task-muspycmvxyvo24":"2utCFMZJ2dShMgE709raeg","task-muspycmxajs125":"2IvLc2tJv7Z2YHAg9TJwx8","task-muspycmz5nx626":"1UzeDqa2q0r05dNvScIbSs","task-muspycn1jayo27":"2TuQTmnlregcMLyEZV5Ukp","task-muspycn3wbda28":"2UsMk0Qh5r4sgmCIPG3J$h","task-muspycn40jrl29":"0L6dkQyYvNRxL15_Ov9R90","task-muspycn6dvws30":"2QYfUMKafqjs6UBp8EQRpT","task-muspycn8d35231":"3JuUBNoWSujhR19DEnmlxj","task-muspycnaenqa32":"2xO8azXnA2gWErtZMmDSfm"}'),$);
#343=IFCPROPERTYSINGLEVALUE('ActiveBaselineId',$,IFCTEXT('baseline-muspycu3zoqz74'),$);
#344=IFCPROPERTYSET('3vZ2nkcTEXmhcu3vNVsAyq',#6,'OPS_Baselines',$,(#341,#342,#343));
#345=IFCRELDEFINESBYPROPERTIES('1HMnx1hM7n$bsisQBUqZ5T',#6,$,$,(#70),#344);
ENDSEC;
END-ISO-10303-21;
