ISO-10303-21;
HEADER;
FILE_DESCRIPTION(('ViewDefinition [SchedulingView]'),'2;1');
FILE_NAME('Aanbouw woning.ifc','2026-10-03T16:19:16',('Open Planner Studio'),('OpenAEC Foundation'),'Open Planner Studio 0.1','Open Planner Studio','');
FILE_SCHEMA(('IFC4X3'));
ENDSEC;
DATA;
#1=IFCPERSON($,$,$,$,$,$,$,$);
#2=IFCORGANIZATION($,$,$,$,$);
#3=IFCPERSONANDORGANIZATION(#1,#2,$);
#4=IFCORGANIZATION($,'OpenAEC Foundation',$,$,$);
#5=IFCAPPLICATION(#4,'0.2','Open Planner Studio','OPS');
#6=IFCOWNERHISTORY(#3,#5,$,.NOCHANGE.,$,$,$,1791044356);
#7=IFCSIUNIT(*,.LENGTHUNIT.,$,.METRE.);
#8=IFCSIUNIT(*,.TIMEUNIT.,$,.SECOND.);
#9=IFCUNITASSIGNMENT((#7,#8));
#10=IFCCARTESIANPOINT((0.,0.,0.));
#11=IFCAXIS2PLACEMENT3D(#10,$,$);
#12=IFCGEOMETRICREPRESENTATIONCONTEXT($,'Plan',3,1.0E-05,#11,$);
#13=IFCPROJECT('1c1lFmnPoXLQMhf5I7qSmq',#6,'Aanbouw woning','Uitbouw van 4 bij 5 meter aan de achtergevel van een eengezinswoning \X2\2014\X0\ het oefenproject van de tutorials.',$,$,$,(#12),#9);
#14=IFCTIMEPERIOD('07:00:00','12:00:00');
#15=IFCTIMEPERIOD('13:00:00','16:00:00');
#16=IFCRECURRENCEPATTERN(.WEEKLY.,$,(1,2,3,4,5),$,$,$,$,(#14,#15));
#17=IFCWORKTIME('Standard work week',.PREDICTED.,$,#16,$,$);
#18=IFCWORKTIME('Nieuwjaar',.PREDICTED.,$,$,'2026-01-01','2026-01-01');
#19=IFCWORKTIME('Goede Vrijdag',.PREDICTED.,$,$,'2026-04-03','2026-04-03');
#20=IFCWORKTIME('Pasen',.PREDICTED.,$,$,'2026-04-05','2026-04-06');
#21=IFCWORKTIME('Koningsdag',.PREDICTED.,$,$,'2026-04-27','2026-04-27');
#22=IFCWORKTIME('Hemelvaart',.PREDICTED.,$,$,'2026-05-14','2026-05-14');
#23=IFCWORKTIME('Pinksteren',.PREDICTED.,$,$,'2026-05-24','2026-05-25');
#24=IFCWORKTIME('Bouwvak (Midden)',.PREDICTED.,$,$,'2026-08-03','2026-08-21');
#25=IFCWORKTIME('Kerst',.PREDICTED.,$,$,'2026-12-25','2026-12-26');
#26=IFCWORKTIME('Nieuwjaar',.PREDICTED.,$,$,'2027-01-01','2027-01-01');
#27=IFCWORKTIME('Goede Vrijdag',.PREDICTED.,$,$,'2027-03-26','2027-03-26');
#28=IFCWORKTIME('Pasen',.PREDICTED.,$,$,'2027-03-28','2027-03-29');
#29=IFCWORKTIME('Koningsdag',.PREDICTED.,$,$,'2027-04-27','2027-04-27');
#30=IFCWORKTIME('Hemelvaart',.PREDICTED.,$,$,'2027-05-06','2027-05-06');
#31=IFCWORKTIME('Pinksteren',.PREDICTED.,$,$,'2027-05-16','2027-05-17');
#32=IFCWORKTIME('Bouwvak (Midden)',.PREDICTED.,$,$,'2027-08-02','2027-08-20');
#33=IFCWORKTIME('Kerst',.PREDICTED.,$,$,'2027-12-25','2027-12-26');
#34=IFCWORKTIME('Nieuwjaar',.PREDICTED.,$,$,'2028-01-01','2028-01-01');
#35=IFCWORKTIME('Goede Vrijdag',.PREDICTED.,$,$,'2028-04-14','2028-04-14');
#36=IFCWORKTIME('Pasen',.PREDICTED.,$,$,'2028-04-16','2028-04-17');
#37=IFCWORKTIME('Koningsdag',.PREDICTED.,$,$,'2028-04-27','2028-04-27');
#38=IFCWORKTIME('Hemelvaart',.PREDICTED.,$,$,'2028-05-25','2028-05-25');
#39=IFCWORKTIME('Pinksteren',.PREDICTED.,$,$,'2028-06-04','2028-06-05');
#40=IFCWORKTIME('Bouwvak (Midden)',.PREDICTED.,$,$,'2028-07-24','2028-08-11');
#41=IFCWORKTIME('Kerst',.PREDICTED.,$,$,'2028-12-25','2028-12-26');
#42=IFCWORKTIME('Nieuwjaar',.PREDICTED.,$,$,'2029-01-01','2029-01-01');
#43=IFCWORKTIME('Goede Vrijdag',.PREDICTED.,$,$,'2029-03-30','2029-03-30');
#44=IFCWORKTIME('Pasen',.PREDICTED.,$,$,'2029-04-01','2029-04-02');
#45=IFCWORKTIME('Koningsdag',.PREDICTED.,$,$,'2029-04-27','2029-04-27');
#46=IFCWORKTIME('Hemelvaart',.PREDICTED.,$,$,'2029-05-10','2029-05-10');
#47=IFCWORKTIME('Pinksteren',.PREDICTED.,$,$,'2029-05-20','2029-05-21');
#48=IFCWORKTIME('Bouwvak (Midden)',.PREDICTED.,$,$,'2029-07-30','2029-08-17');
#49=IFCWORKTIME('Kerst',.PREDICTED.,$,$,'2029-12-25','2029-12-26');
#50=IFCWORKTIME('Nieuwjaar',.PREDICTED.,$,$,'2030-01-01','2030-01-01');
#51=IFCWORKTIME('Goede Vrijdag',.PREDICTED.,$,$,'2030-04-19','2030-04-19');
#52=IFCWORKTIME('Pasen',.PREDICTED.,$,$,'2030-04-21','2030-04-22');
#53=IFCWORKTIME('Koningsdag',.PREDICTED.,$,$,'2030-04-27','2030-04-27');
#54=IFCWORKTIME('Bevrijdingsdag',.PREDICTED.,$,$,'2030-05-05','2030-05-05');
#55=IFCWORKTIME('Hemelvaart',.PREDICTED.,$,$,'2030-05-30','2030-05-30');
#56=IFCWORKTIME('Pinksteren',.PREDICTED.,$,$,'2030-06-09','2030-06-10');
#57=IFCWORKTIME('Bouwvak (Midden)',.PREDICTED.,$,$,'2030-07-29','2030-08-16');
#58=IFCWORKTIME('Kerst',.PREDICTED.,$,$,'2030-12-25','2030-12-26');
#59=IFCWORKCALENDAR('1v7eWORgXY21NrIQHjqJut',#6,'Bouwkalender NL','Standaard bouwkalender: ma-vr 07:00-16:00',$,(#17),(#18,#19,#20,#21,#22,#23,#24,#25,#26,#27,#28,#29,#30,#31,#32,#33,#34,#35,#36,#37,#38,#39,#40,#41,#42,#43,#44,#45,#46,#47,#48,#49,#50,#51,#52,#53,#54,#55,#56,#57,#58),.FIRSTSHIFT.);
#60=IFCPROPERTYSINGLEVALUE('RuleSetId',$,IFCLABEL('NL'),$);
#61=IFCPROPERTYSINGLEVALUE('BreakChoice',$,IFCLABEL('midden'),$);
#62=IFCPROPERTYSINGLEVALUE('GeneratedFromYear',$,IFCINTEGER(2026),$);
#63=IFCPROPERTYSINGLEVALUE('GeneratedToYear',$,IFCINTEGER(2030),$);
#64=IFCPROPERTYSINGLEVALUE('HoursPerDay',$,IFCREAL(8),$);
#65=IFCPROPERTYSINGLEVALUE('WorkEndHour',$,IFCREAL(16),$);
#66=IFCPROPERTYSINGLEVALUE('IsHourCalendar',$,IFCBOOLEAN(.F.),$);
#67=IFCPROPERTYSET('3Ed5ZjnVkWZcLLWR3s1ROU',#6,'OPS_Calendar',$,(#60,#61,#62,#63,#64,#65,#66));
#68=IFCRELDEFINESBYPROPERTIES('139YnmlinIkU8waPGdsw3G',#6,$,$,(#59),#67);
#69=IFCWORKPLAN('1TFR_HWeA_ONsjTNIC84oR',#6,'Aanbouw woning','Uitbouw van 4 bij 5 meter aan de achtergevel van een eengezinswoning \X2\2014\X0\ het oefenproject van de tutorials.',$,$,'2026-10-03T16:19:16',$,$,$,$,$,'2027-06-07T07:00:00','2027-06-14T07:00:00',.PLANNED.);
#70=IFCWORKSCHEDULE('1Bafc17WqDsMR_P_CLoXup',#6,'Construction schedule v1.0',$,$,$,'2026-10-03T16:19:16',$,$,$,$,$,'2027-06-07T07:00:00','2027-06-14T07:00:00',.PLANNED.);
#71=IFCRELAGGREGATES('1gv1sR5$1UruN6bsmvm_lj',#6,$,$,#69,(#70));
#72=IFCTASKTIME('Voorbereiding Time',.PREDICTED.,$,.WORKTIME.,'P0Y0M4D','2027-06-07T07:00:00','2027-06-11T07:00:00','2027-06-07T07:00:00','2027-06-10T07:00:00','2027-06-10T07:00:00','2027-06-15T07:00:00','P0Y0M0D','P0Y0M3D',.F.,$,$,$,$,$,0.00);
#73=IFCTASK('34xmH3pQw7epnhLrWRFA_S',#6,'Voorbereiding',$,$,'1',$,$,$,.F.,$,#72,.CONSTRUCTION.);
#74=IFCTASKTIME('Fundering Time',.PREDICTED.,$,.WORKTIME.,'P0Y0M12D','2027-06-07T07:00:00','2027-06-11T07:00:00','2027-06-11T07:00:00','2027-06-28T12:00','2027-06-16T07:00:00','2027-07-01T16:00','P0Y0M0D','P0Y0M3D',.F.,$,$,$,$,$,0.00);
#75=IFCTASK('0S4_XIthZMRbmVE4GtSlXF',#6,'Fundering',$,$,'2',$,$,$,.F.,$,#74,.CONSTRUCTION.);
#76=IFCTASKTIME('Ruwbouw Time',.PREDICTED.,$,.WORKTIME.,'P0Y0M15D','2027-06-07T07:00:00','2027-06-11T07:00:00','2027-06-29T07:00:00','2027-07-19T07:00:00','2027-07-02T07:00:00','2027-07-19T07:00:00','P0Y0M0D','P0Y0M0D',.T.,$,$,$,$,$,0.00);
#77=IFCTASK('0lR2ENEaeFWl0tGG2iNL9x',#6,'Ruwbouw',$,$,'3',$,$,$,.F.,$,#76,.CONSTRUCTION.);
#78=IFCTASKTIME('Afbouw Time',.PREDICTED.,$,.WORKTIME.,'P0Y0M15D','2027-06-07T07:00:00','2027-06-11T07:00:00','2027-07-20T07:00:00','2027-08-30T07:00:00','2027-07-20T07:00:00','2027-08-30T07:00:00','P0Y0M0D','P0Y0M0D',.T.,$,$,$,$,$,0.00);
#79=IFCTASK('2A_Po9eSU85ZOn0qdZ5TPR',#6,'Afbouw',$,$,'4',$,$,$,.F.,$,#78,.CONSTRUCTION.);
#80=IFCTASKTIME('Start bouw Time',.PREDICTED.,$,.WORKTIME.,'P0Y0M0D','2027-06-07T07:00:00','2027-06-07T07:00:00','2027-06-07T07:00:00','2027-06-07T07:00:00','2027-06-10T07:00:00','2027-06-10T07:00:00','P0Y0M0D','P0Y0M3D',.F.,$,$,$,$,$,0.00);
#81=IFCTASK('3aKx060nCynunn_9GybvLw',#6,'Start bouw',$,$,'1.1',$,$,$,.T.,$,#80,.USERDEFINED.);
#82=IFCTASKTIME('Bouwplaats inrichten Time',.PREDICTED.,$,.WORKTIME.,'P0Y0M2D','2027-06-07T07:00:00','2027-06-08T07:00:00','2027-06-07T07:00:00','2027-06-08T07:00:00','2027-06-10T07:00:00','2027-06-11T07:00:00','P0Y0M0D','P0Y0M3D',.F.,$,$,$,$,$,0.00);
#83=IFCTASK('1ZEOsfnk851gm8VEmX6gQD',#6,'Bouwplaats inrichten',$,$,'1.2',$,$,$,.F.,$,#82,.CONSTRUCTION.);
#84=IFCTASKTIME('Tuin en bestrating verwijderen Time',.PREDICTED.,$,.WORKTIME.,'P0Y0M1D','2027-06-07T07:00:00','2027-06-07T07:00:00','2027-06-09T07:00:00','2027-06-09T07:00:00','2027-06-14T07:00:00','2027-06-14T07:00:00','P0Y0M0D','P0Y0M3D',.F.,$,$,$,$,$,0.00);
#85=IFCTASK('2soKAwYrrEyTzclwwy5If_',#6,'Tuin en bestrating verwijderen',$,$,'1.3',$,$,$,.F.,$,#84,.CONSTRUCTION.);
#86=IFCTASKTIME('Aanbouw uitzetten Time',.PREDICTED.,$,.WORKTIME.,'P0Y0M1D','2027-06-07T07:00:00','2027-06-07T07:00:00','2027-06-10T07:00:00','2027-06-10T07:00:00','2027-06-15T07:00:00','2027-06-15T07:00:00','P0Y0M0D','P0Y0M3D',.F.,$,$,$,$,$,0.00);
#87=IFCTASK('1aoB5sTGCXFO_ipGp_SdXj',#6,'Aanbouw uitzetten',$,$,'1.4',$,$,$,.F.,$,#86,.CONSTRUCTION.);
#88=IFCTASKTIME('Funderingssleuf ontgraven Time',.PREDICTED.,$,.WORKTIME.,'P0Y0M2D','2027-06-07T07:00:00','2027-06-08T07:00:00','2027-06-11T07:00:00','2027-06-14T07:00:00','2027-06-16T07:00:00','2027-06-17T07:00:00','P0Y0M0D','P0Y0M3D',.F.,$,$,$,$,$,0.00);
#89=IFCTASK('1IyLhSRjaYSr1ibGMfrzlJ',#6,'Funderingssleuf ontgraven',$,$,'2.1',$,$,$,.F.,$,#88,.CONSTRUCTION.);
#90=IFCTASKTIME('Wapening en bekisting fundering Time',.PREDICTED.,$,.WORKTIME.,'P0Y0M3D','2027-06-07T07:00:00','2027-06-09T07:00:00','2027-06-15T07:00:00','2027-06-17T07:00:00','2027-06-18T07:00:00','2027-06-22T07:00:00','P0Y0M0D','P0Y0M3D',.F.,$,$,$,$,$,0.00);
#91=IFCTASK('3rsp5ZSIIDjTWbN6ykw0HX',#6,'Wapening en bekisting fundering',$,$,'2.2',$,$,$,.F.,$,#90,.CONSTRUCTION.);
#92=IFCTASKTIME('Inspectie wapening Time',.PREDICTED.,$,.WORKTIME.,'P0Y0M0D','2027-06-07T07:00:00','2027-06-07T07:00:00','2027-06-17T07:00:00','2027-06-17T07:00:00','2027-06-22T07:00:00','2027-06-22T07:00:00','P0Y0M0D','P0Y0M3D',.F.,$,$,$,$,$,0.00);
#93=IFCTASK('1wIxYswwe6hp33_yc2x8aP',#6,'Inspectie wapening',$,$,'2.3',$,$,$,.T.,$,#92,.ATTENDANCE.);
#94=IFCTASKTIME('Fundering storten Time',.PREDICTED.,$,.WORKTIME.,'PT6H0M0S','2027-06-07T00:00:00','2027-06-07T14:00:00','2027-06-18T07:00:00','2027-06-18T14:00:00','2027-06-23T09:00:00','2027-06-23T16:00:00','P0Y0M0D','P0Y0M3.25D',.F.,$,$,$,$,$,0.00);
#95=IFCTASK('2pE2cJDqXVGkk0rqG9KeGR',#6,'Fundering storten',$,$,'2.4',$,$,$,.F.,$,#94,.CONSTRUCTION.);
#96=IFCTASKTIME('Funderingsmetselwerk Time',.PREDICTED.,$,.WORKTIME.,'P0Y0M2D','2027-06-07T07:00:00','2027-06-08T07:00:00','2027-06-24T07:00:00','2027-06-25T07:00:00','2027-06-29T07:00:00','2027-06-30T07:00:00','P0Y0M0D','P0Y0M3D',.F.,$,$,$,$,$,0.00);
#97=IFCTASK('3Kc9RG_F9HhOqHaECfmPgo',#6,'Funderingsmetselwerk',$,$,'2.5',$,$,$,.F.,$,#96,.CONSTRUCTION.);
#98=IFCTASKTIME('Kanaalplaatvloer leggen Time',.PREDICTED.,$,.WORKTIME.,'PT5H0M0S','2027-06-07T00:00:00','2027-06-07T12:00:00','2027-06-28T07:00:00','2027-06-28T12:00:00','2027-07-01T10:00:00','2027-07-01T16:00:00','P0Y0M0D','P0Y0M3.375D',.F.,$,$,$,$,$,0.00);
#99=IFCTASK('3eE4h6nqcKN2PChcPjkQ7q',#6,'Kanaalplaatvloer leggen',$,$,'2.6',$,$,$,.F.,$,#98,.CONSTRUCTION.);
#100=IFCTASKTIME('Binnenspouwblad metselen Time',.PREDICTED.,$,.WORKTIME.,'P0Y0M5D','2027-06-07T07:00:00','2027-06-11T07:00:00','2027-06-29T07:00:00','2027-07-05T07:00:00','2027-07-02T07:00:00','2027-07-08T07:00:00','P0Y0M0D','P0Y0M3D',.F.,$,$,$,$,$,0.00);
#101=IFCTASK('1v1p702xO4BafOEaoAvnc1',#6,'Binnenspouwblad metselen',$,$,'3.1',$,$,$,.F.,$,#100,.CONSTRUCTION.);
#102=IFCTASKTIME('Buitenspouwblad metselen Time',.PREDICTED.,$,.WORKTIME.,'P0Y0M6D','2027-06-07T07:00:00','2027-06-14T07:00:00','2027-06-29T07:00:00','2027-07-06T07:00:00','2027-07-06T07:00:00','2027-07-13T07:00:00','P0Y0M5D','P0Y0M5D',.F.,$,$,$,$,$,0.00);
#103=IFCTASK('17z6McHBgeMvNQC8Z6SAo0',#6,'Buitenspouwblad metselen',$,$,'3.2',$,$,$,.F.,$,#102,.CONSTRUCTION.);
#104=IFCTASKTIME('Dakelementen plaatsen Time',.PREDICTED.,$,.WORKTIME.,'PT6H0M0S','2027-06-07T00:00:00','2027-06-07T14:00:00','2027-07-06T07:00:00','2027-07-06T14:00:00','2027-07-09T09:00:00','2027-07-09T16:00:00','P0Y0M0D','P0Y0M3.25D',.F.,$,$,$,$,$,0.00);
#105=IFCTASK('1ptOfNb$KIIvqdpxvlVnMc',#6,'Dakelementen plaatsen',$,$,'3.3',$,$,$,.F.,$,#104,.CONSTRUCTION.);
#106=IFCTASKTIME('Dakbedekking aanbrengen Time',.PREDICTED.,$,.WORKTIME.,'P0Y0M2D','2027-06-07T07:00:00','2027-06-08T07:00:00','2027-07-07T07:00:00','2027-07-08T07:00:00','2027-07-12T07:00:00','2027-07-13T07:00:00','P0Y0M3D','P0Y0M3D',.F.,$,$,$,$,$,0.00);
#107=IFCTASK('0U_LtpmR71m6Iv7s8B_SRj',#6,'Dakbedekking aanbrengen',$,$,'3.4',$,$,$,.F.,$,#106,.CONSTRUCTION.);
#108=IFCTASKTIME('Kozijnen plaatsen Time',.PREDICTED.,$,.WORKTIME.,'P0Y0M2D','2027-06-07T07:00:00','2027-06-08T07:00:00','2027-07-14T07:00:00','2027-07-15T07:00:00','2027-07-14T07:00:00','2027-07-15T07:00:00','P0Y0M0D','P0Y0M0D',.T.,$,$,$,$,$,0.00);
#109=IFCTASK('13Ee0GvXpydorZSx4BVPae',#6,'Kozijnen plaatsen',$,$,'3.5',$,$,$,.F.,$,#108,.CONSTRUCTION.);
#110=IFCTASKTIME('Achtergevel doorbreken Time',.PREDICTED.,$,.WORKTIME.,'P0Y0M2D','2027-06-07T07:00:00','2027-06-08T07:00:00','2027-07-16T07:00:00','2027-07-19T07:00:00','2027-07-16T07:00:00','2027-07-19T07:00:00','P0Y0M0D','P0Y0M0D',.T.,$,$,$,$,$,0.00);
#111=IFCTASK('10eXtddI_hLiO4LWuX49Ld',#6,'Achtergevel doorbreken',$,$,'3.6',$,$,$,.F.,$,#110,.CONSTRUCTION.);
#112=IFCTASKTIME('Installaties aanleggen Time',.PREDICTED.,$,.WORKTIME.,'P0Y0M3D','2027-06-07T07:00:00','2027-06-09T07:00:00','2027-07-20T07:00:00','2027-07-22T07:00:00','2027-07-20T07:00:00','2027-07-22T07:00:00','P0Y0M0D','P0Y0M0D',.T.,$,$,$,$,$,0.00);
#113=IFCTASK('2qL4OtZqZaI7gUezw2n1Iw',#6,'Installaties aanleggen',$,$,'4.1',$,$,$,.F.,$,#112,.CONSTRUCTION.);
#114=IFCTASKTIME('Stucwerk Time',.PREDICTED.,$,.WORKTIME.,'P0Y0M2D','2027-06-07T07:00:00','2027-06-10T07:00:00','2027-07-23T07:00:00','2027-07-26T07:00:00','2027-07-23T07:00:00','2027-07-26T07:00:00','P0Y0M0D','P0Y0M0D',.T.,$,$,$,$,$,0.00);
#115=IFCTASK('27eG1zir$LV9Wh4Q4tl1fw',#6,'Stucwerk',$,$,'4.2',$,$,$,.F.,$,#114,.CONSTRUCTION.);
#116=IFCTASKTIME('Dekvloer aanbrengen Time',.PREDICTED.,$,.WORKTIME.,'P0Y0M1D','2027-06-07T07:00:00','2027-06-07T07:00:00','2027-07-27T07:00:00','2027-07-27T07:00:00','2027-07-27T07:00:00','2027-07-27T07:00:00','P0Y0M0D','P0Y0M0D',.T.,$,$,$,$,$,0.00);
#117=IFCTASK('3R167IUXjqBgLYc12qcDy7',#6,'Dekvloer aanbrengen',$,$,'4.3',$,$,$,.F.,$,#116,.CONSTRUCTION.);
#118=IFCTASKTIME('Tegelwerk Time',.PREDICTED.,$,.WORKTIME.,'P0Y0M3D','2027-06-07T07:00:00','2027-06-09T07:00:00','2027-08-25T07:00:00','2027-08-27T07:00:00','2027-08-25T07:00:00','2027-08-27T07:00:00','P0Y0M0D','P0Y0M0D',.T.,$,$,$,$,$,0.00);
#119=IFCTASK('2AT91MLvCmcCPjk34Wzm25',#6,'Tegelwerk',$,$,'4.4',$,$,$,.F.,$,#118,.CONSTRUCTION.);
#120=IFCTASKTIME('Schilderwerk Time',.PREDICTED.,$,.WORKTIME.,'P0Y0M3D','2027-06-07T07:00:00','2027-06-09T07:00:00','2027-07-27T07:00:00','2027-07-29T07:00:00','2027-08-25T07:00:00','2027-08-27T07:00:00','P0Y0M6D','P0Y0M6D',.F.,$,$,$,$,$,0.00);
#121=IFCTASK('25Yj9SbI1kyRqz8zhpaen8',#6,'Schilderwerk',$,$,'4.5',$,$,$,.F.,$,#120,.CONSTRUCTION.);
#122=IFCTASKTIME('Opleverpunten en schoonmaken Time',.PREDICTED.,$,.WORKTIME.,'P0Y0M1D','2027-06-07T07:00:00','2027-06-07T07:00:00','2027-08-30T07:00:00','2027-08-30T07:00:00','2027-08-30T07:00:00','2027-08-30T07:00:00','P0Y0M0D','P0Y0M0D',.T.,$,$,$,$,$,0.00);
#123=IFCTASK('1CnHacCULiOGSwi3CsdWTV',#6,'Opleverpunten en schoonmaken',$,$,'4.6',$,$,$,.F.,$,#122,.CONSTRUCTION.);
#124=IFCTASKTIME('Oplevering Time',.PREDICTED.,$,.WORKTIME.,'P0Y0M0D','2027-06-07T07:00:00','2027-06-07T07:00:00','2027-08-30T07:00:00','2027-08-30T07:00:00','2027-08-30T07:00:00','2027-08-30T07:00:00','P0Y0M0D','P0Y0M0D',.T.,$,$,$,$,$,0.00);
#125=IFCTASK('2WJPXBgZWJGaFUtZpj$nus',#6,'Oplevering',$,$,'4.7',$,$,$,.T.,$,#124,.USERDEFINED.);
#126=IFCRELNESTS('3Ay48aYj6iueyK1ygpR2ek',#6,'WBS Voorbereiding',$,#73,( #81,#83,#85,#87));
#127=IFCRELNESTS('3Bs9o7onGBJGlQzny_OoQD',#6,'WBS Fundering',$,#75,( #89,#91,#93,#95,#97,#99));
#128=IFCRELNESTS('034i4xeQ77akn1NRQLZJjx',#6,'WBS Ruwbouw',$,#77,( #101,#103,#105,#107,#109,#111));
#129=IFCRELNESTS('2u7WAyLurX3JIa$gXrqihA',#6,'WBS Afbouw',$,#79,( #113,#115,#117,#119,#121,#123,#125));
#130=IFCRELNESTS('05CqOL9GSlKunIJKCqAqQX',#6,'WBS Hoofd',$,#70,(#73,#75,#77,#79));
#131=IFCRELSEQUENCE('2Wq5B1Ein7wfNnq0MmoCsi',#6,$,$,#81,#83,$,.FINISH_START.,$);
#132=IFCRELSEQUENCE('2vmzucmlV2neuZ264ceIp7',#6,$,$,#83,#85,$,.FINISH_START.,$);
#133=IFCRELSEQUENCE('0M4l_6o4GWNVwXGFsDk7$F',#6,$,$,#85,#87,$,.FINISH_START.,$);
#134=IFCRELSEQUENCE('3xEMvyaHiAIdN4gDrohGt8',#6,$,$,#87,#89,$,.FINISH_START.,$);
#135=IFCRELSEQUENCE('0YEJTbNO5XyNkBv4Z6Ta1k',#6,$,$,#89,#91,$,.FINISH_START.,$);
#136=IFCRELSEQUENCE('03FjwiHavTZCGWT7I8P8zD',#6,$,$,#91,#93,$,.FINISH_START.,$);
#137=IFCRELSEQUENCE('3Qsf4aSuhIRUnF$QMJavtQ',#6,$,$,#93,#95,$,.FINISH_START.,$);
#138=IFCLAGTIME('Lag',.PREDICTED.,$,IFCDURATION('P3D'),.WORKTIME.);
#139=IFCRELSEQUENCE('3kHYe9uQwUtjW0TyGoYxyy',#6,$,$,#95,#97,#138,.FINISH_START.,$);
#140=IFCRELSEQUENCE('1IYVm7rccOmIBsgBFSCJIm',#6,$,$,#97,#99,$,.FINISH_START.,$);
#141=IFCRELSEQUENCE('0SR3AnaKxB8nvKaSLaUy3l',#6,$,$,#99,#101,$,.FINISH_START.,$);
#142=IFCRELSEQUENCE('3kSTwQWXQ3cTKxVTyLt63Z',#6,$,$,#99,#103,$,.FINISH_START.,$);
#143=IFCRELSEQUENCE('22B9S0pVzj13yaNEImoIF0',#6,$,$,#101,#105,$,.FINISH_START.,$);
#144=IFCRELSEQUENCE('0x_07L918V6Mbj9Tci0QGH',#6,$,$,#105,#107,$,.FINISH_START.,$);
#145=IFCRELSEQUENCE('3bMAf_Zy4g8_$VQQ9Nr94i',#6,$,$,#107,#109,$,.FINISH_START.,$);
#146=IFCRELSEQUENCE('3A0uA5bDpkCp5f$N6rHhrq',#6,$,$,#103,#109,$,.FINISH_START.,$);
#147=IFCRELSEQUENCE('1Fb680uIKYjFRAQPh3Njmn',#6,$,$,#109,#111,$,.FINISH_START.,$);
#148=IFCRELSEQUENCE('2wtoh2LgaLyt3yhcOUtK2Y',#6,$,$,#111,#113,$,.FINISH_START.,$);
#149=IFCRELSEQUENCE('1Lh13Ahe9R3DC95pQyVPfN',#6,$,$,#113,#115,$,.FINISH_START.,$);
#150=IFCRELSEQUENCE('2gOPn_jRKxcaFxN1hsX2pg',#6,$,$,#115,#117,$,.FINISH_START.,$);
#151=IFCRELSEQUENCE('2xOMYBLJ4fZjI1bJfIq7YZ',#6,$,$,#115,#121,$,.FINISH_START.,$);
#152=IFCLAGTIME('Lag',.PREDICTED.,$,IFCDURATION('P5D'),.WORKTIME.);
#153=IFCRELSEQUENCE('1kin3HwOn0WALcQ29sFu7j',#6,$,$,#117,#119,#152,.FINISH_START.,$);
#154=IFCRELSEQUENCE('36ylIivdw5rh_X1_A3iwZA',#6,$,$,#119,#123,$,.FINISH_START.,$);
#155=IFCRELSEQUENCE('2cqjxLR48p6n71VmXvE2wV',#6,$,$,#121,#123,$,.FINISH_START.,$);
#156=IFCRELSEQUENCE('0xAcRUx1yuvz0Sc5r4l0XR',#6,$,$,#123,#125,$,.FINISH_START.,$);
#157=IFCCREWRESOURCE('0wg8c7jmRnMz7zljNrUj4J',#6,'Timmerploeg',$,$,$,$,$,.USERDEFINED.);
#158=IFCLABORRESOURCE('3Sh9ztX597Y3fJRB5j5rLa',#6,'Metselaar',$,$,$,$,$,.USERDEFINED.);
#159=IFCCONSTRUCTIONEQUIPMENTRESOURCE('1vVaftzYbdsuODycd0Y36R',#6,'Mobiele kraan',$,$,$,$,$,.USERDEFINED.);
#160=IFCSUBCONTRACTRESOURCE('3F96DXhwYTqBtAHNLe3XXy',#6,'Stukadoor',$,$,$,$,$,.USERDEFINED.);
#161=IFCCONSTRUCTIONMATERIALRESOURCE('2Fox2ZNZQzAHwvz9qvTuE0',#6,'Beton',$,$,$,$,$,.USERDEFINED.);
#162=IFCPROPERTYSINGLEVALUE('Color',$,IFCTEXT('#1E293B'),$);
#163=IFCPROPERTYSET('0Y$jo9M7lsQ7VzYCySeVf2',#6,'OPS_Resource',$,(#162));
#164=IFCRELDEFINESBYPROPERTIES('3Bh$LuMtKO5LdjOZb2d8Hq',#6,$,$,(#157),#163);
#165=IFCPROPERTYSINGLEVALUE('Color',$,IFCTEXT('#B91C1C'),$);
#166=IFCPROPERTYSET('0BpkAtyUSI6xoHgsTRZai6',#6,'OPS_Resource',$,(#165));
#167=IFCRELDEFINESBYPROPERTIES('1umBDPSKY7hrmLyLA0Wspr',#6,$,$,(#158),#166);
#168=IFCPROPERTYSINGLEVALUE('Color',$,IFCTEXT('#DB2777'),$);
#169=IFCPROPERTYSET('3dQjE4npbvkAzD648jtJgb',#6,'OPS_Resource',$,(#168));
#170=IFCRELDEFINESBYPROPERTIES('2S0_F5VixWfdvz3Bcvul2d',#6,$,$,(#159),#169);
#171=IFCPROPERTYSINGLEVALUE('MaxUnits',$,IFCREAL(2),$);
#172=IFCPROPERTYSINGLEVALUE('Color',$,IFCTEXT('#C2410C'),$);
#173=IFCPROPERTYSET('336mzFLdxA5Ol8qq2atXi1',#6,'OPS_Resource',$,(#171,#172));
#174=IFCRELDEFINESBYPROPERTIES('2YSy5BT91c8q0cd4QC28pd',#6,$,$,(#160),#173);
#175=IFCPROPERTYSINGLEVALUE('MaxUnits',$,IFCREAL(50),$);
#176=IFCPROPERTYSINGLEVALUE('UnitOfMeasure',$,IFCLABEL('m\X2\00B3\X0\'),$);
#177=IFCPROPERTYSINGLEVALUE('Color',$,IFCTEXT('#6366F1'),$);
#178=IFCPROPERTYSET('1tAL27e1YeeXh$Q9zcxDJ$',#6,'OPS_Resource',$,(#175,#176,#177));
#179=IFCRELDEFINESBYPROPERTIES('2j8_DpMPFsIuTmzOdK1EQD',#6,$,$,(#161),#178);
#180=IFCRELASSIGNSTOPROCESS('1N91G6Ou0EQxs8oN$DWOzj',#6,$,$,(#157),$,#91,$);
#181=IFCRELASSIGNSTOPROCESS('0JyybUrpL2aNmRY4o0SzuU',#6,$,$,(#161),$,#95,$);
#182=IFCRELASSIGNSTOPROCESS('0dheV45PJhPOSQ05MmSS7Y',#6,$,$,(#158),$,#97,$);
#183=IFCRELASSIGNSTOPROCESS('20T_1xC94USKZcnPi7g1LJ',#6,$,$,(#157,#159),$,#99,$);
#184=IFCRELASSIGNSTOPROCESS('1C2v6EBpXAYy4UskYzHKa3',#6,$,$,(#158),$,#101,$);
#185=IFCRELASSIGNSTOPROCESS('2_icTEgmkzV7GiL8hd0LQA',#6,$,$,(#158),$,#103,$);
#186=IFCRELASSIGNSTOPROCESS('0mt8_BUKEqT0CHo_shLLSU',#6,$,$,(#157,#159),$,#105,$);
#187=IFCRELASSIGNSTOPROCESS('1cdAJotBDd1yngkk4YdF4w',#6,$,$,(#157),$,#109,$);
#188=IFCRELASSIGNSTOPROCESS('2YHLxW058FIYs44Q0Hcl_r',#6,$,$,(#158),$,#111,$);
#189=IFCRELASSIGNSTOPROCESS('1QQXzHDq8$NPQuvqIHvGEP',#6,$,$,(#160),$,#115,$);
#190=IFCPROPERTYSINGLEVALUE('0wg8c7jmRnMz7zljNrUj4J#0',$,IFCTEXT('1|UNIFORM'),$);
#191=IFCPROPERTYSET('0jvWY6HlAmvSIBfknYXWux',#6,'OPS_Assignments',$,(#190));
#192=IFCRELDEFINESBYPROPERTIES('3b9ViNub844rcUQv5610mv',#6,$,$,(#91),#191);
#193=IFCPROPERTYSINGLEVALUE('2Fox2ZNZQzAHwvz9qvTuE0#0',$,IFCTEXT('8|UNIFORM'),$);
#194=IFCPROPERTYSET('3H_VumkJkFZCgaSCLUiB$E',#6,'OPS_Assignments',$,(#193));
#195=IFCRELDEFINESBYPROPERTIES('1j7$UTSwG7bbSjP9O2pJCq',#6,$,$,(#95),#194);
#196=IFCPROPERTYSINGLEVALUE('3Sh9ztX597Y3fJRB5j5rLa#0',$,IFCTEXT('1|UNIFORM'),$);
#197=IFCPROPERTYSET('2EJxXOdLd8EsbOfdafPeYN',#6,'OPS_Assignments',$,(#196));
#198=IFCRELDEFINESBYPROPERTIES('0_fFIwmIvXpJWOWCJj5hQp',#6,$,$,(#97),#197);
#199=IFCPROPERTYSINGLEVALUE('0wg8c7jmRnMz7zljNrUj4J#0',$,IFCTEXT('1|UNIFORM'),$);
#200=IFCPROPERTYSINGLEVALUE('1vVaftzYbdsuODycd0Y36R#1',$,IFCTEXT('1|UNIFORM'),$);
#201=IFCPROPERTYSET('3Xlm3fCIXIfZ7KxZ9u$oho',#6,'OPS_Assignments',$,(#199,#200));
#202=IFCRELDEFINESBYPROPERTIES('1SbfFajBOC23tY72tRU2bc',#6,$,$,(#99),#201);
#203=IFCPROPERTYSINGLEVALUE('3Sh9ztX597Y3fJRB5j5rLa#0',$,IFCTEXT('1|UNIFORM'),$);
#204=IFCPROPERTYSET('3R8bXK56oUejXrn5yEvfre',#6,'OPS_Assignments',$,(#203));
#205=IFCRELDEFINESBYPROPERTIES('05e9ztvyTs4Ca0lvirlpF2',#6,$,$,(#101),#204);
#206=IFCPROPERTYSINGLEVALUE('3Sh9ztX597Y3fJRB5j5rLa#0',$,IFCTEXT('1|UNIFORM'),$);
#207=IFCPROPERTYSET('0MOo_q4E5Xr_v88r7qYvhw',#6,'OPS_Assignments',$,(#206));
#208=IFCRELDEFINESBYPROPERTIES('1lLzZ3m4k7OcEgIFxxR7wV',#6,$,$,(#103),#207);
#209=IFCPROPERTYSINGLEVALUE('0wg8c7jmRnMz7zljNrUj4J#0',$,IFCTEXT('1|UNIFORM'),$);
#210=IFCPROPERTYSINGLEVALUE('1vVaftzYbdsuODycd0Y36R#1',$,IFCTEXT('1|UNIFORM'),$);
#211=IFCPROPERTYSET('1mB0YaHogzyDJOo2lafrxr',#6,'OPS_Assignments',$,(#209,#210));
#212=IFCRELDEFINESBYPROPERTIES('1L3fro1CykJjAn$jqW7gXJ',#6,$,$,(#105),#211);
#213=IFCPROPERTYSINGLEVALUE('0wg8c7jmRnMz7zljNrUj4J#0',$,IFCTEXT('1|UNIFORM'),$);
#214=IFCPROPERTYSET('0ssGex3k9IJFCEA_ms2en9',#6,'OPS_Assignments',$,(#213));
#215=IFCRELDEFINESBYPROPERTIES('0dOgvW$UsuggxVIivirRPw',#6,$,$,(#109),#214);
#216=IFCPROPERTYSINGLEVALUE('3Sh9ztX597Y3fJRB5j5rLa#0',$,IFCTEXT('1|UNIFORM'),$);
#217=IFCPROPERTYSET('3vFvZTWIvubn4SmEOO5PyG',#6,'OPS_Assignments',$,(#216));
#218=IFCRELDEFINESBYPROPERTIES('0jZfVCbPWx7xJfL1pczCFO',#6,$,$,(#111),#217);
#219=IFCPROPERTYSINGLEVALUE('3F96DXhwYTqBtAHNLe3XXy#0',$,IFCTEXT('2|UNIFORM'),$);
#220=IFCPROPERTYSET('1GcKb532CoNdVzu_4rkWeP',#6,'OPS_Assignments',$,(#219));
#221=IFCRELDEFINESBYPROPERTIES('2nZyB$917taiS_Hl93quFQ',#6,$,$,(#115),#220);
#222=IFCPROPERTYSINGLEVALUE('Windows',$,IFCTEXT('{"3F96DXhwYTqBtAHNLe3XXy#0":{"remainingWorkMinutes":1920}}'),$);
#223=IFCPROPERTYSET('3dX5jMerqBDtNFBKG5xLkP',#6,'OPS_Timephased',$,(#222));
#224=IFCRELDEFINESBYPROPERTIES('2ZXrmsLFA65NeX1X4r7x$v',#6,$,$,(#115),#223);
#225=IFCRELASSIGNSTOCONTROL('3aZwGPWGDKLdj0wjJPRV7b',#6,$,$,(#73,#75,#77,#79,#81,#83,#85,#87,#89,#91,#93,#95,#97,#99,#101,#103,#105,#107,#109,#111,#113,#115,#117,#119,#121,#123,#125),$,#70);
#226=IFCPROPERTYSINGLEVALUE('InternalProjectId',$,IFCTEXT('proj-muslke440w584'),$);
#227=IFCPROPERTYSINGLEVALUE('wbsAutoNumber',$,IFCBOOLEAN(.T.),$);
#228=IFCPROPERTYSINGLEVALUE('DefaultTaskDurationUnit',$,IFCLABEL('days'),$);
#229=IFCPROPERTYSINGLEVALUE('ProjectStartDate',$,IFCDATE('2027-06-07'),$);
#230=IFCPROPERTYSINGLEVALUE('ProjectEndDate',$,$,$);
#231=IFCPROPERTYSINGLEVALUE('CreatedAt',$,IFCTEXT('2026-10-03T16:19:16.468Z'),$);
#232=IFCPROPERTYSINGLEVALUE('ModifiedAt',$,IFCTEXT('2026-10-03T16:19:16.468Z'),$);
#233=IFCPROPERTYSET('2rp2Al8xaM8gFWJC8m9jZh',#6,'OPS_ProjectSettings',$,(#226,#227,#228,#229,#230,#231,#232));
#234=IFCRELDEFINESBYPROPERTIES('1RI8E6fMRlhFcZn8h_Pdlk',#6,$,$,(#13),#233);
#235=IFCPROPERTYSINGLEVALUE('InternalTaskId',$,IFCTEXT('task-muslke49sd1p6'),$);
#236=IFCPROPERTYSET('3x48eclBUpzGGNT00x86yK',#6,'OPS_TaskIdentity',$,(#235));
#237=IFCRELDEFINESBYPROPERTIES('1vSeOGW4imZIhm33STlyrI',#6,$,$,(#73),#236);
#238=IFCPROPERTYSINGLEVALUE('InternalTaskId',$,IFCTEXT('task-muslke4ey83o7'),$);
#239=IFCPROPERTYSET('2HR7Uev9ARVaAGKOGzhhjT',#6,'OPS_TaskIdentity',$,(#238));
#240=IFCRELDEFINESBYPROPERTIES('0B8sxg7V$sFheD9$94vd46',#6,$,$,(#75),#239);
#241=IFCPROPERTYSINGLEVALUE('InternalTaskId',$,IFCTEXT('task-muslke4hin7k8'),$);
#242=IFCPROPERTYSET('05h$odHz$R_u5VmDAYvAiJ',#6,'OPS_TaskIdentity',$,(#241));
#243=IFCRELDEFINESBYPROPERTIES('3$lIzpvr8pmvvgSjWJNJzK',#6,$,$,(#77),#242);
#244=IFCPROPERTYSINGLEVALUE('InternalTaskId',$,IFCTEXT('task-muslke4jyhw19'),$);
#245=IFCPROPERTYSET('3J7COyLEvsuwwO_aHmfs0u',#6,'OPS_TaskIdentity',$,(#244));
#246=IFCRELDEFINESBYPROPERTIES('2LNMB9eWOFymqMdfYXztGg',#6,$,$,(#79),#245);
#247=IFCPROPERTYSINGLEVALUE('InternalTaskId',$,IFCTEXT('task-muslke4mzze410'),$);
#248=IFCPROPERTYSET('2nRiHyOUe$iPCDVC0vpiP1',#6,'OPS_TaskIdentity',$,(#247));
#249=IFCRELDEFINESBYPROPERTIES('3pzHFqgmMbokxDvubS8WoU',#6,$,$,(#81),#248);
#250=IFCPROPERTYSINGLEVALUE('InternalTaskId',$,IFCTEXT('task-muslke4p7eub11'),$);
#251=IFCPROPERTYSET('014f6NrrOSmj6j6hR6zGTo',#6,'OPS_TaskIdentity',$,(#250));
#252=IFCRELDEFINESBYPROPERTIES('3shokuF5$HNG0lgAVLmok2',#6,$,$,(#83),#251);
#253=IFCPROPERTYSINGLEVALUE('InternalTaskId',$,IFCTEXT('task-muslke4r7oa312'),$);
#254=IFCPROPERTYSET('3cefvVjFbYADtallEG4u63',#6,'OPS_TaskIdentity',$,(#253));
#255=IFCRELDEFINESBYPROPERTIES('1361A02SWCLAefjZM$EtZg',#6,$,$,(#85),#254);
#256=IFCPROPERTYSINGLEVALUE('InternalTaskId',$,IFCTEXT('task-muslke4tztit13'),$);
#257=IFCPROPERTYSET('0aD9MdCRal_mweaWto0z8n',#6,'OPS_TaskIdentity',$,(#256));
#258=IFCRELDEFINESBYPROPERTIES('3lP_lkfLgCNu6cAgRBuTrI',#6,$,$,(#87),#257);
#259=IFCPROPERTYSINGLEVALUE('InternalTaskId',$,IFCTEXT('task-muslke4wdon514'),$);
#260=IFCPROPERTYSET('0oTlNHrHys13bW2E6Jox5W',#6,'OPS_TaskIdentity',$,(#259));
#261=IFCRELDEFINESBYPROPERTIES('2Y21NOvKsXu23Uhz3YKbsa',#6,$,$,(#89),#260);
#262=IFCPROPERTYSINGLEVALUE('InternalTaskId',$,IFCTEXT('task-muslke4yjinm15'),$);
#263=IFCPROPERTYSET('0jCSB67kd9JLH_mTrtQLTj',#6,'OPS_TaskIdentity',$,(#262));
#264=IFCRELDEFINESBYPROPERTIES('1SFg02VpW1dt63rqS2t30_',#6,$,$,(#91),#263);
#265=IFCPROPERTYSINGLEVALUE('InternalTaskId',$,IFCTEXT('task-muslke51avyu16'),$);
#266=IFCPROPERTYSET('1Ai_MFMNQLCZN3KHzlG$ST',#6,'OPS_TaskIdentity',$,(#265));
#267=IFCRELDEFINESBYPROPERTIES('2wYw5$8efXdAHlZ1P9FQhT',#6,$,$,(#93),#266);
#268=IFCPROPERTYSINGLEVALUE('InternalTaskId',$,IFCTEXT('task-muslke536knm17'),$);
#269=IFCPROPERTYSET('2H46poPDjH72MjEEX0teeR',#6,'OPS_TaskIdentity',$,(#268));
#270=IFCRELDEFINESBYPROPERTIES('1g$BBZDUYRrF6IxZ4BNc9o',#6,$,$,(#95),#269);
#271=IFCPROPERTYSINGLEVALUE('InternalTaskId',$,IFCTEXT('task-muslke54cmx718'),$);
#272=IFCPROPERTYSET('0DzTeEpw6Qme39JCNIaUzK',#6,'OPS_TaskIdentity',$,(#271));
#273=IFCRELDEFINESBYPROPERTIES('0edQ4ekaNbkJykIFcQOjoG',#6,$,$,(#97),#272);
#274=IFCPROPERTYSINGLEVALUE('InternalTaskId',$,IFCTEXT('task-muslke5771zi19'),$);
#275=IFCPROPERTYSET('0gv1ihuvkSWEhuqwWnh8MI',#6,'OPS_TaskIdentity',$,(#274));
#276=IFCRELDEFINESBYPROPERTIES('1mjqOkVqdd5mN5JL_9OJJ6',#6,$,$,(#99),#275);
#277=IFCPROPERTYSINGLEVALUE('InternalTaskId',$,IFCTEXT('task-muslke58z94u20'),$);
#278=IFCPROPERTYSET('0EVrhTr7XH$cVvlzE$eDa3',#6,'OPS_TaskIdentity',$,(#277));
#279=IFCRELDEFINESBYPROPERTIES('1lN4lzRnDmezj5rzhJai9_',#6,$,$,(#101),#278);
#280=IFCPROPERTYSINGLEVALUE('InternalTaskId',$,IFCTEXT('task-muslke5alfhk21'),$);
#281=IFCPROPERTYSET('2n3Ybvz7q$9DsMKuYKsL0b',#6,'OPS_TaskIdentity',$,(#280));
#282=IFCRELDEFINESBYPROPERTIES('2lYOTlbURkneQ1khPbOH6c',#6,$,$,(#103),#281);
#283=IFCPROPERTYSINGLEVALUE('InternalTaskId',$,IFCTEXT('task-muslke5cyoez22'),$);
#284=IFCPROPERTYSET('3AUC40wakNH6wL9HrN_R5D',#6,'OPS_TaskIdentity',$,(#283));
#285=IFCRELDEFINESBYPROPERTIES('1bh7NpI_eANOpVCPRK2OxF',#6,$,$,(#105),#284);
#286=IFCPROPERTYSINGLEVALUE('InternalTaskId',$,IFCTEXT('task-muslke5eyyr823'),$);
#287=IFCPROPERTYSET('2bF59FgeuGxaf01DYonuMB',#6,'OPS_TaskIdentity',$,(#286));
#288=IFCRELDEFINESBYPROPERTIES('3lKDp8E$ABgxkIu7nN3t_$',#6,$,$,(#107),#287);
#289=IFCPROPERTYSINGLEVALUE('InternalTaskId',$,IFCTEXT('task-muslke5guese24'),$);
#290=IFCPROPERTYSET('1DlLe4bD2zAILjuid5hBut',#6,'OPS_TaskIdentity',$,(#289));
#291=IFCRELDEFINESBYPROPERTIES('3IYBoAtTXXexzvZERTqf_h',#6,$,$,(#109),#290);
#292=IFCPROPERTYSINGLEVALUE('InternalTaskId',$,IFCTEXT('task-muslke5iv3ie25'),$);
#293=IFCPROPERTYSET('2yHsMYjEnnNGtaucOxDMGf',#6,'OPS_TaskIdentity',$,(#292));
#294=IFCRELDEFINESBYPROPERTIES('0ZZoA1tRqGvDkMgMBZiCvE',#6,$,$,(#111),#293);
#295=IFCPROPERTYSINGLEVALUE('InternalTaskId',$,IFCTEXT('task-muslke5knw3e26'),$);
#296=IFCPROPERTYSET('3bfikt8ZdPZSjW4dg0oVfX',#6,'OPS_TaskIdentity',$,(#295));
#297=IFCRELDEFINESBYPROPERTIES('3pYdGKdTsv8KQd$vZVJvJ6',#6,$,$,(#113),#296);
#298=IFCPROPERTYSINGLEVALUE('InternalTaskId',$,IFCTEXT('task-muslke5lttke27'),$);
#299=IFCPROPERTYSET('2ZalP$u4FznpRU0fo2_6tM',#6,'OPS_TaskIdentity',$,(#298));
#300=IFCRELDEFINESBYPROPERTIES('1HHHt1Xu3NEP6kVdP9yS73',#6,$,$,(#115),#299);
#301=IFCPROPERTYSINGLEVALUE('InternalTaskId',$,IFCTEXT('task-muslke5oglmj28'),$);
#302=IFCPROPERTYSET('1pvozjumUP8Sz55ZTA4LYa',#6,'OPS_TaskIdentity',$,(#301));
#303=IFCRELDEFINESBYPROPERTIES('0Hm71oIGwH5xuJkNMsKABl',#6,$,$,(#117),#302);
#304=IFCPROPERTYSINGLEVALUE('InternalTaskId',$,IFCTEXT('task-muslke5pvq3q29'),$);
#305=IFCPROPERTYSET('0B3NhrzUeFcc9ZK3kuUJzZ',#6,'OPS_TaskIdentity',$,(#304));
#306=IFCRELDEFINESBYPROPERTIES('2APnLjIdI9cL2uhQWy$JOG',#6,$,$,(#119),#305);
#307=IFCPROPERTYSINGLEVALUE('InternalTaskId',$,IFCTEXT('task-muslke5sxnv230'),$);
#308=IFCPROPERTYSET('2I3_FHnXtdd8fnBronfSId',#6,'OPS_TaskIdentity',$,(#307));
#309=IFCRELDEFINESBYPROPERTIES('203$_81vEsOCpLYey55GOY',#6,$,$,(#121),#308);
#310=IFCPROPERTYSINGLEVALUE('InternalTaskId',$,IFCTEXT('task-muslke5uvfv331'),$);
#311=IFCPROPERTYSET('2ZuQzXjlLlS9unxjJh2E8A',#6,'OPS_TaskIdentity',$,(#310));
#312=IFCRELDEFINESBYPROPERTIES('0QCe$KFpB7oW0mTwVsneGx',#6,$,$,(#123),#311);
#313=IFCPROPERTYSINGLEVALUE('InternalTaskId',$,IFCTEXT('task-muslke5w7e8o32'),$);
#314=IFCPROPERTYSET('36w45J50OCdv24FRpYoNzU',#6,'OPS_TaskIdentity',$,(#313));
#315=IFCRELDEFINESBYPROPERTIES('2DCaZgzgt7fZTdOaY_qErb',#6,$,$,(#125),#314);
#316=IFCPROPERTYSINGLEVALUE('ConstraintType',$,IFCLABEL('SNET'),$);
#317=IFCPROPERTYSINGLEVALUE('ConstraintDate',$,IFCDATE('2027-07-14'),$);
#318=IFCPROPERTYSET('3_F9ieVTQjEP2yy4ryCXGo',#6,'OPS_Constraints',$,(#316,#317));
#319=IFCRELDEFINESBYPROPERTIES('3GO8OM2hQ_wanQY$k0nyzk',#6,$,$,(#109),#318);
#320=IFCPROPERTYSINGLEVALUE('Deadline',$,IFCDATE('2027-09-10'),$);
#321=IFCPROPERTYSET('397R3i6Y6lymftnbhO1yal',#6,'OPS_Constraints',$,(#320));
#322=IFCRELDEFINESBYPROPERTIES('2EOUm28VaUbCP9dOjohqAp',#6,$,$,(#125),#321);
#323=IFCPROPERTYSINGLEVALUE('MilestoneKind',$,IFCLABEL('START'),$);
#324=IFCPROPERTYSET('1o88qLigDB$j_MPN5x7XmR',#6,'OPS_Milestone',$,(#323));
#325=IFCRELDEFINESBYPROPERTIES('04CV1Jj2Rw8eFP3o5U4UKL',#6,$,$,(#81),#324);
#326=IFCPROPERTYSINGLEVALUE('MilestoneKind',$,IFCLABEL('FINISH'),$);
#327=IFCPROPERTYSINGLEVALUE('Mandatory',$,IFCBOOLEAN(.T.),$);
#328=IFCPROPERTYSET('2Qn_vmfteEQX_TdhMCsYVI',#6,'OPS_Milestone',$,(#326,#327));
#329=IFCRELDEFINESBYPROPERTIES('24B_kCxCRzDfSF0lWs$qQ3',#6,$,$,(#93),#328);
#330=IFCPROPERTYSINGLEVALUE('MilestoneKind',$,IFCLABEL('FINISH'),$);
#331=IFCPROPERTYSET('3V0zz58pCrbxve1IEF7tDR',#6,'OPS_Milestone',$,(#330));
#332=IFCRELDEFINESBYPROPERTIES('30VpJHH30ivR1kwIYCPHnB',#6,$,$,(#125),#331);
#333=IFCPROPERTYSINGLEVALUE('WorkRule',$,IFCLABEL('FIXED_WORK'),$);
#334=IFCPROPERTYSET('2Zk9NlMpoWyFrN6eR3ZcZt',#6,'OPS_WorkRule',$,(#333));
#335=IFCRELDEFINESBYPROPERTIES('3Mb8JQN9HFGp$f3EHF4xgx',#6,$,$,(#115),#334);
ENDSEC;
END-ISO-10303-21;
